<?xml version="1.0" encoding="us-ascii" standalone="no"?><svg xmlns="http://www.w3.org/2000/svg" xmlns:xlink="http://www.w3.org/1999/xlink" contentStyleType="text/css" height="447px" preserveAspectRatio="none" style="width:346px;height:447px;background:#FFFFFF;" version="1.1" viewBox="0 0 346 447" width="346px" zoomAndPan="magnify"><defs/><g><text fill="#000000" font-family="sans-serif" font-size="12" font-weight="bold" lengthAdjust="spacing" textLength="201" x="7" y="19.457">Acompanhar contratos (secretaria)</text><line style="stroke:#AAAAAA;stroke-width:1.0;" x1="7" x2="338" y1="27.5938" y2="27.5938"/><text fill="#000000" font-family="sans-serif" font-size="12" lengthAdjust="spacing" textLength="94" x="8" y="45.5508">Pesquisar Aluno:</text><text fill="#000000" font-family="sans-serif" font-size="12" lengthAdjust="spacing" textLength="3" x="107" y="45.5508">&#160;</text><line style="stroke:#000000;stroke-width:1.0;" x1="105" x2="300" y1="48.1875" y2="48.1875"/><line style="stroke:#000000;stroke-width:1.0;" x1="105" x2="105" y1="45.1875" y2="47.1875"/><line style="stroke:#000000;stroke-width:1.0;" x1="300" x2="300" y1="45.1875" y2="47.1875"/><rect fill="#EEEEEE" height="19.0938" rx="5" ry="5" style="stroke:#000000;stroke-width:2.5;" width="52" x="10.5" y="54.6875"/><text fill="#000000" font-family="sans-serif" font-size="12" lengthAdjust="spacing" textLength="39" x="17" y="69.1445">Buscar</text><line style="stroke:#AAAAAA;stroke-width:1.0;" x1="7" x2="338" y1="82.7813" y2="82.7813"/><text fill="#000000" font-family="sans-serif" font-size="12" lengthAdjust="spacing" textLength="31" x="8" y="100.7383">Aluno</text><text fill="#000000" font-family="sans-serif" font-size="12" lengthAdjust="spacing" textLength="47" x="88" y="100.7383">Contrato</text><text fill="#000000" font-family="sans-serif" font-size="12" lengthAdjust="spacing" textLength="35" x="199" y="100.7383">Status</text><text fill="#000000" font-family="sans-serif" font-size="12" lengthAdjust="spacing" textLength="27" x="263" y="100.7383">A&#231;&#227;o</text><text fill="#000000" font-family="sans-serif" font-size="12" lengthAdjust="spacing" textLength="71" x="8" y="117.832">Lucas Jesus</text><text fill="#000000" font-family="sans-serif" font-size="12" lengthAdjust="spacing" textLength="109" x="88" y="117.832">Est&#225;gio - Tech Corp</text><text fill="#000000" font-family="sans-serif" font-size="12" font-weight="bold" lengthAdjust="spacing" textLength="62" x="199" y="117.832">Em an&#225;lise</text><rect fill="#EEEEEE" height="19.0938" rx="5" ry="5" style="stroke:#000000;stroke-width:2.5;" width="68" x="265.5" y="107.875"/><text fill="#000000" font-family="sans-serif" font-size="12" lengthAdjust="spacing" textLength="50" x="274.5" y="122.332">Detalhes</text><text fill="#000000" font-family="sans-serif" font-size="12" lengthAdjust="spacing" textLength="78" x="8" y="143.9258">Caio Ximenes</text><text fill="#000000" font-family="sans-serif" font-size="12" lengthAdjust="spacing" textLength="92" x="88" y="143.9258">Est&#225;gio - Soft Inc</text><text fill="#000000" font-family="sans-serif" font-size="12" font-weight="bold" lengthAdjust="spacing" textLength="54" x="199" y="143.9258">Aprovado</text><rect fill="#EEEEEE" height="19.0938" rx="5" ry="5" style="stroke:#000000;stroke-width:2.5;" width="68" x="265.5" y="133.9688"/><text fill="#000000" font-family="sans-serif" font-size="12" lengthAdjust="spacing" textLength="50" x="274.5" y="148.4258">Detalhes</text><text fill="#000000" font-family="sans-serif" font-size="12" lengthAdjust="spacing" textLength="76" x="8" y="170.0195">Otto balestrini</text><text fill="#000000" font-family="sans-serif" font-size="12" lengthAdjust="spacing" textLength="81" x="88" y="170.0195">Estagio - cisco</text><text fill="#000000" font-family="sans-serif" font-size="12" font-weight="bold" lengthAdjust="spacing" textLength="54" x="199" y="170.0195">Pendente</text><rect fill="#EEEEEE" height="19.0938" rx="5" ry="5" style="stroke:#000000;stroke-width:2.5;" width="68" x="265.5" y="160.0625"/><text fill="#000000" font-family="sans-serif" font-size="12" lengthAdjust="spacing" textLength="50" x="274.5" y="174.5195">Detalhes</text><line style="stroke:#000000;stroke-width:1.0;" x1="7" x2="87" y1="87.2813" y2="87.2813"/><line style="stroke:#000000;stroke-width:1.0;" x1="198" x2="262" y1="130.4688" y2="130.4688"/><line style="stroke:#000000;stroke-width:1.0;" x1="87" x2="198" y1="87.2813" y2="87.2813"/><line style="stroke:#000000;stroke-width:1.0;" x1="262" x2="337" y1="130.4688" y2="130.4688"/><line style="stroke:#000000;stroke-width:1.0;" x1="198" x2="262" y1="87.2813" y2="87.2813"/><line style="stroke:#000000;stroke-width:1.0;" x1="262" x2="337" y1="87.2813" y2="87.2813"/><line style="stroke:#000000;stroke-width:1.0;" x1="7" x2="87" y1="156.5625" y2="156.5625"/><line style="stroke:#000000;stroke-width:1.0;" x1="87" x2="198" y1="156.5625" y2="156.5625"/><line style="stroke:#000000;stroke-width:1.0;" x1="7" x2="87" y1="104.375" y2="104.375"/><line style="stroke:#000000;stroke-width:1.0;" x1="198" x2="262" y1="156.5625" y2="156.5625"/><line style="stroke:#000000;stroke-width:1.0;" x1="87" x2="198" y1="104.375" y2="104.375"/><line style="stroke:#000000;stroke-width:1.0;" x1="262" x2="337" y1="156.5625" y2="156.5625"/><line style="stroke:#000000;stroke-width:1.0;" x1="198" x2="262" y1="104.375" y2="104.375"/><line style="stroke:#000000;stroke-width:1.0;" x1="262" x2="337" y1="104.375" y2="104.375"/><line style="stroke:#000000;stroke-width:1.0;" x1="7" x2="87" y1="182.6563" y2="182.6563"/><line style="stroke:#000000;stroke-width:1.0;" x1="87" x2="198" y1="182.6563" y2="182.6563"/><line style="stroke:#000000;stroke-width:1.0;" x1="198" x2="262" y1="182.6563" y2="182.6563"/><line style="stroke:#000000;stroke-width:1.0;" x1="7" x2="87" y1="130.4688" y2="130.4688"/><line style="stroke:#000000;stroke-width:1.0;" x1="262" x2="337" y1="182.6563" y2="182.6563"/><line style="stroke:#000000;stroke-width:1.0;" x1="87" x2="198" y1="130.4688" y2="130.4688"/><line style="stroke:#000000;stroke-width:1.0;" x1="7" x2="7" y1="87.2813" y2="104.375"/><line style="stroke:#000000;stroke-width:1.0;" x1="198" x2="198" y1="130.4688" y2="156.5625"/><line style="stroke:#000000;stroke-width:1.0;" x1="87" x2="87" y1="87.2813" y2="104.375"/><line style="stroke:#000000;stroke-width:1.0;" x1="262" x2="262" y1="130.4688" y2="156.5625"/><line style="stroke:#000000;stroke-width:1.0;" x1="337" x2="337" y1="130.4688" y2="156.5625"/><line style="stroke:#000000;stroke-width:1.0;" x1="198" x2="198" y1="87.2813" y2="104.375"/><line style="stroke:#000000;stroke-width:1.0;" x1="262" x2="262" y1="87.2813" y2="104.375"/><line style="stroke:#000000;stroke-width:1.0;" x1="337" x2="337" y1="87.2813" y2="104.375"/><line style="stroke:#000000;stroke-width:1.0;" x1="7" x2="7" y1="156.5625" y2="182.6563"/><line style="stroke:#000000;stroke-width:1.0;" x1="87" x2="87" y1="156.5625" y2="182.6563"/><line style="stroke:#000000;stroke-width:1.0;" x1="7" x2="7" y1="104.375" y2="130.4688"/><line style="stroke:#000000;stroke-width:1.0;" x1="198" x2="198" y1="156.5625" y2="182.6563"/><line style="stroke:#000000;stroke-width:1.0;" x1="87" x2="87" y1="104.375" y2="130.4688"/><line style="stroke:#000000;stroke-width:1.0;" x1="262" x2="262" y1="156.5625" y2="182.6563"/><line style="stroke:#000000;stroke-width:1.0;" x1="337" x2="337" y1="156.5625" y2="182.6563"/><line style="stroke:#000000;stroke-width:1.0;" x1="198" x2="198" y1="104.375" y2="130.4688"/><line style="stroke:#000000;stroke-width:1.0;" x1="262" x2="262" y1="104.375" y2="130.4688"/><line style="stroke:#000000;stroke-width:1.0;" x1="337" x2="337" y1="104.375" y2="130.4688"/><line style="stroke:#000000;stroke-width:1.0;" x1="7" x2="7" y1="130.4688" y2="156.5625"/><line style="stroke:#000000;stroke-width:1.0;" x1="87" x2="87" y1="130.4688" y2="156.5625"/><line style="stroke:#AAAAAA;stroke-width:1.0;" x1="7" x2="338" y1="188.1563" y2="188.1563"/><text fill="#000000" font-family="sans-serif" font-size="12" font-weight="bold" lengthAdjust="spacing" textLength="245" x="8" y="206.1133">Hist&#243;rico de Movimenta&#231;&#245;es (Selecionado):</text><text fill="#000000" font-family="sans-serif" font-size="12" lengthAdjust="spacing" textLength="183" x="8" y="223.207">- 10/04: Recebido pela Secretaria</text><text fill="#000000" font-family="sans-serif" font-size="12" lengthAdjust="spacing" textLength="266" x="8" y="240.3008">- 12/04: Aguardando assinatura do Coordenador</text><text fill="#000000" font-family="sans-serif" font-size="12" lengthAdjust="spacing" textLength="264" x="8" y="257.3945">- 15/04: Em an&#225;lise t&#233;cnica (Documenta&#231;&#227;o OK)</text><rect fill="#EEEEEE" height="19.0938" rx="5" ry="5" style="stroke:#000000;stroke-width:2.5;" width="220" x="10.5" y="264.5313"/><text fill="#000000" font-family="sans-serif" font-size="12" lengthAdjust="spacing" textLength="173" x="34" y="278.9883">Fazer Download do Documento</text><line style="stroke:#000000;stroke-width:1.0;" x1="6" x2="338" y1="6" y2="6"/><line style="stroke:#000000;stroke-width:1.0;" x1="6" x2="338" y1="288.125" y2="288.125"/><line style="stroke:#000000;stroke-width:1.0;" x1="6" x2="6" y1="6" y2="23.0938"/><line style="stroke:#000000;stroke-width:1.0;" x1="338" x2="338" y1="6" y2="23.0938"/><line style="stroke:#000000;stroke-width:1.0;" x1="6" x2="6" y1="183.6563" y2="191.6563"/><line style="stroke:#000000;stroke-width:1.0;" x1="338" x2="338" y1="183.6563" y2="191.6563"/><line style="stroke:#000000;stroke-width:1.0;" x1="6" x2="6" y1="78.2813" y2="86.2813"/><line style="stroke:#000000;stroke-width:1.0;" x1="338" x2="338" y1="78.2813" y2="86.2813"/><line style="stroke:#000000;stroke-width:1.0;" x1="6" x2="6" y1="23.0938" y2="31.0938"/><line style="stroke:#000000;stroke-width:1.0;" x1="338" x2="338" y1="23.0938" y2="31.0938"/><line style="stroke:#000000;stroke-width:1.0;" x1="6" x2="6" y1="191.6563" y2="288.125"/><line style="stroke:#000000;stroke-width:1.0;" x1="338" x2="338" y1="191.6563" y2="288.125"/><line style="stroke:#000000;stroke-width:1.0;" x1="6" x2="6" y1="86.2813" y2="183.6563"/><line style="stroke:#000000;stroke-width:1.0;" x1="338" x2="338" y1="86.2813" y2="183.6563"/><line style="stroke:#000000;stroke-width:1.0;" x1="6" x2="6" y1="31.0938" y2="78.2813"/><line style="stroke:#000000;stroke-width:1.0;" x1="338" x2="338" y1="31.0938" y2="78.2813"/><line style="stroke:#AAAAAA;stroke-width:1.0;" x1="6" x2="339" y1="293.625" y2="293.625"/><text fill="#000000" font-family="sans-serif" font-size="12" font-weight="bold" lengthAdjust="spacing" textLength="174" x="7" y="311.582">Acompanhar contratos (Aluno)</text><line style="stroke:#AAAAAA;stroke-width:1.0;" x1="7" x2="304" y1="319.7188" y2="319.7188"/><text fill="#000000" font-family="sans-serif" font-size="12" lengthAdjust="spacing" textLength="47" x="8" y="337.6758">Contrato</text><text fill="#000000" font-family="sans-serif" font-size="12" lengthAdjust="spacing" textLength="35" x="119" y="337.6758">Status</text><text fill="#000000" font-family="sans-serif" font-size="12" lengthAdjust="spacing" textLength="27" x="183" y="337.6758">A&#231;&#227;o</text><text fill="#000000" font-family="sans-serif" font-size="12" lengthAdjust="spacing" textLength="109" x="8" y="354.7695">Est&#225;gio - Tech Corp</text><text fill="#000000" font-family="sans-serif" font-size="12" font-weight="bold" lengthAdjust="spacing" textLength="62" x="119" y="354.7695">Em an&#225;lise</text><rect fill="#EEEEEE" height="19.0938" rx="5" ry="5" style="stroke:#000000;stroke-width:2.5;" width="68" x="185.5" y="344.8125"/><text fill="#000000" font-family="sans-serif" font-size="12" lengthAdjust="spacing" textLength="50" x="194.5" y="359.2695">Detalhes</text><line style="stroke:#000000;stroke-width:1.0;" x1="7" x2="118" y1="324.2188" y2="324.2188"/><line style="stroke:#000000;stroke-width:1.0;" x1="182" x2="257" y1="367.4063" y2="367.4063"/><line style="stroke:#000000;stroke-width:1.0;" x1="118" x2="182" y1="341.3125" y2="341.3125"/><line style="stroke:#000000;stroke-width:1.0;" x1="118" x2="182" y1="324.2188" y2="324.2188"/><line style="stroke:#000000;stroke-width:1.0;" x1="182" x2="257" y1="341.3125" y2="341.3125"/><line style="stroke:#000000;stroke-width:1.0;" x1="182" x2="257" y1="324.2188" y2="324.2188"/><line style="stroke:#000000;stroke-width:1.0;" x1="7" x2="118" y1="367.4063" y2="367.4063"/><line style="stroke:#000000;stroke-width:1.0;" x1="118" x2="182" y1="367.4063" y2="367.4063"/><line style="stroke:#000000;stroke-width:1.0;" x1="7" x2="118" y1="341.3125" y2="341.3125"/><line style="stroke:#000000;stroke-width:1.0;" x1="7" x2="7" y1="324.2188" y2="341.3125"/><line style="stroke:#000000;stroke-width:1.0;" x1="118" x2="118" y1="341.3125" y2="367.4063"/><line style="stroke:#000000;stroke-width:1.0;" x1="118" x2="118" y1="324.2188" y2="341.3125"/><line style="stroke:#000000;stroke-width:1.0;" x1="182" x2="182" y1="341.3125" y2="367.4063"/><line style="stroke:#000000;stroke-width:1.0;" x1="257" x2="257" y1="341.3125" y2="367.4063"/><line style="stroke:#000000;stroke-width:1.0;" x1="182" x2="182" y1="324.2188" y2="341.3125"/><line style="stroke:#000000;stroke-width:1.0;" x1="257" x2="257" y1="324.2188" y2="341.3125"/><line style="stroke:#000000;stroke-width:1.0;" x1="7" x2="7" y1="341.3125" y2="367.4063"/><line style="stroke:#AAAAAA;stroke-width:1.0;" x1="7" x2="304" y1="372.9063" y2="372.9063"/><text fill="#000000" font-family="sans-serif" font-size="12" font-weight="bold" lengthAdjust="spacing" textLength="245" x="8" y="390.8633">Hist&#243;rico de Movimenta&#231;&#245;es (Selecionado):</text><text fill="#000000" font-family="sans-serif" font-size="12" lengthAdjust="spacing" textLength="183" x="8" y="407.957">- 10/04: Recebido pela Secretaria</text><rect fill="#EEEEEE" height="19.0938" rx="5" ry="5" style="stroke:#000000;stroke-width:2.5;" width="132" x="11.5" y="416.0938"/><text fill="#000000" font-family="sans-serif" font-size="12" lengthAdjust="spacing" textLength="99" x="28" y="430.5508">Baixar documento</text><rect fill="#EEEEEE" height="19.0938" rx="5" ry="5" style="stroke:#000000;stroke-width:2.5;" width="148" x="150.5" y="416.0938"/><text fill="#000000" font-family="sans-serif" font-size="12" lengthAdjust="spacing" textLength="114" x="167.5" y="430.5508">Reenviar documento</text><line style="stroke:#000000;stroke-width:1.0;" x1="6" x2="304" y1="298.125" y2="298.125"/><line style="stroke:#000000;stroke-width:1.0;" x1="6" x2="304" y1="440.6875" y2="440.6875"/><line style="stroke:#000000;stroke-width:1.0;" x1="6" x2="6" y1="298.125" y2="315.2188"/><line style="stroke:#000000;stroke-width:1.0;" x1="304" x2="304" y1="315.2188" y2="323.2188"/><line style="stroke:#000000;stroke-width:1.0;" x1="304" x2="304" y1="298.125" y2="315.2188"/><line style="stroke:#000000;stroke-width:1.0;" x1="6" x2="6" y1="376.4063" y2="440.6875"/><line style="stroke:#000000;stroke-width:1.0;" x1="6" x2="6" y1="368.4063" y2="376.4063"/><line style="stroke:#000000;stroke-width:1.0;" x1="304" x2="304" y1="376.4063" y2="440.6875"/><line style="stroke:#000000;stroke-width:1.0;" x1="6" x2="6" y1="323.2188" y2="368.4063"/><line style="stroke:#000000;stroke-width:1.0;" x1="304" x2="304" y1="368.4063" y2="376.4063"/><line style="stroke:#000000;stroke-width:1.0;" x1="6" x2="6" y1="315.2188" y2="323.2188"/><line style="stroke:#000000;stroke-width:1.0;" x1="304" x2="304" y1="323.2188" y2="368.4063"/><!--SRC=[nLJBJjj05DtxAwxe9d5bweI0Ag_84mg9Y9A0AY5KtOo7P2HdRZepJXzfFWQngBgk-WNviLuxBq0Wf6vgoOyPdtjyvjpZEROEZREOE70omKyn2M_k0SpVyWN0zwk29bFKOpGWI3k3ZYmKh1H6SgN2ek_do238R_Fy2j2LzdEgB5TLarHJ13zW3ruuzjOrrxNK2ZGt-N3nYFND6h9YOxBwMWi_zXswrF93TVbpUKyRP3iLQE5CslnTqxhbtKWH132GOiprPihJlj-S0EhbNQAiz7sUkMxmkfAnj3SReZfosKSraLe-OUhJhOCFMkH4rQcX6SRq0ik5Ox53JAHrHccr8i8LZr1M46CocgxKiTJkMJ6Bvvps_LF5aduRnHonX0xDCgqEsOq_hBZGbuaKYZHhAqRhRZ4BbC9tOIM2dXHog6A2AVSV-jl6xd3b75STfMXYr8n4QvLcqmq2Z-f4XYKplTdL7EOr3ym5j_mbj188XGQ9TAFmdk3YlBW9G0k_ImCD-g8JmZWZts1fvq1s1ha9huGqpyhJV6wJz7g2_ZKp_wDDS_vxK7rb0-AjOvcodfHwfXvFB-21bmllc1ENRG2UrqrGkyjE6sRIM9O2fVroMAxi7nG6unHQSiXzXT9HL0cZy11EEeCWF8Z2439GqIkSTDkpCbXAZP0GgopemzGnJz4xmnb2BzMErnn1DYeCEaNeDpUJq6IPXdGcqJkxwgn0S4gkFoMNWuygGKqvNhfXUN3LyHho5bFUk9fQKApqA8BBGIjuxxLHSrP7_A6fy-h47p3V8gZr_W80]--></g></svg>