<svg xmlns="http://www.w3.org/2000/svg" xmlns:xlink="http://www.w3.org/1999/xlink" contentStyleType="text/css" data-diagram-type="DESCRIPTION" height="1129px" preserveAspectRatio="none" style="width:479px;height:1129px;background:#FFFFFF;" version="1.1" viewBox="0 0 479 1129" width="479px" zoomAndPan="magnify"><?plantuml 1.2026.3beta6?><defs/><g><g class="title" data-source-line="1"><text fill="#000000" font-family="sans-serif" font-size="14" font-weight="700" lengthAdjust="spacing" textLength="260.4014" x="106.0143" y="22.9951">Casos de Uso - Pacote Secretaria</text></g><!--cluster Plataforma de Est?gios--><g class="cluster" data-qualified-name="Plataforma de Est.gios" data-source-line="7" id="ent0003"><rect fill="none" height="1071" rx="2.5" ry="2.5" style="stroke:#181818;stroke-width:1;" width="367.57" x="97.86" y="44.2969"/><text fill="#000000" font-family="sans-serif" font-size="14" font-weight="700" lengthAdjust="spacing" textLength="183.3672" x="189.9614" y="59.292">Plataforma de Est&#225;gios</text></g><!--cluster Secretaria--><g class="cluster" data-qualified-name="Plataforma de Est.gios.Secretaria" data-source-line="9" id="ent0004"><rect fill="none" height="1004" rx="2.5" ry="2.5" style="stroke:#181818;stroke-width:1;" width="319.57" x="121.86" y="87.2969"/><text fill="#000000" font-family="sans-serif" font-size="14" font-weight="700" lengthAdjust="spacing" textLength="81.5664" x="240.8618" y="102.292">Secretaria</text></g><!--entity validarDoc--><g class="entity" data-qualified-name="Plataforma de Est.gios.Secretaria.validarDoc" data-source-line="10" id="ent0005"><ellipse cx="281.6453" cy="1056.2999" fill="#F1F1F1" rx="81.7153" ry="18.7431" style="stroke:#181818;stroke-width:0.5;"/><text fill="#000000" font-family="sans-serif" font-size="14" lengthAdjust="spacing" textLength="134.7021" x="214.2942" y="1060.9484">Validar Documento</text></g><!--entity reprovarJustificativa--><g class="entity" data-qualified-name="Plataforma de Est.gios.Secretaria.reprovarJustificativa" data-source-line="11" id="ent0006"><ellipse cx="281.6477" cy="971.2944" fill="#F1F1F1" rx="143.7877" ry="31.1575" style="stroke:#181818;stroke-width:0.5;"/><text fill="#000000" font-family="sans-serif" font-size="14" lengthAdjust="spacing" textLength="269.5273" x="146.884" y="975.9429">Reprovar Documento com Justificativa</text></g><!--entity pesquisarAlunos--><g class="entity" data-qualified-name="Plataforma de Est.gios.Secretaria.pesquisarAlunos" data-source-line="12" id="ent0007"><ellipse cx="281.6529" cy="887.2995" fill="#F1F1F1" rx="74.7629" ry="17.3526" style="stroke:#181818;stroke-width:0.5;"/><text fill="#000000" font-family="sans-serif" font-size="14" lengthAdjust="spacing" textLength="118.1523" x="222.5768" y="891.9479">Pesquisar alunos</text></g><!--entity cadastrarAluno--><g class="entity" data-qualified-name="Plataforma de Est.gios.Secretaria.cadastrarAluno" data-source-line="13" id="ent0008"><ellipse cx="281.6522" cy="818.3013" fill="#F1F1F1" rx="72.2222" ry="16.8444" style="stroke:#181818;stroke-width:0.5;"/><text fill="#000000" font-family="sans-serif" font-size="14" lengthAdjust="spacing" textLength="111.9248" x="225.6898" y="822.9498">Cadastrar aluno</text></g><!--entity encerrar--><g class="entity" data-qualified-name="Plataforma de Est.gios.Secretaria.encerrar" data-source-line="14" id="ent0009"><ellipse cx="281.6457" cy="748.296" fill="#F1F1F1" rx="78.4457" ry="18.0891" style="stroke:#181818;stroke-width:0.5;"/><text fill="#000000" font-family="sans-serif" font-size="14" lengthAdjust="spacing" textLength="126.998" x="218.1467" y="752.9445">Encerrar processo</text></g><!--entity pesquisarStatus--><g class="entity" data-qualified-name="Plataforma de Est.gios.Secretaria.pesquisarStatus" data-source-line="15" id="ent0010"><ellipse cx="281.6482" cy="670.2945" fill="#F1F1F1" rx="113.0382" ry="25.0076" style="stroke:#181818;stroke-width:0.5;"/><text fill="#000000" font-family="sans-serif" font-size="14" lengthAdjust="spacing" textLength="204.4355" x="179.4304" y="674.9429">Pesquisar Status da empresa</text></g><!--entity acompanhar--><g class="entity" data-qualified-name="Plataforma de Est.gios.Secretaria.acompanhar" data-source-line="16" id="ent0011"><ellipse cx="281.6538" cy="583.2936" fill="#F1F1F1" rx="123.4338" ry="27.0868" style="stroke:#181818;stroke-width:0.5;"/><text fill="#000000" font-family="sans-serif" font-size="14" lengthAdjust="spacing" textLength="226.666" x="168.3208" y="587.9421">Acompanhar Status do Processo</text></g><!--entity enviar--><g class="entity" data-qualified-name="Plataforma de Est.gios.Secretaria.enviar" data-source-line="17" id="ent0012"><ellipse cx="281.6506" cy="502.295" fill="#F1F1F1" rx="81.9406" ry="18.7881" style="stroke:#181818;stroke-width:0.5;"/><text fill="#000000" font-family="sans-serif" font-size="14" lengthAdjust="spacing" textLength="135.2285" x="214.0363" y="506.9434">Anexar Documento</text></g><!--entity download--><g class="entity" data-qualified-name="Plataforma de Est.gios.Secretaria.download" data-source-line="18" id="ent0013"><ellipse cx="281.6462" cy="422.2921" fill="#F1F1F1" rx="120.2262" ry="26.4452" style="stroke:#181818;stroke-width:0.5;"/><text fill="#000000" font-family="sans-serif" font-size="14" lengthAdjust="spacing" textLength="219.8369" x="171.7278" y="426.9406">Fazer Download do Documento</text></g><!--entity iniciar--><g class="entity" data-qualified-name="Plataforma de Est.gios.Secretaria.iniciar" data-source-line="19" id="ent0014"><ellipse cx="281.6523" cy="344.2953" fill="#F1F1F1" rx="71.2423" ry="16.6485" style="stroke:#181818;stroke-width:0.5;"/><text fill="#000000" font-family="sans-serif" font-size="14" lengthAdjust="spacing" textLength="109.4912" x="226.9067" y="348.9438">Iniciar Processo</text></g><!--entity enviarHoras--><g class="entity" data-qualified-name="Plataforma de Est.gios.Secretaria.enviarHoras" data-source-line="20" id="ent0015"><ellipse cx="281.6532" cy="276.2975" fill="#F1F1F1" rx="72.1532" ry="16.8306" style="stroke:#181818;stroke-width:0.5;"/><text fill="#000000" font-family="sans-serif" font-size="14" lengthAdjust="spacing" textLength="111.7539" x="225.7762" y="280.9459">Enviar Relat&#243;rio</text></g><!--entity login--><g class="entity" data-qualified-name="Plataforma de Est.gios.Secretaria.login" data-source-line="21" id="ent0016"><ellipse cx="281.6544" cy="210.3005" fill="#F1F1F1" rx="60.1444" ry="14.5236" style="stroke:#181818;stroke-width:0.5;"/><text fill="#000000" font-family="sans-serif" font-size="14" lengthAdjust="spacing" textLength="80.8145" x="241.2472" y="214.9489">Fazer Login</text></g><!--entity analisarDoc--><g class="entity" data-qualified-name="Plataforma de Est.gios.Secretaria.analisarDoc" data-source-line="22" id="ent0017"><ellipse cx="281.6516" cy="141.2972" fill="#F1F1F1" rx="84.8516" ry="19.3703" style="stroke:#181818;stroke-width:0.5;"/><text fill="#000000" font-family="sans-serif" font-size="14" lengthAdjust="spacing" textLength="141.9824" x="210.6603" y="145.9456">Analisar Documento</text></g><!--entity sec--><g class="entity" data-qualified-name="sec" data-source-line="5" id="ent0002"><ellipse cx="41.9297" cy="553.6469" fill="#F1F1F1" rx="8" ry="8" style="stroke:#181818;stroke-width:0.5;"/><path d="M41.9297,561.6469 L41.9297,588.6469 M28.9297,569.6469 L54.9297,569.6469 M41.9297,588.6469 L28.9297,603.6469 M41.9297,588.6469 L54.9297,603.6469" fill="none" style="stroke:#181818;stroke-width:0.5;"/><text fill="#000000" font-family="sans-serif" font-size="14" lengthAdjust="spacing" textLength="71.8594" x="6" y="618.142">Secretaria</text></g><!--link sec to validarDoc--><g class="link" data-entity-1="ent0002" data-entity-2="ent0005" data-link-type="dependency" data-source-line="28" id="lnk18"><path d="M44.47,621.6469 C48.89,722.8269 63.04,991.2569 89.86,1020.2969 C118.22,1051.0069 157.8645,1060.1734 197.4045,1061.7134" fill="none" id="sec-to-validarDoc" style="stroke:#181818;stroke-width:1;"/><polygon fill="#181818" points="203.4,1061.9469,194.5625,1057.5996,198.4038,1061.7523,194.2511,1065.5936,203.4,1061.9469" style="stroke:#181818;stroke-width:1;"/></g><!--link sec to reprovarJustificativa--><g class="link" data-entity-1="ent0002" data-entity-2="ent0006" data-link-type="dependency" data-source-line="29" id="lnk19"><path d="M43.05,621.7569 C44.09,700.9669 50.85,878.5669 89.86,922.2969 C105.45,939.7769 120.687,949.4531 142.957,957.1231" fill="none" id="sec-to-reprovarJustificativa" style="stroke:#181818;stroke-width:1;"/><polygon fill="#181818" points="148.63,959.0769,141.4231,952.3642,143.9025,957.4487,138.818,959.9281,148.63,959.0769" style="stroke:#181818;stroke-width:1;"/></g><!--link sec to pesquisarAlunos--><g class="link" data-entity-1="ent0002" data-entity-2="ent0007" data-link-type="dependency" data-source-line="30" id="lnk20"><path d="M44.38,621.8669 C47.72,688.3269 58.24,820.3969 89.86,852.2969 C120.8,883.5069 163.7712,891.8771 204.3512,892.6871" fill="none" id="sec-to-pesquisarAlunos" style="stroke:#181818;stroke-width:1;"/><polygon fill="#181818" points="210.35,892.8069,201.4316,888.6281,205.351,892.7071,201.272,896.6265,210.35,892.8069" style="stroke:#181818;stroke-width:1;"/></g><!--link sec to cadastrarAluno--><g class="link" data-entity-1="ent0002" data-entity-2="ent0008" data-link-type="dependency" data-source-line="31" id="lnk21"><path d="M46.9,621.7969 C53.07,673.7469 66.72,762.3469 89.86,784.2969 C122.21,814.9769 166.1807,822.9184 206.8707,823.5184" fill="none" id="sec-to-cadastrarAluno" style="stroke:#181818;stroke-width:1;"/><polygon fill="#181818" points="212.87,823.6069,203.93,819.4746,207.8705,823.5332,203.812,827.4737,212.87,823.6069" style="stroke:#181818;stroke-width:1;"/></g><!--link sec to encerrar--><g class="link" data-entity-1="ent0002" data-entity-2="ent0009" data-link-type="dependency" data-source-line="32" id="lnk22"><path d="M46.62,621.8269 C51.55,651.2869 63.04,690.5769 89.86,713.2969 C121.08,739.7469 159.6517,748.6022 197.8517,750.9922" fill="none" id="sec-to-encerrar" style="stroke:#181818;stroke-width:1;"/><polygon fill="#181818" points="203.84,751.3669,195.1073,746.8127,198.8498,751.0547,194.6078,754.7971,203.84,751.3669" style="stroke:#181818;stroke-width:1;"/></g><!--link sec to pesquisarStatus--><g class="link" data-entity-1="ent0002" data-entity-2="ent0010" data-link-type="dependency" data-source-line="33" id="lnk23"><path d="M78.27,620.7969 C81.99,623.6069 85.88,626.1669 89.86,628.2969 C117.53,643.0769 144.2419,651.4534 174.5719,657.6634" fill="none" id="sec-to-pesquisarStatus" style="stroke:#181818;stroke-width:1;"/><polygon fill="#181818" points="180.45,658.8669,172.4353,653.1429,175.5516,657.8639,170.8306,660.9803,180.45,658.8669" style="stroke:#181818;stroke-width:1;"/></g><!--link sec to acompanhar--><g class="link" data-entity-1="ent0002" data-entity-2="ent0011" data-link-type="dependency" data-source-line="34" id="lnk24"><path d="M78.26,583.2969 C99.8,583.2969 122.73,583.2969 151.97,583.2969" fill="none" id="sec-to-acompanhar" style="stroke:#181818;stroke-width:1;"/><polygon fill="#181818" points="157.97,583.2969,148.97,579.2969,152.97,583.2969,148.97,587.2969,157.97,583.2969" style="stroke:#181818;stroke-width:1;"/></g><!--link sec to enviar--><g class="link" data-entity-1="ent0002" data-entity-2="ent0012" data-link-type="dependency" data-source-line="35" id="lnk25"><path d="M78.21,545.6669 C81.94,542.8869 85.85,540.3669 89.86,538.2969 C124.17,520.6269 160.0098,512.3384 195.7198,507.7084" fill="none" id="sec-to-enviar" style="stroke:#181818;stroke-width:1;"/><polygon fill="#181818" points="201.67,506.9369,192.2304,504.1273,196.7115,507.5798,193.259,512.0609,201.67,506.9369" style="stroke:#181818;stroke-width:1;"/></g><!--link sec to download--><g class="link" data-entity-1="ent0002" data-entity-2="ent0013" data-link-type="dependency" data-source-line="36" id="lnk26"><path d="M48.9,544.7169 C54.9,518.8769 66.75,486.0769 89.86,466.2969 C111.29,447.9469 133.0452,438.2751 160.5452,431.6851" fill="none" id="sec-to-download" style="stroke:#181818;stroke-width:1;"/><polygon fill="#181818" points="166.38,430.2869,156.6956,428.4944,161.5177,431.4521,158.5599,436.2741,166.38,430.2869" style="stroke:#181818;stroke-width:1;"/></g><!--link sec to iniciar--><g class="link" data-entity-1="ent0002" data-entity-2="ent0014" data-link-type="dependency" data-source-line="37" id="lnk27"><path d="M46.69,544.9269 C52.68,492.0769 66.2,400.8369 89.86,378.2969 C122.38,347.3169 166.8704,339.4773 207.7404,338.9973" fill="none" id="sec-to-iniciar" style="stroke:#181818;stroke-width:1;"/><polygon fill="#181818" points="213.74,338.9269,204.6936,335.0328,208.7403,338.9856,204.7876,343.0323,213.74,338.9269" style="stroke:#181818;stroke-width:1;"/></g><!--link sec to enviarHoras--><g class="link" data-entity-1="ent0002" data-entity-2="ent0015" data-link-type="dependency" data-source-line="38" id="lnk28"><path d="M44.26,544.6769 C47.4,477.3869 57.65,342.6969 89.86,310.2969 C121.64,278.3169 166.4201,270.5346 207.6101,270.3446" fill="none" id="sec-to-enviarHoras" style="stroke:#181818;stroke-width:1;"/><polygon fill="#181818" points="213.61,270.3169,204.5916,266.3584,208.6101,270.3399,204.6285,274.3583,213.61,270.3169" style="stroke:#181818;stroke-width:1;"/></g><!--link sec to login--><g class="link" data-entity-1="ent0002" data-entity-2="ent0016" data-link-type="dependency" data-source-line="39" id="lnk29"><path d="M42.72,544.9469 C43.12,465.0569 48.7,284.6869 89.86,242.2969 C124.95,206.1569 178.4281,201.0651 221.6681,203.3151" fill="none" id="sec-to-login" style="stroke:#181818;stroke-width:1;"/><polygon fill="#181818" points="227.66,203.6269,218.88,199.1646,222.6668,203.3671,218.4643,207.1538,227.66,203.6269" style="stroke:#181818;stroke-width:1;"/></g><!--link sec to analisarDoc--><g class="link" data-entity-1="ent0002" data-entity-2="ent0017" data-link-type="dependency" data-source-line="40" id="lnk30"><path d="M44.84,544.6469 C49.94,448.6069 65.2,204.9069 89.86,178.2969 C117.26,148.7169 154.6706,139.0533 193.1506,136.7633" fill="none" id="sec-to-analisarDoc" style="stroke:#181818;stroke-width:1;"/><polygon fill="#181818" points="199.14,136.4069,189.9183,132.9486,194.1488,136.7039,190.3935,140.9345,199.14,136.4069" style="stroke:#181818;stroke-width:1;"/></g><?plantuml-src RP9VRjim3CRVTGeYxxd2WA9hiGrx21fixuJCk4HjoHFfx4_Hm_GCFK8lDicsB3afa0VduuyVAPBAsX7SedY1Xk27UDZ30QrNWYFPG8g1qNHqKb0FWTj7XOO3MMNlZ3on6p1W3mFQ9spfg7-ZNmgZQpio1gtw0BlYjGCK4BB6h1Ji3XqgddpeCNLn9_h-shAN7JmRipXlFPxD63rGelmJEsumm6TlnvwS-gd2ULQZMCW76e8_roXOtyEtKPHFR57vFBSN5d0JAJu7abyZIpJ2RdIfpPWpPF5cqWfzYmsAXanFiCtQ11VspbaA2OtrBOdCD2tgHnqS5NMCkqEWVWWak6rc3fV4c_ZW0TrZbUdXK1V3bQYo7FsvcZ2vCzVGFVwZnFnsdSSc-MxvPecKZA-ERRJOrkTPh6UIwi03nHjvVmjSL__Y0yfb2zzzosw2klHLFoCUXLmz11SvtOfvcNun0_RxJ_KLPUdZsyZHool8-iN2ixnkzYf_MLpMgwsKt6d--UywtYpaGMxvUM9PcmUq5Yc3-0y0?></g></svg>