<svg xmlns="http://www.w3.org/2000/svg" xmlns:xlink="http://www.w3.org/1999/xlink" contentStyleType="text/css" data-diagram-type="DESCRIPTION" height="969px" preserveAspectRatio="none" style="width:878px;height:969px;background:#FFFFFF;" version="1.1" viewBox="0 0 878 969" width="878px" zoomAndPan="magnify"><?plantuml 1.2026.3beta6?><defs/><g><g class="title" data-source-line="1"><text fill="#000000" font-family="sans-serif" font-size="14" font-weight="700" lengthAdjust="spacing" textLength="260.4014" x="305.4493" y="22.9951">Casos de Uso - Pacote Secretaria</text></g><!--cluster Plataforma de Est?gios--><g class="cluster" data-qualified-name="Plataforma de Est.gios" data-source-line="7" id="ent0003"><rect fill="none" height="911" rx="2.5" ry="2.5" style="stroke:#181818;stroke-width:1;" width="739.44" x="124.86" y="44.2969"/><text fill="#000000" font-family="sans-serif" font-size="14" font-weight="700" lengthAdjust="spacing" textLength="183.3672" x="402.8964" y="59.292">Plataforma de Est&#225;gios</text></g><!--cluster Secretaria--><g class="cluster" data-qualified-name="Plataforma de Est.gios.Secretaria" data-source-line="9" id="ent0004"><rect fill="none" height="844" rx="2.5" ry="2.5" style="stroke:#181818;stroke-width:1;" width="691.44" x="148.86" y="87.2969"/><text fill="#000000" font-family="sans-serif" font-size="14" font-weight="700" lengthAdjust="spacing" textLength="81.5664" x="453.7968" y="102.292">Secretaria</text></g><!--entity login--><g class="entity" data-qualified-name="Plataforma de Est.gios.Secretaria.login" data-source-line="10" id="ent0005"><ellipse cx="680.5144" cy="567.3005" fill="#F1F1F1" rx="60.1444" ry="14.5236" style="stroke:#181818;stroke-width:0.5;"/><text fill="#000000" font-family="sans-serif" font-size="14" lengthAdjust="spacing" textLength="80.8145" x="640.1072" y="571.9489">Fazer Login</text></g><!--entity enviar--><g class="entity" data-qualified-name="Plataforma de Est.gios.Secretaria.enviar" data-source-line="11" id="ent0006"><ellipse cx="680.5106" cy="852.295" fill="#F1F1F1" rx="81.9406" ry="18.7881" style="stroke:#181818;stroke-width:0.5;"/><text fill="#000000" font-family="sans-serif" font-size="14" lengthAdjust="spacing" textLength="135.2285" x="612.8963" y="856.9434">Anexar Documento</text></g><!--entity validarDoc--><g class="entity" data-qualified-name="Plataforma de Est.gios.Secretaria.validarDoc" data-source-line="13" id="ent0007"><ellipse cx="288.2853" cy="438.2999" fill="#F1F1F1" rx="81.7153" ry="18.7431" style="stroke:#181818;stroke-width:0.5;"/><text fill="#000000" font-family="sans-serif" font-size="14" lengthAdjust="spacing" textLength="134.7021" x="220.9342" y="442.9484">Validar Documento</text></g><!--entity analisarDoc--><g class="entity" data-qualified-name="Plataforma de Est.gios.Secretaria.analisarDoc" data-source-line="14" id="ent0008"><ellipse cx="288.2916" cy="365.2972" fill="#F1F1F1" rx="84.8516" ry="19.3703" style="stroke:#181818;stroke-width:0.5;"/><text fill="#000000" font-family="sans-serif" font-size="14" lengthAdjust="spacing" textLength="141.9824" x="217.3003" y="369.9456">Analisar Documento</text></g><!--entity acompanhar--><g class="entity" data-qualified-name="Plataforma de Est.gios.Secretaria.acompanhar" data-source-line="15" id="ent0009"><ellipse cx="288.2938" cy="239.2936" fill="#F1F1F1" rx="123.4338" ry="27.0868" style="stroke:#181818;stroke-width:0.5;"/><text fill="#000000" font-family="sans-serif" font-size="14" lengthAdjust="spacing" textLength="226.666" x="174.9608" y="243.9421">Acompanhar Status do Processo</text></g><!--entity pesquisarAlunos--><g class="entity" data-qualified-name="Plataforma de Est.gios.Secretaria.pesquisarAlunos" data-source-line="16" id="ent0010"><ellipse cx="288.2929" cy="509.2995" fill="#F1F1F1" rx="74.7629" ry="17.3526" style="stroke:#181818;stroke-width:0.5;"/><text fill="#000000" font-family="sans-serif" font-size="14" lengthAdjust="spacing" textLength="118.1523" x="229.2168" y="513.9479">Pesquisar alunos</text></g><!--entity cadastrarAluno--><g class="entity" data-qualified-name="Plataforma de Est.gios.Secretaria.cadastrarAluno" data-source-line="17" id="ent0011"><ellipse cx="288.2922" cy="578.3013" fill="#F1F1F1" rx="72.2222" ry="16.8444" style="stroke:#181818;stroke-width:0.5;"/><text fill="#000000" font-family="sans-serif" font-size="14" lengthAdjust="spacing" textLength="111.9248" x="232.3298" y="582.9498">Cadastrar aluno</text></g><!--entity pesquisarStatus--><g class="entity" data-qualified-name="Plataforma de Est.gios.Secretaria.pesquisarStatus" data-source-line="18" id="ent0012"><ellipse cx="288.2882" cy="655.2945" fill="#F1F1F1" rx="113.0382" ry="25.0076" style="stroke:#181818;stroke-width:0.5;"/><text fill="#000000" font-family="sans-serif" font-size="14" lengthAdjust="spacing" textLength="204.4355" x="186.0704" y="659.9429">Pesquisar Status da empresa</text></g><!--entity iniciar--><g class="entity" data-qualified-name="Plataforma de Est.gios.Secretaria.iniciar" data-source-line="19" id="ent0013"><ellipse cx="288.2923" cy="732.2953" fill="#F1F1F1" rx="71.2423" ry="16.6485" style="stroke:#181818;stroke-width:0.5;"/><text fill="#000000" font-family="sans-serif" font-size="14" lengthAdjust="spacing" textLength="109.4912" x="233.5467" y="736.9438">Iniciar Processo</text></g><!--entity enviarHoras--><g class="entity" data-qualified-name="Plataforma de Est.gios.Secretaria.enviarHoras" data-source-line="20" id="ent0014"><ellipse cx="288.2932" cy="800.2975" fill="#F1F1F1" rx="72.1532" ry="16.8306" style="stroke:#181818;stroke-width:0.5;"/><text fill="#000000" font-family="sans-serif" font-size="14" lengthAdjust="spacing" textLength="111.7539" x="232.4162" y="804.9459">Enviar Relat&#243;rio</text></g><!--entity reprovarJustificativa--><g class="entity" data-qualified-name="Plataforma de Est.gios.Secretaria.reprovarJustificativa" data-source-line="22" id="ent0015"><ellipse cx="680.5077" cy="424.2944" fill="#F1F1F1" rx="143.7877" ry="31.1575" style="stroke:#181818;stroke-width:0.5;"/><text fill="#000000" font-family="sans-serif" font-size="14" lengthAdjust="spacing" textLength="269.5273" x="545.744" y="428.9429">Reprovar Documento com Justificativa</text></g><!--entity encerrar--><g class="entity" data-qualified-name="Plataforma de Est.gios.Secretaria.encerrar" data-source-line="23" id="ent0016"><ellipse cx="680.5057" cy="140.296" fill="#F1F1F1" rx="78.4457" ry="18.0891" style="stroke:#181818;stroke-width:0.5;"/><text fill="#000000" font-family="sans-serif" font-size="14" lengthAdjust="spacing" textLength="126.998" x="617.0067" y="144.9445">Encerrar processo</text></g><!--entity download--><g class="entity" data-qualified-name="Plataforma de Est.gios.Secretaria.download" data-source-line="24" id="ent0017"><ellipse cx="680.5062" cy="237.2921" fill="#F1F1F1" rx="120.2262" ry="26.4452" style="stroke:#181818;stroke-width:0.5;"/><text fill="#000000" font-family="sans-serif" font-size="14" lengthAdjust="spacing" textLength="219.8369" x="570.5878" y="241.9406">Fazer Download do Documento</text></g><!--entity sec--><g class="entity" data-qualified-name="sec" data-source-line="5" id="ent0002"><ellipse cx="41.9297" cy="521.6469" fill="#F1F1F1" rx="8" ry="8" style="stroke:#181818;stroke-width:0.5;"/><path d="M41.9297,529.6469 L41.9297,556.6469 M28.9297,537.6469 L54.9297,537.6469 M41.9297,556.6469 L28.9297,571.6469 M41.9297,556.6469 L54.9297,571.6469" fill="none" style="stroke:#181818;stroke-width:0.5;"/><text fill="#000000" font-family="sans-serif" font-size="14" lengthAdjust="spacing" textLength="71.8594" x="6" y="586.142">Secretaria</text></g><!--link sec to validarDoc--><g class="link" data-entity-1="ent0002" data-entity-2="ent0007" data-link-type="dependency" data-source-line="29" id="lnk18"><path d="M71.64,512.7969 C84.06,498.6769 99.69,483.8369 116.86,474.2969 C145.41,458.4369 174.2875,450.5179 204.9775,445.5379" fill="none" id="sec-to-validarDoc" style="stroke:#181818;stroke-width:1;"/><polygon fill="#181818" points="210.9,444.5769,201.3755,442.0701,205.9646,445.3777,202.6569,449.9668,210.9,444.5769" style="stroke:#181818;stroke-width:1;"/></g><!--link sec to analisarDoc--><g class="link" data-entity-1="ent0002" data-entity-2="ent0008" data-link-type="dependency" data-source-line="30" id="lnk19"><path d="M51.89,512.8669 C61.9,478.6269 81.55,429.8069 116.86,402.2969 C141.58,383.0369 168.2439,374.2356 198.2939,369.4756" fill="none" id="sec-to-analisarDoc" style="stroke:#181818;stroke-width:1;"/><polygon fill="#181818" points="204.22,368.5369,194.705,365.9942,199.2816,369.3191,195.9566,373.8957,204.22,368.5369" style="stroke:#181818;stroke-width:1;"/></g><!--link sec to acompanhar--><g class="link" data-entity-1="ent0002" data-entity-2="ent0009" data-link-type="dependency" data-source-line="31" id="lnk20"><path d="M46.85,512.7069 C53.55,464.5069 71.27,381.8869 116.86,328.2969 C143.03,297.5269 176.9936,278.2554 211.3836,264.0654" fill="none" id="sec-to-acompanhar" style="stroke:#181818;stroke-width:1;"/><polygon fill="#181818" points="216.93,261.7769,207.0847,261.5121,212.308,263.684,210.1361,268.9073,216.93,261.7769" style="stroke:#181818;stroke-width:1;"/></g><!--link sec to pesquisarAlunos--><g class="link" data-entity-1="ent0002" data-entity-2="ent0010" data-link-type="dependency" data-source-line="32" id="lnk21"><path d="M78.27,543.9769 C87.86,542.0569 98.24,540.0369 107.86,538.2969 C146.67,531.2769 184.432,525.1234 218.982,519.7234" fill="none" id="sec-to-pesquisarAlunos" style="stroke:#181818;stroke-width:1;"/><polygon fill="#181818" points="224.91,518.7969,215.4003,516.2346,219.97,519.569,216.6356,524.1387,224.91,518.7969" style="stroke:#181818;stroke-width:1;"/></g><!--link sec to cadastrarAluno--><g class="link" data-entity-1="ent0002" data-entity-2="ent0011" data-link-type="dependency" data-source-line="33" id="lnk22"><path d="M78.2,555.1969 C115.74,559.3369 170.0062,565.3384 216.1962,570.4384" fill="none" id="sec-to-cadastrarAluno" style="stroke:#181818;stroke-width:1;"/><polygon fill="#181818" points="222.16,571.0969,213.6533,566.1333,217.1902,570.5481,212.7754,574.085,222.16,571.0969" style="stroke:#181818;stroke-width:1;"/></g><!--link sec to pesquisarStatus--><g class="link" data-entity-1="ent0002" data-entity-2="ent0012" data-link-type="dependency" data-source-line="34" id="lnk23"><path d="M78.26,585.8169 C89.81,595.5569 103.2,605.3869 116.86,612.2969 C141.64,624.8369 164.4981,632.4864 191.2081,638.9464" fill="none" id="sec-to-pesquisarStatus" style="stroke:#181818;stroke-width:1;"/><polygon fill="#181818" points="197.04,640.3569,189.2325,634.3533,192.1801,639.1815,187.3519,642.1291,197.04,640.3569" style="stroke:#181818;stroke-width:1;"/></g><!--link sec to iniciar--><g class="link" data-entity-1="ent0002" data-entity-2="ent0013" data-link-type="dependency" data-source-line="35" id="lnk24"><path d="M52.02,589.6869 C62.09,623.5469 81.75,671.5569 116.86,698.2969 C145.18,719.8669 177.6402,728.1761 210.8302,731.5161" fill="none" id="sec-to-iniciar" style="stroke:#181818;stroke-width:1;"/><polygon fill="#181818" points="216.8,732.1169,208.2457,727.2358,211.8251,731.6162,207.4447,735.1956,216.8,732.1169" style="stroke:#181818;stroke-width:1;"/></g><!--link sec to enviarHoras--><g class="link" data-entity-1="ent0002" data-entity-2="ent0014" data-link-type="dependency" data-source-line="36" id="lnk25"><path d="M44.95,589.8469 C49.67,638.4969 65.29,721.2269 116.86,766.2969 C143.78,789.8269 176.3224,798.3393 209.9324,801.2493" fill="none" id="sec-to-enviarHoras" style="stroke:#181818;stroke-width:1;"/><polygon fill="#181818" points="215.91,801.7669,207.2886,797.0055,210.9286,801.3356,206.5985,804.9756,215.91,801.7669" style="stroke:#181818;stroke-width:1;"/></g><!--link validarDoc to login--><g class="link" data-entity-1="ent0007" data-entity-2="ent0005" data-link-type="dependency" data-source-line="38" id="lnk26"><path d="M341.29,452.9869 C363.12,459.3069 388.73,466.9269 411.73,474.2969 C496.56,501.4769 589.6584,534.6742 640.2284,552.9842" fill="none" id="validarDoc-to-login" style="stroke:#181818;stroke-width:1;stroke-dasharray:7,7;"/><polygon fill="#181818" points="645.87,555.0269,638.7694,548.2018,641.1687,553.3247,636.0458,555.7239,645.87,555.0269" style="stroke:#181818;stroke-width:1;"/><text fill="#000000" font-family="sans-serif" font-size="13" lengthAdjust="spacing" textLength="63.0068" x="442.73" y="482.3638">&#171;include&#187;</text></g><!--link analisarDoc to login--><g class="link" data-entity-1="ent0008" data-entity-2="ent0005" data-link-type="dependency" data-source-line="39" id="lnk27"><path d="M373.01,363.2069 C416.94,366.2069 469.26,376.7269 506.73,406.2969 C532.34,426.5069 515.59,448.4469 536.73,473.2969 C568.55,510.7169 613.5021,536.4173 645.1321,551.7673" fill="none" id="analisarDoc-to-login" style="stroke:#181818;stroke-width:1;stroke-dasharray:7,7;"/><polygon fill="#181818" points="650.53,554.3869,644.1795,546.8588,646.0317,552.2039,640.6867,554.0561,650.53,554.3869" style="stroke:#181818;stroke-width:1;"/><text fill="#000000" font-family="sans-serif" font-size="13" lengthAdjust="spacing" textLength="63.0068" x="442.73" y="371.3638">&#171;include&#187;</text></g><!--link acompanhar to login--><g class="link" data-entity-1="ent0009" data-entity-2="ent0005" data-link-type="dependency" data-source-line="40" id="lnk28"><path d="M338.36,264.4569 C368.23,279.7569 407.16,299.6769 441.73,317.2969 C470.59,332.0069 486.6,324.9069 506.73,350.2969 C541.67,394.3969 504.31,427.3069 536.73,473.2969 C564.6,512.8369 609.3778,537.6987 642.2278,552.3087" fill="none" id="acompanhar-to-login" style="stroke:#181818;stroke-width:1;stroke-dasharray:7,7;"/><polygon fill="#181818" points="647.71,554.7469,641.1121,547.4347,643.1415,552.715,637.8611,554.7444,647.71,554.7469" style="stroke:#181818;stroke-width:1;"/><text fill="#000000" font-family="sans-serif" font-size="13" lengthAdjust="spacing" textLength="63.0068" x="442.73" y="313.3638">&#171;include&#187;</text></g><!--link pesquisarAlunos to login--><g class="link" data-entity-1="ent0010" data-entity-2="ent0005" data-link-type="dependency" data-source-line="41" id="lnk29"><path d="M341.97,521.6869 C371.22,528.2269 408.35,535.9769 441.73,541.2969 C503.45,551.1269 568.8037,557.8537 617.1137,562.1637" fill="none" id="pesquisarAlunos-to-login" style="stroke:#181818;stroke-width:1;stroke-dasharray:7,7;"/><polygon fill="#181818" points="623.09,562.6969,614.4811,557.9129,618.1098,562.2526,613.7702,565.8813,623.09,562.6969" style="stroke:#181818;stroke-width:1;"/><text fill="#000000" font-family="sans-serif" font-size="13" lengthAdjust="spacing" textLength="63.0068" x="442.73" y="537.3638">&#171;include&#187;</text></g><!--link cadastrarAluno to login--><g class="link" data-entity-1="ent0011" data-entity-2="ent0005" data-link-type="dependency" data-source-line="42" id="lnk30"><path d="M348.48,587.8869 C376.64,591.9869 410.83,596.2769 441.73,598.2969 C470.55,600.1769 477.95,600.8569 506.73,598.2969 C551.05,594.3569 595.1537,586.0862 629.9037,578.6262" fill="none" id="cadastrarAluno-to-login" style="stroke:#181818;stroke-width:1;stroke-dasharray:7,7;"/><polygon fill="#181818" points="635.77,577.3669,626.1309,575.345,630.8814,578.4163,627.8101,583.1668,635.77,577.3669" style="stroke:#181818;stroke-width:1;"/><text fill="#000000" font-family="sans-serif" font-size="13" lengthAdjust="spacing" textLength="63.0068" x="442.73" y="594.3638">&#171;include&#187;</text></g><!--link pesquisarStatus to login--><g class="link" data-entity-1="ent0012" data-entity-2="ent0005" data-link-type="dependency" data-source-line="43" id="lnk31"><path d="M392.06,645.1169 C428.54,640.4469 469.72,633.9769 506.73,625.2969 C557.09,613.4769 608.0101,595.2512 642.2701,582.0712" fill="none" id="pesquisarStatus-to-login" style="stroke:#181818;stroke-width:1;stroke-dasharray:7,7;"/><polygon fill="#181818" points="647.87,579.9169,638.0339,579.4151,643.2034,581.7121,640.9064,586.8816,647.87,579.9169" style="stroke:#181818;stroke-width:1;"/><text fill="#000000" font-family="sans-serif" font-size="13" lengthAdjust="spacing" textLength="63.0068" x="442.73" y="621.3638">&#171;include&#187;</text></g><!--link iniciar to login--><g class="link" data-entity-1="ent0013" data-entity-2="ent0005" data-link-type="dependency" data-source-line="44" id="lnk32"><path d="M337.86,719.9069 C360.46,713.8569 387.62,706.1969 411.73,698.2969 C454.64,684.2369 465.73,681.2169 506.73,662.2969 C562.21,636.6869 619.1738,603.6918 651.7038,584.1918" fill="none" id="iniciar-to-login" style="stroke:#181818;stroke-width:1;stroke-dasharray:7,7;"/><polygon fill="#181818" points="656.85,581.1069,647.0741,582.3034,652.5615,583.6776,651.1873,589.165,656.85,581.1069" style="stroke:#181818;stroke-width:1;"/><text fill="#000000" font-family="sans-serif" font-size="13" lengthAdjust="spacing" textLength="63.0068" x="442.73" y="658.3638">&#171;include&#187;</text></g><!--link enviarHoras to login--><g class="link" data-entity-1="ent0014" data-entity-2="ent0005" data-link-type="dependency" data-source-line="45" id="lnk33"><path d="M341.74,788.6569 C363.75,783.0269 389.38,775.4769 411.73,766.2969 C522.36,720.8369 624.541,623.5129 661.551,585.9129" fill="none" id="enviarHoras-to-login" style="stroke:#181818;stroke-width:1;stroke-dasharray:7,7;"/><polygon fill="#181818" points="665.76,581.6369,656.5959,585.245,662.2525,585.2003,662.2973,590.8569,665.76,581.6369" style="stroke:#181818;stroke-width:1;"/><text fill="#000000" font-family="sans-serif" font-size="13" lengthAdjust="spacing" textLength="63.0068" x="442.73" y="715.3638">&#171;include&#187;</text></g><!--link iniciar to enviar--><g class="link" data-entity-1="ent0013" data-entity-2="ent0006" data-link-type="dependency" data-source-line="47" id="lnk34"><path d="M352.88,739.5369 C373.41,744.4369 395.12,752.6269 411.73,766.2969 C434.74,785.2569 417.26,809.2669 441.73,826.2969 C489.96,859.8669 551.529,864.5948 602.319,861.8148" fill="none" id="iniciar-to-enviar" style="stroke:#181818;stroke-width:1;stroke-dasharray:7,7;"/><polygon fill="#181818" points="608.31,861.4869,599.1048,857.9847,603.3175,861.7601,599.5421,865.9728,608.31,861.4869" style="stroke:#181818;stroke-width:1;"/><text fill="#000000" font-family="sans-serif" font-size="13" lengthAdjust="spacing" textLength="63.0068" x="442.73" y="822.3638">&#171;include&#187;</text></g><!--link enviarHoras to enviar--><g class="link" data-entity-1="ent0014" data-entity-2="ent0006" data-link-type="dependency" data-source-line="48" id="lnk35"><path d="M310.55,816.4069 C338.76,836.6669 390.92,870.3569 441.73,883.2969 C507.49,900.0369 580.169,884.6406 628.469,869.9706" fill="none" id="enviarHoras-to-enviar" style="stroke:#181818;stroke-width:1;stroke-dasharray:7,7;"/><polygon fill="#181818" points="634.21,868.2269,624.436,867.0151,629.4258,869.68,626.7609,874.6698,634.21,868.2269" style="stroke:#181818;stroke-width:1;"/><text fill="#000000" font-family="sans-serif" font-size="13" lengthAdjust="spacing" textLength="63.0068" x="442.73" y="879.3638">&#171;include&#187;</text></g><!--reverse link validarDoc to reprovarJustificativa--><g class="link" data-entity-1="ent0007" data-entity-2="ent0015" data-link-type="dependency" data-source-line="50" id="lnk36"><path d="M375.1962,435.2122 C423.8062,433.4722 481.28,431.4069 538.15,429.3669" fill="none" id="validarDoc-backto-reprovarJustificativa" style="stroke:#181818;stroke-width:1;stroke-dasharray:7,7;"/><polygon fill="#181818" points="369.2,435.4269,378.3373,439.1024,374.1968,435.248,378.0512,431.1075,369.2,435.4269" style="stroke:#181818;stroke-width:1;"/><text fill="#000000" font-family="sans-serif" font-size="13" lengthAdjust="spacing" textLength="61.1851" x="443.73" y="427.3638">&#171;extend&#187;</text></g><!--reverse link acompanhar to encerrar--><g class="link" data-entity-1="ent0009" data-entity-2="ent0016" data-link-type="dependency" data-source-line="51" id="lnk37"><path d="M375.9657,217.3114 C452.8657,197.8014 560.53,170.4869 626.54,153.7369" fill="none" id="acompanhar-backto-encerrar" style="stroke:#181818;stroke-width:1;stroke-dasharray:7,7;"/><polygon fill="#181818" points="370.15,218.7869,379.8573,220.4508,374.9965,217.5573,377.89,212.6965,370.15,218.7869" style="stroke:#181818;stroke-width:1;"/><text fill="#000000" font-family="sans-serif" font-size="13" lengthAdjust="spacing" textLength="61.1851" x="443.73" y="183.3638">&#171;extend&#187;</text></g><!--reverse link acompanhar to download--><g class="link" data-entity-1="ent0009" data-entity-2="ent0017" data-link-type="dependency" data-source-line="52" id="lnk38"><path d="M417.1788,235.6949 C427.5088,235.4849 431.8,235.4269 441.73,235.2969 C480.32,234.7869 522.45,234.9169 560.37,235.2869" fill="none" id="acompanhar-backto-download" style="stroke:#181818;stroke-width:1;stroke-dasharray:7,7;"/><polygon fill="#181818" points="411.18,235.8169,420.2594,239.6331,416.179,235.7153,420.0968,231.6348,411.18,235.8169" style="stroke:#181818;stroke-width:1;"/><text fill="#000000" font-family="sans-serif" font-size="13" lengthAdjust="spacing" textLength="61.1851" x="443.73" y="231.3638">&#171;extend&#187;</text></g><!--reverse link analisarDoc to download--><g class="link" data-entity-1="ent0008" data-entity-2="ent0017" data-link-type="dependency" data-source-line="53" id="lnk39"><path d="M326.995,344.3562 C357.265,328.0862 398.8,307.3369 441.73,292.2969 C488.21,276.0069 541.52,263.1769 585.86,254.0169" fill="none" id="analisarDoc-backto-download" style="stroke:#181818;stroke-width:1;stroke-dasharray:7,7;"/><polygon fill="#181818" points="321.71,347.1969,331.5312,346.4592,326.1141,344.8297,327.7437,339.4126,321.71,347.1969" style="stroke:#181818;stroke-width:1;"/><text fill="#000000" font-family="sans-serif" font-size="13" lengthAdjust="spacing" textLength="61.1851" x="443.73" y="269.3638">&#171;extend&#187;</text></g><?plantuml-src XP91Rjim44NtFCN0U_i0XM4WI5AqHHT6Z7O_eCOA4ObKoP6RDkXXUeOU8HSh9P4cALi9u8Ny-UPp-6TOSKDmYyuug0Y-EGDhsACqJ70WQOdHAXGD7HdOW5Nr8qEbB4bMHWltf7I75bleK3vXJGV-vVs6OzHrGqAWP6DXbRnMW0uSII7E5Aps3J8UZMrnwEBUyUlVMXctWXSXWdFfyI9wxu7Eon_nDrduQcgbH-zc-4h7DvgUqSATaNrBcit8a3ufj29Htx5HrGLscbGlvdvUT1Se1hbafMaxr8-UFZ1oxpCsiBT6adEXx4oagZsv7_ru1JQz7bBmO1V5cr5Bz2rMwDX6UeHbr4RucdDi1u7QpfB3yfBfE1L-rahwmChUrIGcwdvC5Hx8J_FrdrLvrf-CHPS5_a2TDQSyHl1Hm9VUiJegYQnEKqysWCL9VgSaExo-orkZeCwtvCxyr8t1QfX3ERygd8W_OlZvCbYlT_a6H2cVz5bBOupIV61Hdytc0W_HHps67FyNQQRkOBFPJPiF7s2xLLesVKMxdSYwNMRIcYuXizSiSkNhthSBUxZ4XTSldcTfB3A5oLJmZijLA0zxkzbStyknXfwPT5NcEbJ4fNmJYdiuWx8fBbB_0G00?></g></svg>