<svg xmlns="http://www.w3.org/2000/svg" xmlns:xlink="http://www.w3.org/1999/xlink" contentStyleType="text/css" data-diagram-type="DESCRIPTION" height="627px" preserveAspectRatio="none" style="width:799px;height:627px;background:#FFFFFF;" version="1.1" viewBox="0 0 799 627" width="799px" zoomAndPan="magnify"><?plantuml 1.2026.3beta6?><defs/><g><g class="title" data-source-line="1"><text fill="#000000" font-family="sans-serif" font-size="14" font-weight="700" lengthAdjust="spacing" textLength="224.0205" x="284.0397" y="22.9951">Casos de Uso - Pacote Aluno</text></g><!--cluster Plataforma de Est?gios--><g class="cluster" data-qualified-name="Plataforma de Est.gios" data-source-line="7" id="ent0003"><rect fill="none" height="569" rx="2.5" ry="2.5" style="stroke:#181818;stroke-width:1;" width="692.32" x="92.78" y="44.2969"/><text fill="#000000" font-family="sans-serif" font-size="14" font-weight="700" lengthAdjust="spacing" textLength="183.3672" x="347.2564" y="59.292">Plataforma de Est&#225;gios</text></g><!--cluster M?dulo do Aluno--><g class="cluster" data-qualified-name="Plataforma de Est.gios.M.dulo do Aluno" data-source-line="9" id="ent0004"><rect fill="none" height="502" rx="2.5" ry="2.5" style="stroke:#181818;stroke-width:1;" width="644.32" x="116.78" y="87.2969"/><text fill="#000000" font-family="sans-serif" font-size="14" font-weight="700" lengthAdjust="spacing" textLength="132.5283" x="372.6758" y="102.292">M&#243;dulo do Aluno</text></g><!--entity login--><g class="entity" data-qualified-name="Plataforma de Est.gios.M.dulo do Aluno.login" data-source-line="10" id="ent0005"><ellipse cx="624.8744" cy="310.3005" fill="#F1F1F1" rx="60.1444" ry="14.5236" style="stroke:#181818;stroke-width:0.5;"/><text fill="#000000" font-family="sans-serif" font-size="14" lengthAdjust="spacing" textLength="80.8145" x="584.4672" y="314.9489">Fazer Login</text></g><!--entity enviar--><g class="entity" data-qualified-name="Plataforma de Est.gios.M.dulo do Aluno.enviar" data-source-line="11" id="ent0006"><ellipse cx="624.8706" cy="192.295" fill="#F1F1F1" rx="81.9406" ry="18.7881" style="stroke:#181818;stroke-width:0.5;"/><text fill="#000000" font-family="sans-serif" font-size="14" lengthAdjust="spacing" textLength="135.2285" x="557.2563" y="196.9434">Anexar Documento</text></g><!--entity iniciar--><g class="entity" data-qualified-name="Plataforma de Est.gios.M.dulo do Aluno.iniciar" data-source-line="13" id="ent0007"><ellipse cx="256.2123" cy="196.2953" fill="#F1F1F1" rx="71.2423" ry="16.6485" style="stroke:#181818;stroke-width:0.5;"/><text fill="#000000" font-family="sans-serif" font-size="14" lengthAdjust="spacing" textLength="109.4912" x="201.4667" y="200.9438">Iniciar Processo</text></g><!--entity enviarHoras--><g class="entity" data-qualified-name="Plataforma de Est.gios.M.dulo do Aluno.enviarHoras" data-source-line="14" id="ent0008"><ellipse cx="256.2106" cy="292.293" fill="#F1F1F1" rx="101.2806" ry="22.6561" style="stroke:#181818;stroke-width:0.5;"/><text fill="#000000" font-family="sans-serif" font-size="14" lengthAdjust="spacing" textLength="178.876" x="166.7726" y="296.9414">Enviar Relat&#243;rio de Horas</text></g><!--entity acompanhar--><g class="entity" data-qualified-name="Plataforma de Est.gios.M.dulo do Aluno.acompanhar" data-source-line="15" id="ent0009"><ellipse cx="256.2138" cy="424.2936" fill="#F1F1F1" rx="123.4338" ry="27.0868" style="stroke:#181818;stroke-width:0.5;"/><text fill="#000000" font-family="sans-serif" font-size="14" lengthAdjust="spacing" textLength="226.666" x="142.8808" y="428.9421">Acompanhar Status do Processo</text></g><!--entity download--><g class="entity" data-qualified-name="Plataforma de Est.gios.M.dulo do Aluno.download" data-source-line="17" id="ent0010"><ellipse cx="624.8662" cy="547.2921" fill="#F1F1F1" rx="120.2262" ry="26.4452" style="stroke:#181818;stroke-width:0.5;"/><text fill="#000000" font-family="sans-serif" font-size="14" lengthAdjust="spacing" textLength="219.8369" x="514.9478" y="551.9406">Fazer Download do Documento</text></g><!--entity visualizarDoc--><g class="entity" data-qualified-name="Plataforma de Est.gios.M.dulo do Aluno.visualizarDoc" data-source-line="18" id="ent0011"><ellipse cx="624.8702" cy="465.3009" fill="#F1F1F1" rx="89.7702" ry="20.354" style="stroke:#181818;stroke-width:0.5;"/><text fill="#000000" font-family="sans-serif" font-size="14" lengthAdjust="spacing" textLength="153.2207" x="548.2599" y="469.9494">Visualizar Documento</text></g><!--entity reportarErro--><g class="entity" data-qualified-name="Plataforma de Est.gios.M.dulo do Aluno.reportarErro" data-source-line="19" id="ent0012"><ellipse cx="624.873" cy="394.2935" fill="#F1F1F1" rx="65.483" ry="15.4966" style="stroke:#181818;stroke-width:0.5;"/><text fill="#000000" font-family="sans-serif" font-size="14" lengthAdjust="spacing" textLength="94.7461" x="577.5" y="398.9419">Reportar Erro</text></g><!--entity aluno--><g class="entity" data-qualified-name="aluno" data-source-line="5" id="ent0002"><ellipse cx="25.8892" cy="262.6469" fill="#F1F1F1" rx="8" ry="8" style="stroke:#181818;stroke-width:0.5;"/><path d="M25.8892,270.6469 L25.8892,297.6469 M12.8892,278.6469 L38.8892,278.6469 M25.8892,297.6469 L12.8892,312.6469 M25.8892,297.6469 L38.8892,312.6469" fill="none" style="stroke:#181818;stroke-width:0.5;"/><text fill="#000000" font-family="sans-serif" font-size="14" lengthAdjust="spacing" textLength="39.7783" x="6" y="327.142">Aluno</text></g><!--link aluno to iniciar--><g class="link" data-entity-1="ent0002" data-entity-2="ent0007" data-link-type="dependency" data-source-line="24" id="lnk13"><path d="M46.11,276.9269 C56.98,268.7869 71.1,259.0869 84.78,252.2969 C123.83,232.8969 165.3532,219.5522 200.2132,210.0022" fill="none" id="aluno-to-iniciar" style="stroke:#181818;stroke-width:1;"/><polygon fill="#181818" points="206,208.4169,196.263,206.937,201.1777,209.738,198.3767,214.6527,206,208.4169" style="stroke:#181818;stroke-width:1;"/></g><!--link aluno to enviarHoras--><g class="link" data-entity-1="ent0002" data-entity-2="ent0008" data-link-type="dependency" data-source-line="25" id="lnk14"><path d="M45.96,292.2969 C70.13,292.2969 107.6,292.2969 148.68,292.2969" fill="none" id="aluno-to-enviarHoras" style="stroke:#181818;stroke-width:1;"/><polygon fill="#181818" points="154.68,292.2969,145.68,288.2969,149.68,292.2969,145.68,296.2969,154.68,292.2969" style="stroke:#181818;stroke-width:1;"/></g><!--link aluno to acompanhar--><g class="link" data-entity-1="ent0002" data-entity-2="ent0009" data-link-type="dependency" data-source-line="26" id="lnk15"><path d="M46.1,306.3569 C57.2,314.2869 71.55,324.1869 84.78,332.2969 C124.49,356.6269 165.7773,378.8169 200.2173,396.5769" fill="none" id="aluno-to-acompanhar" style="stroke:#181818;stroke-width:1;"/><polygon fill="#181818" points="205.55,399.3269,199.3843,391.6468,201.1061,397.0352,195.7176,398.7571,205.55,399.3269" style="stroke:#181818;stroke-width:1;"/></g><!--link iniciar to login--><g class="link" data-entity-1="ent0007" data-entity-2="ent0005" data-link-type="dependency" data-source-line="28" id="lnk16"><path d="M322.17,202.9769 C366.03,208.6869 424.8,218.6869 474.65,235.2969 C521.96,251.0569 567.9075,276.4224 596.3475,293.3924" fill="none" id="iniciar-to-login" style="stroke:#181818;stroke-width:1;stroke-dasharray:7,7;"/><polygon fill="#181818" points="601.5,296.4669,595.8209,288.4202,597.2063,293.9048,591.7217,295.2902,601.5,296.4669" style="stroke:#181818;stroke-width:1;"/><text fill="#000000" font-family="sans-serif" font-size="13" lengthAdjust="spacing" textLength="63.0068" x="410.65" y="214.3638">&#171;include&#187;</text></g><!--link enviarHoras to login--><g class="link" data-entity-1="ent0008" data-entity-2="ent0005" data-link-type="dependency" data-source-line="29" id="lnk17"><path d="M338.88,305.6469 C361.71,308.8069 386.59,311.7169 409.65,313.2969 C462.53,316.9269 516.9159,315.8521 560.0759,313.9421" fill="none" id="enviarHoras-to-login" style="stroke:#181818;stroke-width:1;stroke-dasharray:7,7;"/><polygon fill="#181818" points="566.07,313.6769,556.902,310.0787,561.0749,313.8979,557.2556,318.0709,566.07,313.6769" style="stroke:#181818;stroke-width:1;"/><text fill="#000000" font-family="sans-serif" font-size="13" lengthAdjust="spacing" textLength="63.0068" x="410.65" y="309.3638">&#171;include&#187;</text></g><!--link acompanhar to login--><g class="link" data-entity-1="ent0009" data-entity-2="ent0005" data-link-type="dependency" data-source-line="30" id="lnk18"><path d="M328.78,402.0469 C406.1,378.0069 520.5805,342.4082 580.9205,323.6482" fill="none" id="acompanhar-to-login" style="stroke:#181818;stroke-width:1;stroke-dasharray:7,7;"/><polygon fill="#181818" points="586.65,321.8669,576.8682,320.7192,581.8754,323.3513,579.2433,328.3585,586.65,321.8669" style="stroke:#181818;stroke-width:1;"/><text fill="#000000" font-family="sans-serif" font-size="13" lengthAdjust="spacing" textLength="63.0068" x="410.65" y="353.3638">&#171;include&#187;</text></g><!--link iniciar to enviar--><g class="link" data-entity-1="ent0007" data-entity-2="ent0006" data-link-type="dependency" data-source-line="32" id="lnk19"><path d="M317.52,187.5169 C345.48,183.8769 379.19,180.0869 409.65,178.2969 C438.48,176.5969 445.79,176.9469 474.65,178.2969 C499.47,179.4569 520.5681,181.1265 544.7481,183.4765" fill="none" id="iniciar-to-enviar" style="stroke:#181818;stroke-width:1;stroke-dasharray:7,7;"/><polygon fill="#181818" points="550.72,184.0569,542.1491,179.205,545.7434,183.5732,541.3753,187.1675,550.72,184.0569" style="stroke:#181818;stroke-width:1;"/><text fill="#000000" font-family="sans-serif" font-size="13" lengthAdjust="spacing" textLength="63.0068" x="410.65" y="173.3638">&#171;include&#187;</text></g><!--link enviarHoras to enviar--><g class="link" data-entity-1="ent0008" data-entity-2="ent0006" data-link-type="dependency" data-source-line="33" id="lnk20"><path d="M347.7,282.2869 C387.17,276.6469 433.7,268.2769 474.65,256.2969 C515.5,244.3469 554.6879,226.8585 584.3779,212.3685" fill="none" id="enviarHoras-to-enviar" style="stroke:#181818;stroke-width:1;stroke-dasharray:7,7;"/><polygon fill="#181818" points="589.77,209.7369,579.9275,210.0895,585.2766,211.9299,583.4362,217.279,589.77,209.7369" style="stroke:#181818;stroke-width:1;"/><text fill="#000000" font-family="sans-serif" font-size="13" lengthAdjust="spacing" textLength="63.0068" x="410.65" y="252.3638">&#171;include&#187;</text></g><!--reverse link acompanhar to download--><g class="link" data-entity-1="ent0009" data-entity-2="ent0010" data-link-type="dependency" data-source-line="35" id="lnk21"><path d="M317.5101,451.1615 C346.2601,463.5515 376.76,475.9369 409.65,487.2969 C453.55,502.4569 503.47,516.6169 544.08,527.3669" fill="none" id="acompanhar-backto-download" style="stroke:#181818;stroke-width:1;stroke-dasharray:7,7;"/><polygon fill="#181818" points="312,448.7869,318.6821,456.0222,316.5918,450.7657,321.8482,448.6754,312,448.7869" style="stroke:#181818;stroke-width:1;"/><text fill="#000000" font-family="sans-serif" font-size="13" lengthAdjust="spacing" textLength="61.1851" x="411.65" y="483.3638">&#171;extend&#187;</text></g><!--reverse link acompanhar to visualizarDoc--><g class="link" data-entity-1="ent0009" data-entity-2="ent0011" data-link-type="dependency" data-source-line="36" id="lnk22"><path d="M346.533,445.6347 C368.823,450.2947 387.11,453.4769 409.65,456.2969 C450.55,461.4169 496.16,463.7869 534.74,464.8369" fill="none" id="acompanhar-backto-visualizarDoc" style="stroke:#181818;stroke-width:1;stroke-dasharray:7,7;"/><polygon fill="#181818" points="340.66,444.4069,348.651,450.164,345.5542,445.4301,350.2881,442.3333,340.66,444.4069" style="stroke:#181818;stroke-width:1;"/><text fill="#000000" font-family="sans-serif" font-size="13" lengthAdjust="spacing" textLength="61.1851" x="411.65" y="452.3638">&#171;extend&#187;</text></g><!--reverse link acompanhar to reportarErro--><g class="link" data-entity-1="ent0009" data-entity-2="ent0012" data-link-type="dependency" data-source-line="37" id="lnk23"><path d="M381.9494,431.2691 C414.0594,431.7091 442.75,430.7869 474.65,427.2969 C511.18,423.3069 551.86,413.9769 581.51,406.2469" fill="none" id="acompanhar-backto-reportarErro" style="stroke:#181818;stroke-width:1;stroke-dasharray:7,7;"/><polygon fill="#181818" points="375.95,431.1869,384.8943,435.3098,380.9495,431.2554,385.004,427.3106,375.95,431.1869" style="stroke:#181818;stroke-width:1;"/><text fill="#000000" font-family="sans-serif" font-size="13" lengthAdjust="spacing" textLength="61.1851" x="411.65" y="423.3638">&#171;extend&#187;</text></g><?plantuml-src XP5HIiD048RVznH3tfi3I0aKMr5GA2twFcocwU9s9-nkQctnC9wXH-Z5p2OXcwXLo4FoppV_FpFnock2MtJi82TuTWmJMA9aJp3JbM6XQUF1CrXLR3taofBqYermhygKQ7479SfNB6ZjtskhK4PJQ182fMSBIMEJ03h0nb3q22HBZHutR7SOqXVENpuBnIw1an2TBIHFbtDUQOQSeVCwYSgHH5SNx_185XwvKAR9qE4jbcU63cXXphBQaV7j76Js2gs8r8DHibPWQLcISosbMZ5IYwODLbGFVJbRnM7cUxRe1gxDzo1Vygv4iwtxrXvzvS8MenZi2V5zgpc_6SsOXvxn1dbNYHqlobMerV77ilk-KEkHNr79rjVqmjeMj9qI1F4XmjFyC9XCiluOKHck6zNXDbqFf6dM_XQuWUbK6QchdB9C31okCj7lAZBAQJt_2VeL6aPDqxG_SOFHmPF9n_C4Q7JSFydXTKVW5m00?></g></svg>