<svg xmlns="http://www.w3.org/2000/svg" xmlns:xlink="http://www.w3.org/1999/xlink" contentStyleType="text/css" data-diagram-type="DESCRIPTION" height="730px" preserveAspectRatio="none" style="width:459px;height:730px;background:#FFFFFF;" version="1.1" viewBox="0 0 459 730" width="459px" zoomAndPan="magnify"><?plantuml 1.2026.3beta6?><defs/><g><g class="title" data-source-line="1"><text fill="#000000" font-family="sans-serif" font-size="14" font-weight="700" lengthAdjust="spacing" textLength="281.5449" x="85.3875" y="22.9951">Casos de Uso - Pacote Coordena&#231;&#227;o</text></g><!--cluster Plataforma de Est?gios--><g class="cluster" data-qualified-name="Plataforma de Est.gios" data-source-line="7" id="ent0003"><rect fill="none" height="672" rx="2.5" ry="2.5" style="stroke:#181818;stroke-width:1;" width="326.86" x="118.46" y="44.2969"/><text fill="#000000" font-family="sans-serif" font-size="14" font-weight="700" lengthAdjust="spacing" textLength="183.3672" x="190.2064" y="59.292">Plataforma de Est&#225;gios</text></g><!--cluster Coordena??o--><g class="cluster" data-qualified-name="Plataforma de Est.gios.Coordena..o" data-source-line="9" id="ent0004"><rect fill="none" height="605" rx="2.5" ry="2.5" style="stroke:#181818;stroke-width:1;" width="278.86" x="142.46" y="87.2969"/><text fill="#000000" font-family="sans-serif" font-size="14" font-weight="700" lengthAdjust="spacing" textLength="102.71" x="230.535" y="102.292">Coordena&#231;&#227;o</text></g><!--entity validarHoras--><g class="entity" data-qualified-name="Plataforma de Est.gios.Coordena..o.validarHoras" data-source-line="10" id="ent0005"><ellipse cx="281.8851" cy="661.2919" fill="#F1F1F1" rx="65.3251" ry="15.465" style="stroke:#181818;stroke-width:0.5;"/><text fill="#000000" font-family="sans-serif" font-size="14" lengthAdjust="spacing" textLength="94.3291" x="234.7206" y="665.9403">Validar Horas</text></g><!--entity acompanhar--><g class="entity" data-qualified-name="Plataforma de Est.gios.Coordena..o.acompanhar" data-source-line="11" id="ent0006"><ellipse cx="281.8938" cy="583.2936" fill="#F1F1F1" rx="123.4338" ry="27.0868" style="stroke:#181818;stroke-width:0.5;"/><text fill="#000000" font-family="sans-serif" font-size="14" lengthAdjust="spacing" textLength="226.666" x="168.5608" y="587.9421">Acompanhar Status do Processo</text></g><!--entity enviar--><g class="entity" data-qualified-name="Plataforma de Est.gios.Coordena..o.enviar" data-source-line="12" id="ent0007"><ellipse cx="281.8906" cy="502.295" fill="#F1F1F1" rx="81.9406" ry="18.7881" style="stroke:#181818;stroke-width:0.5;"/><text fill="#000000" font-family="sans-serif" font-size="14" lengthAdjust="spacing" textLength="135.2285" x="214.2763" y="506.9434">Anexar Documento</text></g><!--entity download--><g class="entity" data-qualified-name="Plataforma de Est.gios.Coordena..o.download" data-source-line="13" id="ent0008"><ellipse cx="281.8862" cy="422.2921" fill="#F1F1F1" rx="120.2262" ry="26.4452" style="stroke:#181818;stroke-width:0.5;"/><text fill="#000000" font-family="sans-serif" font-size="14" lengthAdjust="spacing" textLength="219.8369" x="171.9678" y="426.9406">Fazer Download do Documento</text></g><!--entity iniciar--><g class="entity" data-qualified-name="Plataforma de Est.gios.Coordena..o.iniciar" data-source-line="14" id="ent0009"><ellipse cx="281.8923" cy="344.2953" fill="#F1F1F1" rx="71.2423" ry="16.6485" style="stroke:#181818;stroke-width:0.5;"/><text fill="#000000" font-family="sans-serif" font-size="14" lengthAdjust="spacing" textLength="109.4912" x="227.1467" y="348.9438">Iniciar Processo</text></g><!--entity enviarHoras--><g class="entity" data-qualified-name="Plataforma de Est.gios.Coordena..o.enviarHoras" data-source-line="15" id="ent0010"><ellipse cx="281.8932" cy="276.2975" fill="#F1F1F1" rx="72.1532" ry="16.8306" style="stroke:#181818;stroke-width:0.5;"/><text fill="#000000" font-family="sans-serif" font-size="14" lengthAdjust="spacing" textLength="111.7539" x="226.0162" y="280.9459">Enviar Relat&#243;rio</text></g><!--entity login--><g class="entity" data-qualified-name="Plataforma de Est.gios.Coordena..o.login" data-source-line="16" id="ent0011"><ellipse cx="281.8944" cy="210.3005" fill="#F1F1F1" rx="60.1444" ry="14.5236" style="stroke:#181818;stroke-width:0.5;"/><text fill="#000000" font-family="sans-serif" font-size="14" lengthAdjust="spacing" textLength="80.8145" x="241.4872" y="214.9489">Fazer Login</text></g><!--entity analisarDoc--><g class="entity" data-qualified-name="Plataforma de Est.gios.Coordena..o.analisarDoc" data-source-line="17" id="ent0012"><ellipse cx="281.8916" cy="141.2972" fill="#F1F1F1" rx="84.8516" ry="19.3703" style="stroke:#181818;stroke-width:0.5;"/><text fill="#000000" font-family="sans-serif" font-size="14" lengthAdjust="spacing" textLength="141.9824" x="210.9003" y="145.9456">Analisar Documento</text></g><!--entity coord--><g class="entity" data-qualified-name="coord" data-source-line="5" id="ent0002"><ellipse cx="52.228" cy="353.6469" fill="#F1F1F1" rx="8" ry="8" style="stroke:#181818;stroke-width:0.5;"/><path d="M52.228,361.6469 L52.228,388.6469 M39.228,369.6469 L65.228,369.6469 M52.228,388.6469 L39.228,403.6469 M52.228,388.6469 L65.228,403.6469" fill="none" style="stroke:#181818;stroke-width:0.5;"/><text fill="#000000" font-family="sans-serif" font-size="14" lengthAdjust="spacing" textLength="92.4561" x="6" y="418.142">Coordena&#231;&#227;o</text></g><!--link coord to validarHoras--><g class="link" data-entity-1="ent0002" data-entity-2="ent0005" data-link-type="dependency" data-source-line="21" id="lnk13"><path d="M57.16,421.9169 C64.24,483.5569 81.19,600.1269 110.46,628.2969 C138.69,655.4669 176.1943,663.3287 212.1943,664.6987" fill="none" id="coord-to-validarHoras" style="stroke:#181818;stroke-width:1;"/><polygon fill="#181818" points="218.19,664.9269,209.3486,660.5875,213.1936,664.7367,209.0444,668.5817,218.19,664.9269" style="stroke:#181818;stroke-width:1;"/></g><!--link coord to acompanhar--><g class="link" data-entity-1="ent0002" data-entity-2="ent0006" data-link-type="dependency" data-source-line="22" id="lnk14"><path d="M57.39,421.6569 C63.24,456.8969 77.23,508.1069 110.46,538.2969 C127.56,553.8369 143.6495,562.3815 165.9495,569.1615" fill="none" id="coord-to-acompanhar" style="stroke:#181818;stroke-width:1;"/><polygon fill="#181818" points="171.69,570.9069,164.2427,564.4619,166.9062,569.4524,161.9156,572.1159,171.69,570.9069" style="stroke:#181818;stroke-width:1;"/></g><!--link coord to enviar--><g class="link" data-entity-1="ent0002" data-entity-2="ent0007" data-link-type="dependency" data-source-line="23" id="lnk15"><path d="M71.44,421.7969 C80.92,437.8769 94,455.3269 110.46,466.2969 C137.26,484.1569 165.3294,492.477 195.8994,497.167" fill="none" id="coord-to-enviar" style="stroke:#181818;stroke-width:1;"/><polygon fill="#181818" points="201.83,498.0769,193.5407,492.7583,196.8878,497.3187,192.3275,500.6658,201.83,498.0769" style="stroke:#181818;stroke-width:1;"/></g><!--link coord to download--><g class="link" data-entity-1="ent0002" data-entity-2="ent0008" data-link-type="dependency" data-source-line="24" id="lnk16"><path d="M98.75,391.0969 C123.8,395.3869 149.926,399.8648 180.136,405.0348" fill="none" id="coord-to-download" style="stroke:#181818;stroke-width:1;"/><polygon fill="#181818" points="186.05,406.0469,177.8537,400.586,181.1216,405.2035,176.5042,408.4714,186.05,406.0469" style="stroke:#181818;stroke-width:1;"/></g><!--link coord to iniciar--><g class="link" data-entity-1="ent0002" data-entity-2="ent0009" data-link-type="dependency" data-source-line="25" id="lnk17"><path d="M98.75,375.4969 C134.57,369.3669 178.776,361.7893 217.386,355.1793" fill="none" id="coord-to-iniciar" style="stroke:#181818;stroke-width:1;"/><polygon fill="#181818" points="223.3,354.1669,213.7541,351.7429,218.3717,355.0106,215.104,359.6282,223.3,354.1669" style="stroke:#181818;stroke-width:1;"/></g><!--link coord to enviarHoras--><g class="link" data-entity-1="ent0002" data-entity-2="ent0010" data-link-type="dependency" data-source-line="26" id="lnk18"><path d="M75.52,344.7869 C84.77,331.9769 96.6,318.8169 110.46,310.2969 C140.27,291.9569 172.1059,283.9972 204.5159,279.9672" fill="none" id="coord-to-enviarHoras" style="stroke:#181818;stroke-width:1;"/><polygon fill="#181818" points="210.47,279.2269,201.0452,276.368,205.5082,279.8438,202.0324,284.3069,210.47,279.2269" style="stroke:#181818;stroke-width:1;"/></g><!--link coord to login--><g class="link" data-entity-1="ent0002" data-entity-2="ent0011" data-link-type="dependency" data-source-line="27" id="lnk19"><path d="M58.56,344.6569 C65.12,312.3669 79.47,267.6369 110.46,242.2969 C141.45,216.9469 180.2552,209.5575 216.1352,208.0575" fill="none" id="coord-to-login" style="stroke:#181818;stroke-width:1;"/><polygon fill="#181818" points="222.13,207.8069,212.9708,204.1863,217.1344,208.0157,213.3049,212.1793,222.13,207.8069" style="stroke:#181818;stroke-width:1;"/></g><!--link coord to analisarDoc--><g class="link" data-entity-1="ent0002" data-entity-2="ent0012" data-link-type="dependency" data-source-line="28" id="lnk20"><path d="M52.76,344.8469 C54.4,298.5569 64.49,221.6469 110.46,178.2969 C133.47,156.5869 160.1616,147.2941 190.7116,142.8841" fill="none" id="coord-to-analisarDoc" style="stroke:#181818;stroke-width:1;"/><polygon fill="#181818" points="196.65,142.0269,187.1708,139.3538,191.7013,142.7412,188.3138,147.2717,196.65,142.0269" style="stroke:#181818;stroke-width:1;"/></g><?plantuml-src PL5BJiCm4Dtx5AFiUmKa14KWiQYeO3zofgbLnnDvfkLJSHZ4WWDmX5mCvqETjCh6UlFcVIRgr1FSeB10IV0i30jOeMLDA7CiAM3xqtwpyRHHK8Reggr2wI9PTHoCx5neC68D3TeTLhJMzoJPZJ5Kden1gnoXcCaLW0AsGumvKQ5OULJSSAonIxCKRRygnrB0qPXH_aBeQFP25YLDNj2x4YFSSqJfBGu3qWEPTssvRZ1i4tMjgFlKdM4LsPB840rFZCbMeBUqSSjsNrFGWKZXuAQaE_oWZlCQF6FPwSxvvJZ96m_1sIGnztS3c5dBtWUUA5se_OrkwdxMReZmo9KBFSbthscDT1EvA88Zd53pcJxJ_nrOBAxcHypmv4OP7E-HWLFX3FsNEzywDnY2Jmnpn3y0?></g></svg>