<svg xmlns="http://www.w3.org/2000/svg" xmlns:xlink="http://www.w3.org/1999/xlink" contentStyleType="text/css" data-diagram-type="DESCRIPTION" height="969px" preserveAspectRatio="none" style="width:859px;height:969px;background:#FFFFFF;" version="1.1" viewBox="0 0 859 969" width="859px" zoomAndPan="magnify"><?plantuml 1.2026.3beta6?><defs/><g><g class="title" data-source-line="1"><text fill="#000000" font-family="sans-serif" font-size="14" font-weight="700" lengthAdjust="spacing" textLength="260.4014" x="295.9093" y="22.9951">Casos de Uso - Pacote Secretaria</text></g><!--cluster Plataforma de Est?gios--><g class="cluster" data-qualified-name="Plataforma de Est.gios" data-source-line="7" id="ent0003"><rect fill="none" height="911" rx="2.5" ry="2.5" style="stroke:#181818;stroke-width:1;" width="720.36" x="124.86" y="44.2969"/><text fill="#000000" font-family="sans-serif" font-size="14" font-weight="700" lengthAdjust="spacing" textLength="183.3672" x="393.3564" y="59.292">Plataforma de Est&#225;gios</text></g><!--cluster Secretaria--><g class="cluster" data-qualified-name="Plataforma de Est.gios.Secretaria" data-source-line="9" id="ent0004"><rect fill="none" height="844" rx="2.5" ry="2.5" style="stroke:#181818;stroke-width:1;" width="672.36" x="148.86" y="87.2969"/><text fill="#000000" font-family="sans-serif" font-size="14" font-weight="700" lengthAdjust="spacing" textLength="81.5664" x="444.2568" y="102.292">Secretaria</text></g><!--entity login--><g class="entity" data-qualified-name="Plataforma de Est.gios.Secretaria.login" data-source-line="10" id="ent0005"><ellipse cx="670.9744" cy="567.3005" fill="#F1F1F1" rx="60.1444" ry="14.5236" style="stroke:#181818;stroke-width:0.5;"/><text fill="#000000" font-family="sans-serif" font-size="14" lengthAdjust="spacing" textLength="80.8145" x="630.5672" y="571.9489">Fazer Login</text></g><!--entity enviar--><g class="entity" data-qualified-name="Plataforma de Est.gios.Secretaria.enviar" data-source-line="11" id="ent0006"><ellipse cx="670.9706" cy="852.295" fill="#F1F1F1" rx="81.9406" ry="18.7881" style="stroke:#181818;stroke-width:0.5;"/><text fill="#000000" font-family="sans-serif" font-size="14" lengthAdjust="spacing" textLength="135.2285" x="603.3563" y="856.9434">Anexar Documento</text></g><!--entity validarDoc--><g class="entity" data-qualified-name="Plataforma de Est.gios.Secretaria.validarDoc" data-source-line="13" id="ent0007"><ellipse cx="288.2888" cy="437.2966" fill="#F1F1F1" rx="73.3488" ry="17.0698" style="stroke:#181818;stroke-width:0.5;"/><text fill="#000000" font-family="sans-serif" font-size="14" lengthAdjust="spacing" textLength="114.7002" x="230.9387" y="441.9451">Validar Contrato</text></g><!--entity analisarDoc--><g class="entity" data-qualified-name="Plataforma de Est.gios.Secretaria.analisarDoc" data-source-line="14" id="ent0008"><ellipse cx="288.2867" cy="367.2962" fill="#F1F1F1" rx="76.3467" ry="17.6693" style="stroke:#181818;stroke-width:0.5;"/><text fill="#000000" font-family="sans-serif" font-size="14" lengthAdjust="spacing" textLength="121.9805" x="227.2964" y="371.9446">Analisar Contrato</text></g><!--entity acompanhar--><g class="entity" data-qualified-name="Plataforma de Est.gios.Secretaria.acompanhar" data-source-line="15" id="ent0009"><ellipse cx="288.2938" cy="242.2936" fill="#F1F1F1" rx="123.4338" ry="27.0868" style="stroke:#181818;stroke-width:0.5;"/><text fill="#000000" font-family="sans-serif" font-size="14" lengthAdjust="spacing" textLength="226.666" x="174.9608" y="246.9421">Acompanhar Status do Processo</text></g><!--entity pesquisarAlunos--><g class="entity" data-qualified-name="Plataforma de Est.gios.Secretaria.pesquisarAlunos" data-source-line="16" id="ent0010"><ellipse cx="288.2929" cy="506.2995" fill="#F1F1F1" rx="74.7629" ry="17.3526" style="stroke:#181818;stroke-width:0.5;"/><text fill="#000000" font-family="sans-serif" font-size="14" lengthAdjust="spacing" textLength="118.1523" x="229.2168" y="510.9479">Pesquisar alunos</text></g><!--entity cadastrarAluno--><g class="entity" data-qualified-name="Plataforma de Est.gios.Secretaria.cadastrarAluno" data-source-line="17" id="ent0011"><ellipse cx="288.2922" cy="575.3013" fill="#F1F1F1" rx="72.2222" ry="16.8444" style="stroke:#181818;stroke-width:0.5;"/><text fill="#000000" font-family="sans-serif" font-size="14" lengthAdjust="spacing" textLength="111.9248" x="232.3298" y="579.9498">Cadastrar aluno</text></g><!--entity pesquisarStatus--><g class="entity" data-qualified-name="Plataforma de Est.gios.Secretaria.pesquisarStatus" data-source-line="18" id="ent0012"><ellipse cx="288.2882" cy="652.2945" fill="#F1F1F1" rx="113.0382" ry="25.0076" style="stroke:#181818;stroke-width:0.5;"/><text fill="#000000" font-family="sans-serif" font-size="14" lengthAdjust="spacing" textLength="204.4355" x="186.0704" y="656.9429">Pesquisar Status da empresa</text></g><!--entity iniciar--><g class="entity" data-qualified-name="Plataforma de Est.gios.Secretaria.iniciar" data-source-line="19" id="ent0013"><ellipse cx="288.2923" cy="729.2953" fill="#F1F1F1" rx="71.2423" ry="16.6485" style="stroke:#181818;stroke-width:0.5;"/><text fill="#000000" font-family="sans-serif" font-size="14" lengthAdjust="spacing" textLength="109.4912" x="233.5467" y="733.9438">Iniciar Processo</text></g><!--entity enviarHoras--><g class="entity" data-qualified-name="Plataforma de Est.gios.Secretaria.enviarHoras" data-source-line="20" id="ent0014"><ellipse cx="288.2932" cy="797.2975" fill="#F1F1F1" rx="72.1532" ry="16.8306" style="stroke:#181818;stroke-width:0.5;"/><text fill="#000000" font-family="sans-serif" font-size="14" lengthAdjust="spacing" textLength="111.7539" x="232.4162" y="801.9459">Enviar Relat&#243;rio</text></g><!--entity reprovarJustificativa--><g class="entity" data-qualified-name="Plataforma de Est.gios.Secretaria.reprovarJustificativa" data-source-line="22" id="ent0015"><ellipse cx="670.9665" cy="424.2962" fill="#F1F1F1" rx="134.2465" ry="29.2493" style="stroke:#181818;stroke-width:0.5;"/><text fill="#000000" font-family="sans-serif" font-size="14" lengthAdjust="spacing" textLength="249.5254" x="546.2039" y="428.9446">Reprovar Contrato com Justificativa</text></g><!--entity encerrar--><g class="entity" data-qualified-name="Plataforma de Est.gios.Secretaria.encerrar" data-source-line="23" id="ent0016"><ellipse cx="670.9657" cy="140.296" fill="#F1F1F1" rx="78.4457" ry="18.0891" style="stroke:#181818;stroke-width:0.5;"/><text fill="#000000" font-family="sans-serif" font-size="14" lengthAdjust="spacing" textLength="126.998" x="607.4667" y="144.9445">Encerrar processo</text></g><!--entity download--><g class="entity" data-qualified-name="Plataforma de Est.gios.Secretaria.download" data-source-line="24" id="ent0017"><ellipse cx="670.9747" cy="236.2978" fill="#F1F1F1" rx="110.9047" ry="24.5809" style="stroke:#181818;stroke-width:0.5;"/><text fill="#000000" font-family="sans-serif" font-size="14" lengthAdjust="spacing" textLength="199.835" x="571.0572" y="240.9463">Fazer Download do Contrato</text></g><!--entity sec--><g class="entity" data-qualified-name="sec" data-source-line="5" id="ent0002"><ellipse cx="41.9297" cy="518.6469" fill="#F1F1F1" rx="8" ry="8" style="stroke:#181818;stroke-width:0.5;"/><path d="M41.9297,526.6469 L41.9297,553.6469 M28.9297,534.6469 L54.9297,534.6469 M41.9297,553.6469 L28.9297,568.6469 M41.9297,553.6469 L54.9297,568.6469" fill="none" style="stroke:#181818;stroke-width:0.5;"/><text fill="#000000" font-family="sans-serif" font-size="14" lengthAdjust="spacing" textLength="71.8594" x="6" y="583.142">Secretaria</text></g><!--link sec to validarDoc--><g class="link" data-entity-1="ent0002" data-entity-2="ent0007" data-link-type="dependency" data-source-line="29" id="lnk18"><path d="M71.59,509.6969 C84,495.5569 99.63,480.7369 116.86,471.2969 C147.29,454.6169 178.8247,446.8754 210.8847,442.5154" fill="none" id="sec-to-validarDoc" style="stroke:#181818;stroke-width:1;"/><polygon fill="#181818" points="216.83,441.7069,207.3731,438.9562,211.8756,442.3806,208.4511,446.8832,216.83,441.7069" style="stroke:#181818;stroke-width:1;"/></g><!--link sec to analisarDoc--><g class="link" data-entity-1="ent0002" data-entity-2="ent0008" data-link-type="dependency" data-source-line="30" id="lnk19"><path d="M52.23,509.8869 C62.4,476.2969 82.09,428.8569 116.86,402.2969 C143.74,381.7569 173.7748,373.2289 205.7448,369.2989" fill="none" id="sec-to-analisarDoc" style="stroke:#181818;stroke-width:1;"/><polygon fill="#181818" points="211.7,368.5669,202.2792,365.6948,206.7374,369.1769,203.2553,373.6351,211.7,368.5669" style="stroke:#181818;stroke-width:1;"/></g><!--link sec to acompanhar--><g class="link" data-entity-1="ent0002" data-entity-2="ent0009" data-link-type="dependency" data-source-line="31" id="lnk20"><path d="M47.4,509.7069 C54.63,462.8869 72.82,383.8169 116.86,332.2969 C143.39,301.2669 177.8029,281.6879 212.3529,267.2679" fill="none" id="sec-to-acompanhar" style="stroke:#181818;stroke-width:1;"/><polygon fill="#181818" points="217.89,264.9569,208.0437,264.732,213.2758,266.8827,211.125,272.1148,217.89,264.9569" style="stroke:#181818;stroke-width:1;"/></g><!--link sec to pesquisarAlunos--><g class="link" data-entity-1="ent0002" data-entity-2="ent0010" data-link-type="dependency" data-source-line="32" id="lnk21"><path d="M78.27,540.9769 C87.86,539.0569 98.24,537.0369 107.86,535.2969 C146.67,528.2769 184.432,522.1234 218.982,516.7234" fill="none" id="sec-to-pesquisarAlunos" style="stroke:#181818;stroke-width:1;"/><polygon fill="#181818" points="224.91,515.7969,215.4003,513.2346,219.97,516.569,216.6356,521.1387,224.91,515.7969" style="stroke:#181818;stroke-width:1;"/></g><!--link sec to cadastrarAluno--><g class="link" data-entity-1="ent0002" data-entity-2="ent0011" data-link-type="dependency" data-source-line="33" id="lnk22"><path d="M78.2,552.1969 C115.74,556.3369 170.0062,562.3384 216.1962,567.4384" fill="none" id="sec-to-cadastrarAluno" style="stroke:#181818;stroke-width:1;"/><polygon fill="#181818" points="222.16,568.0969,213.6533,563.1333,217.1902,567.5481,212.7754,571.085,222.16,568.0969" style="stroke:#181818;stroke-width:1;"/></g><!--link sec to pesquisarStatus--><g class="link" data-entity-1="ent0002" data-entity-2="ent0012" data-link-type="dependency" data-source-line="34" id="lnk23"><path d="M78.26,582.8169 C89.81,592.5569 103.2,602.3869 116.86,609.2969 C141.64,621.8369 164.4981,629.4864 191.2081,635.9464" fill="none" id="sec-to-pesquisarStatus" style="stroke:#181818;stroke-width:1;"/><polygon fill="#181818" points="197.04,637.3569,189.2325,631.3533,192.1801,636.1815,187.3519,639.1291,197.04,637.3569" style="stroke:#181818;stroke-width:1;"/></g><!--link sec to iniciar--><g class="link" data-entity-1="ent0002" data-entity-2="ent0013" data-link-type="dependency" data-source-line="35" id="lnk24"><path d="M52.02,586.6869 C62.09,620.5469 81.75,668.5569 116.86,695.2969 C145.18,716.8669 177.6402,725.1761 210.8302,728.5161" fill="none" id="sec-to-iniciar" style="stroke:#181818;stroke-width:1;"/><polygon fill="#181818" points="216.8,729.1169,208.2457,724.2358,211.8251,728.6162,207.4447,732.1956,216.8,729.1169" style="stroke:#181818;stroke-width:1;"/></g><!--link sec to enviarHoras--><g class="link" data-entity-1="ent0002" data-entity-2="ent0014" data-link-type="dependency" data-source-line="36" id="lnk25"><path d="M44.95,586.8469 C49.67,635.4969 65.29,718.2269 116.86,763.2969 C143.78,786.8269 176.3224,795.3393 209.9324,798.2493" fill="none" id="sec-to-enviarHoras" style="stroke:#181818;stroke-width:1;"/><polygon fill="#181818" points="215.91,798.7669,207.2886,794.0055,210.9286,798.3356,206.5985,801.9756,215.91,798.7669" style="stroke:#181818;stroke-width:1;"/></g><!--link validarDoc to login--><g class="link" data-entity-1="ent0007" data-entity-2="ent0005" data-link-type="dependency" data-source-line="38" id="lnk26"><path d="M338.73,449.9969 C361.14,456.0169 387.91,463.5769 411.73,471.2969 C494.77,498.2069 585.0866,533.3149 633.2966,552.5349" fill="none" id="validarDoc-to-login" style="stroke:#181818;stroke-width:1;stroke-dasharray:7,7;"/><polygon fill="#181818" points="638.87,554.7569,631.9912,547.7083,634.2255,552.9052,629.0286,555.1395,638.87,554.7569" style="stroke:#181818;stroke-width:1;"/><text fill="#000000" font-family="sans-serif" font-size="13" lengthAdjust="spacing" textLength="63.0068" x="442.73" y="479.3638">&#171;include&#187;</text></g><!--link analisarDoc to login--><g class="link" data-entity-1="ent0008" data-entity-2="ent0005" data-link-type="dependency" data-source-line="39" id="lnk27"><path d="M363.69,364.0569 C409.26,365.7969 466.37,375.1069 506.73,406.2969 C531.9,425.7569 516.49,446.7469 536.73,471.2969 C567.01,508.0369 609.2355,534.8002 638.5855,550.9802" fill="none" id="analisarDoc-to-login" style="stroke:#181818;stroke-width:1;stroke-dasharray:7,7;"/><polygon fill="#181818" points="643.84,553.8769,637.8894,546.0289,639.4613,551.463,634.0272,553.0348,643.84,553.8769" style="stroke:#181818;stroke-width:1;"/><text fill="#000000" font-family="sans-serif" font-size="13" lengthAdjust="spacing" textLength="63.0068" x="442.73" y="372.3638">&#171;include&#187;</text></g><!--link acompanhar to login--><g class="link" data-entity-1="ent0009" data-entity-2="ent0005" data-link-type="dependency" data-source-line="40" id="lnk28"><path d="M340.5,267.3169 C403.87,298.3669 503.85,347.7069 506.73,351.2969 C541.1,394.1969 505.88,425.7869 536.73,471.2969 C563.12,510.2369 605.4929,536.1547 636.0829,551.5847" fill="none" id="acompanhar-to-login" style="stroke:#181818;stroke-width:1;stroke-dasharray:7,7;"/><polygon fill="#181818" points="641.44,554.2869,635.2058,546.6622,636.9758,552.0351,631.6029,553.805,641.44,554.2869" style="stroke:#181818;stroke-width:1;"/><text fill="#000000" font-family="sans-serif" font-size="13" lengthAdjust="spacing" textLength="63.0068" x="442.73" y="316.3638">&#171;include&#187;</text></g><!--link pesquisarAlunos to login--><g class="link" data-entity-1="ent0010" data-entity-2="ent0005" data-link-type="dependency" data-source-line="41" id="lnk29"><path d="M339.47,519.3169 C369.06,526.6169 407.34,535.4069 441.73,541.2969 C499.91,551.2569 561.1251,557.8389 607.4651,562.0889" fill="none" id="pesquisarAlunos-to-login" style="stroke:#181818;stroke-width:1;stroke-dasharray:7,7;"/><polygon fill="#181818" points="613.44,562.6369,604.8429,557.8316,608.4609,562.1802,604.1123,565.7982,613.44,562.6369" style="stroke:#181818;stroke-width:1;"/><text fill="#000000" font-family="sans-serif" font-size="13" lengthAdjust="spacing" textLength="63.0068" x="442.73" y="537.3638">&#171;include&#187;</text></g><!--link cadastrarAluno to login--><g class="link" data-entity-1="ent0011" data-entity-2="ent0005" data-link-type="dependency" data-source-line="42" id="lnk30"><path d="M345.53,585.8369 C374.21,590.6869 409.7,595.8969 441.73,598.2969 C470.53,600.4569 477.97,601.0069 506.73,598.2969 C548.09,594.4069 588.7183,586.4127 621.4683,578.9927" fill="none" id="cadastrarAluno-to-login" style="stroke:#181818;stroke-width:1;stroke-dasharray:7,7;"/><polygon fill="#181818" points="627.32,577.6669,617.6586,575.7544,622.4436,578.7717,619.4263,583.5567,627.32,577.6669" style="stroke:#181818;stroke-width:1;"/><text fill="#000000" font-family="sans-serif" font-size="13" lengthAdjust="spacing" textLength="63.0068" x="442.73" y="594.3638">&#171;include&#187;</text></g><!--link pesquisarStatus to login--><g class="link" data-entity-1="ent0012" data-entity-2="ent0005" data-link-type="dependency" data-source-line="43" id="lnk31"><path d="M395.18,643.8269 C430.91,639.7369 470.82,633.7969 506.73,625.2969 C554.58,613.9669 602.3549,595.7385 634.6349,582.3985" fill="none" id="pesquisarStatus-to-login" style="stroke:#181818;stroke-width:1;stroke-dasharray:7,7;"/><polygon fill="#181818" points="640.18,580.1069,630.3346,579.8475,635.559,582.0165,633.39,587.241,640.18,580.1069" style="stroke:#181818;stroke-width:1;"/><text fill="#000000" font-family="sans-serif" font-size="13" lengthAdjust="spacing" textLength="63.0068" x="442.73" y="621.3638">&#171;include&#187;</text></g><!--link iniciar to login--><g class="link" data-entity-1="ent0013" data-entity-2="ent0005" data-link-type="dependency" data-source-line="44" id="lnk32"><path d="M336.85,716.7269 C359.6,710.5569 387.16,702.8369 411.73,695.2969 C454.32,682.2169 466.2,681.7969 506.73,663.2969 C560.41,638.7869 614.0731,604.7682 644.3431,584.6482" fill="none" id="iniciar-to-login" style="stroke:#181818;stroke-width:1;stroke-dasharray:7,7;"/><polygon fill="#181818" points="649.34,581.3269,639.6305,582.9776,645.1759,584.0947,644.0589,589.6401,649.34,581.3269" style="stroke:#181818;stroke-width:1;"/><text fill="#000000" font-family="sans-serif" font-size="13" lengthAdjust="spacing" textLength="63.0068" x="442.73" y="659.3638">&#171;include&#187;</text></g><!--link enviarHoras to login--><g class="link" data-entity-1="ent0014" data-entity-2="ent0005" data-link-type="dependency" data-source-line="45" id="lnk33"><path d="M341.7,785.5669 C363.71,779.9269 389.35,772.3869 411.73,763.2969 C456.32,745.1869 467.32,738.9469 506.73,711.2969 C566.43,669.4069 624.6683,613.0804 651.7983,585.8104" fill="none" id="enviarHoras-to-login" style="stroke:#181818;stroke-width:1;stroke-dasharray:7,7;"/><polygon fill="#181818" points="656.03,581.5569,646.8467,585.1161,652.5036,585.1015,652.5181,590.7583,656.03,581.5569" style="stroke:#181818;stroke-width:1;"/><text fill="#000000" font-family="sans-serif" font-size="13" lengthAdjust="spacing" textLength="63.0068" x="442.73" y="707.3638">&#171;include&#187;</text></g><!--link iniciar to enviar--><g class="link" data-entity-1="ent0013" data-entity-2="ent0006" data-link-type="dependency" data-source-line="47" id="lnk34"><path d="M353.35,736.4269 C373.8,741.3169 395.34,749.5369 411.73,763.2969 C435.47,783.2469 416.48,808.2769 441.73,826.2969 C486.61,858.3269 543.586,863.6142 592.016,861.4542" fill="none" id="iniciar-to-enviar" style="stroke:#181818;stroke-width:1;stroke-dasharray:7,7;"/><polygon fill="#181818" points="598.01,861.1869,588.8407,857.5919,593.015,861.4097,589.1972,865.5839,598.01,861.1869" style="stroke:#181818;stroke-width:1;"/><text fill="#000000" font-family="sans-serif" font-size="13" lengthAdjust="spacing" textLength="63.0068" x="442.73" y="822.3638">&#171;include&#187;</text></g><!--link enviarHoras to enviar--><g class="link" data-entity-1="ent0014" data-entity-2="ent0006" data-link-type="dependency" data-source-line="48" id="lnk35"><path d="M309.97,813.6169 C337.95,834.5569 390.3,869.7869 441.73,883.2969 C504.58,899.8069 573.8857,884.6648 620.3057,870.0848" fill="none" id="enviarHoras-to-enviar" style="stroke:#181818;stroke-width:1;stroke-dasharray:7,7;"/><polygon fill="#181818" points="626.03,868.2869,616.245,867.1676,621.2598,869.7852,618.6422,874.8,626.03,868.2869" style="stroke:#181818;stroke-width:1;"/><text fill="#000000" font-family="sans-serif" font-size="13" lengthAdjust="spacing" textLength="63.0068" x="442.73" y="879.3638">&#171;include&#187;</text></g><!--reverse link validarDoc to reprovarJustificativa--><g class="link" data-entity-1="ent0007" data-entity-2="ent0015" data-link-type="dependency" data-source-line="50" id="lnk36"><path d="M367.3365,434.6322 C417.1365,432.9322 478.82,430.8269 538.12,428.7969" fill="none" id="validarDoc-backto-reprovarJustificativa" style="stroke:#181818;stroke-width:1;stroke-dasharray:7,7;"/><polygon fill="#181818" points="361.34,434.8369,370.4712,438.5275,366.3371,434.6663,370.1983,430.5322,361.34,434.8369" style="stroke:#181818;stroke-width:1;"/><text fill="#000000" font-family="sans-serif" font-size="13" lengthAdjust="spacing" textLength="61.1851" x="443.73" y="426.3638">&#171;extend&#187;</text></g><!--reverse link acompanhar to encerrar--><g class="link" data-entity-1="ent0009" data-entity-2="ent0016" data-link-type="dependency" data-source-line="51" id="lnk37"><path d="M373.5056,219.734 C448.5956,199.614 553.94,171.3869 618.45,154.1069" fill="none" id="acompanhar-backto-encerrar" style="stroke:#181818;stroke-width:1;stroke-dasharray:7,7;"/><polygon fill="#181818" points="367.71,221.2869,377.4386,222.8212,372.5396,219.9928,375.3681,215.0938,367.71,221.2869" style="stroke:#181818;stroke-width:1;"/><text fill="#000000" font-family="sans-serif" font-size="13" lengthAdjust="spacing" textLength="61.1851" x="443.73" y="181.3638">&#171;extend&#187;</text></g><!--reverse link acompanhar to download--><g class="link" data-entity-1="ent0009" data-entity-2="ent0017" data-link-type="dependency" data-source-line="52" id="lnk38"><path d="M415.0961,236.0594 C426.1261,235.6594 431.13,235.5369 441.73,235.2969 C480.25,234.4169 522.45,234.3469 559.96,234.5969" fill="none" id="acompanhar-backto-download" style="stroke:#181818;stroke-width:1;stroke-dasharray:7,7;"/><polygon fill="#181818" points="409.1,236.2769,418.2391,239.9481,414.0967,236.0957,417.9491,231.9533,409.1,236.2769" style="stroke:#181818;stroke-width:1;"/><text fill="#000000" font-family="sans-serif" font-size="13" lengthAdjust="spacing" textLength="61.1851" x="443.73" y="231.3638">&#171;extend&#187;</text></g><!--reverse link analisarDoc to download--><g class="link" data-entity-1="ent0008" data-entity-2="ent0017" data-link-type="dependency" data-source-line="53" id="lnk39"><path d="M323.4968,347.7764 C353.5668,331.0964 397.1,308.5269 441.73,292.2969 C488.31,275.3469 542.09,261.8769 585.74,252.3969" fill="none" id="analisarDoc-backto-download" style="stroke:#181818;stroke-width:1;stroke-dasharray:7,7;"/><polygon fill="#181818" points="318.25,350.6869,328.0606,349.8191,322.6224,348.2615,324.18,342.8233,318.25,350.6869" style="stroke:#181818;stroke-width:1;"/><text fill="#000000" font-family="sans-serif" font-size="13" lengthAdjust="spacing" textLength="61.1851" x="443.73" y="269.3638">&#171;extend&#187;</text></g><?plantuml-src XP91Rjim44NtFCN0U_i0XM4WS5AqHHT6Z7G_eCOA4OcZafIRDEXXUeOU8HSh9P4cgLeDu8Ny-UPp-6USSWt17YrRg0WUBCCQ3YZP4Hn96d9e58g6JWuSWr7reuDA6P9EiHRsIUaE3RRGeNp2cexknViDnwZhXeH0wTZ0Adcj02rOaa9SA5WT6dHuOjFYqCMTTM-_QyLs1Qz21EVIurNqtWEjbp_YJpBmbMkbH-zc-4h7DvgUqS0joxubxNXaI9yL6f6eRzYeocDxrivWeCwJw4jpEo_QEOb1BL79ROVwqSD7Xwxt2JCS34koDfHTY5Hr8Fkz7s_0fjT31XxiedWpQedUOuNMzn7e4PPH6-5hph4T16exGnRBIwRZLFXPA-dZAdjNavYekp5Jk2S_oxS_HkL9VsA3DelxdZh3von5y4d0bzuwTL8IdJfFBPd05IVvbPBCyFWkxuo2Eb-HM_wX6yPg64CnlIeSY5zY-FagMAzt-VYZbC_vegKXHca-hgZF9lCF7eAFUemu_Y-oJDt1PhERjXu-m7Qhj6pwYdOxaNMxpAGbNK9chrdaojUzRnUsS8aBhryypz9OP0gJgU0TbwjG7lPsixc-bcCDFJlILPdhK15tyhzGtCCPb4rnaVeB?></g></svg>