<svg xmlns="http://www.w3.org/2000/svg" xmlns:xlink="http://www.w3.org/1999/xlink" contentStyleType="text/css" data-diagram-type="DESCRIPTION" height="730px" preserveAspectRatio="none" style="width:406px;height:730px;background:#FFFFFF;" version="1.1" viewBox="0 0 406 730" width="406px" zoomAndPan="magnify"><?plantuml 1.2026.3beta6?><defs/><g><g class="title" data-source-line="1"><text fill="#000000" font-family="sans-serif" font-size="14" font-weight="700" lengthAdjust="spacing" textLength="224.0205" x="87.8147" y="22.9951">Casos de Uso - Pacote Aluno</text></g><!--cluster Plataforma de Est?gios--><g class="cluster" data-qualified-name="Plataforma de Est.gios" data-source-line="7" id="ent0003"><rect fill="none" height="672" rx="2.5" ry="2.5" style="stroke:#181818;stroke-width:1;" width="326.87" x="65.78" y="44.2969"/><text fill="#000000" font-family="sans-serif" font-size="14" font-weight="700" lengthAdjust="spacing" textLength="183.3672" x="137.5314" y="59.292">Plataforma de Est&#225;gios</text></g><!--cluster Aluno--><g class="cluster" data-qualified-name="Plataforma de Est.gios.Aluno" data-source-line="9" id="ent0004"><rect fill="none" height="605" rx="2.5" ry="2.5" style="stroke:#181818;stroke-width:1;" width="278.87" x="89.78" y="87.2969"/><text fill="#000000" font-family="sans-serif" font-size="14" font-weight="700" lengthAdjust="spacing" textLength="45.1855" x="206.6222" y="102.292">Aluno</text></g><!--entity reportarErro--><g class="entity" data-qualified-name="Plataforma de Est.gios.Aluno.reportarErro" data-source-line="10" id="ent0005"><ellipse cx="229.213" cy="661.2935" fill="#F1F1F1" rx="65.483" ry="15.4966" style="stroke:#181818;stroke-width:0.5;"/><text fill="#000000" font-family="sans-serif" font-size="14" lengthAdjust="spacing" textLength="94.7461" x="181.84" y="665.9419">Reportar Erro</text></g><!--entity acompanhar--><g class="entity" data-qualified-name="Plataforma de Est.gios.Aluno.acompanhar" data-source-line="11" id="ent0006"><ellipse cx="229.2138" cy="583.2936" fill="#F1F1F1" rx="123.4338" ry="27.0868" style="stroke:#181818;stroke-width:0.5;"/><text fill="#000000" font-family="sans-serif" font-size="14" lengthAdjust="spacing" textLength="226.666" x="115.8808" y="587.9421">Acompanhar Status do Processo</text></g><!--entity enviar--><g class="entity" data-qualified-name="Plataforma de Est.gios.Aluno.enviar" data-source-line="12" id="ent0007"><ellipse cx="229.2106" cy="502.295" fill="#F1F1F1" rx="81.9406" ry="18.7881" style="stroke:#181818;stroke-width:0.5;"/><text fill="#000000" font-family="sans-serif" font-size="14" lengthAdjust="spacing" textLength="135.2285" x="161.5963" y="506.9434">Anexar Documento</text></g><!--entity download--><g class="entity" data-qualified-name="Plataforma de Est.gios.Aluno.download" data-source-line="13" id="ent0008"><ellipse cx="229.2062" cy="422.2921" fill="#F1F1F1" rx="120.2262" ry="26.4452" style="stroke:#181818;stroke-width:0.5;"/><text fill="#000000" font-family="sans-serif" font-size="14" lengthAdjust="spacing" textLength="219.8369" x="119.2878" y="426.9406">Fazer Download do Documento</text></g><!--entity iniciar--><g class="entity" data-qualified-name="Plataforma de Est.gios.Aluno.iniciar" data-source-line="14" id="ent0009"><ellipse cx="229.2123" cy="344.2953" fill="#F1F1F1" rx="71.2423" ry="16.6485" style="stroke:#181818;stroke-width:0.5;"/><text fill="#000000" font-family="sans-serif" font-size="14" lengthAdjust="spacing" textLength="109.4912" x="174.4667" y="348.9438">Iniciar Processo</text></g><!--entity enviarHoras--><g class="entity" data-qualified-name="Plataforma de Est.gios.Aluno.enviarHoras" data-source-line="15" id="ent0010"><ellipse cx="229.2132" cy="276.2975" fill="#F1F1F1" rx="72.1532" ry="16.8306" style="stroke:#181818;stroke-width:0.5;"/><text fill="#000000" font-family="sans-serif" font-size="14" lengthAdjust="spacing" textLength="111.7539" x="173.3362" y="280.9459">Enviar Relat&#243;rio</text></g><!--entity login--><g class="entity" data-qualified-name="Plataforma de Est.gios.Aluno.login" data-source-line="16" id="ent0011"><ellipse cx="229.2144" cy="210.3005" fill="#F1F1F1" rx="60.1444" ry="14.5236" style="stroke:#181818;stroke-width:0.5;"/><text fill="#000000" font-family="sans-serif" font-size="14" lengthAdjust="spacing" textLength="80.8145" x="188.8072" y="214.9489">Fazer Login</text></g><!--entity analisarDoc--><g class="entity" data-qualified-name="Plataforma de Est.gios.Aluno.analisarDoc" data-source-line="17" id="ent0012"><ellipse cx="229.2116" cy="141.2972" fill="#F1F1F1" rx="84.8516" ry="19.3703" style="stroke:#181818;stroke-width:0.5;"/><text fill="#000000" font-family="sans-serif" font-size="14" lengthAdjust="spacing" textLength="141.9824" x="158.2203" y="145.9456">Analisar Documento</text></g><!--entity aluno--><g class="entity" data-qualified-name="aluno" data-source-line="5" id="ent0002"><ellipse cx="25.8892" cy="353.6469" fill="#F1F1F1" rx="8" ry="8" style="stroke:#181818;stroke-width:0.5;"/><path d="M25.8892,361.6469 L25.8892,388.6469 M12.8892,369.6469 L38.8892,369.6469 M25.8892,388.6469 L12.8892,403.6469 M25.8892,388.6469 L38.8892,403.6469" fill="none" style="stroke:#181818;stroke-width:0.5;"/><text fill="#000000" font-family="sans-serif" font-size="14" lengthAdjust="spacing" textLength="39.7783" x="6" y="418.142">Aluno</text></g><!--link aluno to reportarErro--><g class="link" data-entity-1="ent0002" data-entity-2="ent0005" data-link-type="dependency" data-source-line="23" id="lnk13"><path d="M26.44,421.7069 C26.57,483.0469 30.53,599.1869 57.78,628.2969 C85.07,657.4469 123.7712,665.1445 160.5412,665.8945" fill="none" id="aluno-to-reportarErro" style="stroke:#181818;stroke-width:1;"/><polygon fill="#181818" points="166.54,666.0169,157.6234,661.8342,161.541,665.9149,157.4603,669.8325,166.54,666.0169" style="stroke:#181818;stroke-width:1;"/></g><!--link aluno to acompanhar--><g class="link" data-entity-1="ent0002" data-entity-2="ent0006" data-link-type="dependency" data-source-line="24" id="lnk14"><path d="M29.95,421.8769 C33.92,462.1869 42.27,521.8069 57.78,538.2969 C73.29,554.7969 88.3619,563.6995 110.0719,570.5995" fill="none" id="aluno-to-acompanhar" style="stroke:#181818;stroke-width:1;"/><polygon fill="#181818" points="115.79,572.4169,108.4244,565.8787,111.0249,570.9024,106.0012,573.5029,115.79,572.4169" style="stroke:#181818;stroke-width:1;"/></g><!--link aluno to enviar--><g class="link" data-entity-1="ent0002" data-entity-2="ent0007" data-link-type="dependency" data-source-line="25" id="lnk15"><path d="M32.83,421.8669 C37.19,437.7669 44.73,455.0569 57.78,466.2969 C82.29,487.4269 110.1442,496.3721 141.1742,500.5721" fill="none" id="aluno-to-enviar" style="stroke:#181818;stroke-width:1;"/><polygon fill="#181818" points="147.12,501.3769,138.7378,496.2059,142.1652,500.7062,137.6648,504.1336,147.12,501.3769" style="stroke:#181818;stroke-width:1;"/></g><!--link aluno to download--><g class="link" data-entity-1="ent0002" data-entity-2="ent0008" data-link-type="dependency" data-source-line="26" id="lnk16"><path d="M46.19,387.0369 C67.55,391.1769 97.6094,396.9962 131.9494,403.6462" fill="none" id="aluno-to-download" style="stroke:#181818;stroke-width:1;"/><polygon fill="#181818" points="137.84,404.7869,129.7646,399.1488,132.9312,403.8363,128.2437,407.0028,137.84,404.7869" style="stroke:#181818;stroke-width:1;"/></g><!--link aluno to iniciar--><g class="link" data-entity-1="ent0002" data-entity-2="ent0009" data-link-type="dependency" data-source-line="27" id="lnk17"><path d="M46.19,379.5569 C75.23,373.9369 125.3396,364.2287 167.5896,356.0387" fill="none" id="aluno-to-iniciar" style="stroke:#181818;stroke-width:1;"/><polygon fill="#181818" points="173.48,354.8969,163.8833,352.6827,168.5714,355.8484,165.4057,360.5365,173.48,354.8969" style="stroke:#181818;stroke-width:1;"/></g><!--link aluno to enviarHoras--><g class="link" data-entity-1="ent0002" data-entity-2="ent0010" data-link-type="dependency" data-source-line="28" id="lnk18"><path d="M35.44,344.6969 C40.06,332.0269 47.11,318.9869 57.78,310.2969 C85.26,287.9069 117.4474,279.4799 150.6974,276.2899" fill="none" id="aluno-to-enviarHoras" style="stroke:#181818;stroke-width:1;"/><polygon fill="#181818" points="156.67,275.7169,147.3291,272.5947,151.6929,276.1944,148.0931,280.5581,156.67,275.7169" style="stroke:#181818;stroke-width:1;"/></g><!--link aluno to login--><g class="link" data-entity-1="ent0002" data-entity-2="ent0011" data-link-type="dependency" data-source-line="29" id="lnk19"><path d="M30.55,344.9169 C34.87,308.1669 43.35,256.2969 57.78,242.2969 C87.38,213.5769 128.1104,206.4965 165.1604,206.0665" fill="none" id="aluno-to-login" style="stroke:#181818;stroke-width:1;"/><polygon fill="#181818" points="171.16,205.9969,162.1142,202.1016,166.1603,206.0549,162.207,210.1011,171.16,205.9969" style="stroke:#181818;stroke-width:1;"/></g><!--link aluno to analisarDoc--><g class="link" data-entity-1="ent0002" data-entity-2="ent0012" data-link-type="dependency" data-source-line="30" id="lnk20"><path d="M27.63,344.7469 C29.46,292.1469 35.8,201.7269 57.78,178.2969 C79.84,154.7769 107.0902,145.1918 138.3402,141.1218" fill="none" id="aluno-to-analisarDoc" style="stroke:#181818;stroke-width:1;"/><polygon fill="#181818" points="144.29,140.3469,134.8488,137.5427,139.3319,140.9926,135.882,145.4757,144.29,140.3469" style="stroke:#181818;stroke-width:1;"/></g><?plantuml-src PP7DRSCm38NlceBmFIiK25eNBT13a20343BZ2955WwBx5tIOpj0HibZbdrfE2kWWV7fyvAFKgIUunyWHAe9zP5Z11YqhmTftWOsdWu8oYAkF2fKJikeuc7XoeKN11bgq9wnffn_9gd_6K7io1gsoG37O580HS30qimIAZKV50qk3VVSowkMxTXmBE1ipsSu6PzD5iXWJsLBBeYXGYepMCf4UPDtQSjDYE2RbJb6xb95X8smfnccaMR6e2lIUAXxOTWq57OKKNjrIz8YVr6lUWcUiUjzhVJMzv8hdu6ookExlHfXLvT07jfGsS_aHj-p-n8BnTeGNhbqOHBw_BMEWT_5V49nmeiPy3MVu5rYjxgxNcF5YInbE6ybWZfpHNxpRgZ59fkFeYuPvo5y0?></g></svg>