<svg xmlns="http://www.w3.org/2000/svg" xmlns:xlink="http://www.w3.org/1999/xlink" contentStyleType="text/css" data-diagram-type="MINDMAP" height="302px" preserveAspectRatio="none" style="width:729px;height:302px;background:#FFFFFF;" version="1.1" viewBox="0 0 729 302" width="729px" zoomAndPan="magnify"><?plantuml 1.2026.3beta6?><defs/><g><rect fill="#F1F1F1" height="36.2969" rx="12.5" ry="12.5" style="stroke:#181818;stroke-width:1.5;" width="88.2432" x="10" y="132.5938"/><text fill="#000000" font-family="sans-serif" font-size="14" lengthAdjust="spacing" textLength="68.2432" x="20" y="155.5889">Valida&#231;&#227;o</text><rect fill="#F1F1F1" height="36.2969" rx="12.5" ry="12.5" style="stroke:#181818;stroke-width:1.5;" width="60.7217" x="148.2432" y="132.5938"/><text fill="#000000" font-family="sans-serif" font-size="14" lengthAdjust="spacing" textLength="40.7217" x="158.2432" y="155.5889">Horas</text><rect fill="#F1F1F1" height="36.2969" rx="12.5" ry="12.5" style="stroke:#181818;stroke-width:1.5;" width="93.3906" x="258.9648" y="48.1484"/><text fill="#000000" font-family="sans-serif" font-size="14" lengthAdjust="spacing" textLength="73.3906" x="268.9648" y="71.1436">Atividades</text><rect fill="#F1F1F1" height="36.2969" rx="12.5" ry="12.5" style="stroke:#181818;stroke-width:1.5;" width="211.3311" x="402.3555" y="20"/><text fill="#000000" font-family="sans-serif" font-size="14" lengthAdjust="spacing" textLength="191.3311" x="412.3555" y="42.9951">Compatibilidade com curso</text><path d="M352.3555,66.2969 L362.3555,66.2969 C377.3555,66.2969 377.3555,38.1484 392.3555,38.1484 L402.3555,38.1484" fill="none" style="stroke:#181818;stroke-width:1;"/><rect fill="#F1F1F1" height="36.2969" rx="12.5" ry="12.5" style="stroke:#181818;stroke-width:1.5;" width="212.6299" x="402.3555" y="76.2969"/><text fill="#000000" font-family="sans-serif" font-size="14" lengthAdjust="spacing" textLength="192.6299" x="412.3555" y="99.292">Compatibilidade com cargo</text><path d="M352.3555,66.2969 L362.3555,66.2969 C377.3555,66.2969 377.3555,94.4453 392.3555,94.4453 L402.3555,94.4453" fill="none" style="stroke:#181818;stroke-width:1;"/><path d="M208.9648,150.7422 L218.9648,150.7422 C233.9648,150.7422 233.9648,66.2969 248.9648,66.2969 L258.9648,66.2969" fill="none" style="stroke:#181818;stroke-width:1;"/><rect fill="#F1F1F1" height="36.2969" rx="12.5" ry="12.5" style="stroke:#181818;stroke-width:1.5;" width="167.1572" x="258.9648" y="188.8906"/><text fill="#000000" font-family="sans-serif" font-size="14" lengthAdjust="spacing" textLength="147.1572" x="268.9648" y="211.8857">Quantidade de horas</text><rect fill="#F1F1F1" height="36.2969" rx="12.5" ry="12.5" style="stroke:#181818;stroke-width:1.5;" width="211.3311" x="476.1221" y="132.5938"/><text fill="#000000" font-family="sans-serif" font-size="14" lengthAdjust="spacing" textLength="191.3311" x="486.1221" y="155.5889">Compatibilidade com curso</text><path d="M426.1221,207.0391 L436.1221,207.0391 C451.1221,207.0391 451.1221,150.7422 466.1221,150.7422 L476.1221,150.7422" fill="none" style="stroke:#181818;stroke-width:1;"/><rect fill="#F1F1F1" height="36.2969" rx="12.5" ry="12.5" style="stroke:#181818;stroke-width:1.5;" width="212.6299" x="476.1221" y="188.8906"/><text fill="#000000" font-family="sans-serif" font-size="14" lengthAdjust="spacing" textLength="192.6299" x="486.1221" y="211.8857">Compatibilidade com cargo</text><path d="M426.1221,207.0391 L436.1221,207.0391 C451.1221,207.0391 451.1221,207.0391 466.1221,207.0391 L476.1221,207.0391" fill="none" style="stroke:#181818;stroke-width:1;"/><rect fill="#F1F1F1" height="36.2969" rx="12.5" ry="12.5" style="stroke:#181818;stroke-width:1.5;" width="232.1602" x="476.1221" y="245.1875"/><text fill="#000000" font-family="sans-serif" font-size="14" lengthAdjust="spacing" textLength="212.1602" x="486.1221" y="268.1826">Compatibilidade com contrato</text><path d="M426.1221,207.0391 L436.1221,207.0391 C451.1221,207.0391 451.1221,263.3359 466.1221,263.3359 L476.1221,263.3359" fill="none" style="stroke:#181818;stroke-width:1;"/><path d="M208.9648,150.7422 L218.9648,150.7422 C233.9648,150.7422 233.9648,207.0391 248.9648,207.0391 L258.9648,207.0391" fill="none" style="stroke:#181818;stroke-width:1;"/><path d="M98.2432,150.7422 L108.2432,150.7422 C123.2432,150.7422 123.2432,150.7422 138.2432,150.7422 L148.2432,150.7422" fill="none" style="stroke:#181818;stroke-width:1;"/><?plantuml-src SoWkIImgoStCIybDBE3Yqb88Iyp9J4aylFpmudmkBIq5Z_oYn68WGykn9BCCA96I2kPfEUVd5YIMP2Pbve055PBpSnMIIukAyt7B9XQbWsK3InFpIY3YG9G1iu0I8x7BvkUL52MMv7DnEQG2lGVpeg6UaO6HcPvnKcf9eXa0?></g></svg>