<svg xmlns="http://www.w3.org/2000/svg" xmlns:xlink="http://www.w3.org/1999/xlink" contentStyleType="text/css" data-diagram-type="CLASS" height="178px" preserveAspectRatio="none" style="width:392px;height:178px;background:#FFFFFF;" version="1.1" viewBox="0 0 392 178" width="392px" zoomAndPan="magnify"><?plantuml 1.2026.3beta6?><defs/><g><!--class Secretaria--><g class="entity" data-qualified-name="Secretaria" data-source-line="11" id="ent0002"><rect fill="#F1F1F1" height="48" rx="2.5" ry="2.5" style="stroke:#181818;stroke-width:0.5;" width="103.8594" x="7" y="115"/><ellipse cx="22" cy="131" fill="#ADD1B2" rx="11" ry="11" style="stroke:#181818;stroke-width:1;"/><path d="M24.9688,136.6406 Q24.3906,136.9375 23.75,137.0781 Q23.1094,137.2344 22.4063,137.2344 Q19.9063,137.2344 18.5781,135.5938 Q17.2656,133.9375 17.2656,130.8125 Q17.2656,127.6875 18.5781,126.0313 Q19.9063,124.375 22.4063,124.375 Q23.1094,124.375 23.75,124.5313 Q24.4063,124.6875 24.9688,124.9844 L24.9688,127.7031 Q24.3438,127.125 23.75,126.8594 Q23.1563,126.5781 22.5313,126.5781 Q21.1875,126.5781 20.5,127.6563 Q19.8125,128.7188 19.8125,130.8125 Q19.8125,132.9063 20.5,133.9844 Q21.1875,135.0469 22.5313,135.0469 Q23.1563,135.0469 23.75,134.7813 Q24.3438,134.5 24.9688,133.9219 L24.9688,136.6406 Z " fill="#000000"/><text fill="#000000" font-family="sans-serif" font-size="14" lengthAdjust="spacing" textLength="71.8594" x="36" y="135.8467">Secretaria</text><line style="stroke:#181818;stroke-width:0.5;" x1="8" x2="109.8594" y1="147" y2="147"/><line style="stroke:#181818;stroke-width:0.5;" x1="8" x2="109.8594" y1="155" y2="155"/></g><!--class Usuario--><g class="entity" data-qualified-name="Usuario" data-source-line="12" id="ent0003"><rect fill="#F1F1F1" height="48" rx="2.5" ry="2.5" style="stroke:#181818;stroke-width:0.5;" width="85.2041" x="139.33" y="7"/><ellipse cx="154.33" cy="23" fill="#ADD1B2" rx="11" ry="11" style="stroke:#181818;stroke-width:1;"/><path d="M157.2988,28.6406 Q156.7206,28.9375 156.08,29.0781 Q155.4394,29.2344 154.7363,29.2344 Q152.2363,29.2344 150.9081,27.5938 Q149.5956,25.9375 149.5956,22.8125 Q149.5956,19.6875 150.9081,18.0313 Q152.2363,16.375 154.7363,16.375 Q155.4394,16.375 156.08,16.5313 Q156.7363,16.6875 157.2988,16.9844 L157.2988,19.7031 Q156.6738,19.125 156.08,18.8594 Q155.4863,18.5781 154.8613,18.5781 Q153.5175,18.5781 152.83,19.6563 Q152.1425,20.7188 152.1425,22.8125 Q152.1425,24.9063 152.83,25.9844 Q153.5175,27.0469 154.8613,27.0469 Q155.4863,27.0469 156.08,26.7813 Q156.6738,26.5 157.2988,25.9219 L157.2988,28.6406 Z " fill="#000000"/><text fill="#000000" font-family="sans-serif" font-size="14" lengthAdjust="spacing" textLength="53.2041" x="168.33" y="27.8467">Usuario</text><line style="stroke:#181818;stroke-width:0.5;" x1="140.33" x2="223.5341" y1="39" y2="39"/><line style="stroke:#181818;stroke-width:0.5;" x1="140.33" x2="223.5341" y1="47" y2="47"/></g><!--class Aluno--><g class="entity" data-qualified-name="Aluno" data-source-line="15" id="ent0005"><rect fill="#F1F1F1" height="48" rx="2.5" ry="2.5" style="stroke:#181818;stroke-width:0.5;" width="71.7783" x="146.04" y="115"/><ellipse cx="161.04" cy="131" fill="#ADD1B2" rx="11" ry="11" style="stroke:#181818;stroke-width:1;"/><path d="M164.0088,136.6406 Q163.4306,136.9375 162.79,137.0781 Q162.1494,137.2344 161.4463,137.2344 Q158.9463,137.2344 157.6181,135.5938 Q156.3056,133.9375 156.3056,130.8125 Q156.3056,127.6875 157.6181,126.0313 Q158.9463,124.375 161.4463,124.375 Q162.1494,124.375 162.79,124.5313 Q163.4463,124.6875 164.0088,124.9844 L164.0088,127.7031 Q163.3838,127.125 162.79,126.8594 Q162.1963,126.5781 161.5713,126.5781 Q160.2275,126.5781 159.54,127.6563 Q158.8525,128.7188 158.8525,130.8125 Q158.8525,132.9063 159.54,133.9844 Q160.2275,135.0469 161.5713,135.0469 Q162.1963,135.0469 162.79,134.7813 Q163.3838,134.5 164.0088,133.9219 L164.0088,136.6406 Z " fill="#000000"/><text fill="#000000" font-family="sans-serif" font-size="14" lengthAdjust="spacing" textLength="39.7783" x="175.04" y="135.8467">Aluno</text><line style="stroke:#181818;stroke-width:0.5;" x1="147.04" x2="216.8183" y1="147" y2="147"/><line style="stroke:#181818;stroke-width:0.5;" x1="147.04" x2="216.8183" y1="155" y2="155"/></g><!--class Coordenacao--><g class="entity" data-qualified-name="Coordenacao" data-source-line="19" id="ent0007"><rect fill="#F1F1F1" height="48" rx="2.5" ry="2.5" style="stroke:#181818;stroke-width:0.5;" width="124.4561" x="252.7" y="115"/><ellipse cx="267.7" cy="131" fill="#ADD1B2" rx="11" ry="11" style="stroke:#181818;stroke-width:1;"/><path d="M270.6688,136.6406 Q270.0906,136.9375 269.45,137.0781 Q268.8094,137.2344 268.1063,137.2344 Q265.6063,137.2344 264.2781,135.5938 Q262.9656,133.9375 262.9656,130.8125 Q262.9656,127.6875 264.2781,126.0313 Q265.6063,124.375 268.1063,124.375 Q268.8094,124.375 269.45,124.5313 Q270.1063,124.6875 270.6688,124.9844 L270.6688,127.7031 Q270.0438,127.125 269.45,126.8594 Q268.8563,126.5781 268.2313,126.5781 Q266.8875,126.5781 266.2,127.6563 Q265.5125,128.7188 265.5125,130.8125 Q265.5125,132.9063 266.2,133.9844 Q266.8875,135.0469 268.2313,135.0469 Q268.8563,135.0469 269.45,134.7813 Q270.0438,134.5 270.6688,133.9219 L270.6688,136.6406 Z " fill="#000000"/><text fill="#000000" font-family="sans-serif" font-size="14" lengthAdjust="spacing" textLength="92.4561" x="281.7" y="135.8467">Coordenacao</text><line style="stroke:#181818;stroke-width:0.5;" x1="253.7" x2="376.1561" y1="147" y2="147"/><line style="stroke:#181818;stroke-width:0.5;" x1="253.7" x2="376.1561" y1="155" y2="155"/></g><!--reverse link Usuario to Secretaria--><g class="link" data-entity-1="ent0003" data-entity-2="ent0002" data-link-type="extension" data-source-line="12" id="lnk4"><path d="M141.3063,67.0125 C120.7963,84.6925 106.35,97.13 85.86,114.79" fill="none" id="Usuario-backto-Secretaria" style="stroke:#181818;stroke-width:1;"/><polygon fill="none" points="154.94,55.26,137.3888,62.4679,145.2238,71.5571,154.94,55.26" style="stroke:#181818;stroke-width:1;"/></g><!--reverse link Usuario to Aluno--><g class="link" data-entity-1="ent0003" data-entity-2="ent0005" data-link-type="extension" data-source-line="16" id="lnk6"><path d="M181.93,73.26 C181.93,90.94 181.93,97.13 181.93,114.79" fill="none" id="Usuario-backto-Aluno" style="stroke:#181818;stroke-width:1;"/><polygon fill="none" points="181.93,55.26,175.93,73.26,187.93,73.26,181.93,55.26" style="stroke:#181818;stroke-width:1;"/></g><!--reverse link Usuario to Coordenacao--><g class="link" data-entity-1="ent0003" data-entity-2="ent0007" data-link-type="extension" data-source-line="20" id="lnk8"><path d="M225.193,66.4828 C247.363,84.1628 263.65,97.13 285.81,114.79" fill="none" id="Usuario-backto-Coordenacao" style="stroke:#181818;stroke-width:1;"/><polygon fill="none" points="211.12,55.26,221.452,71.1738,228.9339,61.7918,211.12,55.26" style="stroke:#181818;stroke-width:1;"/></g><?plantuml-src VOz12W8n34NtFKN0nOmu9t0d7g5uWDX63NHII5iHnBixWrgTKSpoyVCVlm7SfwpeChY0AS4k5LIES3KDZBU07hEoAm5X3IovSeaz3MZuPZbMIZro-CQ9v8Hl_EIhbwwTIRffUpUhNTPU9Ky75bOx2bg9PxGJrHYz6VCOPyafvK68G9TCuZ_tcXhRX2BnRs8ReteITFWxTmS0?></g></svg>