<svg xmlns="http://www.w3.org/2000/svg" xmlns:xlink="http://www.w3.org/1999/xlink" contentStyleType="text/css" data-diagram-type="CLASS" height="373px" preserveAspectRatio="none" style="width:1425px;height:373px;background:#FFFFFF;" version="1.1" viewBox="0 0 1425 373" width="1425px" zoomAndPan="magnify"><?plantuml 1.2026.4beta2?><defs/><g><!--class Unidade--><g class="entity" data-qualified-name="Unidade" data-source-line="9" id="ent0002"><rect fill="#FFFFFF" height="113.1875" rx="2.5" ry="2.5" style="stroke:#000000;stroke-width:0.5;" width="89.9756" x="363.28" y="23.29"/><ellipse cx="378.28" cy="39.29" fill="#EB937F" rx="11" ry="11" style="stroke:#181818;stroke-width:1;"/><path d="M382.3894,45.29 L374.6706,45.29 L374.6706,32.8994 L382.3894,32.8994 L382.3894,35.0556 L377.1238,35.0556 L377.1238,37.7275 L381.8894,37.7275 L381.8894,39.8838 L377.1238,39.8838 L377.1238,43.1338 L382.3894,43.1338 L382.3894,45.29 Z " fill="#000000"/><text fill="#000000" font-family="sans-serif" font-size="14" lengthAdjust="spacing" textLength="57.9756" x="392.28" y="44.1367">Unidade</text><line style="stroke:#000000;stroke-width:0.5;" x1="364.28" x2="452.2556" y1="55.29" y2="55.29"/><text fill="#000000" font-family="sans-serif" font-size="14" lengthAdjust="spacing" textLength="48.2139" x="369.28" y="72.2851">BARRA</text><text fill="#000000" font-family="sans-serif" font-size="14" lengthAdjust="spacing" textLength="58.3926" x="369.28" y="88.582">CENTRO</text><text fill="#000000" font-family="sans-serif" font-size="14" lengthAdjust="spacing" textLength="20.1318" x="369.28" y="104.8789">BH</text><text fill="#000000" font-family="sans-serif" font-size="14" lengthAdjust="spacing" textLength="63.4307" x="369.28" y="121.1757">BRASILIA</text><line style="stroke:#000000;stroke-width:0.5;" x1="364.28" x2="452.2556" y1="128.4775" y2="128.4775"/></g><!--class Usuario--><g class="entity" data-qualified-name="Usuario" data-source-line="17" id="ent0003"><rect fill="#FFFFFF" height="145.7813" rx="2.5" ry="2.5" style="stroke:#000000;stroke-width:0.5;" width="154.1943" x="488.17" y="7"/><ellipse cx="534.4151" cy="23" fill="#A9DCDF" rx="11" ry="11" style="stroke:#181818;stroke-width:1;"/><path d="M534.5245,18.3438 L533.3682,23.4219 L535.6964,23.4219 L534.5245,18.3438 Z M533.0401,16.1094 L536.0245,16.1094 L539.3839,28.5 L536.9307,28.5 L536.1651,25.4375 L532.8839,25.4375 L532.1339,28.5 L529.6964,28.5 L533.0401,16.1094 Z " fill="#000000"/><text fill="#000000" font-family="sans-serif" font-size="14" font-style="italic" lengthAdjust="spacing" textLength="53.2041" x="554.9151" y="27.8467">Usuario</text><line style="stroke:#000000;stroke-width:0.5;" x1="489.17" x2="641.3643" y1="39" y2="39"/><g data-visibility-modifier="PROTECTED_FIELD"><polygon fill="none" points="499.17,47.6484,503.17,51.6484,499.17,55.6484,495.17,51.6484" style="stroke:#B38D22;stroke-width:1;"/></g><text fill="#000000" font-family="sans-serif" font-size="14" lengthAdjust="spacing" textLength="98.2598" x="508.17" y="55.9951">matricula : int</text><g data-visibility-modifier="PROTECTED_FIELD"><polygon fill="none" points="499.17,63.9453,503.17,67.9453,499.17,71.9453,495.17,67.9453" style="stroke:#B38D22;stroke-width:1;"/></g><text fill="#000000" font-family="sans-serif" font-size="14" lengthAdjust="spacing" textLength="93.4951" x="508.17" y="72.292">nome : string</text><g data-visibility-modifier="PROTECTED_FIELD"><polygon fill="none" points="499.17,80.2422,503.17,84.2422,499.17,88.2422,495.17,84.2422" style="stroke:#B38D22;stroke-width:1;"/></g><text fill="#000000" font-family="sans-serif" font-size="14" lengthAdjust="spacing" textLength="92.415" x="508.17" y="88.5889">email : string</text><g data-visibility-modifier="PROTECTED_FIELD"><polygon fill="none" points="499.17,96.5391,503.17,100.5391,499.17,104.5391,495.17,100.5391" style="stroke:#B38D22;stroke-width:1;"/></g><text fill="#000000" font-family="sans-serif" font-size="14" lengthAdjust="spacing" textLength="96.0381" x="508.17" y="104.8857">senha : string</text><g data-visibility-modifier="PROTECTED_FIELD"><polygon fill="none" points="499.17,112.8359,503.17,116.8359,499.17,120.8359,495.17,116.8359" style="stroke:#B38D22;stroke-width:1;"/></g><text fill="#000000" font-family="sans-serif" font-size="14" lengthAdjust="spacing" textLength="128.1943" x="508.17" y="121.1826">unidade : Unidade</text><line style="stroke:#000000;stroke-width:0.5;" x1="489.17" x2="641.3643" y1="128.4844" y2="128.4844"/><g data-visibility-modifier="PUBLIC_METHOD"><ellipse cx="499.17" cy="142.1328" fill="#84BE84" rx="3" ry="3" style="stroke:#038048;stroke-width:1;"/></g><text fill="#000000" font-family="sans-serif" font-size="14" lengthAdjust="spacing" textLength="88.5527" x="508.17" y="145.4795">login() : bool</text></g><!--class Aluno--><g class="entity" data-qualified-name="Aluno" data-source-line="26" id="ent0004"><rect fill="#FFFFFF" height="145.7813" rx="2.5" ry="2.5" style="stroke:#000000;stroke-width:0.5;" width="250.5264" x="7" y="212.78"/><ellipse cx="108.124" cy="228.78" fill="#ADD1B2" rx="11" ry="11" style="stroke:#181818;stroke-width:1;"/><path d="M111.0928,234.4206 Q110.5146,234.7175 109.874,234.8581 Q109.2334,235.0144 108.5303,235.0144 Q106.0303,235.0144 104.7021,233.3738 Q103.3896,231.7175 103.3896,228.5925 Q103.3896,225.4675 104.7021,223.8113 Q106.0303,222.155 108.5303,222.155 Q109.2334,222.155 109.874,222.3113 Q110.5303,222.4675 111.0928,222.7644 L111.0928,225.4831 Q110.4678,224.905 109.874,224.6394 Q109.2803,224.3581 108.6553,224.3581 Q107.3115,224.3581 106.624,225.4363 Q105.9365,226.4988 105.9365,228.5925 Q105.9365,230.6863 106.624,231.7644 Q107.3115,232.8269 108.6553,232.8269 Q109.2803,232.8269 109.874,232.5613 Q110.4678,232.28 111.0928,231.7019 L111.0928,234.4206 Z " fill="#000000"/><text fill="#000000" font-family="sans-serif" font-size="14" lengthAdjust="spacing" textLength="39.7783" x="128.624" y="233.6267">Aluno</text><line style="stroke:#000000;stroke-width:0.5;" x1="8" x2="256.5264" y1="244.78" y2="244.78"/><g data-visibility-modifier="PRIVATE_FIELD"><rect fill="none" height="6" style="stroke:#C82930;stroke-width:1;" width="6" x="15" y="255.4284"/></g><text fill="#000000" font-family="sans-serif" font-size="14" lengthAdjust="spacing" textLength="83.0703" x="27" y="261.7751">cursoId : int</text><g data-visibility-modifier="PRIVATE_FIELD"><rect fill="none" height="6" style="stroke:#C82930;stroke-width:1;" width="6" x="15" y="271.7253"/></g><text fill="#000000" font-family="sans-serif" font-size="14" lengthAdjust="spacing" textLength="119.499" x="27" y="278.072">periodo : Periodo</text><g data-visibility-modifier="PRIVATE_FIELD"><rect fill="none" height="6" style="stroke:#C82930;stroke-width:1;" width="6" x="15" y="288.0222"/></g><text fill="#000000" font-family="sans-serif" font-size="14" lengthAdjust="spacing" textLength="143.9648" x="27" y="294.3689">processoAtualId : int</text><line style="stroke:#000000;stroke-width:0.5;" x1="8" x2="256.5264" y1="301.6706" y2="301.6706"/><g data-visibility-modifier="PUBLIC_METHOD"><ellipse cx="18" cy="315.3191" fill="#84BE84" rx="3" ry="3" style="stroke:#038048;stroke-width:1;"/></g><text fill="#000000" font-family="sans-serif" font-size="14" lengthAdjust="spacing" textLength="191.5703" x="27" y="318.6657">iniciarProcesso() : Processo</text><g data-visibility-modifier="PUBLIC_METHOD"><ellipse cx="18" cy="331.6159" fill="#84BE84" rx="3" ry="3" style="stroke:#038048;stroke-width:1;"/></g><text fill="#000000" font-family="sans-serif" font-size="14" lengthAdjust="spacing" textLength="220.5615" x="27" y="334.9626">anexarContrato(doc : Contrato)</text><g data-visibility-modifier="PUBLIC_METHOD"><ellipse cx="18" cy="347.9128" fill="#84BE84" rx="3" ry="3" style="stroke:#038048;stroke-width:1;"/></g><text fill="#000000" font-family="sans-serif" font-size="14" lengthAdjust="spacing" textLength="224.5264" x="27" y="351.2595">anexarRelatorio(doc : Relatorio)</text></g><!--class Secretaria--><g class="entity" data-qualified-name="Secretaria" data-source-line="35" id="ent0006"><rect fill="#FFFFFF" height="96.8906" rx="2.5" ry="2.5" style="stroke:#000000;stroke-width:0.5;" width="546.4063" x="292.06" y="237.22"/><ellipse cx="525.0834" cy="253.22" fill="#ADD1B2" rx="11" ry="11" style="stroke:#181818;stroke-width:1;"/><path d="M528.0522,258.8606 Q527.4741,259.1575 526.8334,259.2981 Q526.1928,259.4544 525.4897,259.4544 Q522.9897,259.4544 521.6616,257.8138 Q520.3491,256.1575 520.3491,253.0325 Q520.3491,249.9075 521.6616,248.2513 Q522.9897,246.595 525.4897,246.595 Q526.1928,246.595 526.8334,246.7513 Q527.4897,246.9075 528.0522,247.2044 L528.0522,249.9231 Q527.4272,249.345 526.8334,249.0794 Q526.2397,248.7981 525.6147,248.7981 Q524.2709,248.7981 523.5834,249.8763 Q522.8959,250.9388 522.8959,253.0325 Q522.8959,255.1263 523.5834,256.2044 Q524.2709,257.2669 525.6147,257.2669 Q526.2397,257.2669 526.8334,257.0013 Q527.4272,256.72 528.0522,256.1419 L528.0522,258.8606 Z " fill="#000000"/><text fill="#000000" font-family="sans-serif" font-size="14" lengthAdjust="spacing" textLength="71.8594" x="545.5834" y="258.0667">Secretaria</text><line style="stroke:#000000;stroke-width:0.5;" x1="293.06" x2="837.4663" y1="269.22" y2="269.22"/><line style="stroke:#000000;stroke-width:0.5;" x1="293.06" x2="837.4663" y1="277.22" y2="277.22"/><g data-visibility-modifier="PUBLIC_METHOD"><ellipse cx="303.06" cy="290.8684" fill="#84BE84" rx="3" ry="3" style="stroke:#038048;stroke-width:1;"/></g><text fill="#000000" font-family="sans-serif" font-size="14" lengthAdjust="spacing" textLength="520.4063" x="312.06" y="294.2151">validarContrato(processo : Processo, aprovado : bool, justificativa : string)</text><g data-visibility-modifier="PUBLIC_METHOD"><ellipse cx="303.06" cy="307.1653" fill="#84BE84" rx="3" ry="3" style="stroke:#038048;stroke-width:1;"/></g><text fill="#000000" font-family="sans-serif" font-size="14" lengthAdjust="spacing" textLength="288.6475" x="312.06" y="310.512">pesquisarAlunos(matricula : int) : Aluno[]</text><g data-visibility-modifier="PUBLIC_METHOD"><ellipse cx="303.06" cy="323.4622" fill="#84BE84" rx="3" ry="3" style="stroke:#038048;stroke-width:1;"/></g><text fill="#000000" font-family="sans-serif" font-size="14" lengthAdjust="spacing" textLength="275.8096" x="312.06" y="326.8089">listarProcessosPendentes() : Processo[]</text></g><!--class Coordenacao--><g class="entity" data-qualified-name="Coordenacao" data-source-line="41" id="ent0008"><rect fill="#FFFFFF" height="80.5938" rx="2.5" ry="2.5" style="stroke:#000000;stroke-width:0.5;" width="536.8633" x="873.83" y="245.37"/><ellipse cx="1091.7836" cy="261.37" fill="#ADD1B2" rx="11" ry="11" style="stroke:#181818;stroke-width:1;"/><path d="M1094.7524,267.0106 Q1094.1742,267.3075 1093.5336,267.4481 Q1092.893,267.6044 1092.1899,267.6044 Q1089.6899,267.6044 1088.3617,265.9638 Q1087.0492,264.3075 1087.0492,261.1825 Q1087.0492,258.0575 1088.3617,256.4013 Q1089.6899,254.745 1092.1899,254.745 Q1092.893,254.745 1093.5336,254.9013 Q1094.1899,255.0575 1094.7524,255.3544 L1094.7524,258.0731 Q1094.1274,257.495 1093.5336,257.2294 Q1092.9399,256.9481 1092.3149,256.9481 Q1090.9711,256.9481 1090.2836,258.0263 Q1089.5961,259.0888 1089.5961,261.1825 Q1089.5961,263.2763 1090.2836,264.3544 Q1090.9711,265.4169 1092.3149,265.4169 Q1092.9399,265.4169 1093.5336,265.1513 Q1094.1274,264.87 1094.7524,264.2919 L1094.7524,267.0106 Z " fill="#000000"/><text fill="#000000" font-family="sans-serif" font-size="14" lengthAdjust="spacing" textLength="92.4561" x="1112.2836" y="266.2167">Coordenacao</text><line style="stroke:#000000;stroke-width:0.5;" x1="874.83" x2="1409.6933" y1="277.37" y2="277.37"/><g data-visibility-modifier="PRIVATE_FIELD"><rect fill="none" height="6" style="stroke:#C82930;stroke-width:1;" width="6" x="881.83" y="288.0184"/></g><text fill="#000000" font-family="sans-serif" font-size="14" lengthAdjust="spacing" textLength="76.4121" x="893.83" y="294.3651">areaId : int</text><line style="stroke:#000000;stroke-width:0.5;" x1="874.83" x2="1409.6933" y1="301.6669" y2="301.6669"/><g data-visibility-modifier="PUBLIC_METHOD"><ellipse cx="884.83" cy="315.3153" fill="#84BE84" rx="3" ry="3" style="stroke:#038048;stroke-width:1;"/></g><text fill="#000000" font-family="sans-serif" font-size="14" lengthAdjust="spacing" textLength="510.8633" x="893.83" y="318.662">validarEstagio(processo : Processo, aprovado : bool, justificativa : string)</text></g><!--reverse link Usuario to Aluno--><g class="link" data-entity-1="ent0003" data-entity-2="ent0004" data-link-type="extension" data-source-line="27" id="lnk5"><path d="M472.5836,152.258 C466.7636,155.868 476.16,149.77 470.26,152.78 C389.14,194.23 358.77,178.75 274.26,212.78 C268.88,214.95 263.43,217.24 257.95,219.63" fill="none" id="Usuario-backto-Aluno" style="stroke:#000000;stroke-width:1;"/><polygon fill="none" points="487.88,142.77,469.421,147.1592,475.7463,157.3567,487.88,142.77" style="stroke:#000000;stroke-width:1;"/></g><!--reverse link Usuario to Secretaria--><g class="link" data-entity-1="ent0003" data-entity-2="ent0006" data-link-type="extension" data-source-line="36" id="lnk7"><path d="M565.26,171.02 C565.26,198.84 565.26,211.91 565.26,236.88" fill="none" id="Usuario-backto-Secretaria" style="stroke:#000000;stroke-width:1;"/><polygon fill="none" points="565.26,153.02,559.26,171.02,571.26,171.02,565.26,153.02" style="stroke:#000000;stroke-width:1;"/></g><!--reverse link Usuario to Coordenacao--><g class="link" data-entity-1="ent0003" data-entity-2="ent0008" data-link-type="extension" data-source-line="42" id="lnk9"><path d="M659.7526,114.2642 C759.2526,149.4042 915.66,204.64 1029.7,244.92" fill="none" id="Usuario-backto-Coordenacao" style="stroke:#000000;stroke-width:1;"/><polygon fill="none" points="642.78,108.27,657.7546,119.9217,661.7507,108.6066,642.78,108.27" style="stroke:#000000;stroke-width:1;"/></g><?plantuml-src fLF1Rjim3BthAmJiq0IfVw0tEoYm0CCMk2jsA7PWPIxbAekPA6K5XdvClwK_DYfsOdVeRHU3V8yY7v_a2rjLbRsMH9wbn4OUAUmXGc-T1n7xnpJW7dUHS-ZMx3dQRm-KqDGnyky1QBnMc8PZXt6EF1jpCVGFkH-weqRsDb077PRMTTlMPdtz-MlxnJGVJTFMDvjFctewkYuYKAoMtqf-VOaqweHxIH5S6cKg2Sffpm-sXnJ9PG_sob98YWJkKHCzGM6dEVP0VWu8XWUO0tdKU7LIQrRMyux2OgdOFRCl6eVPjS-1BJub3DrSIMLTZiARRjHHsJqgqx7cso4gM6I78bod3FvSkz8lEOAu7UdZt5EYD0Hy0hKxg0k95nqxvK_fybpGejTSPuqLvtmvwRz15p6fQ7XdYPKzW5S7fb4dmJCzbnOKFS1njMBEfVsPzL7z80U93fEpHTWUvLScWNZqJHR_N5VPyyZSVI-UawJ91DcgEWm9vOqTMdbUPitb7GPmyFwLG4IOkJmkfty0xEX_Ttl-2m00?></g></svg>