<svg xmlns="http://www.w3.org/2000/svg" xmlns:xlink="http://www.w3.org/1999/xlink" contentStyleType="text/css" data-diagram-type="CLASS" height="418px" preserveAspectRatio="none" style="width:558px;height:418px;background:#FFFFFF;" version="1.1" viewBox="0 0 558 418" width="558px" zoomAndPan="magnify"><?plantuml 1.2026.3beta6?><defs/><g><!--class Usuario--><g class="entity" data-qualified-name="Usuario" data-source-line="9" id="ent0002"><rect fill="#FFFFFF" height="129.4844" rx="2.5" ry="2.5" style="stroke:#000000;stroke-width:0.5;" width="124.2598" x="213.3" y="7"/><ellipse cx="245.875" cy="23" fill="#A9DCDF" rx="11" ry="11" style="stroke:#181818;stroke-width:1;"/><path d="M245.9844,18.3438 L244.8282,23.4219 L247.1563,23.4219 L245.9844,18.3438 Z M244.5,16.1094 L247.4844,16.1094 L250.8438,28.5 L248.3907,28.5 L247.625,25.4375 L244.3438,25.4375 L243.5938,28.5 L241.1563,28.5 L244.5,16.1094 Z " fill="#000000"/><text fill="#000000" font-family="sans-serif" font-size="14" font-style="italic" lengthAdjust="spacing" textLength="53.2041" x="263.7806" y="27.8467">Usuario</text><line style="stroke:#000000;stroke-width:0.5;" x1="214.3" x2="336.5598" y1="39" y2="39"/><g data-visibility-modifier="PROTECTED_FIELD"><polygon fill="none" points="224.3,47.6484,228.3,51.6484,224.3,55.6484,220.3,51.6484" style="stroke:#B38D22;stroke-width:1;"/></g><text fill="#000000" font-family="sans-serif" font-size="14" lengthAdjust="spacing" textLength="98.2598" x="233.3" y="55.9951">matricula : int</text><g data-visibility-modifier="PROTECTED_FIELD"><polygon fill="none" points="224.3,63.9453,228.3,67.9453,224.3,71.9453,220.3,67.9453" style="stroke:#B38D22;stroke-width:1;"/></g><text fill="#000000" font-family="sans-serif" font-size="14" lengthAdjust="spacing" textLength="93.4951" x="233.3" y="72.292">nome : string</text><g data-visibility-modifier="PROTECTED_FIELD"><polygon fill="none" points="224.3,80.2422,228.3,84.2422,224.3,88.2422,220.3,84.2422" style="stroke:#B38D22;stroke-width:1;"/></g><text fill="#000000" font-family="sans-serif" font-size="14" lengthAdjust="spacing" textLength="92.415" x="233.3" y="88.5889">email : string</text><g data-visibility-modifier="PROTECTED_FIELD"><polygon fill="none" points="224.3,96.5391,228.3,100.5391,224.3,104.5391,220.3,100.5391" style="stroke:#B38D22;stroke-width:1;"/></g><text fill="#000000" font-family="sans-serif" font-size="14" lengthAdjust="spacing" textLength="96.0381" x="233.3" y="104.8857">senha : string</text><line style="stroke:#000000;stroke-width:0.5;" x1="214.3" x2="336.5598" y1="112.1875" y2="112.1875"/><g data-visibility-modifier="PUBLIC_METHOD"><ellipse cx="224.3" cy="125.8359" fill="#84BE84" rx="3" ry="3" style="stroke:#038048;stroke-width:1;"/></g><text fill="#000000" font-family="sans-serif" font-size="14" lengthAdjust="spacing" textLength="88.5527" x="233.3" y="129.1826">login() : bool</text></g><!--class Coordenacao--><g class="entity" data-qualified-name="Coordenacao" data-source-line="17" id="ent0003"><rect fill="#FFFFFF" height="80.5938" rx="2.5" ry="2.5" style="stroke:#000000;stroke-width:0.5;" width="536.8633" x="7" y="197.49"/><ellipse cx="224.9536" cy="213.49" fill="#ADD1B2" rx="11" ry="11" style="stroke:#181818;stroke-width:1;"/><path d="M227.9224,219.1306 Q227.3442,219.4275 226.7036,219.5681 Q226.063,219.7244 225.3599,219.7244 Q222.8599,219.7244 221.5317,218.0837 Q220.2192,216.4275 220.2192,213.3025 Q220.2192,210.1775 221.5317,208.5212 Q222.8599,206.865 225.3599,206.865 Q226.063,206.865 226.7036,207.0212 Q227.3599,207.1775 227.9224,207.4744 L227.9224,210.1931 Q227.2974,209.615 226.7036,209.3494 Q226.1099,209.0681 225.4849,209.0681 Q224.1411,209.0681 223.4536,210.1462 Q222.7661,211.2087 222.7661,213.3025 Q222.7661,215.3962 223.4536,216.4744 Q224.1411,217.5369 225.4849,217.5369 Q226.1099,217.5369 226.7036,217.2712 Q227.2974,216.99 227.9224,216.4119 L227.9224,219.1306 Z " fill="#000000"/><text fill="#000000" font-family="sans-serif" font-size="14" lengthAdjust="spacing" textLength="92.4561" x="245.4536" y="218.3367">Coordenacao</text><line style="stroke:#000000;stroke-width:0.5;" x1="8" x2="542.8633" y1="229.49" y2="229.49"/><g data-visibility-modifier="PRIVATE_FIELD"><rect fill="none" height="6" style="stroke:#C82930;stroke-width:1;" width="6" x="15" y="240.1384"/></g><text fill="#000000" font-family="sans-serif" font-size="14" lengthAdjust="spacing" textLength="77.6699" x="27" y="246.4851">area : Area</text><line style="stroke:#000000;stroke-width:0.5;" x1="8" x2="542.8633" y1="253.7869" y2="253.7869"/><g data-visibility-modifier="PUBLIC_METHOD"><ellipse cx="18" cy="267.4353" fill="#84BE84" rx="3" ry="3" style="stroke:#038048;stroke-width:1;"/></g><text fill="#000000" font-family="sans-serif" font-size="14" lengthAdjust="spacing" textLength="510.8633" x="27" y="270.782">validarEstagio(processo : Processo, aprovado : bool, justificativa : string)</text></g><!--class Area--><g class="entity" data-qualified-name="Area" data-source-line="22" id="ent0005"><rect fill="#FFFFFF" height="48" rx="2.5" ry="2.5" style="stroke:#000000;stroke-width:0.5;" width="64.5254" x="186.17" y="355.08"/><ellipse cx="201.17" cy="371.08" fill="#ADD1B2" rx="11" ry="11" style="stroke:#181818;stroke-width:1;"/><path d="M204.1388,376.7206 Q203.5606,377.0175 202.92,377.1581 Q202.2794,377.3144 201.5763,377.3144 Q199.0763,377.3144 197.7481,375.6738 Q196.4356,374.0175 196.4356,370.8925 Q196.4356,367.7675 197.7481,366.1113 Q199.0763,364.455 201.5763,364.455 Q202.2794,364.455 202.92,364.6113 Q203.5763,364.7675 204.1388,365.0644 L204.1388,367.7831 Q203.5138,367.205 202.92,366.9394 Q202.3263,366.6581 201.7013,366.6581 Q200.3575,366.6581 199.67,367.7363 Q198.9825,368.7988 198.9825,370.8925 Q198.9825,372.9863 199.67,374.0644 Q200.3575,375.1269 201.7013,375.1269 Q202.3263,375.1269 202.92,374.8613 Q203.5138,374.58 204.1388,374.0019 L204.1388,376.7206 Z " fill="#000000"/><text fill="#000000" font-family="sans-serif" font-size="14" lengthAdjust="spacing" textLength="32.5254" x="215.17" y="375.9267">Area</text><line style="stroke:#000000;stroke-width:0.5;" x1="187.17" x2="249.6954" y1="387.08" y2="387.08"/><line style="stroke:#000000;stroke-width:0.5;" x1="187.17" x2="249.6954" y1="395.08" y2="395.08"/></g><!--class Processo--><g class="entity" data-qualified-name="Processo" data-source-line="25" id="ent0006"><rect fill="#FFFFFF" height="48" rx="2.5" ry="2.5" style="stroke:#000000;stroke-width:0.5;" width="94.2275" x="285.32" y="355.08"/><ellipse cx="300.32" cy="371.08" fill="#ADD1B2" rx="11" ry="11" style="stroke:#181818;stroke-width:1;"/><path d="M303.2888,376.7206 Q302.7106,377.0175 302.07,377.1581 Q301.4294,377.3144 300.7263,377.3144 Q298.2263,377.3144 296.8981,375.6738 Q295.5856,374.0175 295.5856,370.8925 Q295.5856,367.7675 296.8981,366.1113 Q298.2263,364.455 300.7263,364.455 Q301.4294,364.455 302.07,364.6113 Q302.7263,364.7675 303.2888,365.0644 L303.2888,367.7831 Q302.6638,367.205 302.07,366.9394 Q301.4763,366.6581 300.8513,366.6581 Q299.5075,366.6581 298.82,367.7363 Q298.1325,368.7988 298.1325,370.8925 Q298.1325,372.9863 298.82,374.0644 Q299.5075,375.1269 300.8513,375.1269 Q301.4763,375.1269 302.07,374.8613 Q302.6638,374.58 303.2888,374.0019 L303.2888,376.7206 Z " fill="#000000"/><text fill="#000000" font-family="sans-serif" font-size="14" lengthAdjust="spacing" textLength="62.2275" x="314.32" y="375.9267">Processo</text><line style="stroke:#000000;stroke-width:0.5;" x1="286.32" x2="378.5475" y1="387.08" y2="387.08"/><line style="stroke:#000000;stroke-width:0.5;" x1="286.32" x2="378.5475" y1="395.08" y2="395.08"/></g><!--reverse link Usuario to Coordenacao--><g class="link" data-entity-1="ent0002" data-entity-2="ent0003" data-link-type="extension" data-source-line="18" id="lnk4"><path d="M275.43,154.64 C275.43,175.15 275.43,179.25 275.43,197.46" fill="none" id="Usuario-backto-Coordenacao" style="stroke:#000000;stroke-width:1;"/><polygon fill="none" points="275.43,136.64,269.43,154.64,281.43,154.64,275.43,136.64" style="stroke:#000000;stroke-width:1;"/></g><!--link Coordenacao to Area--><g class="link" data-entity-1="ent0003" data-entity-2="ent0005" data-link-type="association" data-source-line="29" id="lnk7"><path codeLine="29" d="M259.25,278.33 C249.18,302.94 236.57,333.76 228.05,354.58" fill="none" id="Coordenacao-Area" style="stroke:#000000;stroke-width:1;"/><text fill="#000000" font-family="sans-serif" font-size="13" lengthAdjust="spacing" textLength="8.271" x="248.0551" y="298.0644">1</text><text fill="#000000" font-family="sans-serif" font-size="13" lengthAdjust="spacing" textLength="8.271" x="221.4522" y="343.8631">1</text></g><!--link Coordenacao to Processo--><g class="link" data-entity-1="ent0003" data-entity-2="ent0006" data-link-type="association" data-source-line="30" id="lnk8"><path codeLine="30" d="M291.61,278.33 C301.68,302.94 314.3,333.76 322.82,354.58" fill="none" id="Coordenacao-Processo" style="stroke:#000000;stroke-width:1;"/><polygon fill="#000000" points="317.324,321.2738,316.6176,311.7895,311.1778,314.0161,317.324,321.2738" style="stroke:#000000;stroke-width:1;"/><text fill="#000000" font-family="sans-serif" font-size="13" lengthAdjust="spacing" textLength="39.1016" x="324.43" y="321.1469">valida</text><text fill="#000000" font-family="sans-serif" font-size="13" lengthAdjust="spacing" textLength="8.271" x="285.5725" y="298.0644">1</text><text fill="#000000" font-family="sans-serif" font-size="13" lengthAdjust="spacing" textLength="23.0356" x="294.6779" y="343.8631">0..*</text></g><?plantuml-src RP5FJyCm3CNl_HHMEMo3TOBh3fEsYJj2Gfozr7HcQJmvQK52V7VSFz0UECN-9NdlnLb0KHJm61DxYLsTnGk7AohMu3p625_P0TsbKcb2UHGl2gzdJfJjLULZ00Tl9xA3Q4aw9zzPjkZrZvqIHNWcJos6H8CLdc9IT6bqUeaDAeivta2DITar7c4B79AH83LPOpSuLDPJZUpd858uumJkm4l5ORaoT1BnNPh1voXTqe0E1UWpKIZdtWMWKgUpjyLKMlHSejg8i69PNbKSnIXsu6airu16Monbj5h3UsCJVME7YTifqshAq8cRsL__gpMmOMesBNGi0MiAQVoTUVRy8JVMBttM__RkDvlRV5BVZi-1tGy0?></g></svg>