<svg xmlns="http://www.w3.org/2000/svg" xmlns:xlink="http://www.w3.org/1999/xlink" contentStyleType="text/css" data-diagram-type="CLASS" height="983px" preserveAspectRatio="none" style="width:1501px;height:983px;background:#FFFFFF;" version="1.1" viewBox="0 0 1501 983" width="1501px" zoomAndPan="magnify"><?plantuml 1.2026.3beta6?><defs/><g><!--class StatusProcesso--><g class="entity" data-qualified-name="StatusProcesso" data-source-line="9" id="ent0002"><rect fill="#FFFFFF" height="178.375" rx="2.5" ry="2.5" style="stroke:#000000;stroke-width:0.5;" width="217.8027" x="429.35" y="748.97"/><ellipse cx="480.5819" cy="764.97" fill="#EB937F" rx="11" ry="11" style="stroke:#181818;stroke-width:1;"/><path d="M484.6913,770.97 L476.9726,770.97 L476.9726,758.5794 L484.6913,758.5794 L484.6913,760.7356 L479.4257,760.7356 L479.4257,763.4075 L484.1913,763.4075 L484.1913,765.5638 L479.4257,765.5638 L479.4257,768.8138 L484.6913,768.8138 L484.6913,770.97 Z " fill="#000000"/><text fill="#000000" font-family="sans-serif" font-size="14" lengthAdjust="spacing" textLength="106.8389" x="501.0819" y="769.8167">StatusProcesso</text><line style="stroke:#000000;stroke-width:0.5;" x1="430.35" x2="646.1527" y1="780.97" y2="780.97"/><text fill="#000000" font-family="sans-serif" font-size="14" lengthAdjust="spacing" textLength="57.3262" x="435.35" y="797.9651">ABERTO</text><text fill="#000000" font-family="sans-serif" font-size="14" lengthAdjust="spacing" textLength="181.8564" x="435.35" y="814.262">EM_ANALISE_SECRETARIA</text><text fill="#000000" font-family="sans-serif" font-size="14" lengthAdjust="spacing" textLength="205.8027" x="435.35" y="830.5589">EM_ANALISE_COORDENACAO</text><text fill="#000000" font-family="sans-serif" font-size="14" lengthAdjust="spacing" textLength="132.4941" x="435.35" y="846.8557">PENDENTE_AJUSTE</text><text fill="#000000" font-family="sans-serif" font-size="14" lengthAdjust="spacing" textLength="79.7207" x="435.35" y="863.1526">APROVADO</text><text fill="#000000" font-family="sans-serif" font-size="14" lengthAdjust="spacing" textLength="88.7168" x="435.35" y="879.4495">REPROVADO</text><text fill="#000000" font-family="sans-serif" font-size="14" lengthAdjust="spacing" textLength="85.0186" x="435.35" y="895.7464">CONCLUIDO</text><text fill="#000000" font-family="sans-serif" font-size="14" lengthAdjust="spacing" textLength="87.623" x="435.35" y="912.0432">CANCELADO</text><line style="stroke:#000000;stroke-width:0.5;" x1="430.35" x2="646.1527" y1="919.345" y2="919.345"/></g><!--class Unidade--><g class="entity" data-qualified-name="Unidade" data-source-line="20" id="ent0003"><rect fill="#FFFFFF" height="113.1875" rx="2.5" ry="2.5" style="stroke:#000000;stroke-width:0.5;" width="89.9756" x="746.27" y="23.29"/><ellipse cx="761.27" cy="39.29" fill="#EB937F" rx="11" ry="11" style="stroke:#181818;stroke-width:1;"/><path d="M765.3794,45.29 L757.6606,45.29 L757.6606,32.8994 L765.3794,32.8994 L765.3794,35.0556 L760.1138,35.0556 L760.1138,37.7275 L764.8794,37.7275 L764.8794,39.8838 L760.1138,39.8838 L760.1138,43.1338 L765.3794,43.1338 L765.3794,45.29 Z " fill="#000000"/><text fill="#000000" font-family="sans-serif" font-size="14" lengthAdjust="spacing" textLength="57.9756" x="775.27" y="44.1367">Unidade</text><line style="stroke:#000000;stroke-width:0.5;" x1="747.27" x2="835.2456" y1="55.29" y2="55.29"/><text fill="#000000" font-family="sans-serif" font-size="14" lengthAdjust="spacing" textLength="48.2139" x="752.27" y="72.2851">BARRA</text><text fill="#000000" font-family="sans-serif" font-size="14" lengthAdjust="spacing" textLength="58.3926" x="752.27" y="88.582">CENTRO</text><text fill="#000000" font-family="sans-serif" font-size="14" lengthAdjust="spacing" textLength="20.1318" x="752.27" y="104.8789">BH</text><text fill="#000000" font-family="sans-serif" font-size="14" lengthAdjust="spacing" textLength="63.4307" x="752.27" y="121.1757">BRASILIA</text><line style="stroke:#000000;stroke-width:0.5;" x1="747.27" x2="835.2456" y1="128.4775" y2="128.4775"/></g><!--class Periodo--><g class="entity" data-qualified-name="Periodo" data-source-line="27" id="ent0004"><rect fill="#FFFFFF" height="64.2969" rx="2.5" ry="2.5" style="stroke:#000000;stroke-width:0.5;" width="274.5068" x="7" y="501.75"/><ellipse cx="113.644" cy="517.75" fill="#EB937F" rx="11" ry="11" style="stroke:#181818;stroke-width:1;"/><path d="M117.7534,523.75 L110.0347,523.75 L110.0347,511.3594 L117.7534,511.3594 L117.7534,513.5156 L112.4878,513.5156 L112.4878,516.1875 L117.2534,516.1875 L117.2534,518.3438 L112.4878,518.3438 L112.4878,521.5938 L117.7534,521.5938 L117.7534,523.75 Z " fill="#000000"/><text fill="#000000" font-family="sans-serif" font-size="14" lengthAdjust="spacing" textLength="52.7188" x="134.144" y="522.5967">Periodo</text><line style="stroke:#000000;stroke-width:0.5;" x1="8" x2="280.5068" y1="533.75" y2="533.75"/><text fill="#000000" font-family="sans-serif" font-size="14" lengthAdjust="spacing" textLength="262.5068" x="13" y="550.7451">P1, P2, P3, P4, P5, P6, P7, P8, P9, P10</text><line style="stroke:#000000;stroke-width:0.5;" x1="8" x2="280.5068" y1="558.0469" y2="558.0469"/></g><!--class Usuario--><g class="entity" data-qualified-name="Usuario" data-source-line="33" id="ent0005"><rect fill="#FFFFFF" height="145.7813" rx="2.5" ry="2.5" style="stroke:#000000;stroke-width:0.5;" width="154.1943" x="557.16" y="7"/><ellipse cx="603.4051" cy="23" fill="#A9DCDF" rx="11" ry="11" style="stroke:#181818;stroke-width:1;"/><path d="M603.5145,18.3438 L602.3582,23.4219 L604.6864,23.4219 L603.5145,18.3438 Z M602.0301,16.1094 L605.0145,16.1094 L608.3739,28.5 L605.9207,28.5 L605.1551,25.4375 L601.8739,25.4375 L601.1239,28.5 L598.6864,28.5 L602.0301,16.1094 Z " fill="#000000"/><text fill="#000000" font-family="sans-serif" font-size="14" font-style="italic" lengthAdjust="spacing" textLength="53.2041" x="623.9051" y="27.8467">Usuario</text><line style="stroke:#000000;stroke-width:0.5;" x1="558.16" x2="710.3543" y1="39" y2="39"/><g data-visibility-modifier="PROTECTED_FIELD"><polygon fill="none" points="568.16,47.6484,572.16,51.6484,568.16,55.6484,564.16,51.6484" style="stroke:#B38D22;stroke-width:1;"/></g><text fill="#000000" font-family="sans-serif" font-size="14" lengthAdjust="spacing" textLength="98.2598" x="577.16" y="55.9951">matricula : int</text><g data-visibility-modifier="PROTECTED_FIELD"><polygon fill="none" points="568.16,63.9453,572.16,67.9453,568.16,71.9453,564.16,67.9453" style="stroke:#B38D22;stroke-width:1;"/></g><text fill="#000000" font-family="sans-serif" font-size="14" lengthAdjust="spacing" textLength="93.4951" x="577.16" y="72.292">nome : string</text><g data-visibility-modifier="PROTECTED_FIELD"><polygon fill="none" points="568.16,80.2422,572.16,84.2422,568.16,88.2422,564.16,84.2422" style="stroke:#B38D22;stroke-width:1;"/></g><text fill="#000000" font-family="sans-serif" font-size="14" lengthAdjust="spacing" textLength="92.415" x="577.16" y="88.5889">email : string</text><g data-visibility-modifier="PROTECTED_FIELD"><polygon fill="none" points="568.16,96.5391,572.16,100.5391,568.16,104.5391,564.16,100.5391" style="stroke:#B38D22;stroke-width:1;"/></g><text fill="#000000" font-family="sans-serif" font-size="14" lengthAdjust="spacing" textLength="96.0381" x="577.16" y="104.8857">senha : string</text><g data-visibility-modifier="PROTECTED_FIELD"><polygon fill="none" points="568.16,112.8359,572.16,116.8359,568.16,120.8359,564.16,116.8359" style="stroke:#B38D22;stroke-width:1;"/></g><text fill="#000000" font-family="sans-serif" font-size="14" lengthAdjust="spacing" textLength="128.1943" x="577.16" y="121.1826">unidade : Unidade</text><line style="stroke:#000000;stroke-width:0.5;" x1="558.16" x2="710.3543" y1="128.4844" y2="128.4844"/><g data-visibility-modifier="PUBLIC_METHOD"><ellipse cx="568.16" cy="142.1328" fill="#84BE84" rx="3" ry="3" style="stroke:#038048;stroke-width:1;"/></g><text fill="#000000" font-family="sans-serif" font-size="14" lengthAdjust="spacing" textLength="88.5527" x="577.16" y="145.4795">login() : bool</text></g><!--class Aluno--><g class="entity" data-qualified-name="Aluno" data-source-line="42" id="ent0006"><rect fill="#FFFFFF" height="145.7813" rx="2.5" ry="2.5" style="stroke:#000000;stroke-width:0.5;" width="250.5264" x="79.99" y="213.78"/><ellipse cx="181.114" cy="229.78" fill="#ADD1B2" rx="11" ry="11" style="stroke:#181818;stroke-width:1;"/><path d="M184.0828,235.4206 Q183.5046,235.7175 182.864,235.8581 Q182.2234,236.0144 181.5203,236.0144 Q179.0203,236.0144 177.6921,234.3738 Q176.3796,232.7175 176.3796,229.5925 Q176.3796,226.4675 177.6921,224.8113 Q179.0203,223.155 181.5203,223.155 Q182.2234,223.155 182.864,223.3113 Q183.5203,223.4675 184.0828,223.7644 L184.0828,226.4831 Q183.4578,225.905 182.864,225.6394 Q182.2703,225.3581 181.6453,225.3581 Q180.3015,225.3581 179.614,226.4363 Q178.9265,227.4988 178.9265,229.5925 Q178.9265,231.6863 179.614,232.7644 Q180.3015,233.8269 181.6453,233.8269 Q182.2703,233.8269 182.864,233.5613 Q183.4578,233.28 184.0828,232.7019 L184.0828,235.4206 Z " fill="#000000"/><text fill="#000000" font-family="sans-serif" font-size="14" lengthAdjust="spacing" textLength="39.7783" x="201.614" y="234.6267">Aluno</text><line style="stroke:#000000;stroke-width:0.5;" x1="80.99" x2="329.5164" y1="245.78" y2="245.78"/><g data-visibility-modifier="PRIVATE_FIELD"><rect fill="none" height="6" style="stroke:#C82930;stroke-width:1;" width="6" x="87.99" y="256.4284"/></g><text fill="#000000" font-family="sans-serif" font-size="14" lengthAdjust="spacing" textLength="92.0664" x="99.99" y="262.7751">curso : Curso</text><g data-visibility-modifier="PRIVATE_FIELD"><rect fill="none" height="6" style="stroke:#C82930;stroke-width:1;" width="6" x="87.99" y="272.7253"/></g><text fill="#000000" font-family="sans-serif" font-size="14" lengthAdjust="spacing" textLength="119.499" x="99.99" y="279.072">periodo : Periodo</text><g data-visibility-modifier="PRIVATE_FIELD"><rect fill="none" height="6" style="stroke:#C82930;stroke-width:1;" width="6" x="87.99" y="289.0222"/></g><text fill="#000000" font-family="sans-serif" font-size="14" lengthAdjust="spacing" textLength="174.9248" x="99.99" y="295.3689">processoAtual : Processo</text><line style="stroke:#000000;stroke-width:0.5;" x1="80.99" x2="329.5164" y1="302.6706" y2="302.6706"/><g data-visibility-modifier="PUBLIC_METHOD"><ellipse cx="90.99" cy="316.3191" fill="#84BE84" rx="3" ry="3" style="stroke:#038048;stroke-width:1;"/></g><text fill="#000000" font-family="sans-serif" font-size="14" lengthAdjust="spacing" textLength="191.5703" x="99.99" y="319.6657">iniciarProcesso() : Processo</text><g data-visibility-modifier="PUBLIC_METHOD"><ellipse cx="90.99" cy="332.6159" fill="#84BE84" rx="3" ry="3" style="stroke:#038048;stroke-width:1;"/></g><text fill="#000000" font-family="sans-serif" font-size="14" lengthAdjust="spacing" textLength="220.5615" x="99.99" y="335.9626">anexarContrato(doc : Contrato)</text><g data-visibility-modifier="PUBLIC_METHOD"><ellipse cx="90.99" cy="348.9128" fill="#84BE84" rx="3" ry="3" style="stroke:#038048;stroke-width:1;"/></g><text fill="#000000" font-family="sans-serif" font-size="14" lengthAdjust="spacing" textLength="224.5264" x="99.99" y="352.2595">anexarRelatorio(doc : Relatorio)</text></g><!--class Secretaria--><g class="entity" data-qualified-name="Secretaria" data-source-line="51" id="ent0008"><rect fill="#FFFFFF" height="113.1875" rx="2.5" ry="2.5" style="stroke:#000000;stroke-width:0.5;" width="548.3887" x="938.06" y="230.07"/><ellipse cx="1172.0746" cy="246.07" fill="#ADD1B2" rx="11" ry="11" style="stroke:#181818;stroke-width:1;"/><path d="M1175.0434,251.7106 Q1174.4653,252.0075 1173.8246,252.1481 Q1173.184,252.3044 1172.4809,252.3044 Q1169.9809,252.3044 1168.6528,250.6638 Q1167.3403,249.0075 1167.3403,245.8825 Q1167.3403,242.7575 1168.6528,241.1013 Q1169.9809,239.445 1172.4809,239.445 Q1173.184,239.445 1173.8246,239.6013 Q1174.4809,239.7575 1175.0434,240.0544 L1175.0434,242.7731 Q1174.4184,242.195 1173.8246,241.9294 Q1173.2309,241.6481 1172.6059,241.6481 Q1171.2621,241.6481 1170.5746,242.7263 Q1169.8871,243.7888 1169.8871,245.8825 Q1169.8871,247.9763 1170.5746,249.0544 Q1171.2621,250.1169 1172.6059,250.1169 Q1173.2309,250.1169 1173.8246,249.8513 Q1174.4184,249.57 1175.0434,248.9919 L1175.0434,251.7106 Z " fill="#000000"/><text fill="#000000" font-family="sans-serif" font-size="14" lengthAdjust="spacing" textLength="71.8594" x="1192.5746" y="250.9167">Secretaria</text><line style="stroke:#000000;stroke-width:0.5;" x1="939.06" x2="1485.4487" y1="262.07" y2="262.07"/><line style="stroke:#000000;stroke-width:0.5;" x1="939.06" x2="1485.4487" y1="270.07" y2="270.07"/><g data-visibility-modifier="PUBLIC_METHOD"><ellipse cx="949.06" cy="283.7184" fill="#84BE84" rx="3" ry="3" style="stroke:#038048;stroke-width:1;"/></g><text fill="#000000" font-family="sans-serif" font-size="14" lengthAdjust="spacing" textLength="520.4063" x="958.06" y="287.0651">validarContrato(processo : Processo, aprovado : bool, justificativa : string)</text><g data-visibility-modifier="PUBLIC_METHOD"><ellipse cx="949.06" cy="300.0153" fill="#84BE84" rx="3" ry="3" style="stroke:#038048;stroke-width:1;"/></g><text fill="#000000" font-family="sans-serif" font-size="14" lengthAdjust="spacing" textLength="522.3887" x="958.06" y="303.362">validarRelatorio(processo : Processo, aprovado : bool, justificativa : string)</text><g data-visibility-modifier="PUBLIC_METHOD"><ellipse cx="949.06" cy="316.3122" fill="#84BE84" rx="3" ry="3" style="stroke:#038048;stroke-width:1;"/></g><text fill="#000000" font-family="sans-serif" font-size="14" lengthAdjust="spacing" textLength="288.6475" x="958.06" y="319.6589">pesquisarAlunos(matricula : int) : Aluno[]</text><g data-visibility-modifier="PUBLIC_METHOD"><ellipse cx="949.06" cy="332.6091" fill="#84BE84" rx="3" ry="3" style="stroke:#038048;stroke-width:1;"/></g><text fill="#000000" font-family="sans-serif" font-size="14" lengthAdjust="spacing" textLength="275.8096" x="958.06" y="335.9557">listarProcessosPendentes() : Processo[]</text></g><!--class Coordenacao--><g class="entity" data-qualified-name="Coordenacao" data-source-line="58" id="ent0010"><rect fill="#FFFFFF" height="80.5938" rx="2.5" ry="2.5" style="stroke:#000000;stroke-width:0.5;" width="536.8633" x="365.82" y="246.37"/><ellipse cx="583.7736" cy="262.37" fill="#ADD1B2" rx="11" ry="11" style="stroke:#181818;stroke-width:1;"/><path d="M586.7424,268.0106 Q586.1642,268.3075 585.5236,268.4481 Q584.883,268.6044 584.1799,268.6044 Q581.6799,268.6044 580.3517,266.9638 Q579.0392,265.3075 579.0392,262.1825 Q579.0392,259.0575 580.3517,257.4013 Q581.6799,255.745 584.1799,255.745 Q584.883,255.745 585.5236,255.9013 Q586.1799,256.0575 586.7424,256.3544 L586.7424,259.0731 Q586.1174,258.495 585.5236,258.2294 Q584.9299,257.9481 584.3049,257.9481 Q582.9611,257.9481 582.2736,259.0263 Q581.5861,260.0888 581.5861,262.1825 Q581.5861,264.2763 582.2736,265.3544 Q582.9611,266.4169 584.3049,266.4169 Q584.9299,266.4169 585.5236,266.1513 Q586.1174,265.87 586.7424,265.2919 L586.7424,268.0106 Z " fill="#000000"/><text fill="#000000" font-family="sans-serif" font-size="14" lengthAdjust="spacing" textLength="92.4561" x="604.2736" y="267.2167">Coordenacao</text><line style="stroke:#000000;stroke-width:0.5;" x1="366.82" x2="901.6833" y1="278.37" y2="278.37"/><g data-visibility-modifier="PRIVATE_FIELD"><rect fill="none" height="6" style="stroke:#C82930;stroke-width:1;" width="6" x="373.82" y="289.0184"/></g><text fill="#000000" font-family="sans-serif" font-size="14" lengthAdjust="spacing" textLength="77.6699" x="385.82" y="295.3651">area : Area</text><line style="stroke:#000000;stroke-width:0.5;" x1="366.82" x2="901.6833" y1="302.6669" y2="302.6669"/><g data-visibility-modifier="PUBLIC_METHOD"><ellipse cx="376.82" cy="316.3153" fill="#84BE84" rx="3" ry="3" style="stroke:#038048;stroke-width:1;"/></g><text fill="#000000" font-family="sans-serif" font-size="14" lengthAdjust="spacing" textLength="510.8633" x="385.82" y="319.662">validarEstagio(processo : Processo, aprovado : bool, justificativa : string)</text></g><!--class Processo--><g class="entity" data-qualified-name="Processo" data-source-line="63" id="ent0012"><rect fill="#FFFFFF" height="194.6719" rx="2.5" ry="2.5" style="stroke:#000000;stroke-width:0.5;" width="400.9717" x="584.77" y="436.56"/><ellipse cx="749.8921" cy="452.56" fill="#ADD1B2" rx="11" ry="11" style="stroke:#181818;stroke-width:1;"/><path d="M752.8608,458.2006 Q752.2827,458.4975 751.6421,458.6381 Q751.0014,458.7944 750.2983,458.7944 Q747.7983,458.7944 746.4702,457.1538 Q745.1577,455.4975 745.1577,452.3725 Q745.1577,449.2475 746.4702,447.5913 Q747.7983,445.935 750.2983,445.935 Q751.0014,445.935 751.6421,446.0913 Q752.2983,446.2475 752.8608,446.5444 L752.8608,449.2631 Q752.2358,448.685 751.6421,448.4194 Q751.0483,448.1381 750.4233,448.1381 Q749.0796,448.1381 748.3921,449.2163 Q747.7046,450.2788 747.7046,452.3725 Q747.7046,454.4663 748.3921,455.5444 Q749.0796,456.6069 750.4233,456.6069 Q751.0483,456.6069 751.6421,456.3413 Q752.2358,456.06 752.8608,455.4819 L752.8608,458.2006 Z " fill="#000000"/><text fill="#000000" font-family="sans-serif" font-size="14" lengthAdjust="spacing" textLength="62.2275" x="770.3921" y="457.4067">Processo</text><line style="stroke:#000000;stroke-width:0.5;" x1="585.77" x2="984.7417" y1="468.56" y2="468.56"/><g data-visibility-modifier="PRIVATE_FIELD"><rect fill="none" height="6" style="stroke:#C82930;stroke-width:1;" width="6" x="592.77" y="479.2084"/></g><text fill="#000000" font-family="sans-serif" font-size="14" lengthAdjust="spacing" textLength="107.5566" x="604.77" y="485.5551">processoId : int</text><g data-visibility-modifier="PRIVATE_FIELD"><rect fill="none" height="6" style="stroke:#C82930;stroke-width:1;" width="6" x="592.77" y="495.5053"/></g><text fill="#000000" font-family="sans-serif" font-size="14" lengthAdjust="spacing" textLength="166.1475" x="604.77" y="501.852">dataCriacao : DateTime</text><g data-visibility-modifier="PRIVATE_FIELD"><rect fill="none" height="6" style="stroke:#C82930;stroke-width:1;" width="6" x="592.77" y="511.8022"/></g><text fill="#000000" font-family="sans-serif" font-size="14" lengthAdjust="spacing" textLength="163.4746" x="604.77" y="518.1489">status : StatusProcesso</text><g data-visibility-modifier="PRIVATE_FIELD"><rect fill="none" height="6" style="stroke:#C82930;stroke-width:1;" width="6" x="592.77" y="528.0991"/></g><text fill="#000000" font-family="sans-serif" font-size="14" lengthAdjust="spacing" textLength="92.1758" x="604.77" y="534.4457">aluno : Aluno</text><g data-visibility-modifier="PRIVATE_FIELD"><rect fill="none" height="6" style="stroke:#C82930;stroke-width:1;" width="6" x="592.77" y="544.3959"/></g><text fill="#000000" font-family="sans-serif" font-size="14" lengthAdjust="spacing" textLength="196.4512" x="604.77" y="550.7426">coordenacao : Coordenacao</text><g data-visibility-modifier="PRIVATE_FIELD"><rect fill="none" height="6" style="stroke:#C82930;stroke-width:1;" width="6" x="592.77" y="560.6928"/></g><text fill="#000000" font-family="sans-serif" font-size="14" lengthAdjust="spacing" textLength="155.7432" x="604.77" y="567.0395">secretaria : Secretaria</text><line style="stroke:#000000;stroke-width:0.5;" x1="585.77" x2="984.7417" y1="574.3413" y2="574.3413"/><g data-visibility-modifier="PUBLIC_METHOD"><ellipse cx="595.77" cy="587.9897" fill="#84BE84" rx="3" ry="3" style="stroke:#038048;stroke-width:1;"/></g><text fill="#000000" font-family="sans-serif" font-size="14" lengthAdjust="spacing" textLength="315.875" x="604.77" y="591.3364">atualizarStatus(novoStatus : StatusProcesso)</text><g data-visibility-modifier="PUBLIC_METHOD"><ellipse cx="595.77" cy="604.2866" fill="#84BE84" rx="3" ry="3" style="stroke:#038048;stroke-width:1;"/></g><text fill="#000000" font-family="sans-serif" font-size="14" lengthAdjust="spacing" textLength="372.9893" x="604.77" y="607.6332">validarContrato(aprovado : bool, justificativa : string)</text><g data-visibility-modifier="PUBLIC_METHOD"><ellipse cx="595.77" cy="620.5834" fill="#84BE84" rx="3" ry="3" style="stroke:#038048;stroke-width:1;"/></g><text fill="#000000" font-family="sans-serif" font-size="14" lengthAdjust="spacing" textLength="374.9717" x="604.77" y="623.9301">validarRelatorio(aprovado : bool, justificativa : string)</text></g><!--class Contrato--><g class="entity" data-qualified-name="Contrato" data-source-line="75" id="ent0013"><rect fill="#FFFFFF" height="259.8594" rx="2.5" ry="2.5" style="stroke:#000000;stroke-width:0.5;" width="214.7881" x="681.86" y="708.23"/><ellipse cx="754.4577" cy="724.23" fill="#ADD1B2" rx="11" ry="11" style="stroke:#181818;stroke-width:1;"/><path d="M757.4264,729.8706 Q756.8483,730.1675 756.2077,730.3081 Q755.567,730.4644 754.8639,730.4644 Q752.3639,730.4644 751.0358,728.8238 Q749.7233,727.1675 749.7233,724.0425 Q749.7233,720.9175 751.0358,719.2613 Q752.3639,717.605 754.8639,717.605 Q755.567,717.605 756.2077,717.7613 Q756.8639,717.9175 757.4264,718.2144 L757.4264,720.9331 Q756.8014,720.355 756.2077,720.0894 Q755.6139,719.8081 754.9889,719.8081 Q753.6452,719.8081 752.9577,720.8863 Q752.2702,721.9488 752.2702,724.0425 Q752.2702,726.1363 752.9577,727.2144 Q753.6452,728.2769 754.9889,728.2769 Q755.6139,728.2769 756.2077,728.0113 Q756.8014,727.73 757.4264,727.1519 L757.4264,729.8706 Z " fill="#000000"/><text fill="#000000" font-family="sans-serif" font-size="14" lengthAdjust="spacing" textLength="61.0928" x="774.9577" y="729.0767">Contrato</text><line style="stroke:#000000;stroke-width:0.5;" x1="682.86" x2="895.6481" y1="740.23" y2="740.23"/><g data-visibility-modifier="PRIVATE_FIELD"><rect fill="none" height="6" style="stroke:#C82930;stroke-width:1;" width="6" x="689.86" y="750.8784"/></g><text fill="#000000" font-family="sans-serif" font-size="14" lengthAdjust="spacing" textLength="138.5166" x="701.86" y="757.2251">processo : Processo</text><g data-visibility-modifier="PRIVATE_FIELD"><rect fill="none" height="6" style="stroke:#C82930;stroke-width:1;" width="6" x="689.86" y="767.1753"/></g><text fill="#000000" font-family="sans-serif" font-size="14" lengthAdjust="spacing" textLength="103.8994" x="701.86" y="773.522">contratoId : int</text><g data-visibility-modifier="PRIVATE_FIELD"><rect fill="none" height="6" style="stroke:#C82930;stroke-width:1;" width="6" x="689.86" y="783.4722"/></g><text fill="#000000" font-family="sans-serif" font-size="14" lengthAdjust="spacing" textLength="147.3281" x="701.86" y="789.8189">nomeArquivo : string</text><g data-visibility-modifier="PRIVATE_FIELD"><rect fill="none" height="6" style="stroke:#C82930;stroke-width:1;" width="6" x="689.86" y="799.7691"/></g><text fill="#000000" font-family="sans-serif" font-size="14" lengthAdjust="spacing" textLength="162.3604" x="701.86" y="806.1157">dataUpload : DateTime</text><g data-visibility-modifier="PRIVATE_FIELD"><rect fill="none" height="6" style="stroke:#C82930;stroke-width:1;" width="6" x="689.86" y="816.0659"/></g><text fill="#000000" font-family="sans-serif" font-size="14" lengthAdjust="spacing" textLength="144.7646" x="701.86" y="822.4126">cnpjEmpresa : string</text><g data-visibility-modifier="PRIVATE_FIELD"><rect fill="none" height="6" style="stroke:#C82930;stroke-width:1;" width="6" x="689.86" y="832.3628"/></g><text fill="#000000" font-family="sans-serif" font-size="14" lengthAdjust="spacing" textLength="155.1074" x="701.86" y="838.7095">nomeEmpresa : string</text><g data-visibility-modifier="PRIVATE_FIELD"><rect fill="none" height="6" style="stroke:#C82930;stroke-width:1;" width="6" x="689.86" y="848.6597"/></g><text fill="#000000" font-family="sans-serif" font-size="14" lengthAdjust="spacing" textLength="115.6572" x="701.86" y="855.0064">dataInicio : Date</text><g data-visibility-modifier="PRIVATE_FIELD"><rect fill="none" height="6" style="stroke:#C82930;stroke-width:1;" width="6" x="689.86" y="864.9566"/></g><text fill="#000000" font-family="sans-serif" font-size="14" lengthAdjust="spacing" textLength="136.5" x="701.86" y="871.3032">dataTermino : Date</text><g data-visibility-modifier="PRIVATE_FIELD"><rect fill="none" height="6" style="stroke:#C82930;stroke-width:1;" width="6" x="689.86" y="881.2534"/></g><text fill="#000000" font-family="sans-serif" font-size="14" lengthAdjust="spacing" textLength="153.5078" x="701.86" y="887.6001">apoliceSeguro : string</text><g data-visibility-modifier="PRIVATE_FIELD"><rect fill="none" height="6" style="stroke:#C82930;stroke-width:1;" width="6" x="689.86" y="897.5503"/></g><text fill="#000000" font-family="sans-serif" font-size="14" lengthAdjust="spacing" textLength="148.415" x="701.86" y="903.897">planoAtividade : bool</text><g data-visibility-modifier="PRIVATE_FIELD"><rect fill="none" height="6" style="stroke:#C82930;stroke-width:1;" width="6" x="689.86" y="913.8472"/></g><text fill="#000000" font-family="sans-serif" font-size="14" lengthAdjust="spacing" textLength="156.5088" x="701.86" y="920.1939">assinaturaAluno : bool</text><g data-visibility-modifier="PRIVATE_FIELD"><rect fill="none" height="6" style="stroke:#C82930;stroke-width:1;" width="6" x="689.86" y="930.1441"/></g><text fill="#000000" font-family="sans-serif" font-size="14" lengthAdjust="spacing" textLength="178.3428" x="701.86" y="936.4907">assinaturaEmpresa : bool</text><g data-visibility-modifier="PRIVATE_FIELD"><rect fill="none" height="6" style="stroke:#C82930;stroke-width:1;" width="6" x="689.86" y="946.4409"/></g><text fill="#000000" font-family="sans-serif" font-size="14" lengthAdjust="spacing" textLength="188.7881" x="701.86" y="952.7876">assinaturaFaculdade : bool</text><line style="stroke:#000000;stroke-width:0.5;" x1="682.86" x2="895.6481" y1="960.0894" y2="960.0894"/></g><!--class Relatorio--><g class="entity" data-qualified-name="Relatorio" data-source-line="91" id="ent0014"><rect fill="#FFFFFF" height="162.0781" rx="2.5" ry="2.5" style="stroke:#000000;stroke-width:0.5;" width="226.7646" x="931.87" y="757.12"/><ellipse cx="1009.4647" cy="773.12" fill="#ADD1B2" rx="11" ry="11" style="stroke:#181818;stroke-width:1;"/><path d="M1012.4335,778.7606 Q1011.8554,779.0575 1011.2147,779.1981 Q1010.5741,779.3544 1009.871,779.3544 Q1007.371,779.3544 1006.0429,777.7138 Q1004.7304,776.0575 1004.7304,772.9325 Q1004.7304,769.8075 1006.0429,768.1513 Q1007.371,766.495 1009.871,766.495 Q1010.5741,766.495 1011.2147,766.6513 Q1011.871,766.8075 1012.4335,767.1044 L1012.4335,769.8231 Q1011.8085,769.245 1011.2147,768.9794 Q1010.621,768.6981 1009.996,768.6981 Q1008.6522,768.6981 1007.9647,769.7763 Q1007.2772,770.8388 1007.2772,772.9325 Q1007.2772,775.0263 1007.9647,776.1044 Q1008.6522,777.1669 1009.996,777.1669 Q1010.621,777.1669 1011.2147,776.9013 Q1011.8085,776.62 1012.4335,776.0419 L1012.4335,778.7606 Z " fill="#000000"/><text fill="#000000" font-family="sans-serif" font-size="14" lengthAdjust="spacing" textLength="63.0752" x="1029.9647" y="777.9667">Relatorio</text><line style="stroke:#000000;stroke-width:0.5;" x1="932.87" x2="1157.6346" y1="789.12" y2="789.12"/><g data-visibility-modifier="PRIVATE_FIELD"><rect fill="none" height="6" style="stroke:#C82930;stroke-width:1;" width="6" x="939.87" y="799.7684"/></g><text fill="#000000" font-family="sans-serif" font-size="14" lengthAdjust="spacing" textLength="138.5166" x="951.87" y="806.1151">processo : Processo</text><g data-visibility-modifier="PRIVATE_FIELD"><rect fill="none" height="6" style="stroke:#C82930;stroke-width:1;" width="6" x="939.87" y="816.0653"/></g><text fill="#000000" font-family="sans-serif" font-size="14" lengthAdjust="spacing" textLength="103.9883" x="951.87" y="822.412">relatorioId : int</text><g data-visibility-modifier="PRIVATE_FIELD"><rect fill="none" height="6" style="stroke:#C82930;stroke-width:1;" width="6" x="939.87" y="832.3622"/></g><text fill="#000000" font-family="sans-serif" font-size="14" lengthAdjust="spacing" textLength="147.3281" x="951.87" y="838.7089">nomeArquivo : string</text><g data-visibility-modifier="PRIVATE_FIELD"><rect fill="none" height="6" style="stroke:#C82930;stroke-width:1;" width="6" x="939.87" y="848.6591"/></g><text fill="#000000" font-family="sans-serif" font-size="14" lengthAdjust="spacing" textLength="162.3604" x="951.87" y="855.0057">dataUpload : DateTime</text><g data-visibility-modifier="PRIVATE_FIELD"><rect fill="none" height="6" style="stroke:#C82930;stroke-width:1;" width="6" x="939.87" y="864.9559"/></g><text fill="#000000" font-family="sans-serif" font-size="14" lengthAdjust="spacing" textLength="157.3906" x="951.87" y="871.3026">horasTrabalhadas : int</text><g data-visibility-modifier="PRIVATE_FIELD"><rect fill="none" height="6" style="stroke:#C82930;stroke-width:1;" width="6" x="939.87" y="881.2528"/></g><text fill="#000000" font-family="sans-serif" font-size="14" lengthAdjust="spacing" textLength="182.2598" x="951.87" y="887.5995">periodoReferencia : string</text><g data-visibility-modifier="PRIVATE_FIELD"><rect fill="none" height="6" style="stroke:#C82930;stroke-width:1;" width="6" x="939.87" y="897.5497"/></g><text fill="#000000" font-family="sans-serif" font-size="14" lengthAdjust="spacing" textLength="200.7646" x="951.87" y="903.8964">aprovadoPelaEmpresa : bool</text><line style="stroke:#000000;stroke-width:0.5;" x1="932.87" x2="1157.6346" y1="911.1981" y2="911.1981"/></g><!--class Curso--><g class="entity" data-qualified-name="Curso" data-source-line="101" id="ent0015"><rect fill="#FFFFFF" height="80.5938" rx="2.5" ry="2.5" style="stroke:#000000;stroke-width:0.5;" width="119.4951" x="274.51" y="797.86"/><ellipse cx="310.7642" cy="813.86" fill="#ADD1B2" rx="11" ry="11" style="stroke:#181818;stroke-width:1;"/><path d="M313.7329,819.5006 Q313.1548,819.7975 312.5142,819.9381 Q311.8735,820.0944 311.1704,820.0944 Q308.6704,820.0944 307.3423,818.4538 Q306.0298,816.7975 306.0298,813.6725 Q306.0298,810.5475 307.3423,808.8913 Q308.6704,807.235 311.1704,807.235 Q311.8735,807.235 312.5142,807.3913 Q313.1704,807.5475 313.7329,807.8444 L313.7329,810.5631 Q313.1079,809.985 312.5142,809.7194 Q311.9204,809.4381 311.2954,809.4381 Q309.9517,809.4381 309.2642,810.5163 Q308.5767,811.5788 308.5767,813.6725 Q308.5767,815.7663 309.2642,816.8444 Q309.9517,817.9069 311.2954,817.9069 Q311.9204,817.9069 312.5142,817.6413 Q313.1079,817.36 313.7329,816.7819 L313.7329,819.5006 Z " fill="#000000"/><text fill="#000000" font-family="sans-serif" font-size="14" lengthAdjust="spacing" textLength="40.2637" x="329.4873" y="818.7067">Curso</text><line style="stroke:#000000;stroke-width:0.5;" x1="275.51" x2="393.0051" y1="829.86" y2="829.86"/><g data-visibility-modifier="PRIVATE_FIELD"><rect fill="none" height="6" style="stroke:#C82930;stroke-width:1;" width="6" x="282.51" y="840.5084"/></g><text fill="#000000" font-family="sans-serif" font-size="14" lengthAdjust="spacing" textLength="83.0703" x="294.51" y="846.8551">cursoId : int</text><g data-visibility-modifier="PRIVATE_FIELD"><rect fill="none" height="6" style="stroke:#C82930;stroke-width:1;" width="6" x="282.51" y="856.8053"/></g><text fill="#000000" font-family="sans-serif" font-size="14" lengthAdjust="spacing" textLength="93.4951" x="294.51" y="863.152">nome : string</text><line style="stroke:#000000;stroke-width:0.5;" x1="275.51" x2="393.0051" y1="870.4538" y2="870.4538"/></g><!--class Area--><g class="entity" data-qualified-name="Area" data-source-line="106" id="ent0016"><rect fill="#FFFFFF" height="80.5938" rx="2.5" ry="2.5" style="stroke:#000000;stroke-width:0.5;" width="119.4951" x="425.51" y="493.6"/><ellipse cx="465.2464" cy="509.6" fill="#ADD1B2" rx="11" ry="11" style="stroke:#181818;stroke-width:1;"/><path d="M468.2151,515.2406 Q467.637,515.5375 466.9964,515.6781 Q466.3558,515.8344 465.6526,515.8344 Q463.1526,515.8344 461.8245,514.1938 Q460.512,512.5375 460.512,509.4125 Q460.512,506.2875 461.8245,504.6313 Q463.1526,502.975 465.6526,502.975 Q466.3558,502.975 466.9964,503.1313 Q467.6526,503.2875 468.2151,503.5844 L468.2151,506.3031 Q467.5901,505.725 466.9964,505.4594 Q466.4026,505.1781 465.7776,505.1781 Q464.4339,505.1781 463.7464,506.2563 Q463.0589,507.3188 463.0589,509.4125 Q463.0589,511.5063 463.7464,512.5844 Q464.4339,513.6469 465.7776,513.6469 Q466.4026,513.6469 466.9964,513.3813 Q467.5901,513.1 468.2151,512.5219 L468.2151,515.2406 Z " fill="#000000"/><text fill="#000000" font-family="sans-serif" font-size="14" lengthAdjust="spacing" textLength="32.5254" x="484.7433" y="514.4467">Area</text><line style="stroke:#000000;stroke-width:0.5;" x1="426.51" x2="544.0051" y1="525.6" y2="525.6"/><g data-visibility-modifier="PRIVATE_FIELD"><rect fill="none" height="6" style="stroke:#C82930;stroke-width:1;" width="6" x="433.51" y="536.2484"/></g><text fill="#000000" font-family="sans-serif" font-size="14" lengthAdjust="spacing" textLength="76.4121" x="445.51" y="542.5951">areaId : int</text><g data-visibility-modifier="PRIVATE_FIELD"><rect fill="none" height="6" style="stroke:#C82930;stroke-width:1;" width="6" x="433.51" y="552.5453"/></g><text fill="#000000" font-family="sans-serif" font-size="14" lengthAdjust="spacing" textLength="93.4951" x="445.51" y="558.892">nome : string</text><line style="stroke:#000000;stroke-width:0.5;" x1="426.51" x2="544.0051" y1="566.1938" y2="566.1938"/></g><!--reverse link Usuario to Aluno--><g class="link" data-entity-1="ent0005" data-entity-2="ent0006" data-link-type="extension" data-source-line="43" id="lnk7"><path d="M540.5031,123.5516 C482.7831,149.9716 418.49,179.81 348.25,213.78 C342.5,216.56 336.63,219.42 330.7,222.33" fill="none" id="Usuario-backto-Aluno" style="stroke:#000000;stroke-width:1;"/><polygon fill="none" points="556.87,116.06,538.0059,118.0959,543.0003,129.0072,556.87,116.06" style="stroke:#000000;stroke-width:1;"/></g><!--reverse link Usuario to Secretaria--><g class="link" data-entity-1="ent0005" data-entity-2="ent0008" data-link-type="extension" data-source-line="52" id="lnk9"><path d="M727.1928,152.4772 C732.9528,155.9772 723.41,149.9 729.25,152.78 C754.53,165.24 878.05,199.16 993.83,229.6" fill="none" id="Usuario-backto-Secretaria" style="stroke:#000000;stroke-width:1;"/><polygon fill="none" points="711.81,143.13,724.0771,157.6048,730.3085,147.3496,711.81,143.13" style="stroke:#000000;stroke-width:1;"/></g><!--reverse link Usuario to Coordenacao--><g class="link" data-entity-1="ent0005" data-entity-2="ent0010" data-link-type="extension" data-source-line="59" id="lnk11"><path d="M634.25,171.09 C634.25,202.29 634.25,219.61 634.25,245.94" fill="none" id="Usuario-backto-Coordenacao" style="stroke:#000000;stroke-width:1;"/><polygon fill="none" points="634.25,153.09,628.25,171.09,640.25,171.09,634.25,153.09" style="stroke:#000000;stroke-width:1;"/></g><!--link Aluno to Curso--><g class="link" data-entity-1="ent0006" data-entity-2="ent0015" data-link-type="association" data-source-line="114" id="lnk17"><path codeLine="114" d="M260.5,359.88 C275.6,383.18 290.27,409.91 299.25,436.56 C341.91,563.08 340.36,724.14 336.85,797.52" fill="none" id="Aluno-Curso" style="stroke:#000000;stroke-width:1;"/><text fill="#000000" font-family="sans-serif" font-size="13" lengthAdjust="spacing" textLength="23.0356" x="241.6713" y="379.6458">0..*</text><text fill="#000000" font-family="sans-serif" font-size="13" lengthAdjust="spacing" textLength="8.271" x="328.6473" y="786.9257">1</text></g><!--link Aluno to Periodo--><g class="link" data-entity-1="ent0006" data-entity-2="ent0004" data-link-type="association" data-source-line="115" id="lnk18"><path codeLine="115" d="M187.28,359.92 C175.58,406.96 160.9,465.98 152.06,501.5" fill="none" id="Aluno-Periodo" style="stroke:#000000;stroke-width:1;"/><text fill="#000000" font-family="sans-serif" font-size="13" lengthAdjust="spacing" textLength="23.0356" x="161.4725" y="379.6896">0..*</text><text fill="#000000" font-family="sans-serif" font-size="13" lengthAdjust="spacing" textLength="8.271" x="144.8361" y="490.725">1</text></g><!--link Area to Curso--><g class="link" data-entity-1="ent0016" data-entity-2="ent0015" data-link-type="association" data-source-line="118" id="lnk19"><path codeLine="118" d="M465.51,574.41 C436.57,632.34 382.94,739.7 354,797.63" fill="none" id="Area-Curso" style="stroke:#000000;stroke-width:1;"/><text fill="#000000" font-family="sans-serif" font-size="13" lengthAdjust="spacing" textLength="8.271" x="453.7468" y="594.1396">1</text><text fill="#000000" font-family="sans-serif" font-size="13" lengthAdjust="spacing" textLength="23.0356" x="359.1775" y="786.7534">0..*</text></g><!--link Coordenacao to Area--><g class="link" data-entity-1="ent0010" data-entity-2="ent0016" data-link-type="association" data-source-line="119" id="lnk20"><path codeLine="119" d="M610.15,327.34 C582.39,373.02 537.07,447.62 509.32,493.28" fill="none" id="Coordenacao-Area" style="stroke:#000000;stroke-width:1;"/><text fill="#000000" font-family="sans-serif" font-size="13" lengthAdjust="spacing" textLength="8.271" x="597.6929" y="347.0951">1</text><text fill="#000000" font-family="sans-serif" font-size="13" lengthAdjust="spacing" textLength="8.271" x="504.6653" y="482.3885">1</text></g><!--link Aluno to Processo--><g class="link" data-entity-1="ent0006" data-entity-2="ent0012" data-link-type="association" data-source-line="122" id="lnk21"><path codeLine="122" d="M330.8,351.83 C336.67,354.5 342.51,357.09 348.25,359.56 C441.13,399.44 468.26,399.39 562.25,436.56 C569.51,439.43 576.88,442.39 584.31,445.4" fill="none" id="Aluno-Processo" style="stroke:#000000;stroke-width:1;"/><polygon fill="#000000" points="486.9407,399.8577,479.4728,393.9686,477.4375,399.4829,486.9407,399.8577" style="stroke:#000000;stroke-width:1;"/><text fill="#000000" font-family="sans-serif" font-size="13" lengthAdjust="spacing" textLength="41.6025" x="491.25" y="402.6269">possui</text><text fill="#000000" font-family="sans-serif" font-size="13" lengthAdjust="spacing" textLength="8.271" x="338.7025" y="352.4146">1</text><text fill="#000000" font-family="sans-serif" font-size="13" lengthAdjust="spacing" textLength="24.8066" x="552.0076" y="438.7196">0..1</text></g><!--link Secretaria to Processo--><g class="link" data-entity-1="ent0008" data-entity-2="ent0012" data-link-type="association" data-source-line="123" id="lnk22"><path codeLine="123" d="M1114.83,343.62 C1067.07,371.04 1008.19,404.86 953.47,436.29" fill="none" id="Secretaria-Processo" style="stroke:#000000;stroke-width:1;"/><polygon fill="#000000" points="1024.9142,400.6165,1034.2214,398.6604,1031.2941,393.5633,1024.9142,400.6165" style="stroke:#000000;stroke-width:1;"/><text fill="#000000" font-family="sans-serif" font-size="13" lengthAdjust="spacing" textLength="41.1328" x="1038.25" y="402.6269">audita</text><text fill="#000000" font-family="sans-serif" font-size="13" lengthAdjust="spacing" textLength="8.271" x="1095.1185" y="363.1473">1</text><text fill="#000000" font-family="sans-serif" font-size="13" lengthAdjust="spacing" textLength="23.0356" x="941.98" y="425.6431">0..*</text></g><!--link Coordenacao to Processo--><g class="link" data-entity-1="ent0010" data-entity-2="ent0012" data-link-type="association" data-source-line="124" id="lnk23"><path codeLine="124" d="M658.68,327.34 C676.79,356.76 702.29,398.16 725.66,436.11" fill="none" id="Coordenacao-Processo" style="stroke:#000000;stroke-width:1;"/><polygon fill="#000000" points="712.8718,402.3839,710.6315,393.141,705.6265,396.223,712.8718,402.3839" style="stroke:#000000;stroke-width:1;"/><text fill="#000000" font-family="sans-serif" font-size="13" lengthAdjust="spacing" textLength="39.1016" x="719.25" y="402.6269">valida</text><text fill="#000000" font-family="sans-serif" font-size="13" lengthAdjust="spacing" textLength="8.271" x="653.9574" y="347.0951">1</text><text fill="#000000" font-family="sans-serif" font-size="13" lengthAdjust="spacing" textLength="23.0356" x="697.4402" y="425.4498">0..*</text></g><!--reverse link Processo to Contrato--><g class="link" data-entity-1="ent0012" data-entity-2="ent0013" data-link-type="composition" data-source-line="126" id="lnk24"><path codeLine="126" d="M786.6876,643.359 C787.0076,667.729 787.2,682.28 787.54,707.96" fill="none" id="Processo-backto-Contrato" style="stroke:#000000;stroke-width:1;"/><polygon fill="#000000" points="786.53,631.36,782.6091,637.412,786.6876,643.359,790.6084,637.307,786.53,631.36" style="stroke:#000000;stroke-width:1;"/><polygon fill="#000000" points="791.316,674.796,794.1353,665.7129,788.258,665.7905,791.316,674.796" style="stroke:#000000;stroke-width:1;"/><text fill="#000000" font-family="sans-serif" font-size="13" lengthAdjust="spacing" textLength="49.0991" x="800.25" y="674.2969">cont&#233;m</text><text fill="#000000" font-family="sans-serif" font-size="13" lengthAdjust="spacing" textLength="8.271" x="778.3398" y="651.1401">1</text><text fill="#000000" font-family="sans-serif" font-size="13" lengthAdjust="spacing" textLength="23.0356" x="763.7771" y="697.07">1..*</text></g><!--reverse link Processo to Relatorio--><g class="link" data-entity-1="ent0012" data-entity-2="ent0014" data-link-type="composition" data-source-line="127" id="lnk25"><path codeLine="127" d="M876.0558,640.4571 C910.8358,680.8871 942.97,718.25 976.12,756.79" fill="none" id="Processo-backto-Relatorio" style="stroke:#000000;stroke-width:1;"/><polygon fill="#000000" points="868.23,631.36,869.1105,638.5171,876.0558,640.4571,875.1753,633.2999,868.23,631.36" style="stroke:#000000;stroke-width:1;"/><polygon fill="#000000" points="915.5105,673.587,911.8403,664.8132,907.3841,668.6462,915.5105,673.587" style="stroke:#000000;stroke-width:1;"/><text fill="#000000" font-family="sans-serif" font-size="13" lengthAdjust="spacing" textLength="49.0991" x="921.25" y="674.2969">cont&#233;m</text><text fill="#000000" font-family="sans-serif" font-size="13" lengthAdjust="spacing" textLength="8.271" x="866.0396" y="651.1401">1</text><text fill="#000000" font-family="sans-serif" font-size="13" lengthAdjust="spacing" textLength="23.0356" x="945.9403" y="745.9479">0..*</text></g><!--link Processo to StatusProcesso--><g class="link" data-entity-1="ent0012" data-entity-2="ent0002" data-link-type="association" data-source-line="128" id="lnk26"><path codeLine="128" d="M706.42,631.36 C675.71,668.94 640.75,711.73 610.68,748.52" fill="none" id="Processo-StatusProcesso" style="stroke:#000000;stroke-width:1;"/><polygon fill="#000000" points="679.0862,673.6681,687.0853,668.5238,682.5339,664.8045,679.0862,673.6681" style="stroke:#000000;stroke-width:1;"/><text fill="#000000" font-family="sans-serif" font-size="13" lengthAdjust="spacing" textLength="41.6025" x="691.25" y="674.2969">possui</text><text fill="#000000" font-family="sans-serif" font-size="13" lengthAdjust="spacing" textLength="23.0356" x="676.7873" y="651.1401">0..*</text><text fill="#000000" font-family="sans-serif" font-size="13" lengthAdjust="spacing" textLength="8.271" x="608.1437" y="737.8515">1</text></g><?plantuml-src fLRDZjis4BxhAOZj8Uja7MJxNnyAq5eLSR6r1Tbk3qMnc9KOBnE9L4dA3HBqqCVfeK-nBzOP_P7QDGAqUo0a3aSpttppGprZy_cS9TR9KbjwZ-mxgMemKB6y16lPnsW9-Rk3qOqgObrgmtwvaqv4t1ZzHoTObgWHBRKfX0abVqRHiyw-QghEki0tjdNW6fiQdGjhDNhWooJRRQBafnk-vjUhRNApJU8isV5inKDflDbaLycQntmJfSaQNtV93Vznlzqb4K-ppS_yQXDboV0MRzRnzNv5RtmT9zSaGqmjXhsI1HI2mkDPngCORMMRQFawMcPykxf6nuDgAepK1U5CBozO-ZckBt1zYUihN5_Z-WRNjxY-mtNvoWSU4uN2ijH8bSiQPCT21BVM6SXTp_7UDe0-qCDdh09dPDwKm1PCAeSIfIk16_n2gWFkHGMo30LMg3i81KqVt688Cth1IdsGwdo6ibkjIuBO-UPbepGJxvrGHOXaplB6O7OMBAOdxkkUXyN02Cdw97BN064QaeeEfPAv13D8MjV1CIZn7h1S51BXz7cXStBLRsUZGYPAtAExNcFSptm8Mv4RuH0td8ZZ1Jj2YIHuLmFc0Cy50vGUeOsE-BbWRnjiYZSo1oUFdjoPj-UHFTLWBUplZRHWsbpOymSbGCIr9x_-HdcKrdbMROhX2kM4dV2BcYCxiQR6L933wJI34UI8uyC7XnC13ayERSGGzBglcLNHb_YS5U0WnlmHnWMx0YTsiX9uODjHWRBfp23ORTtsp52r1c4kmg39YY-GHL0jL6HKj_83cCx-kT97lJtjStQYb9vIDV-TnS7jXCMmguY5JYNWbiO7DrXWH-rdH4VvlYur55F6SrM_JQhQ20kXEbav8IOhAshq8M-zR2TC9LKWX5gNCXTRSMZC14TTWiBn8O_3o6h74tvWhLJ8lm7UP_hHWSVpwEW7mFu93OuaZWdu18jcqFd_DDvf0tPdu1RAEoZ0ZdRwAPg9Dy88l1GcT0uraIA01z7vAcZ7yZYW7q3qrlo4fmOVElrJwjsTHGHXFXLKE5Vwdm8ysbTzos40E4HomO3XvTXT4eAaz__GdT1bw-pLovVFp_1RTdPvrjyWfqw6cmGTl9R2014C3DCMztRl_wAvr8P0-lHPPw2p6GwtuHmVxJ13czDOoEwOvHwDjqbeV3NKsjf6ik-Zu7AP0WYKeIca0rG-1UUHTZS9K3iQXQJxlCNUnJOq-g9jwFk_AzH-hDnPzWLzMdl2zuDVBn_dlm00?></g></svg>