<svg xmlns="http://www.w3.org/2000/svg" xmlns:xlink="http://www.w3.org/1999/xlink" contentStyleType="text/css" data-diagram-type="CLASS" height="537px" preserveAspectRatio="none" style="width:751px;height:537px;background:#FFFFFF;" version="1.1" viewBox="0 0 751 537" width="751px" zoomAndPan="magnify"><?plantuml 1.2026.4beta2?><defs/><g><!--class StatusProcesso--><g class="entity" data-qualified-name="StatusProcesso" data-source-line="9" id="ent0002"><rect fill="#FFFFFF" height="178.375" rx="2.5" ry="2.5" style="stroke:#000000;stroke-width:0.5;" width="217.8027" x="7" y="303.11"/><ellipse cx="58.2319" cy="319.11" fill="#EB937F" rx="11" ry="11" style="stroke:#181818;stroke-width:1;"/><path d="M62.3413,325.11 L54.6226,325.11 L54.6226,312.7194 L62.3413,312.7194 L62.3413,314.8756 L57.0757,314.8756 L57.0757,317.5475 L61.8413,317.5475 L61.8413,319.7038 L57.0757,319.7038 L57.0757,322.9538 L62.3413,322.9538 L62.3413,325.11 Z " fill="#000000"/><text fill="#000000" font-family="sans-serif" font-size="14" lengthAdjust="spacing" textLength="106.8389" x="78.7319" y="323.9567">StatusProcesso</text><line style="stroke:#000000;stroke-width:0.5;" x1="8" x2="223.8027" y1="335.11" y2="335.11"/><text fill="#000000" font-family="sans-serif" font-size="14" lengthAdjust="spacing" textLength="57.3262" x="13" y="352.1051">ABERTO</text><text fill="#000000" font-family="sans-serif" font-size="14" lengthAdjust="spacing" textLength="181.8564" x="13" y="368.402">EM_ANALISE_SECRETARIA</text><text fill="#000000" font-family="sans-serif" font-size="14" lengthAdjust="spacing" textLength="205.8027" x="13" y="384.6989">EM_ANALISE_COORDENACAO</text><text fill="#000000" font-family="sans-serif" font-size="14" lengthAdjust="spacing" textLength="132.4941" x="13" y="400.9957">PENDENTE_AJUSTE</text><text fill="#000000" font-family="sans-serif" font-size="14" lengthAdjust="spacing" textLength="79.7207" x="13" y="417.2926">APROVADO</text><text fill="#000000" font-family="sans-serif" font-size="14" lengthAdjust="spacing" textLength="88.7168" x="13" y="433.5895">REPROVADO</text><text fill="#000000" font-family="sans-serif" font-size="14" lengthAdjust="spacing" textLength="85.0186" x="13" y="449.8864">CONCLUIDO</text><text fill="#000000" font-family="sans-serif" font-size="14" lengthAdjust="spacing" textLength="87.623" x="13" y="466.1832">CANCELADO</text><line style="stroke:#000000;stroke-width:0.5;" x1="8" x2="223.8027" y1="473.485" y2="473.485"/></g><!--class Processo--><g class="entity" data-qualified-name="Processo" data-source-line="21" id="ent0003"><rect fill="#FFFFFF" height="178.375" rx="2.5" ry="2.5" style="stroke:#000000;stroke-width:0.5;" width="398.9893" x="167.41" y="7"/><ellipse cx="331.5409" cy="23" fill="#ADD1B2" rx="11" ry="11" style="stroke:#181818;stroke-width:1;"/><path d="M334.5096,28.6406 Q333.9315,28.9375 333.2909,29.0781 Q332.6502,29.2344 331.9471,29.2344 Q329.4471,29.2344 328.119,27.5938 Q326.8065,25.9375 326.8065,22.8125 Q326.8065,19.6875 328.119,18.0313 Q329.4471,16.375 331.9471,16.375 Q332.6502,16.375 333.2909,16.5313 Q333.9471,16.6875 334.5096,16.9844 L334.5096,19.7031 Q333.8846,19.125 333.2909,18.8594 Q332.6971,18.5781 332.0721,18.5781 Q330.7284,18.5781 330.0409,19.6563 Q329.3534,20.7188 329.3534,22.8125 Q329.3534,24.9063 330.0409,25.9844 Q330.7284,27.0469 332.0721,27.0469 Q332.6971,27.0469 333.2909,26.7813 Q333.8846,26.5 334.5096,25.9219 L334.5096,28.6406 Z " fill="#000000"/><text fill="#000000" font-family="sans-serif" font-size="14" lengthAdjust="spacing" textLength="62.2275" x="352.0409" y="27.8467">Processo</text><line style="stroke:#000000;stroke-width:0.5;" x1="168.41" x2="565.3993" y1="39" y2="39"/><g data-visibility-modifier="PRIVATE_FIELD"><rect fill="none" height="6" style="stroke:#C82930;stroke-width:1;" width="6" x="175.41" y="49.6484"/></g><text fill="#000000" font-family="sans-serif" font-size="14" lengthAdjust="spacing" textLength="107.5566" x="187.41" y="55.9951">processoId : int</text><g data-visibility-modifier="PRIVATE_FIELD"><rect fill="none" height="6" style="stroke:#C82930;stroke-width:1;" width="6" x="175.41" y="65.9453"/></g><text fill="#000000" font-family="sans-serif" font-size="14" lengthAdjust="spacing" textLength="166.1475" x="187.41" y="72.292">dataCriacao : DateTime</text><g data-visibility-modifier="PRIVATE_FIELD"><rect fill="none" height="6" style="stroke:#C82930;stroke-width:1;" width="6" x="175.41" y="82.2422"/></g><text fill="#000000" font-family="sans-serif" font-size="14" lengthAdjust="spacing" textLength="163.4746" x="187.41" y="88.5889">status : StatusProcesso</text><g data-visibility-modifier="PRIVATE_FIELD"><rect fill="none" height="6" style="stroke:#C82930;stroke-width:1;" width="6" x="175.41" y="98.5391"/></g><text fill="#000000" font-family="sans-serif" font-size="14" lengthAdjust="spacing" textLength="138.0381" x="187.41" y="104.8857">matriculaAluno : int</text><g data-visibility-modifier="PRIVATE_FIELD"><rect fill="none" height="6" style="stroke:#C82930;stroke-width:1;" width="6" x="175.41" y="114.8359"/></g><text fill="#000000" font-family="sans-serif" font-size="14" lengthAdjust="spacing" textLength="190.7158" x="187.41" y="121.1826">matriculaCoordenacao : int</text><g data-visibility-modifier="PRIVATE_FIELD"><rect fill="none" height="6" style="stroke:#C82930;stroke-width:1;" width="6" x="175.41" y="131.1328"/></g><text fill="#000000" font-family="sans-serif" font-size="14" lengthAdjust="spacing" textLength="170.1191" x="187.41" y="137.4795">matriculaSecretaria : int</text><line style="stroke:#000000;stroke-width:0.5;" x1="168.41" x2="565.3993" y1="144.7813" y2="144.7813"/><g data-visibility-modifier="PUBLIC_METHOD"><ellipse cx="178.41" cy="158.4297" fill="#84BE84" rx="3" ry="3" style="stroke:#038048;stroke-width:1;"/></g><text fill="#000000" font-family="sans-serif" font-size="14" lengthAdjust="spacing" textLength="315.875" x="187.41" y="161.7764">atualizarStatus(novoStatus : StatusProcesso)</text><g data-visibility-modifier="PUBLIC_METHOD"><ellipse cx="178.41" cy="174.7266" fill="#84BE84" rx="3" ry="3" style="stroke:#038048;stroke-width:1;"/></g><text fill="#000000" font-family="sans-serif" font-size="14" lengthAdjust="spacing" textLength="372.9893" x="187.41" y="178.0732">validarContrato(aprovado : bool, justificativa : string)</text></g><!--class Contrato--><g class="entity" data-qualified-name="Contrato" data-source-line="32" id="ent0004"><rect fill="#FFFFFF" height="259.8594" rx="2.5" ry="2.5" style="stroke:#000000;stroke-width:0.5;" width="214.7881" x="259.51" y="262.37"/><ellipse cx="332.1077" cy="278.37" fill="#ADD1B2" rx="11" ry="11" style="stroke:#181818;stroke-width:1;"/><path d="M335.0764,284.0106 Q334.4983,284.3075 333.8577,284.4481 Q333.217,284.6044 332.5139,284.6044 Q330.0139,284.6044 328.6858,282.9638 Q327.3733,281.3075 327.3733,278.1825 Q327.3733,275.0575 328.6858,273.4013 Q330.0139,271.745 332.5139,271.745 Q333.217,271.745 333.8577,271.9013 Q334.5139,272.0575 335.0764,272.3544 L335.0764,275.0731 Q334.4514,274.495 333.8577,274.2294 Q333.2639,273.9481 332.6389,273.9481 Q331.2952,273.9481 330.6077,275.0263 Q329.9202,276.0888 329.9202,278.1825 Q329.9202,280.2763 330.6077,281.3544 Q331.2952,282.4169 332.6389,282.4169 Q333.2639,282.4169 333.8577,282.1513 Q334.4514,281.87 335.0764,281.2919 L335.0764,284.0106 Z " fill="#000000"/><text fill="#000000" font-family="sans-serif" font-size="14" lengthAdjust="spacing" textLength="61.0928" x="352.6077" y="283.2167">Contrato</text><line style="stroke:#000000;stroke-width:0.5;" x1="260.51" x2="473.2981" y1="294.37" y2="294.37"/><g data-visibility-modifier="PRIVATE_FIELD"><rect fill="none" height="6" style="stroke:#C82930;stroke-width:1;" width="6" x="267.51" y="305.0184"/></g><text fill="#000000" font-family="sans-serif" font-size="14" lengthAdjust="spacing" textLength="107.5566" x="279.51" y="311.3651">processoId : int</text><g data-visibility-modifier="PRIVATE_FIELD"><rect fill="none" height="6" style="stroke:#C82930;stroke-width:1;" width="6" x="267.51" y="321.3153"/></g><text fill="#000000" font-family="sans-serif" font-size="14" lengthAdjust="spacing" textLength="103.8994" x="279.51" y="327.662">contratoId : int</text><g data-visibility-modifier="PRIVATE_FIELD"><rect fill="none" height="6" style="stroke:#C82930;stroke-width:1;" width="6" x="267.51" y="337.6122"/></g><text fill="#000000" font-family="sans-serif" font-size="14" lengthAdjust="spacing" textLength="147.3281" x="279.51" y="343.9589">nomeArquivo : string</text><g data-visibility-modifier="PRIVATE_FIELD"><rect fill="none" height="6" style="stroke:#C82930;stroke-width:1;" width="6" x="267.51" y="353.9091"/></g><text fill="#000000" font-family="sans-serif" font-size="14" lengthAdjust="spacing" textLength="162.3604" x="279.51" y="360.2557">dataUpload : DateTime</text><g data-visibility-modifier="PRIVATE_FIELD"><rect fill="none" height="6" style="stroke:#C82930;stroke-width:1;" width="6" x="267.51" y="370.2059"/></g><text fill="#000000" font-family="sans-serif" font-size="14" lengthAdjust="spacing" textLength="144.7646" x="279.51" y="376.5526">cnpjEmpresa : string</text><g data-visibility-modifier="PRIVATE_FIELD"><rect fill="none" height="6" style="stroke:#C82930;stroke-width:1;" width="6" x="267.51" y="386.5028"/></g><text fill="#000000" font-family="sans-serif" font-size="14" lengthAdjust="spacing" textLength="155.1074" x="279.51" y="392.8495">nomeEmpresa : string</text><g data-visibility-modifier="PRIVATE_FIELD"><rect fill="none" height="6" style="stroke:#C82930;stroke-width:1;" width="6" x="267.51" y="402.7997"/></g><text fill="#000000" font-family="sans-serif" font-size="14" lengthAdjust="spacing" textLength="115.6572" x="279.51" y="409.1464">dataInicio : Date</text><g data-visibility-modifier="PRIVATE_FIELD"><rect fill="none" height="6" style="stroke:#C82930;stroke-width:1;" width="6" x="267.51" y="419.0966"/></g><text fill="#000000" font-family="sans-serif" font-size="14" lengthAdjust="spacing" textLength="136.5" x="279.51" y="425.4432">dataTermino : Date</text><g data-visibility-modifier="PRIVATE_FIELD"><rect fill="none" height="6" style="stroke:#C82930;stroke-width:1;" width="6" x="267.51" y="435.3934"/></g><text fill="#000000" font-family="sans-serif" font-size="14" lengthAdjust="spacing" textLength="153.5078" x="279.51" y="441.7401">apoliceSeguro : string</text><g data-visibility-modifier="PRIVATE_FIELD"><rect fill="none" height="6" style="stroke:#C82930;stroke-width:1;" width="6" x="267.51" y="451.6903"/></g><text fill="#000000" font-family="sans-serif" font-size="14" lengthAdjust="spacing" textLength="148.415" x="279.51" y="458.037">planoAtividade : bool</text><g data-visibility-modifier="PRIVATE_FIELD"><rect fill="none" height="6" style="stroke:#C82930;stroke-width:1;" width="6" x="267.51" y="467.9872"/></g><text fill="#000000" font-family="sans-serif" font-size="14" lengthAdjust="spacing" textLength="156.5088" x="279.51" y="474.3339">assinaturaAluno : bool</text><g data-visibility-modifier="PRIVATE_FIELD"><rect fill="none" height="6" style="stroke:#C82930;stroke-width:1;" width="6" x="267.51" y="484.2841"/></g><text fill="#000000" font-family="sans-serif" font-size="14" lengthAdjust="spacing" textLength="178.3428" x="279.51" y="490.6307">assinaturaEmpresa : bool</text><g data-visibility-modifier="PRIVATE_FIELD"><rect fill="none" height="6" style="stroke:#C82930;stroke-width:1;" width="6" x="267.51" y="500.5809"/></g><text fill="#000000" font-family="sans-serif" font-size="14" lengthAdjust="spacing" textLength="188.7881" x="279.51" y="506.9276">assinaturaFaculdade : bool</text><line style="stroke:#000000;stroke-width:0.5;" x1="260.51" x2="473.2981" y1="514.2294" y2="514.2294"/></g><!--class Relatorio--><g class="entity" data-qualified-name="Relatorio" data-source-line="48" id="ent0005"><rect fill="#FFFFFF" height="162.0781" rx="2.5" ry="2.5" style="stroke:#000000;stroke-width:0.5;" width="226.7646" x="509.52" y="311.26"/><ellipse cx="587.1147" cy="327.26" fill="#ADD1B2" rx="11" ry="11" style="stroke:#181818;stroke-width:1;"/><path d="M590.0835,332.9006 Q589.5054,333.1975 588.8647,333.3381 Q588.2241,333.4944 587.521,333.4944 Q585.021,333.4944 583.6929,331.8538 Q582.3804,330.1975 582.3804,327.0725 Q582.3804,323.9475 583.6929,322.2913 Q585.021,320.635 587.521,320.635 Q588.2241,320.635 588.8647,320.7913 Q589.521,320.9475 590.0835,321.2444 L590.0835,323.9631 Q589.4585,323.385 588.8647,323.1194 Q588.271,322.8381 587.646,322.8381 Q586.3022,322.8381 585.6147,323.9163 Q584.9272,324.9788 584.9272,327.0725 Q584.9272,329.1663 585.6147,330.2444 Q586.3022,331.3069 587.646,331.3069 Q588.271,331.3069 588.8647,331.0413 Q589.4585,330.76 590.0835,330.1819 L590.0835,332.9006 Z " fill="#000000"/><text fill="#000000" font-family="sans-serif" font-size="14" lengthAdjust="spacing" textLength="63.0752" x="607.6147" y="332.1067">Relatorio</text><line style="stroke:#000000;stroke-width:0.5;" x1="510.52" x2="735.2846" y1="343.26" y2="343.26"/><g data-visibility-modifier="PRIVATE_FIELD"><rect fill="none" height="6" style="stroke:#C82930;stroke-width:1;" width="6" x="517.52" y="353.9084"/></g><text fill="#000000" font-family="sans-serif" font-size="14" lengthAdjust="spacing" textLength="107.5566" x="529.52" y="360.2551">processoId : int</text><g data-visibility-modifier="PRIVATE_FIELD"><rect fill="none" height="6" style="stroke:#C82930;stroke-width:1;" width="6" x="517.52" y="370.2053"/></g><text fill="#000000" font-family="sans-serif" font-size="14" lengthAdjust="spacing" textLength="103.9883" x="529.52" y="376.552">relatorioId : int</text><g data-visibility-modifier="PRIVATE_FIELD"><rect fill="none" height="6" style="stroke:#C82930;stroke-width:1;" width="6" x="517.52" y="386.5022"/></g><text fill="#000000" font-family="sans-serif" font-size="14" lengthAdjust="spacing" textLength="147.3281" x="529.52" y="392.8489">nomeArquivo : string</text><g data-visibility-modifier="PRIVATE_FIELD"><rect fill="none" height="6" style="stroke:#C82930;stroke-width:1;" width="6" x="517.52" y="402.7991"/></g><text fill="#000000" font-family="sans-serif" font-size="14" lengthAdjust="spacing" textLength="162.3604" x="529.52" y="409.1457">dataUpload : DateTime</text><g data-visibility-modifier="PRIVATE_FIELD"><rect fill="none" height="6" style="stroke:#C82930;stroke-width:1;" width="6" x="517.52" y="419.0959"/></g><text fill="#000000" font-family="sans-serif" font-size="14" lengthAdjust="spacing" textLength="157.3906" x="529.52" y="425.4426">horasTrabalhadas : int</text><g data-visibility-modifier="PRIVATE_FIELD"><rect fill="none" height="6" style="stroke:#C82930;stroke-width:1;" width="6" x="517.52" y="435.3928"/></g><text fill="#000000" font-family="sans-serif" font-size="14" lengthAdjust="spacing" textLength="182.2598" x="529.52" y="441.7395">periodoReferencia : string</text><g data-visibility-modifier="PRIVATE_FIELD"><rect fill="none" height="6" style="stroke:#C82930;stroke-width:1;" width="6" x="517.52" y="451.6897"/></g><text fill="#000000" font-family="sans-serif" font-size="14" lengthAdjust="spacing" textLength="200.7646" x="529.52" y="458.0364">aprovadoPelaEmpresa : bool</text><line style="stroke:#000000;stroke-width:0.5;" x1="510.52" x2="735.2846" y1="465.3381" y2="465.3381"/></g><!--reverse link Processo to Contrato--><g class="link" data-entity-1="ent0003" data-entity-2="ent0004" data-link-type="composition" data-source-line="59" id="lnk6"><path codeLine="59" d="M366.9,197.83 C366.9,221.84 366.9,236.35 366.9,262.1" fill="none" id="Processo-backto-Contrato" style="stroke:#000000;stroke-width:1;"/><polygon fill="#000000" points="366.9,185.83,362.9,191.83,366.9,197.83,370.9,191.83,366.9,185.83" style="stroke:#000000;stroke-width:1;"/><polygon fill="#000000" points="371.9,228.9364,374.8389,219.8913,368.9611,219.8913,371.9,228.9364" style="stroke:#000000;stroke-width:1;"/><text fill="#000000" font-family="sans-serif" font-size="13" lengthAdjust="spacing" textLength="49.0991" x="380.9" y="228.4369">cont&#233;m</text><text fill="#000000" font-family="sans-serif" font-size="13" lengthAdjust="spacing" textLength="8.271" x="358.6038" y="205.3395">1</text><text fill="#000000" font-family="sans-serif" font-size="13" lengthAdjust="spacing" textLength="23.0356" x="343.236" y="251.21">1..*</text></g><!--reverse link Processo to Relatorio--><g class="link" data-entity-1="ent0003" data-entity-2="ent0005" data-link-type="composition" data-source-line="60" id="lnk7"><path codeLine="60" d="M451.9374,194.8825 C486.5274,234.6325 519.17,272.12 552.88,310.85" fill="none" id="Processo-backto-Relatorio" style="stroke:#000000;stroke-width:1;"/><polygon fill="#000000" points="444.06,185.83,444.9812,192.982,451.9374,194.8825,451.0162,187.7304,444.06,185.83" style="stroke:#000000;stroke-width:1;"/><polygon fill="#000000" points="488.1828,227.7078,484.461,218.9557,480.0274,222.8148,488.1828,227.7078" style="stroke:#000000;stroke-width:1;"/><text fill="#000000" font-family="sans-serif" font-size="13" lengthAdjust="spacing" textLength="49.0991" x="493.9" y="228.4369">cont&#233;m</text><text fill="#000000" font-family="sans-serif" font-size="13" lengthAdjust="spacing" textLength="8.271" x="441.6713" y="205.3395">1</text><text fill="#000000" font-family="sans-serif" font-size="13" lengthAdjust="spacing" textLength="23.0356" x="522.8757" y="300.2785">0..*</text></g><!--link Processo to StatusProcesso--><g class="link" data-entity-1="ent0003" data-entity-2="ent0002" data-link-type="association" data-source-line="61" id="lnk8"><path codeLine="61" d="M291.25,185.83 C259.64,222.87 222.99,265.82 191.4,302.84" fill="none" id="Processo-StatusProcesso" style="stroke:#000000;stroke-width:1;"/><polygon fill="#000000" points="265.6544,227.7398,273.7614,222.7671,269.2902,218.9517,265.6544,227.7398" style="stroke:#000000;stroke-width:1;"/><text fill="#000000" font-family="sans-serif" font-size="13" lengthAdjust="spacing" textLength="41.6025" x="277.9" y="228.4369">possui</text><text fill="#000000" font-family="sans-serif" font-size="13" lengthAdjust="spacing" textLength="23.0356" x="261.5786" y="205.3395">0..*</text><text fill="#000000" font-family="sans-serif" font-size="13" lengthAdjust="spacing" textLength="8.271" x="189.1083" y="292.1859">1</text></g><?plantuml-src dLJBRjim4BphAmXVycWTDDSS0j0o2xX8BKDIscEmeHY72SLLISe5MlHhUYZw7VwnBYrRaHtdqjjgTZYxErpgX8t7OoPyq0PzZ1F_h6q33cec3NZFVYOJaCzBXwsjKZJesDT77LJ2dSFl7J0nn4Wcw2hbXiYl93dfz6rRT-gA8bO42ArVE9JAUwGAV2BoCal4vpi-vpUpGjmL8ir5oVCP7w9fbkLJCUSfpvA5c5DOYZl-wROeHS8NUVQ5JxCa5xiepURfpUqiHdoUYfk8zJsbSJhbMQLOtubYKvHjhMo0zP_rRzoqtDamw7RCckt7h69NJDj0K0K1KgT10X8sXQ1ANIjA-CsmXErFJPaQWjEoDS1DQx5Nwk4KewDsAtcGB9HqAW1LtERUCP87et-0wogTMbnXSRpw6T5NHAw0Bim61m5FWQPQGHLhtIEQz-offRLuq1A2NiKgdahRvLcqiFDaT_GjJ-GsFu0iregxRwrUOQ-uTU-sCGZLlddIDa-YRfpoCAH7bIDmL9bPBVNk2hPOgLojxG241esMgb3BrktrqHYmo6bUSeOMetCY7l1UMpBGzNVrAl7IpwlKHw0R6mhs3kRAa3zElscXsn7-tyD7TE1B1_TW7g42t-iqYdGhpDM3SifAlUVbRXiMrC31QFqJYjsJsHRYYy7zfnHVJlynkXonSpemkhouE1-zxCtLPaNMVsjsVOJyOKD-iUWuksDjn4U7VvOhrg3thMRN_m00?></g></svg>