<svg xmlns="http://www.w3.org/2000/svg" xmlns:xlink="http://www.w3.org/1999/xlink" contentStyleType="text/css" data-diagram-type="CLASS" height="429px" preserveAspectRatio="none" style="width:406px;height:429px;background:#FFFFFF;" version="1.1" viewBox="0 0 406 429" width="406px" zoomAndPan="magnify"><?plantuml 1.2026.3beta6?><defs/><g><!--class Usuario--><g class="entity" data-qualified-name="Usuario" data-source-line="9" id="ent0002"><rect fill="#FFFFFF" height="48" rx="2.5" ry="2.5" style="stroke:#000000;stroke-width:0.5;" width="85.2041" x="113.53" y="7"/><ellipse cx="128.53" cy="23" fill="#A9DCDF" rx="11" ry="11" style="stroke:#181818;stroke-width:1;"/><path d="M128.6394,18.3438 L127.4831,23.4219 L129.8113,23.4219 L128.6394,18.3438 Z M127.155,16.1094 L130.1394,16.1094 L133.4988,28.5 L131.0456,28.5 L130.28,25.4375 L126.9988,25.4375 L126.2488,28.5 L123.8113,28.5 L127.155,16.1094 Z " fill="#000000"/><text fill="#000000" font-family="sans-serif" font-size="14" font-style="italic" lengthAdjust="spacing" textLength="53.2041" x="142.53" y="27.8467">Usuario</text><line style="stroke:#000000;stroke-width:0.5;" x1="114.53" x2="197.7341" y1="39" y2="39"/><line style="stroke:#000000;stroke-width:0.5;" x1="114.53" x2="197.7341" y1="47" y2="47"/></g><!--class Aluno--><g class="entity" data-qualified-name="Aluno" data-source-line="17" id="ent0003"><rect fill="#FFFFFF" height="48" rx="2.5" ry="2.5" style="stroke:#000000;stroke-width:0.5;" width="71.7783" x="120.24" y="116"/><ellipse cx="135.24" cy="132" fill="#ADD1B2" rx="11" ry="11" style="stroke:#181818;stroke-width:1;"/><path d="M138.2088,137.6406 Q137.6306,137.9375 136.99,138.0781 Q136.3494,138.2344 135.6463,138.2344 Q133.1463,138.2344 131.8181,136.5938 Q130.5056,134.9375 130.5056,131.8125 Q130.5056,128.6875 131.8181,127.0313 Q133.1463,125.375 135.6463,125.375 Q136.3494,125.375 136.99,125.5313 Q137.6463,125.6875 138.2088,125.9844 L138.2088,128.7031 Q137.5838,128.125 136.99,127.8594 Q136.3963,127.5781 135.7713,127.5781 Q134.4275,127.5781 133.74,128.6563 Q133.0525,129.7188 133.0525,131.8125 Q133.0525,133.9063 133.74,134.9844 Q134.4275,136.0469 135.7713,136.0469 Q136.3963,136.0469 136.99,135.7813 Q137.5838,135.5 138.2088,134.9219 L138.2088,137.6406 Z " fill="#000000"/><text fill="#000000" font-family="sans-serif" font-size="14" lengthAdjust="spacing" textLength="39.7783" x="149.24" y="136.8467">Aluno</text><line style="stroke:#000000;stroke-width:0.5;" x1="121.24" x2="191.0183" y1="148" y2="148"/><line style="stroke:#000000;stroke-width:0.5;" x1="121.24" x2="191.0183" y1="156" y2="156"/></g><!--class Curso--><g class="entity" data-qualified-name="Curso" data-source-line="26" id="ent0005"><rect fill="#FFFFFF" height="48" rx="2.5" ry="2.5" style="stroke:#000000;stroke-width:0.5;" width="72.2637" x="7" y="241"/><ellipse cx="22" cy="257" fill="#ADD1B2" rx="11" ry="11" style="stroke:#181818;stroke-width:1;"/><path d="M24.9688,262.6406 Q24.3906,262.9375 23.75,263.0781 Q23.1094,263.2344 22.4063,263.2344 Q19.9063,263.2344 18.5781,261.5938 Q17.2656,259.9375 17.2656,256.8125 Q17.2656,253.6875 18.5781,252.0313 Q19.9063,250.375 22.4063,250.375 Q23.1094,250.375 23.75,250.5313 Q24.4063,250.6875 24.9688,250.9844 L24.9688,253.7031 Q24.3438,253.125 23.75,252.8594 Q23.1563,252.5781 22.5313,252.5781 Q21.1875,252.5781 20.5,253.6563 Q19.8125,254.7188 19.8125,256.8125 Q19.8125,258.9063 20.5,259.9844 Q21.1875,261.0469 22.5313,261.0469 Q23.1563,261.0469 23.75,260.7813 Q24.3438,260.5 24.9688,259.9219 L24.9688,262.6406 Z " fill="#000000"/><text fill="#000000" font-family="sans-serif" font-size="14" lengthAdjust="spacing" textLength="40.2637" x="36" y="261.8467">Curso</text><line style="stroke:#000000;stroke-width:0.5;" x1="8" x2="78.2637" y1="273" y2="273"/><line style="stroke:#000000;stroke-width:0.5;" x1="8" x2="78.2637" y1="281" y2="281"/></g><!--class Periodo--><g class="entity" data-qualified-name="Periodo" data-source-line="29" id="ent0006"><rect fill="#FFFFFF" height="48" rx="2.5" ry="2.5" style="stroke:#000000;stroke-width:0.5;" width="84.7188" x="113.77" y="241"/><ellipse cx="128.77" cy="257" fill="#ADD1B2" rx="11" ry="11" style="stroke:#181818;stroke-width:1;"/><path d="M131.7387,262.6406 Q131.1606,262.9375 130.52,263.0781 Q129.8794,263.2344 129.1762,263.2344 Q126.6762,263.2344 125.3481,261.5938 Q124.0356,259.9375 124.0356,256.8125 Q124.0356,253.6875 125.3481,252.0313 Q126.6762,250.375 129.1762,250.375 Q129.8794,250.375 130.52,250.5313 Q131.1762,250.6875 131.7387,250.9844 L131.7387,253.7031 Q131.1137,253.125 130.52,252.8594 Q129.9262,252.5781 129.3012,252.5781 Q127.9575,252.5781 127.27,253.6563 Q126.5825,254.7188 126.5825,256.8125 Q126.5825,258.9063 127.27,259.9844 Q127.9575,261.0469 129.3012,261.0469 Q129.9262,261.0469 130.52,260.7813 Q131.1137,260.5 131.7387,259.9219 L131.7387,262.6406 Z " fill="#000000"/><text fill="#000000" font-family="sans-serif" font-size="14" lengthAdjust="spacing" textLength="52.7188" x="142.77" y="261.8467">Periodo</text><line style="stroke:#000000;stroke-width:0.5;" x1="114.77" x2="197.4887" y1="273" y2="273"/><line style="stroke:#000000;stroke-width:0.5;" x1="114.77" x2="197.4887" y1="281" y2="281"/></g><!--class Processo--><g class="entity" data-qualified-name="Processo" data-source-line="32" id="ent0007"><rect fill="#FFFFFF" height="48" rx="2.5" ry="2.5" style="stroke:#000000;stroke-width:0.5;" width="94.2275" x="233.02" y="241"/><ellipse cx="248.02" cy="257" fill="#ADD1B2" rx="11" ry="11" style="stroke:#181818;stroke-width:1;"/><path d="M250.9888,262.6406 Q250.4106,262.9375 249.77,263.0781 Q249.1294,263.2344 248.4263,263.2344 Q245.9263,263.2344 244.5981,261.5938 Q243.2856,259.9375 243.2856,256.8125 Q243.2856,253.6875 244.5981,252.0313 Q245.9263,250.375 248.4263,250.375 Q249.1294,250.375 249.77,250.5313 Q250.4263,250.6875 250.9888,250.9844 L250.9888,253.7031 Q250.3638,253.125 249.77,252.8594 Q249.1763,252.5781 248.5513,252.5781 Q247.2075,252.5781 246.52,253.6563 Q245.8325,254.7188 245.8325,256.8125 Q245.8325,258.9063 246.52,259.9844 Q247.2075,261.0469 248.5513,261.0469 Q249.1763,261.0469 249.77,260.7813 Q250.3638,260.5 250.9888,259.9219 L250.9888,262.6406 Z " fill="#000000"/><text fill="#000000" font-family="sans-serif" font-size="14" lengthAdjust="spacing" textLength="62.2275" x="262.02" y="261.8467">Processo</text><line style="stroke:#000000;stroke-width:0.5;" x1="234.02" x2="326.2475" y1="273" y2="273"/><line style="stroke:#000000;stroke-width:0.5;" x1="234.02" x2="326.2475" y1="281" y2="281"/></g><!--class Contrato--><g class="entity" data-qualified-name="Contrato" data-source-line="35" id="ent0008"><rect fill="#FFFFFF" height="48" rx="2.5" ry="2.5" style="stroke:#000000;stroke-width:0.5;" width="93.0928" x="168.59" y="366"/><ellipse cx="183.59" cy="382" fill="#ADD1B2" rx="11" ry="11" style="stroke:#181818;stroke-width:1;"/><path d="M186.5588,387.6406 Q185.9806,387.9375 185.34,388.0781 Q184.6994,388.2344 183.9963,388.2344 Q181.4963,388.2344 180.1681,386.5938 Q178.8556,384.9375 178.8556,381.8125 Q178.8556,378.6875 180.1681,377.0313 Q181.4963,375.375 183.9963,375.375 Q184.6994,375.375 185.34,375.5313 Q185.9963,375.6875 186.5588,375.9844 L186.5588,378.7031 Q185.9338,378.125 185.34,377.8594 Q184.7463,377.5781 184.1213,377.5781 Q182.7775,377.5781 182.09,378.6563 Q181.4025,379.7188 181.4025,381.8125 Q181.4025,383.9063 182.09,384.9844 Q182.7775,386.0469 184.1213,386.0469 Q184.7463,386.0469 185.34,385.7813 Q185.9338,385.5 186.5588,384.9219 L186.5588,387.6406 Z " fill="#000000"/><text fill="#000000" font-family="sans-serif" font-size="14" lengthAdjust="spacing" textLength="61.0928" x="197.59" y="386.8467">Contrato</text><line style="stroke:#000000;stroke-width:0.5;" x1="169.59" x2="260.6828" y1="398" y2="398"/><line style="stroke:#000000;stroke-width:0.5;" x1="169.59" x2="260.6828" y1="406" y2="406"/></g><!--class Relatorio--><g class="entity" data-qualified-name="Relatorio" data-source-line="38" id="ent0009"><rect fill="#FFFFFF" height="48" rx="2.5" ry="2.5" style="stroke:#000000;stroke-width:0.5;" width="95.0752" x="296.59" y="366"/><ellipse cx="311.59" cy="382" fill="#ADD1B2" rx="11" ry="11" style="stroke:#181818;stroke-width:1;"/><path d="M314.5588,387.6406 Q313.9806,387.9375 313.34,388.0781 Q312.6994,388.2344 311.9963,388.2344 Q309.4963,388.2344 308.1681,386.5938 Q306.8556,384.9375 306.8556,381.8125 Q306.8556,378.6875 308.1681,377.0313 Q309.4963,375.375 311.9963,375.375 Q312.6994,375.375 313.34,375.5313 Q313.9963,375.6875 314.5588,375.9844 L314.5588,378.7031 Q313.9338,378.125 313.34,377.8594 Q312.7463,377.5781 312.1213,377.5781 Q310.7775,377.5781 310.09,378.6563 Q309.4025,379.7188 309.4025,381.8125 Q309.4025,383.9063 310.09,384.9844 Q310.7775,386.0469 312.1213,386.0469 Q312.7463,386.0469 313.34,385.7813 Q313.9338,385.5 314.5588,384.9219 L314.5588,387.6406 Z " fill="#000000"/><text fill="#000000" font-family="sans-serif" font-size="14" lengthAdjust="spacing" textLength="63.0752" x="325.59" y="386.8467">Relatorio</text><line style="stroke:#000000;stroke-width:0.5;" x1="297.59" x2="390.6652" y1="398" y2="398"/><line style="stroke:#000000;stroke-width:0.5;" x1="297.59" x2="390.6652" y1="406" y2="406"/></g><!--reverse link Usuario to Aluno--><g class="link" data-entity-1="ent0002" data-entity-2="ent0003" data-link-type="extension" id="lnk4"><path d="M156.13,73.48 C156.13,91.32 156.13,97.75 156.13,115.57" fill="none" id="Usuario-backto-Aluno" style="stroke:#000000;stroke-width:1;"/><polygon fill="none" points="156.13,55.48,150.13,73.48,162.13,73.48,156.13,55.48" style="stroke:#000000;stroke-width:1;"/></g><!--link Aluno to Curso--><g class="link" data-entity-1="ent0003" data-entity-2="ent0005" data-link-type="association" data-source-line="42" id="lnk10"><path codeLine="42" d="M134.61,164.42 C114.5,186.31 84.65,218.8 64.57,240.66" fill="none" id="Aluno-Curso" style="stroke:#000000;stroke-width:1;"/><text fill="#000000" font-family="sans-serif" font-size="13" lengthAdjust="spacing" textLength="23.0356" x="103.9784" y="183.8838">0..*</text><text fill="#000000" font-family="sans-serif" font-size="13" lengthAdjust="spacing" textLength="8.271" x="60.8536" y="229.9821">1</text></g><!--link Aluno to Periodo--><g class="link" data-entity-1="ent0003" data-entity-2="ent0006" data-link-type="association" data-source-line="43" id="lnk11"><path codeLine="43" d="M156.13,164.42 C156.13,186.31 156.13,218.8 156.13,240.66" fill="none" id="Aluno-Periodo" style="stroke:#000000;stroke-width:1;"/><text fill="#000000" font-family="sans-serif" font-size="13" lengthAdjust="spacing" textLength="23.0356" x="158.7937" y="183.8838">0..*</text><text fill="#000000" font-family="sans-serif" font-size="13" lengthAdjust="spacing" textLength="8.271" x="147.1882" y="229.9821">1</text></g><!--link Aluno to Processo--><g class="link" data-entity-1="ent0003" data-entity-2="ent0007" data-link-type="association" data-source-line="44" id="lnk12"><path codeLine="44" d="M179.75,164.42 C201.81,186.31 234.57,218.8 256.6,240.66" fill="none" id="Aluno-Processo" style="stroke:#000000;stroke-width:1;"/><polygon fill="#000000" points="233.6796,206.0878,229.3282,197.6311,225.1885,201.8039,233.6796,206.0878" style="stroke:#000000;stroke-width:1;"/><text fill="#000000" font-family="sans-serif" font-size="13" lengthAdjust="spacing" textLength="41.6025" x="239.13" y="207.0669">possui</text><text fill="#000000" font-family="sans-serif" font-size="13" lengthAdjust="spacing" textLength="8.271" x="186.1687" y="183.8838">1</text><text fill="#000000" font-family="sans-serif" font-size="13" lengthAdjust="spacing" textLength="24.8066" x="224.037" y="229.9821">0..1</text></g><!--reverse link Processo to Contrato--><g class="link" data-entity-1="ent0007" data-entity-2="ent0008" data-link-type="composition" data-source-line="45" id="lnk13"><path codeLine="45" d="M249.4569,298.3848 C241.8669,307.1348 241.78,308.46 236.13,319 C228.28,333.65 222.96,351.63 219.65,365.71" fill="none" id="Processo-backto-Contrato" style="stroke:#000000;stroke-width:1;"/><polygon fill="#000000" points="257.32,289.32,250.3668,291.2314,249.4569,298.3848,256.4101,296.4735,257.32,289.32" style="stroke:#000000;stroke-width:1;"/><polygon fill="#000000" points="239.1059,332.1384,245.4549,325.0574,240.0802,322.6778,239.1059,332.1384" style="stroke:#000000;stroke-width:1;"/><text fill="#000000" font-family="sans-serif" font-size="13" lengthAdjust="spacing" textLength="49.0991" x="250.13" y="332.0669">cont&#233;m</text><text fill="#000000" font-family="sans-serif" font-size="13" lengthAdjust="spacing" textLength="8.271" x="242.8172" y="309.1592">1</text><text fill="#000000" font-family="sans-serif" font-size="13" lengthAdjust="spacing" textLength="23.0356" x="194.9514" y="355.0443">1..*</text></g><!--reverse link Processo to Relatorio--><g class="link" data-entity-1="ent0007" data-entity-2="ent0009" data-link-type="composition" data-source-line="46" id="lnk14"><path codeLine="46" d="M297.859,300.0652 C309.249,321.9552 320.62,343.8 331.99,365.66" fill="none" id="Processo-backto-Relatorio" style="stroke:#000000;stroke-width:1;"/><polygon fill="#000000" points="292.32,289.42,291.5411,296.5889,297.859,300.0652,298.6379,292.8963,292.32,289.42" style="stroke:#000000;stroke-width:1;"/><polygon fill="#000000" points="322.4379,332.0019,320.87,322.6215,315.6557,325.3346,322.4379,332.0019" style="stroke:#000000;stroke-width:1;"/><text fill="#000000" font-family="sans-serif" font-size="13" lengthAdjust="spacing" textLength="49.0991" x="329.13" y="332.0669">cont&#233;m</text><text fill="#000000" font-family="sans-serif" font-size="13" lengthAdjust="spacing" textLength="8.271" x="286.2444" y="308.8838">1</text><text fill="#000000" font-family="sans-serif" font-size="13" lengthAdjust="spacing" textLength="23.0356" x="303.2327" y="354.9821">0..*</text></g><?plantuml-src RPBBQiCm44Nt_eh1NUHH79fj5eKaT1yAfUk9B58HMHFqQ0Eb7zJlw8zrzB1ZGrRMdBcUUpNs39gcWHVdbIONpvKxAtD1Ynq8ZSx1TxL3SJvP2gRTaoOBxn_AosfhBNrbiDEig7PaMsd7vAUgPcd-FawI3bwbbfzelCnMU7JUel35wSq5j8hOSGOFqA6tIWIDi05bV6A6EiablwNCAH7PeT9JvAJvm35w14qdPUOBXaSY7NDbnwqEXa1UlJJjrBy14QmZVcCVdubS97VRo0xvbAab8PsZhGyOannAdOoLKKAXxLcAC16WaLVafHbUXATvIo9Qbd8nal3gcB1jqGprudQT59NZ3w3adA3YFcQztvWDypFCtp52eSXW9uql_qlUOVsqMYrh1b2lwxApUvr-SwMtpWsMn5uVRGCNSYueUAu65gNBD2ID6o9lGF3nxxUxAyxUjxkCrFy0?></g></svg>