<svg xmlns="http://www.w3.org/2000/svg" xmlns:xlink="http://www.w3.org/1999/xlink" contentStyleType="text/css" data-diagram-type="CLASS" height="450px" preserveAspectRatio="none" style="width:570px;height:450px;background:#FFFFFF;" version="1.1" viewBox="0 0 570 450" width="570px" zoomAndPan="magnify"><?plantuml 1.2026.3beta6?><defs/><g><!--class Usuario--><g class="entity" data-qualified-name="Usuario" data-source-line="9" id="ent0002"><rect fill="#FFFFFF" height="129.4844" rx="2.5" ry="2.5" style="stroke:#000000;stroke-width:0.5;" width="124.2598" x="219.06" y="7"/><ellipse cx="251.635" cy="23" fill="#A9DCDF" rx="11" ry="11" style="stroke:#181818;stroke-width:1;"/><path d="M251.7444,18.3438 L250.5882,23.4219 L252.9163,23.4219 L251.7444,18.3438 Z M250.26,16.1094 L253.2444,16.1094 L256.6038,28.5 L254.1507,28.5 L253.385,25.4375 L250.1038,25.4375 L249.3538,28.5 L246.9163,28.5 L250.26,16.1094 Z " fill="#000000"/><text fill="#000000" font-family="sans-serif" font-size="14" font-style="italic" lengthAdjust="spacing" textLength="53.2041" x="269.5406" y="27.8467">Usuario</text><line style="stroke:#000000;stroke-width:0.5;" x1="220.06" x2="342.3198" y1="39" y2="39"/><g data-visibility-modifier="PROTECTED_FIELD"><polygon fill="none" points="230.06,47.6484,234.06,51.6484,230.06,55.6484,226.06,51.6484" style="stroke:#B38D22;stroke-width:1;"/></g><text fill="#000000" font-family="sans-serif" font-size="14" lengthAdjust="spacing" textLength="98.2598" x="239.06" y="55.9951">matricula : int</text><g data-visibility-modifier="PROTECTED_FIELD"><polygon fill="none" points="230.06,63.9453,234.06,67.9453,230.06,71.9453,226.06,67.9453" style="stroke:#B38D22;stroke-width:1;"/></g><text fill="#000000" font-family="sans-serif" font-size="14" lengthAdjust="spacing" textLength="93.4951" x="239.06" y="72.292">nome : string</text><g data-visibility-modifier="PROTECTED_FIELD"><polygon fill="none" points="230.06,80.2422,234.06,84.2422,230.06,88.2422,226.06,84.2422" style="stroke:#B38D22;stroke-width:1;"/></g><text fill="#000000" font-family="sans-serif" font-size="14" lengthAdjust="spacing" textLength="92.415" x="239.06" y="88.5889">email : string</text><g data-visibility-modifier="PROTECTED_FIELD"><polygon fill="none" points="230.06,96.5391,234.06,100.5391,230.06,104.5391,226.06,100.5391" style="stroke:#B38D22;stroke-width:1;"/></g><text fill="#000000" font-family="sans-serif" font-size="14" lengthAdjust="spacing" textLength="96.0381" x="239.06" y="104.8857">senha : string</text><line style="stroke:#000000;stroke-width:0.5;" x1="220.06" x2="342.3198" y1="112.1875" y2="112.1875"/><g data-visibility-modifier="PUBLIC_METHOD"><ellipse cx="230.06" cy="125.8359" fill="#84BE84" rx="3" ry="3" style="stroke:#038048;stroke-width:1;"/></g><text fill="#000000" font-family="sans-serif" font-size="14" lengthAdjust="spacing" textLength="88.5527" x="239.06" y="129.1826">login() : bool</text></g><!--class Secretaria--><g class="entity" data-qualified-name="Secretaria" data-source-line="17" id="ent0003"><rect fill="#FFFFFF" height="113.1875" rx="2.5" ry="2.5" style="stroke:#000000;stroke-width:0.5;" width="548.3887" x="7" y="197.48"/><ellipse cx="241.0146" cy="213.48" fill="#ADD1B2" rx="11" ry="11" style="stroke:#181818;stroke-width:1;"/><path d="M243.9834,219.1206 Q243.4053,219.4175 242.7646,219.5581 Q242.124,219.7144 241.4209,219.7144 Q238.9209,219.7144 237.5928,218.0738 Q236.2803,216.4175 236.2803,213.2925 Q236.2803,210.1675 237.5928,208.5113 Q238.9209,206.855 241.4209,206.855 Q242.124,206.855 242.7646,207.0113 Q243.4209,207.1675 243.9834,207.4644 L243.9834,210.1831 Q243.3584,209.605 242.7646,209.3394 Q242.1709,209.0581 241.5459,209.0581 Q240.2021,209.0581 239.5146,210.1363 Q238.8271,211.1988 238.8271,213.2925 Q238.8271,215.3863 239.5146,216.4644 Q240.2021,217.5269 241.5459,217.5269 Q242.1709,217.5269 242.7646,217.2613 Q243.3584,216.98 243.9834,216.4019 L243.9834,219.1206 Z " fill="#000000"/><text fill="#000000" font-family="sans-serif" font-size="14" lengthAdjust="spacing" textLength="71.8594" x="261.5146" y="218.3267">Secretaria</text><line style="stroke:#000000;stroke-width:0.5;" x1="8" x2="554.3887" y1="229.48" y2="229.48"/><line style="stroke:#000000;stroke-width:0.5;" x1="8" x2="554.3887" y1="237.48" y2="237.48"/><g data-visibility-modifier="PUBLIC_METHOD"><ellipse cx="18" cy="251.1284" fill="#84BE84" rx="3" ry="3" style="stroke:#038048;stroke-width:1;"/></g><text fill="#000000" font-family="sans-serif" font-size="14" lengthAdjust="spacing" textLength="520.4063" x="27" y="254.4751">validarContrato(processo : Processo, aprovado : bool, justificativa : string)</text><g data-visibility-modifier="PUBLIC_METHOD"><ellipse cx="18" cy="267.4253" fill="#84BE84" rx="3" ry="3" style="stroke:#038048;stroke-width:1;"/></g><text fill="#000000" font-family="sans-serif" font-size="14" lengthAdjust="spacing" textLength="522.3887" x="27" y="270.772">validarRelatorio(processo : Processo, aprovado : bool, justificativa : string)</text><g data-visibility-modifier="PUBLIC_METHOD"><ellipse cx="18" cy="283.7222" fill="#84BE84" rx="3" ry="3" style="stroke:#038048;stroke-width:1;"/></g><text fill="#000000" font-family="sans-serif" font-size="14" lengthAdjust="spacing" textLength="288.6475" x="27" y="287.0689">pesquisarAlunos(matricula : int) : Aluno[]</text><g data-visibility-modifier="PUBLIC_METHOD"><ellipse cx="18" cy="300.0191" fill="#84BE84" rx="3" ry="3" style="stroke:#038048;stroke-width:1;"/></g><text fill="#000000" font-family="sans-serif" font-size="14" lengthAdjust="spacing" textLength="275.8096" x="27" y="303.3657">listarProcessosPendentes() : Processo[]</text></g><!--class Processo--><g class="entity" data-qualified-name="Processo" data-source-line="24" id="ent0005"><rect fill="#FFFFFF" height="48" rx="2.5" ry="2.5" style="stroke:#000000;stroke-width:0.5;" width="94.2275" x="175.08" y="387.67"/><ellipse cx="190.08" cy="403.67" fill="#ADD1B2" rx="11" ry="11" style="stroke:#181818;stroke-width:1;"/><path d="M193.0488,409.3106 Q192.4706,409.6075 191.83,409.7481 Q191.1894,409.9044 190.4863,409.9044 Q187.9863,409.9044 186.6581,408.2638 Q185.3456,406.6075 185.3456,403.4825 Q185.3456,400.3575 186.6581,398.7013 Q187.9863,397.045 190.4863,397.045 Q191.1894,397.045 191.83,397.2013 Q192.4863,397.3575 193.0488,397.6544 L193.0488,400.3731 Q192.4238,399.795 191.83,399.5294 Q191.2363,399.2481 190.6113,399.2481 Q189.2675,399.2481 188.58,400.3263 Q187.8925,401.3888 187.8925,403.4825 Q187.8925,405.5763 188.58,406.6544 Q189.2675,407.7169 190.6113,407.7169 Q191.2363,407.7169 191.83,407.4513 Q192.4238,407.17 193.0488,406.5919 L193.0488,409.3106 Z " fill="#000000"/><text fill="#000000" font-family="sans-serif" font-size="14" lengthAdjust="spacing" textLength="62.2275" x="204.08" y="408.5167">Processo</text><line style="stroke:#000000;stroke-width:0.5;" x1="176.08" x2="268.3075" y1="419.67" y2="419.67"/><line style="stroke:#000000;stroke-width:0.5;" x1="176.08" x2="268.3075" y1="427.67" y2="427.67"/></g><!--class Aluno--><g class="entity" data-qualified-name="Aluno" data-source-line="27" id="ent0006"><rect fill="#FFFFFF" height="48" rx="2.5" ry="2.5" style="stroke:#000000;stroke-width:0.5;" width="71.7783" x="304.31" y="387.67"/><ellipse cx="319.31" cy="403.67" fill="#ADD1B2" rx="11" ry="11" style="stroke:#181818;stroke-width:1;"/><path d="M322.2788,409.3106 Q321.7006,409.6075 321.06,409.7481 Q320.4194,409.9044 319.7163,409.9044 Q317.2163,409.9044 315.8881,408.2638 Q314.5756,406.6075 314.5756,403.4825 Q314.5756,400.3575 315.8881,398.7013 Q317.2163,397.045 319.7163,397.045 Q320.4194,397.045 321.06,397.2013 Q321.7163,397.3575 322.2788,397.6544 L322.2788,400.3731 Q321.6538,399.795 321.06,399.5294 Q320.4663,399.2481 319.8413,399.2481 Q318.4975,399.2481 317.81,400.3263 Q317.1225,401.3888 317.1225,403.4825 Q317.1225,405.5763 317.81,406.6544 Q318.4975,407.7169 319.8413,407.7169 Q320.4663,407.7169 321.06,407.4513 Q321.6538,407.17 322.2788,406.5919 L322.2788,409.3106 Z " fill="#000000"/><text fill="#000000" font-family="sans-serif" font-size="14" lengthAdjust="spacing" textLength="39.7783" x="333.31" y="408.5167">Aluno</text><line style="stroke:#000000;stroke-width:0.5;" x1="305.31" x2="375.0883" y1="419.67" y2="419.67"/><line style="stroke:#000000;stroke-width:0.5;" x1="305.31" x2="375.0883" y1="427.67" y2="427.67"/></g><!--reverse link Usuario to Secretaria--><g class="link" data-entity-1="ent0002" data-entity-2="ent0003" data-link-type="extension" data-source-line="18" id="lnk4"><path d="M281.19,154.83 C281.19,174.57 281.19,178.14 281.19,197.27" fill="none" id="Usuario-backto-Secretaria" style="stroke:#000000;stroke-width:1;"/><polygon fill="none" points="281.19,136.83,275.19,154.83,287.19,154.83,281.19,136.83" style="stroke:#000000;stroke-width:1;"/></g><!--link Secretaria to Processo--><g class="link" data-entity-1="ent0003" data-entity-2="ent0005" data-link-type="association" data-source-line="31" id="lnk7"><path codeLine="31" d="M253.33,311.12 C248.98,320.86 244.75,330.97 241.19,340.67 C235.61,355.92 230.83,373.58 227.46,387.34" fill="none" id="Secretaria-Processo" style="stroke:#000000;stroke-width:1;"/><polygon fill="#000000" points="244.583,353.9711,250.2731,346.3505,244.7071,344.4614,244.583,353.9711" style="stroke:#000000;stroke-width:1;"/><text fill="#000000" font-family="sans-serif" font-size="13" lengthAdjust="spacing" textLength="41.1328" x="255.19" y="353.7369">audita</text><text fill="#000000" font-family="sans-serif" font-size="13" lengthAdjust="spacing" textLength="8.271" x="241.6614" y="330.6577">1</text><text fill="#000000" font-family="sans-serif" font-size="13" lengthAdjust="spacing" textLength="23.0356" x="202.9449" y="376.6645">0..*</text></g><!--link Secretaria to Aluno--><g class="link" data-entity-1="ent0003" data-entity-2="ent0006" data-link-type="association" data-source-line="32" id="lnk8"><path codeLine="32" d="M302.33,310.81 C312.31,337.14 323.69,367.15 331.35,387.34" fill="none" id="Secretaria-Aluno" style="stroke:#000000;stroke-width:1;"/><polygon fill="#000000" points="325.9628,353.9116,325.5038,344.4121,320.0078,346.4962,325.9628,353.9116" style="stroke:#000000;stroke-width:1;"/><text fill="#000000" font-family="sans-serif" font-size="13" lengthAdjust="spacing" textLength="57.8652" x="333.19" y="353.7369">pesquisa</text><text fill="#000000" font-family="sans-serif" font-size="13" lengthAdjust="spacing" textLength="8.271" x="296.4349" y="330.7138">1</text><text fill="#000000" font-family="sans-serif" font-size="13" lengthAdjust="spacing" textLength="23.0356" x="303.3942" y="376.6645">0..*</text></g><?plantuml-src fP8xJyD048Hx_ugLAPAGXw1D4Ic9w2CGea0K6tj9bfnlm-tP827-E-j7uWY9Ykxkk_FCpfm7C9rEuKuZEz5wdUY1_H435f0vL8MlP8NPOHUazFbQd0HusdEaP1c2VBHWvUn6ifAGKxWatqaoQFJNjH8ft9EZ2dsarWgt6WDciNDwr183YpbUGO4nS5OwX3cmZqQy56GR-uBzplPK8BjBeEJts8CnEDcn7uuCRKLSFKthyq1Pe6XM2FGPoUUNrcEeq76E5iJRS566no0PgOhfRBhb1D1eXRbquXDuAwt3LyumSjLFCUhrBBkfcSc_1O-axoKhXgKhlUZmLrTruERa-QKkWTMYddnqOt6fVe2cbnEsc-TsJiowEBD6hWNjWzPXCXQFXObrFyv5hUbjQWZIczdiEkqLvu1bpX5XyVVbrcf-3WcB7m00?></g></svg>