<svg xmlns="http://www.w3.org/2000/svg" xmlns:xlink="http://www.w3.org/1999/xlink" contentStyleType="text/css" data-diagram-type="CLASS" height="934px" preserveAspectRatio="none" style="width:1499px;height:934px;background:#FFFFFF;" version="1.1" viewBox="0 0 1499 934" width="1499px" zoomAndPan="magnify"><?plantuml 1.2026.4beta2?><defs/><g><!--class StatusProcesso--><g class="entity" data-qualified-name="StatusProcesso" data-source-line="9" id="ent0002"><rect fill="#FFFFFF" height="178.375" rx="2.5" ry="2.5" style="stroke:#000000;stroke-width:0.5;" width="217.8027" x="429.35" y="700.08"/><ellipse cx="480.5819" cy="716.08" fill="#EB937F" rx="11" ry="11" style="stroke:#181818;stroke-width:1;"/><path d="M484.6913,722.08 L476.9726,722.08 L476.9726,709.6894 L484.6913,709.6894 L484.6913,711.8456 L479.4257,711.8456 L479.4257,714.5175 L484.1913,714.5175 L484.1913,716.6738 L479.4257,716.6738 L479.4257,719.9238 L484.6913,719.9238 L484.6913,722.08 Z " fill="#000000"/><text fill="#000000" font-family="sans-serif" font-size="14" lengthAdjust="spacing" textLength="106.8389" x="501.0819" y="720.9267">StatusProcesso</text><line style="stroke:#000000;stroke-width:0.5;" x1="430.35" x2="646.1527" y1="732.08" y2="732.08"/><text fill="#000000" font-family="sans-serif" font-size="14" lengthAdjust="spacing" textLength="57.3262" x="435.35" y="749.0751">ABERTO</text><text fill="#000000" font-family="sans-serif" font-size="14" lengthAdjust="spacing" textLength="181.8564" x="435.35" y="765.372">EM_ANALISE_SECRETARIA</text><text fill="#000000" font-family="sans-serif" font-size="14" lengthAdjust="spacing" textLength="205.8027" x="435.35" y="781.6689">EM_ANALISE_COORDENACAO</text><text fill="#000000" font-family="sans-serif" font-size="14" lengthAdjust="spacing" textLength="132.4941" x="435.35" y="797.9657">PENDENTE_AJUSTE</text><text fill="#000000" font-family="sans-serif" font-size="14" lengthAdjust="spacing" textLength="79.7207" x="435.35" y="814.2626">APROVADO</text><text fill="#000000" font-family="sans-serif" font-size="14" lengthAdjust="spacing" textLength="88.7168" x="435.35" y="830.5595">REPROVADO</text><text fill="#000000" font-family="sans-serif" font-size="14" lengthAdjust="spacing" textLength="85.0186" x="435.35" y="846.8564">CONCLUIDO</text><text fill="#000000" font-family="sans-serif" font-size="14" lengthAdjust="spacing" textLength="87.623" x="435.35" y="863.1532">CANCELADO</text><line style="stroke:#000000;stroke-width:0.5;" x1="430.35" x2="646.1527" y1="870.455" y2="870.455"/></g><!--class Unidade--><g class="entity" data-qualified-name="Unidade" data-source-line="20" id="ent0003"><rect fill="#FFFFFF" height="113.1875" rx="2.5" ry="2.5" style="stroke:#000000;stroke-width:0.5;" width="89.9756" x="746.27" y="23.29"/><ellipse cx="761.27" cy="39.29" fill="#EB937F" rx="11" ry="11" style="stroke:#181818;stroke-width:1;"/><path d="M765.3794,45.29 L757.6606,45.29 L757.6606,32.8994 L765.3794,32.8994 L765.3794,35.0556 L760.1138,35.0556 L760.1138,37.7275 L764.8794,37.7275 L764.8794,39.8838 L760.1138,39.8838 L760.1138,43.1338 L765.3794,43.1338 L765.3794,45.29 Z " fill="#000000"/><text fill="#000000" font-family="sans-serif" font-size="14" lengthAdjust="spacing" textLength="57.9756" x="775.27" y="44.1367">Unidade</text><line style="stroke:#000000;stroke-width:0.5;" x1="747.27" x2="835.2456" y1="55.29" y2="55.29"/><text fill="#000000" font-family="sans-serif" font-size="14" lengthAdjust="spacing" textLength="48.2139" x="752.27" y="72.2851">BARRA</text><text fill="#000000" font-family="sans-serif" font-size="14" lengthAdjust="spacing" textLength="58.3926" x="752.27" y="88.582">CENTRO</text><text fill="#000000" font-family="sans-serif" font-size="14" lengthAdjust="spacing" textLength="20.1318" x="752.27" y="104.8789">BH</text><text fill="#000000" font-family="sans-serif" font-size="14" lengthAdjust="spacing" textLength="63.4307" x="752.27" y="121.1757">BRASILIA</text><line style="stroke:#000000;stroke-width:0.5;" x1="747.27" x2="835.2456" y1="128.4775" y2="128.4775"/></g><!--class Periodo--><g class="entity" data-qualified-name="Periodo" data-source-line="27" id="ent0004"><rect fill="#FFFFFF" height="64.2969" rx="2.5" ry="2.5" style="stroke:#000000;stroke-width:0.5;" width="274.5068" x="7" y="477.3"/><ellipse cx="113.644" cy="493.3" fill="#EB937F" rx="11" ry="11" style="stroke:#181818;stroke-width:1;"/><path d="M117.7534,499.3 L110.0347,499.3 L110.0347,486.9094 L117.7534,486.9094 L117.7534,489.0656 L112.4878,489.0656 L112.4878,491.7375 L117.2534,491.7375 L117.2534,493.8938 L112.4878,493.8938 L112.4878,497.1438 L117.7534,497.1438 L117.7534,499.3 Z " fill="#000000"/><text fill="#000000" font-family="sans-serif" font-size="14" lengthAdjust="spacing" textLength="52.7188" x="134.144" y="498.1467">Periodo</text><line style="stroke:#000000;stroke-width:0.5;" x1="8" x2="280.5068" y1="509.3" y2="509.3"/><text fill="#000000" font-family="sans-serif" font-size="14" lengthAdjust="spacing" textLength="262.5068" x="13" y="526.2951">P1, P2, P3, P4, P5, P6, P7, P8, P9, P10</text><line style="stroke:#000000;stroke-width:0.5;" x1="8" x2="280.5068" y1="533.5969" y2="533.5969"/></g><!--class Usuario--><g class="entity" data-qualified-name="Usuario" data-source-line="33" id="ent0005"><rect fill="#FFFFFF" height="145.7813" rx="2.5" ry="2.5" style="stroke:#000000;stroke-width:0.5;" width="154.1943" x="557.16" y="7"/><ellipse cx="603.4051" cy="23" fill="#A9DCDF" rx="11" ry="11" style="stroke:#181818;stroke-width:1;"/><path d="M603.5145,18.3438 L602.3582,23.4219 L604.6864,23.4219 L603.5145,18.3438 Z M602.0301,16.1094 L605.0145,16.1094 L608.3739,28.5 L605.9207,28.5 L605.1551,25.4375 L601.8739,25.4375 L601.1239,28.5 L598.6864,28.5 L602.0301,16.1094 Z " fill="#000000"/><text fill="#000000" font-family="sans-serif" font-size="14" font-style="italic" lengthAdjust="spacing" textLength="53.2041" x="623.9051" y="27.8467">Usuario</text><line style="stroke:#000000;stroke-width:0.5;" x1="558.16" x2="710.3543" y1="39" y2="39"/><g data-visibility-modifier="PROTECTED_FIELD"><polygon fill="none" points="568.16,47.6484,572.16,51.6484,568.16,55.6484,564.16,51.6484" style="stroke:#B38D22;stroke-width:1;"/></g><text fill="#000000" font-family="sans-serif" font-size="14" lengthAdjust="spacing" textLength="98.2598" x="577.16" y="55.9951">matricula : int</text><g data-visibility-modifier="PROTECTED_FIELD"><polygon fill="none" points="568.16,63.9453,572.16,67.9453,568.16,71.9453,564.16,67.9453" style="stroke:#B38D22;stroke-width:1;"/></g><text fill="#000000" font-family="sans-serif" font-size="14" lengthAdjust="spacing" textLength="93.4951" x="577.16" y="72.292">nome : string</text><g data-visibility-modifier="PROTECTED_FIELD"><polygon fill="none" points="568.16,80.2422,572.16,84.2422,568.16,88.2422,564.16,84.2422" style="stroke:#B38D22;stroke-width:1;"/></g><text fill="#000000" font-family="sans-serif" font-size="14" lengthAdjust="spacing" textLength="92.415" x="577.16" y="88.5889">email : string</text><g data-visibility-modifier="PROTECTED_FIELD"><polygon fill="none" points="568.16,96.5391,572.16,100.5391,568.16,104.5391,564.16,100.5391" style="stroke:#B38D22;stroke-width:1;"/></g><text fill="#000000" font-family="sans-serif" font-size="14" lengthAdjust="spacing" textLength="96.0381" x="577.16" y="104.8857">senha : string</text><g data-visibility-modifier="PROTECTED_FIELD"><polygon fill="none" points="568.16,112.8359,572.16,116.8359,568.16,120.8359,564.16,116.8359" style="stroke:#B38D22;stroke-width:1;"/></g><text fill="#000000" font-family="sans-serif" font-size="14" lengthAdjust="spacing" textLength="128.1943" x="577.16" y="121.1826">unidade : Unidade</text><line style="stroke:#000000;stroke-width:0.5;" x1="558.16" x2="710.3543" y1="128.4844" y2="128.4844"/><g data-visibility-modifier="PUBLIC_METHOD"><ellipse cx="568.16" cy="142.1328" fill="#84BE84" rx="3" ry="3" style="stroke:#038048;stroke-width:1;"/></g><text fill="#000000" font-family="sans-serif" font-size="14" lengthAdjust="spacing" textLength="88.5527" x="577.16" y="145.4795">login() : bool</text></g><!--class Aluno--><g class="entity" data-qualified-name="Aluno" data-source-line="42" id="ent0006"><rect fill="#FFFFFF" height="145.7813" rx="2.5" ry="2.5" style="stroke:#000000;stroke-width:0.5;" width="250.5264" x="79.99" y="213.78"/><ellipse cx="181.114" cy="229.78" fill="#ADD1B2" rx="11" ry="11" style="stroke:#181818;stroke-width:1;"/><path d="M184.0828,235.4206 Q183.5046,235.7175 182.864,235.8581 Q182.2234,236.0144 181.5203,236.0144 Q179.0203,236.0144 177.6921,234.3738 Q176.3796,232.7175 176.3796,229.5925 Q176.3796,226.4675 177.6921,224.8113 Q179.0203,223.155 181.5203,223.155 Q182.2234,223.155 182.864,223.3113 Q183.5203,223.4675 184.0828,223.7644 L184.0828,226.4831 Q183.4578,225.905 182.864,225.6394 Q182.2703,225.3581 181.6453,225.3581 Q180.3015,225.3581 179.614,226.4363 Q178.9265,227.4988 178.9265,229.5925 Q178.9265,231.6863 179.614,232.7644 Q180.3015,233.8269 181.6453,233.8269 Q182.2703,233.8269 182.864,233.5613 Q183.4578,233.28 184.0828,232.7019 L184.0828,235.4206 Z " fill="#000000"/><text fill="#000000" font-family="sans-serif" font-size="14" lengthAdjust="spacing" textLength="39.7783" x="201.614" y="234.6267">Aluno</text><line style="stroke:#000000;stroke-width:0.5;" x1="80.99" x2="329.5164" y1="245.78" y2="245.78"/><g data-visibility-modifier="PRIVATE_FIELD"><rect fill="none" height="6" style="stroke:#C82930;stroke-width:1;" width="6" x="87.99" y="256.4284"/></g><text fill="#000000" font-family="sans-serif" font-size="14" lengthAdjust="spacing" textLength="83.0703" x="99.99" y="262.7751">cursoId : int</text><g data-visibility-modifier="PRIVATE_FIELD"><rect fill="none" height="6" style="stroke:#C82930;stroke-width:1;" width="6" x="87.99" y="272.7253"/></g><text fill="#000000" font-family="sans-serif" font-size="14" lengthAdjust="spacing" textLength="119.499" x="99.99" y="279.072">periodo : Periodo</text><g data-visibility-modifier="PRIVATE_FIELD"><rect fill="none" height="6" style="stroke:#C82930;stroke-width:1;" width="6" x="87.99" y="289.0222"/></g><text fill="#000000" font-family="sans-serif" font-size="14" lengthAdjust="spacing" textLength="143.9648" x="99.99" y="295.3689">processoAtualId : int</text><line style="stroke:#000000;stroke-width:0.5;" x1="80.99" x2="329.5164" y1="302.6706" y2="302.6706"/><g data-visibility-modifier="PUBLIC_METHOD"><ellipse cx="90.99" cy="316.3191" fill="#84BE84" rx="3" ry="3" style="stroke:#038048;stroke-width:1;"/></g><text fill="#000000" font-family="sans-serif" font-size="14" lengthAdjust="spacing" textLength="191.5703" x="99.99" y="319.6657">iniciarProcesso() : Processo</text><g data-visibility-modifier="PUBLIC_METHOD"><ellipse cx="90.99" cy="332.6159" fill="#84BE84" rx="3" ry="3" style="stroke:#038048;stroke-width:1;"/></g><text fill="#000000" font-family="sans-serif" font-size="14" lengthAdjust="spacing" textLength="220.5615" x="99.99" y="335.9626">anexarContrato(doc : Contrato)</text><g data-visibility-modifier="PUBLIC_METHOD"><ellipse cx="90.99" cy="348.9128" fill="#84BE84" rx="3" ry="3" style="stroke:#038048;stroke-width:1;"/></g><text fill="#000000" font-family="sans-serif" font-size="14" lengthAdjust="spacing" textLength="224.5264" x="99.99" y="352.2595">anexarRelatorio(doc : Relatorio)</text></g><!--class Secretaria--><g class="entity" data-qualified-name="Secretaria" data-source-line="51" id="ent0008"><rect fill="#FFFFFF" height="96.8906" rx="2.5" ry="2.5" style="stroke:#000000;stroke-width:0.5;" width="546.4063" x="938.05" y="238.22"/><ellipse cx="1171.0734" cy="254.22" fill="#ADD1B2" rx="11" ry="11" style="stroke:#181818;stroke-width:1;"/><path d="M1174.0422,259.8606 Q1173.4641,260.1575 1172.8234,260.2981 Q1172.1828,260.4544 1171.4797,260.4544 Q1168.9797,260.4544 1167.6516,258.8138 Q1166.3391,257.1575 1166.3391,254.0325 Q1166.3391,250.9075 1167.6516,249.2513 Q1168.9797,247.595 1171.4797,247.595 Q1172.1828,247.595 1172.8234,247.7513 Q1173.4797,247.9075 1174.0422,248.2044 L1174.0422,250.9231 Q1173.4172,250.345 1172.8234,250.0794 Q1172.2297,249.7981 1171.6047,249.7981 Q1170.2609,249.7981 1169.5734,250.8763 Q1168.8859,251.9388 1168.8859,254.0325 Q1168.8859,256.1263 1169.5734,257.2044 Q1170.2609,258.2669 1171.6047,258.2669 Q1172.2297,258.2669 1172.8234,258.0013 Q1173.4172,257.72 1174.0422,257.1419 L1174.0422,259.8606 Z " fill="#000000"/><text fill="#000000" font-family="sans-serif" font-size="14" lengthAdjust="spacing" textLength="71.8594" x="1191.5734" y="259.0667">Secretaria</text><line style="stroke:#000000;stroke-width:0.5;" x1="939.05" x2="1483.4563" y1="270.22" y2="270.22"/><line style="stroke:#000000;stroke-width:0.5;" x1="939.05" x2="1483.4563" y1="278.22" y2="278.22"/><g data-visibility-modifier="PUBLIC_METHOD"><ellipse cx="949.05" cy="291.8684" fill="#84BE84" rx="3" ry="3" style="stroke:#038048;stroke-width:1;"/></g><text fill="#000000" font-family="sans-serif" font-size="14" lengthAdjust="spacing" textLength="520.4063" x="958.05" y="295.2151">validarContrato(processo : Processo, aprovado : bool, justificativa : string)</text><g data-visibility-modifier="PUBLIC_METHOD"><ellipse cx="949.05" cy="308.1653" fill="#84BE84" rx="3" ry="3" style="stroke:#038048;stroke-width:1;"/></g><text fill="#000000" font-family="sans-serif" font-size="14" lengthAdjust="spacing" textLength="288.6475" x="958.05" y="311.512">pesquisarAlunos(matricula : int) : Aluno[]</text><g data-visibility-modifier="PUBLIC_METHOD"><ellipse cx="949.05" cy="324.4622" fill="#84BE84" rx="3" ry="3" style="stroke:#038048;stroke-width:1;"/></g><text fill="#000000" font-family="sans-serif" font-size="14" lengthAdjust="spacing" textLength="275.8096" x="958.05" y="327.8089">listarProcessosPendentes() : Processo[]</text></g><!--class Coordenacao--><g class="entity" data-qualified-name="Coordenacao" data-source-line="57" id="ent0010"><rect fill="#FFFFFF" height="80.5938" rx="2.5" ry="2.5" style="stroke:#000000;stroke-width:0.5;" width="536.8633" x="365.82" y="246.37"/><ellipse cx="583.7736" cy="262.37" fill="#ADD1B2" rx="11" ry="11" style="stroke:#181818;stroke-width:1;"/><path d="M586.7424,268.0106 Q586.1642,268.3075 585.5236,268.4481 Q584.883,268.6044 584.1799,268.6044 Q581.6799,268.6044 580.3517,266.9638 Q579.0392,265.3075 579.0392,262.1825 Q579.0392,259.0575 580.3517,257.4013 Q581.6799,255.745 584.1799,255.745 Q584.883,255.745 585.5236,255.9013 Q586.1799,256.0575 586.7424,256.3544 L586.7424,259.0731 Q586.1174,258.495 585.5236,258.2294 Q584.9299,257.9481 584.3049,257.9481 Q582.9611,257.9481 582.2736,259.0263 Q581.5861,260.0888 581.5861,262.1825 Q581.5861,264.2763 582.2736,265.3544 Q582.9611,266.4169 584.3049,266.4169 Q584.9299,266.4169 585.5236,266.1513 Q586.1174,265.87 586.7424,265.2919 L586.7424,268.0106 Z " fill="#000000"/><text fill="#000000" font-family="sans-serif" font-size="14" lengthAdjust="spacing" textLength="92.4561" x="604.2736" y="267.2167">Coordenacao</text><line style="stroke:#000000;stroke-width:0.5;" x1="366.82" x2="901.6833" y1="278.37" y2="278.37"/><g data-visibility-modifier="PRIVATE_FIELD"><rect fill="none" height="6" style="stroke:#C82930;stroke-width:1;" width="6" x="373.82" y="289.0184"/></g><text fill="#000000" font-family="sans-serif" font-size="14" lengthAdjust="spacing" textLength="76.4121" x="385.82" y="295.3651">areaId : int</text><line style="stroke:#000000;stroke-width:0.5;" x1="366.82" x2="901.6833" y1="302.6669" y2="302.6669"/><g data-visibility-modifier="PUBLIC_METHOD"><ellipse cx="376.82" cy="316.3153" fill="#84BE84" rx="3" ry="3" style="stroke:#038048;stroke-width:1;"/></g><text fill="#000000" font-family="sans-serif" font-size="14" lengthAdjust="spacing" textLength="510.8633" x="385.82" y="319.662">validarEstagio(processo : Processo, aprovado : bool, justificativa : string)</text></g><!--class Processo--><g class="entity" data-qualified-name="Processo" data-source-line="62" id="ent0012"><rect fill="#FFFFFF" height="145.7813" rx="2.5" ry="2.5" style="stroke:#000000;stroke-width:0.5;" width="398.9893" x="586.76" y="436.56"/><ellipse cx="750.8909" cy="452.56" fill="#ADD1B2" rx="11" ry="11" style="stroke:#181818;stroke-width:1;"/><path d="M753.8596,458.2006 Q753.2815,458.4975 752.6409,458.6381 Q752.0002,458.7944 751.2971,458.7944 Q748.7971,458.7944 747.469,457.1538 Q746.1565,455.4975 746.1565,452.3725 Q746.1565,449.2475 747.469,447.5913 Q748.7971,445.935 751.2971,445.935 Q752.0002,445.935 752.6409,446.0913 Q753.2971,446.2475 753.8596,446.5444 L753.8596,449.2631 Q753.2346,448.685 752.6409,448.4194 Q752.0471,448.1381 751.4221,448.1381 Q750.0784,448.1381 749.3909,449.2163 Q748.7034,450.2788 748.7034,452.3725 Q748.7034,454.4663 749.3909,455.5444 Q750.0784,456.6069 751.4221,456.6069 Q752.0471,456.6069 752.6409,456.3413 Q753.2346,456.06 753.8596,455.4819 L753.8596,458.2006 Z " fill="#000000"/><text fill="#000000" font-family="sans-serif" font-size="14" lengthAdjust="spacing" textLength="62.2275" x="771.3909" y="457.4067">Processo</text><line style="stroke:#000000;stroke-width:0.5;" x1="587.76" x2="984.7493" y1="468.56" y2="468.56"/><g data-visibility-modifier="PRIVATE_FIELD"><rect fill="none" height="6" style="stroke:#C82930;stroke-width:1;" width="6" x="594.76" y="479.2084"/></g><text fill="#000000" font-family="sans-serif" font-size="14" lengthAdjust="spacing" textLength="44.6455" x="606.76" y="485.5551">id : int</text><g data-visibility-modifier="PRIVATE_FIELD"><rect fill="none" height="6" style="stroke:#C82930;stroke-width:1;" width="6" x="594.76" y="495.5053"/></g><text fill="#000000" font-family="sans-serif" font-size="14" lengthAdjust="spacing" textLength="136.377" x="606.76" y="501.852">data_criacao : Date</text><g data-visibility-modifier="PRIVATE_FIELD"><rect fill="none" height="6" style="stroke:#C82930;stroke-width:1;" width="6" x="594.76" y="511.8022"/></g><text fill="#000000" font-family="sans-serif" font-size="14" lengthAdjust="spacing" textLength="163.4746" x="606.76" y="518.1489">status : StatusProcesso</text><g data-visibility-modifier="PRIVATE_FIELD"><rect fill="none" height="6" style="stroke:#C82930;stroke-width:1;" width="6" x="594.76" y="528.0991"/></g><text fill="#000000" font-family="sans-serif" font-size="14" lengthAdjust="spacing" textLength="144.04" x="606.76" y="534.4457">matricula_aluno : int</text><line style="stroke:#000000;stroke-width:0.5;" x1="587.76" x2="984.7493" y1="541.7475" y2="541.7475"/><g data-visibility-modifier="PUBLIC_METHOD"><ellipse cx="597.76" cy="555.3959" fill="#84BE84" rx="3" ry="3" style="stroke:#038048;stroke-width:1;"/></g><text fill="#000000" font-family="sans-serif" font-size="14" lengthAdjust="spacing" textLength="315.875" x="606.76" y="558.7426">atualizarStatus(novoStatus : StatusProcesso)</text><g data-visibility-modifier="PUBLIC_METHOD"><ellipse cx="597.76" cy="571.6928" fill="#84BE84" rx="3" ry="3" style="stroke:#038048;stroke-width:1;"/></g><text fill="#000000" font-family="sans-serif" font-size="14" lengthAdjust="spacing" textLength="372.9893" x="606.76" y="575.0395">validarContrato(aprovado : bool, justificativa : string)</text></g><!--class Contrato--><g class="entity" data-qualified-name="Contrato" data-source-line="71" id="ent0013"><rect fill="#FFFFFF" height="259.8594" rx="2.5" ry="2.5" style="stroke:#000000;stroke-width:0.5;" width="218.6641" x="681.92" y="659.34"/><ellipse cx="756.4556" cy="675.34" fill="#ADD1B2" rx="11" ry="11" style="stroke:#181818;stroke-width:1;"/><path d="M759.4244,680.9806 Q758.8463,681.2775 758.2056,681.4181 Q757.565,681.5744 756.8619,681.5744 Q754.3619,681.5744 753.0338,679.9338 Q751.7213,678.2775 751.7213,675.1525 Q751.7213,672.0275 753.0338,670.3713 Q754.3619,668.715 756.8619,668.715 Q757.565,668.715 758.2056,668.8713 Q758.8619,669.0275 759.4244,669.3244 L759.4244,672.0431 Q758.7994,671.465 758.2056,671.1994 Q757.6119,670.9181 756.9869,670.9181 Q755.6431,670.9181 754.9556,671.9963 Q754.2681,673.0588 754.2681,675.1525 Q754.2681,677.2463 754.9556,678.3244 Q755.6431,679.3869 756.9869,679.3869 Q757.6119,679.3869 758.2056,679.1213 Q758.7994,678.84 759.4244,678.2619 L759.4244,680.9806 Z " fill="#000000"/><text fill="#000000" font-family="sans-serif" font-size="14" lengthAdjust="spacing" textLength="61.0928" x="776.9556" y="680.1867">Contrato</text><line style="stroke:#000000;stroke-width:0.5;" x1="682.92" x2="899.5841" y1="691.34" y2="691.34"/><g data-visibility-modifier="PRIVATE_FIELD"><rect fill="none" height="6" style="stroke:#C82930;stroke-width:1;" width="6" x="689.92" y="701.9884"/></g><text fill="#000000" font-family="sans-serif" font-size="14" lengthAdjust="spacing" textLength="44.6455" x="701.92" y="708.3351">id : int</text><g data-visibility-modifier="PRIVATE_FIELD"><rect fill="none" height="6" style="stroke:#C82930;stroke-width:1;" width="6" x="689.92" y="718.2853"/></g><text fill="#000000" font-family="sans-serif" font-size="14" lengthAdjust="spacing" textLength="106.6406" x="701.92" y="724.632">arquivo : string</text><g data-visibility-modifier="PRIVATE_FIELD"><rect fill="none" height="6" style="stroke:#C82930;stroke-width:1;" width="6" x="689.92" y="734.5822"/></g><text fill="#000000" font-family="sans-serif" font-size="14" lengthAdjust="spacing" textLength="133.2939" x="701.92" y="740.9289">data_upload : Date</text><g data-visibility-modifier="PRIVATE_FIELD"><rect fill="none" height="6" style="stroke:#C82930;stroke-width:1;" width="6" x="689.92" y="750.8791"/></g><text fill="#000000" font-family="sans-serif" font-size="14" lengthAdjust="spacing" textLength="151.5322" x="701.92" y="757.2257">cnpj_empresa : string</text><g data-visibility-modifier="PRIVATE_FIELD"><rect fill="none" height="6" style="stroke:#C82930;stroke-width:1;" width="6" x="689.92" y="767.1759"/></g><text fill="#000000" font-family="sans-serif" font-size="14" lengthAdjust="spacing" textLength="161.875" x="701.92" y="773.5226">nome_empresa : string</text><g data-visibility-modifier="PRIVATE_FIELD"><rect fill="none" height="6" style="stroke:#C82930;stroke-width:1;" width="6" x="689.92" y="783.4728"/></g><text fill="#000000" font-family="sans-serif" font-size="14" lengthAdjust="spacing" textLength="122.418" x="701.92" y="789.8195">data_inicio : Date</text><g data-visibility-modifier="PRIVATE_FIELD"><rect fill="none" height="6" style="stroke:#C82930;stroke-width:1;" width="6" x="689.92" y="799.7697"/></g><text fill="#000000" font-family="sans-serif" font-size="14" lengthAdjust="spacing" textLength="140.4375" x="701.92" y="806.1164">data_termino : Date</text><g data-visibility-modifier="PRIVATE_FIELD"><rect fill="none" height="6" style="stroke:#C82930;stroke-width:1;" width="6" x="689.92" y="816.0666"/></g><text fill="#000000" font-family="sans-serif" font-size="14" lengthAdjust="spacing" textLength="158.915" x="701.92" y="822.4132">apolice_seguro : string</text><g data-visibility-modifier="PRIVATE_FIELD"><rect fill="none" height="6" style="stroke:#C82930;stroke-width:1;" width="6" x="689.92" y="832.3634"/></g><text fill="#000000" font-family="sans-serif" font-size="14" lengthAdjust="spacing" textLength="154.417" x="701.92" y="838.7101">plano_atividade : bool</text><g data-visibility-modifier="PRIVATE_FIELD"><rect fill="none" height="6" style="stroke:#C82930;stroke-width:1;" width="6" x="689.92" y="848.6603"/></g><text fill="#000000" font-family="sans-serif" font-size="14" lengthAdjust="spacing" textLength="162.5107" x="701.92" y="855.007">assinatura_aluno : bool</text><g data-visibility-modifier="PRIVATE_FIELD"><rect fill="none" height="6" style="stroke:#C82930;stroke-width:1;" width="6" x="689.92" y="864.9572"/></g><text fill="#000000" font-family="sans-serif" font-size="14" lengthAdjust="spacing" textLength="185.1104" x="701.92" y="871.3039">assinatura_empresa : bool</text><g data-visibility-modifier="PRIVATE_FIELD"><rect fill="none" height="6" style="stroke:#C82930;stroke-width:1;" width="6" x="689.92" y="881.2541"/></g><text fill="#000000" font-family="sans-serif" font-size="14" lengthAdjust="spacing" textLength="192.6641" x="701.92" y="887.6007">assinatura_faculdade : bool</text><g data-visibility-modifier="PRIVATE_FIELD"><rect fill="none" height="6" style="stroke:#C82930;stroke-width:1;" width="6" x="689.92" y="897.5509"/></g><text fill="#000000" font-family="sans-serif" font-size="14" lengthAdjust="spacing" textLength="107.5566" x="701.92" y="903.8976">processoId : int</text><line style="stroke:#000000;stroke-width:0.5;" x1="682.92" x2="899.5841" y1="911.1994" y2="911.1994"/></g><!--class Relatorio--><g class="entity" data-qualified-name="Relatorio" data-source-line="87" id="ent0014"><rect fill="#FFFFFF" height="162.0781" rx="2.5" ry="2.5" style="stroke:#000000;stroke-width:0.5;" width="226.7646" x="935.87" y="708.23"/><ellipse cx="1013.4647" cy="724.23" fill="#ADD1B2" rx="11" ry="11" style="stroke:#181818;stroke-width:1;"/><path d="M1016.4335,729.8706 Q1015.8554,730.1675 1015.2147,730.3081 Q1014.5741,730.4644 1013.871,730.4644 Q1011.371,730.4644 1010.0429,728.8238 Q1008.7304,727.1675 1008.7304,724.0425 Q1008.7304,720.9175 1010.0429,719.2613 Q1011.371,717.605 1013.871,717.605 Q1014.5741,717.605 1015.2147,717.7613 Q1015.871,717.9175 1016.4335,718.2144 L1016.4335,720.9331 Q1015.8085,720.355 1015.2147,720.0894 Q1014.621,719.8081 1013.996,719.8081 Q1012.6522,719.8081 1011.9647,720.8863 Q1011.2772,721.9488 1011.2772,724.0425 Q1011.2772,726.1363 1011.9647,727.2144 Q1012.6522,728.2769 1013.996,728.2769 Q1014.621,728.2769 1015.2147,728.0113 Q1015.8085,727.73 1016.4335,727.1519 L1016.4335,729.8706 Z " fill="#000000"/><text fill="#000000" font-family="sans-serif" font-size="14" lengthAdjust="spacing" textLength="63.0752" x="1033.9647" y="729.0767">Relatorio</text><line style="stroke:#000000;stroke-width:0.5;" x1="936.87" x2="1161.6346" y1="740.23" y2="740.23"/><g data-visibility-modifier="PRIVATE_FIELD"><rect fill="none" height="6" style="stroke:#C82930;stroke-width:1;" width="6" x="943.87" y="750.8784"/></g><text fill="#000000" font-family="sans-serif" font-size="14" lengthAdjust="spacing" textLength="107.5566" x="955.87" y="757.2251">processoId : int</text><g data-visibility-modifier="PRIVATE_FIELD"><rect fill="none" height="6" style="stroke:#C82930;stroke-width:1;" width="6" x="943.87" y="767.1753"/></g><text fill="#000000" font-family="sans-serif" font-size="14" lengthAdjust="spacing" textLength="103.9883" x="955.87" y="773.522">relatorioId : int</text><g data-visibility-modifier="PRIVATE_FIELD"><rect fill="none" height="6" style="stroke:#C82930;stroke-width:1;" width="6" x="943.87" y="783.4722"/></g><text fill="#000000" font-family="sans-serif" font-size="14" lengthAdjust="spacing" textLength="147.3281" x="955.87" y="789.8189">nomeArquivo : string</text><g data-visibility-modifier="PRIVATE_FIELD"><rect fill="none" height="6" style="stroke:#C82930;stroke-width:1;" width="6" x="943.87" y="799.7691"/></g><text fill="#000000" font-family="sans-serif" font-size="14" lengthAdjust="spacing" textLength="162.3604" x="955.87" y="806.1157">dataUpload : DateTime</text><g data-visibility-modifier="PRIVATE_FIELD"><rect fill="none" height="6" style="stroke:#C82930;stroke-width:1;" width="6" x="943.87" y="816.0659"/></g><text fill="#000000" font-family="sans-serif" font-size="14" lengthAdjust="spacing" textLength="157.3906" x="955.87" y="822.4126">horasTrabalhadas : int</text><g data-visibility-modifier="PRIVATE_FIELD"><rect fill="none" height="6" style="stroke:#C82930;stroke-width:1;" width="6" x="943.87" y="832.3628"/></g><text fill="#000000" font-family="sans-serif" font-size="14" lengthAdjust="spacing" textLength="182.2598" x="955.87" y="838.7095">periodoReferencia : string</text><g data-visibility-modifier="PRIVATE_FIELD"><rect fill="none" height="6" style="stroke:#C82930;stroke-width:1;" width="6" x="943.87" y="848.6597"/></g><text fill="#000000" font-family="sans-serif" font-size="14" lengthAdjust="spacing" textLength="200.7646" x="955.87" y="855.0064">aprovadoPelaEmpresa : bool</text><line style="stroke:#000000;stroke-width:0.5;" x1="936.87" x2="1161.6346" y1="862.3081" y2="862.3081"/></g><!--class Curso--><g class="entity" data-qualified-name="Curso" data-source-line="97" id="ent0015"><rect fill="#FFFFFF" height="96.8906" rx="2.5" ry="2.5" style="stroke:#000000;stroke-width:0.5;" width="119.4951" x="274.51" y="740.83"/><ellipse cx="310.7642" cy="756.83" fill="#ADD1B2" rx="11" ry="11" style="stroke:#181818;stroke-width:1;"/><path d="M313.7329,762.4706 Q313.1548,762.7675 312.5142,762.9081 Q311.8735,763.0644 311.1704,763.0644 Q308.6704,763.0644 307.3423,761.4238 Q306.0298,759.7675 306.0298,756.6425 Q306.0298,753.5175 307.3423,751.8613 Q308.6704,750.205 311.1704,750.205 Q311.8735,750.205 312.5142,750.3613 Q313.1704,750.5175 313.7329,750.8144 L313.7329,753.5331 Q313.1079,752.955 312.5142,752.6894 Q311.9204,752.4081 311.2954,752.4081 Q309.9517,752.4081 309.2642,753.4863 Q308.5767,754.5488 308.5767,756.6425 Q308.5767,758.7363 309.2642,759.8144 Q309.9517,760.8769 311.2954,760.8769 Q311.9204,760.8769 312.5142,760.6113 Q313.1079,760.33 313.7329,759.7519 L313.7329,762.4706 Z " fill="#000000"/><text fill="#000000" font-family="sans-serif" font-size="14" lengthAdjust="spacing" textLength="40.2637" x="329.4873" y="761.6767">Curso</text><line style="stroke:#000000;stroke-width:0.5;" x1="275.51" x2="393.0051" y1="772.83" y2="772.83"/><g data-visibility-modifier="PRIVATE_FIELD"><rect fill="none" height="6" style="stroke:#C82930;stroke-width:1;" width="6" x="282.51" y="783.4784"/></g><text fill="#000000" font-family="sans-serif" font-size="14" lengthAdjust="spacing" textLength="44.6455" x="294.51" y="789.8251">id : int</text><g data-visibility-modifier="PRIVATE_FIELD"><rect fill="none" height="6" style="stroke:#C82930;stroke-width:1;" width="6" x="282.51" y="799.7753"/></g><text fill="#000000" font-family="sans-serif" font-size="14" lengthAdjust="spacing" textLength="93.4951" x="294.51" y="806.122">nome : string</text><g data-visibility-modifier="PRIVATE_FIELD"><rect fill="none" height="6" style="stroke:#C82930;stroke-width:1;" width="6" x="282.51" y="816.0722"/></g><text fill="#000000" font-family="sans-serif" font-size="14" lengthAdjust="spacing" textLength="76.4121" x="294.51" y="822.4189">areaId : int</text><line style="stroke:#000000;stroke-width:0.5;" x1="275.51" x2="393.0051" y1="829.7206" y2="829.7206"/></g><!--class Area--><g class="entity" data-qualified-name="Area" data-source-line="103" id="ent0016"><rect fill="#FFFFFF" height="80.5938" rx="2.5" ry="2.5" style="stroke:#000000;stroke-width:0.5;" width="119.4951" x="426.51" y="469.15"/><ellipse cx="466.2464" cy="485.15" fill="#ADD1B2" rx="11" ry="11" style="stroke:#181818;stroke-width:1;"/><path d="M469.2151,490.7906 Q468.637,491.0875 467.9964,491.2281 Q467.3558,491.3844 466.6526,491.3844 Q464.1526,491.3844 462.8245,489.7438 Q461.512,488.0875 461.512,484.9625 Q461.512,481.8375 462.8245,480.1813 Q464.1526,478.525 466.6526,478.525 Q467.3558,478.525 467.9964,478.6813 Q468.6526,478.8375 469.2151,479.1344 L469.2151,481.8531 Q468.5901,481.275 467.9964,481.0094 Q467.4026,480.7281 466.7776,480.7281 Q465.4339,480.7281 464.7464,481.8063 Q464.0589,482.8688 464.0589,484.9625 Q464.0589,487.0563 464.7464,488.1344 Q465.4339,489.1969 466.7776,489.1969 Q467.4026,489.1969 467.9964,488.9313 Q468.5901,488.65 469.2151,488.0719 L469.2151,490.7906 Z " fill="#000000"/><text fill="#000000" font-family="sans-serif" font-size="14" lengthAdjust="spacing" textLength="32.5254" x="485.7433" y="489.9967">Area</text><line style="stroke:#000000;stroke-width:0.5;" x1="427.51" x2="545.0051" y1="501.15" y2="501.15"/><g data-visibility-modifier="PRIVATE_FIELD"><rect fill="none" height="6" style="stroke:#C82930;stroke-width:1;" width="6" x="434.51" y="511.7984"/></g><text fill="#000000" font-family="sans-serif" font-size="14" lengthAdjust="spacing" textLength="44.6455" x="446.51" y="518.1451">id : int</text><g data-visibility-modifier="PRIVATE_FIELD"><rect fill="none" height="6" style="stroke:#C82930;stroke-width:1;" width="6" x="434.51" y="528.0953"/></g><text fill="#000000" font-family="sans-serif" font-size="14" lengthAdjust="spacing" textLength="93.4951" x="446.51" y="534.442">nome : string</text><line style="stroke:#000000;stroke-width:0.5;" x1="427.51" x2="545.0051" y1="541.7438" y2="541.7438"/></g><!--reverse link Usuario to Aluno--><g class="link" data-entity-1="ent0005" data-entity-2="ent0006" data-link-type="extension" data-source-line="43" id="lnk7"><path d="M540.5041,123.5539 C482.7841,149.9839 418.49,179.81 348.25,213.78 C342.5,216.56 336.63,219.42 330.7,222.33" fill="none" id="Usuario-backto-Aluno" style="stroke:#000000;stroke-width:1;"/><polygon fill="none" points="556.87,116.06,538.0062,118.0986,543.0021,129.0092,556.87,116.06" style="stroke:#000000;stroke-width:1;"/></g><!--reverse link Usuario to Secretaria--><g class="link" data-entity-1="ent0005" data-entity-2="ent0008" data-link-type="extension" data-source-line="52" id="lnk9"><path d="M727.1928,152.4772 C732.9528,155.9772 723.41,149.89 729.25,152.78 C756.77,166.35 900.89,205.46 1024.44,237.77" fill="none" id="Usuario-backto-Secretaria" style="stroke:#000000;stroke-width:1;"/><polygon fill="none" points="711.81,143.13,724.0771,157.6048,730.3085,147.3496,711.81,143.13" style="stroke:#000000;stroke-width:1;"/></g><!--reverse link Usuario to Coordenacao--><g class="link" data-entity-1="ent0005" data-entity-2="ent0010" data-link-type="extension" data-source-line="58" id="lnk11"><path d="M634.25,171.09 C634.25,202.29 634.25,219.61 634.25,245.94" fill="none" id="Usuario-backto-Coordenacao" style="stroke:#000000;stroke-width:1;"/><polygon fill="none" points="634.25,153.09,628.25,171.09,640.25,171.09,634.25,153.09" style="stroke:#000000;stroke-width:1;"/></g><!--link Aluno to Curso--><g class="link" data-entity-1="ent0006" data-entity-2="ent0015" data-link-type="association" data-source-line="111" id="lnk17"><path codeLine="111" d="M260.3,359.95 C275.4,383.25 290.11,409.96 299.25,436.56 C335.02,540.58 337.86,671.36 336.35,740.43" fill="none" id="Aluno-Curso" style="stroke:#000000;stroke-width:1;"/><text fill="#000000" font-family="sans-serif" font-size="13" lengthAdjust="spacing" textLength="23.0356" x="241.4523" y="379.7225">0..*</text><text fill="#000000" font-family="sans-serif" font-size="13" lengthAdjust="spacing" textLength="8.271" x="328.1119" y="729.9344">1</text></g><!--link Aluno to Periodo--><g class="link" data-entity-1="ent0006" data-entity-2="ent0004" data-link-type="association" data-source-line="112" id="lnk18"><path codeLine="112" d="M185.28,359.96 C174.33,399.58 161.33,446.65 152.94,477.01" fill="none" id="Aluno-Periodo" style="stroke:#000000;stroke-width:1;"/><text fill="#000000" font-family="sans-serif" font-size="13" lengthAdjust="spacing" textLength="23.0356" x="159.2819" y="379.7335">0..*</text><text fill="#000000" font-family="sans-serif" font-size="13" lengthAdjust="spacing" textLength="8.271" x="145.8893" y="466.2271">1</text></g><!--link Area to Curso--><g class="link" data-entity-1="ent0016" data-entity-2="ent0015" data-link-type="association" data-source-line="115" id="lnk19"><path codeLine="115" d="M464.64,549.96 C437.18,600.15 389.84,686.68 360.38,740.51" fill="none" id="Area-Curso" style="stroke:#000000;stroke-width:1;"/><text fill="#000000" font-family="sans-serif" font-size="13" lengthAdjust="spacing" textLength="8.271" x="452.5788" y="569.6896">1</text><text fill="#000000" font-family="sans-serif" font-size="13" lengthAdjust="spacing" textLength="23.0356" x="339.4388" y="729.6739">0..*</text></g><!--link Coordenacao to Area--><g class="link" data-entity-1="ent0010" data-entity-2="ent0016" data-link-type="association" data-source-line="116" id="lnk20"><path codeLine="116" d="M607.62,327.39 C580.83,367.37 539.73,428.68 512.92,468.67" fill="none" id="Coordenacao-Area" style="stroke:#000000;stroke-width:1;"/><text fill="#000000" font-family="sans-serif" font-size="13" lengthAdjust="spacing" textLength="8.271" x="594.7597" y="347.153">1</text><text fill="#000000" font-family="sans-serif" font-size="13" lengthAdjust="spacing" textLength="8.271" x="508.5534" y="458.0534">1</text></g><!--link Aluno to Processo--><g class="link" data-entity-1="ent0006" data-entity-2="ent0012" data-link-type="association" data-source-line="119" id="lnk21"><path codeLine="119" d="M330.74,351.96 C336.63,354.6 342.49,357.14 348.25,359.56 C393.02,378.32 493.16,412.55 586.41,443.47" fill="none" id="Aluno-Processo" style="stroke:#000000;stroke-width:1;"/><polygon fill="#000000" points="483.9575,399.8113,476.4319,393.9962,474.4511,399.5303,483.9575,399.8113" style="stroke:#000000;stroke-width:1;"/><text fill="#000000" font-family="sans-serif" font-size="13" lengthAdjust="spacing" textLength="41.6025" x="488.25" y="402.6269">possui</text><text fill="#000000" font-family="sans-serif" font-size="13" lengthAdjust="spacing" textLength="8.271" x="338.6389" y="352.5525">1</text><text fill="#000000" font-family="sans-serif" font-size="13" lengthAdjust="spacing" textLength="24.8066" x="554.1506" y="437.6692">0..1</text></g><!--link Secretaria to Processo--><g class="link" data-entity-1="ent0008" data-entity-2="ent0012" data-link-type="association" data-source-line="120" id="lnk22"><path codeLine="120" d="M1119.03,335.57 C1062.52,364.93 989.08,403.09 925.57,436.08" fill="none" id="Secretaria-Processo" style="stroke:#000000;stroke-width:1;"/><polygon fill="#000000" points="1011.8131,400.4316,1021.1945,398.8695,1018.4846,393.6535,1011.8131,400.4316" style="stroke:#000000;stroke-width:1;"/><text fill="#000000" font-family="sans-serif" font-size="13" lengthAdjust="spacing" textLength="41.1328" x="1025.25" y="402.6269">audita</text><text fill="#000000" font-family="sans-serif" font-size="13" lengthAdjust="spacing" textLength="8.271" x="1098.1182" y="355.2252">1</text><text fill="#000000" font-family="sans-serif" font-size="13" lengthAdjust="spacing" textLength="23.0356" x="914.7541" y="425.4452">0..*</text></g><!--link Coordenacao to Processo--><g class="link" data-entity-1="ent0010" data-entity-2="ent0012" data-link-type="association" data-source-line="121" id="lnk23"><path codeLine="121" d="M661.6,327.39 C682.46,357.69 711.75,400.23 736.69,436.46" fill="none" id="Coordenacao-Processo" style="stroke:#000000;stroke-width:1;"/><polygon fill="#000000" points="723.0853,402.2448,720.3769,393.128,715.5355,396.4611,723.0853,402.2448" style="stroke:#000000;stroke-width:1;"/><text fill="#000000" font-family="sans-serif" font-size="13" lengthAdjust="spacing" textLength="39.1016" x="729.25" y="402.6269">valida</text><text fill="#000000" font-family="sans-serif" font-size="13" lengthAdjust="spacing" textLength="8.271" x="657.3427" y="347.153">1</text><text fill="#000000" font-family="sans-serif" font-size="13" lengthAdjust="spacing" textLength="23.0356" x="707.6807" y="425.6101">0..*</text></g><!--reverse link Processo to Contrato--><g class="link" data-entity-1="ent0012" data-entity-2="ent0013" data-link-type="composition" data-source-line="123" id="lnk24"><path codeLine="123" d="M787.7706,594.718 C788.2006,618.108 788.46,632.81 788.93,659.04" fill="none" id="Processo-backto-Contrato" style="stroke:#000000;stroke-width:1;"/><polygon fill="#000000" points="787.55,582.72,783.661,588.7925,787.7706,594.718,791.6596,588.6455,787.55,582.72" style="stroke:#000000;stroke-width:1;"/><polygon fill="#000000" points="793.3401,625.9056,796.1155,616.809,790.2386,616.9149,793.3401,625.9056" style="stroke:#000000;stroke-width:1;"/><text fill="#000000" font-family="sans-serif" font-size="13" lengthAdjust="spacing" textLength="49.0991" x="802.25" y="625.4069">cont&#233;m</text><text fill="#000000" font-family="sans-serif" font-size="13" lengthAdjust="spacing" textLength="8.271" x="779.3051" y="602.4916">1</text><text fill="#000000" font-family="sans-serif" font-size="13" lengthAdjust="spacing" textLength="23.0356" x="765.1319" y="648.1482">1..*</text></g><!--reverse link Processo to Relatorio--><g class="link" data-entity-1="ent0012" data-entity-2="ent0014" data-link-type="composition" data-source-line="124" id="lnk25"><path codeLine="124" d="M862.9196,591.4346 C899.2896,629.8546 935.86,668.49 973.31,708.05" fill="none" id="Processo-backto-Relatorio" style="stroke:#000000;stroke-width:1;"/><polygon fill="#000000" points="854.67,582.72,855.8899,589.8272,862.9196,591.4346,861.6997,584.3274,854.67,582.72" style="stroke:#000000;stroke-width:1;"/><polygon fill="#000000" points="901.6873,624.5375,897.6035,615.9484,893.3349,619.9892,901.6873,624.5375" style="stroke:#000000;stroke-width:1;"/><text fill="#000000" font-family="sans-serif" font-size="13" lengthAdjust="spacing" textLength="49.0991" x="907.25" y="625.4069">cont&#233;m</text><text fill="#000000" font-family="sans-serif" font-size="13" lengthAdjust="spacing" textLength="8.271" x="852.8225" y="602.4916">1</text><text fill="#000000" font-family="sans-serif" font-size="13" lengthAdjust="spacing" textLength="23.0356" x="942.5238" y="697.2213">0..*</text></g><!--link Processo to StatusProcesso--><g class="link" data-entity-1="ent0012" data-entity-2="ent0002" data-link-type="association" data-source-line="125" id="lnk26"><path codeLine="125" d="M721.74,582.72 C689.81,618.49 650.98,661.99 617.28,699.75" fill="none" id="Processo-StatusProcesso" style="stroke:#000000;stroke-width:1;"/><polygon fill="#000000" points="693.9205,624.6366,702.1362,619.8457,697.7511,615.9316,693.9205,624.6366" style="stroke:#000000;stroke-width:1;"/><text fill="#000000" font-family="sans-serif" font-size="13" lengthAdjust="spacing" textLength="41.6025" x="706.25" y="625.4069">possui</text><text fill="#000000" font-family="sans-serif" font-size="13" lengthAdjust="spacing" textLength="23.0356" x="691.4966" y="602.4916">0..*</text><text fill="#000000" font-family="sans-serif" font-size="13" lengthAdjust="spacing" textLength="8.271" x="615.2696" y="689.0911">1</text></g><?plantuml-src fLRDZjis4BxpAOZD8RlPTP3jJzBwK83M2eYBhIt8Tdie2cEMudgPIAHAKcxGeeS-JWzzYdsn32LHFxPGeEY1DZaS3h_l6yxOB-biDgEnTJBNri-9_IXL2GOAodEmblv15i0_7eokL1RfN1lwqvDqWZ1Zz6-DOP6Z1rbeamapjFn9oCiclggA9hh06TquS9LDZER2Meqti4MSRjSa_c7FLkn-kOdtcpXAuorBbsneZTRhz2vUiOYjIHAlSBgDz-pxtMOR4vQawn_PtPgaSPX5wrLqlrlw6Lj5yRst8QOQmqx933BXwR4qPIJ2MEcQBDwJHSesotkyEBWcmaYTUPp9xGrDli3n9OwlS7oDuosETpY-mV4jZjitFV78IoWiJOnKN9OW6nK8F5XdWBjMuvsj0E_06rxG0foHlCg1pgbK3YrA5m8NU4Ag0wv50J8V6gnGJp0qL2svUQ19hcck3r9TNg7jGUlSGspkPdcbD1MVd53P4CcCyifOlSnQ73DQjZhCWoBUrYQHkGhoplSQFoMNO4AEwtl30hT1YK-0RqMX2avVPfhZVbXUTGwfo76DTxKUtVggnxyHt0Y7e662n3KzGeuAz5S5m0CyDnJGUeIQcXVdXdwei28U9GSdZxso7bWfxA-Lj61gtUpbIReypthdvr-yvjAwNWIR83gXdB0ZET2p8nDfNqGAE4od18o0WSejEInVECZ_owq3CIZC6PLz_ZDmiESej4StftU0NM26ntqnutfSrRZJIRE7-eq5rE3VYlmTJ7FYKkcZtan7kPh8u7yd58wU4WA3gJpgld9QZbMPQyXwYboL7_QYA8smC7JsXJbbhuFK5J3GgJOwOGgf1bOeTIwvs5jngCm8IPc3qdlFATHoNRTun5gfK2JJwtg-qwCwtti4JCeuPdWvtTlgjEjAhXRlp6z6JN0OsBmmR5hStL3RhIoy24_QWDqQU83y2JAmfnqd5O_226oW8vN3EqWGG3ocssVUjx3Jj8_xwKbHzNqHhVz-ikloNYFCjO82gxlz6SMjNK6R124DB6KkA53yEQdRAXNU-loFxw9D1xvuy_hrgmiyIozkBnhWapkXz-85xwKmzHi6YicCshZFVo5oKiFt_lvO4w29EMmnOH-_lB-FEURYutOLtQBfOteqVSifjRMLfD-HGKSU0nWuGvL91-Wy1UVCksa1w4qwe_TzLMDlk8KIdrEEq-U_2_G-TsuYzszwsdkazycVbPxdPm00?></g></svg>