<svg xmlns="http://www.w3.org/2000/svg" xmlns:xlink="http://www.w3.org/1999/xlink" contentStyleType="text/css" data-diagram-type="CLASS" height="178px" preserveAspectRatio="none" style="width:401px;height:178px;background:#FFFFFF;" version="1.1" viewBox="0 0 401 178" width="401px" zoomAndPan="magnify"><?plantuml 1.2026.3beta6?><defs/><g><!--class Unidade--><g class="entity" data-qualified-name="Unidade" data-source-line="9" id="ent0002"><rect fill="#FFFFFF" height="48" rx="2.5" ry="2.5" style="stroke:#000000;stroke-width:0.5;" width="89.9756" x="7" y="7"/><ellipse cx="22" cy="23" fill="#EB937F" rx="11" ry="11" style="stroke:#181818;stroke-width:1;"/><path d="M26.1094,29 L18.3906,29 L18.3906,16.6094 L26.1094,16.6094 L26.1094,18.7656 L20.8438,18.7656 L20.8438,21.4375 L25.6094,21.4375 L25.6094,23.5938 L20.8438,23.5938 L20.8438,26.8438 L26.1094,26.8438 L26.1094,29 Z " fill="#000000"/><text fill="#000000" font-family="sans-serif" font-size="14" lengthAdjust="spacing" textLength="57.9756" x="36" y="27.8467">Unidade</text><line style="stroke:#000000;stroke-width:0.5;" x1="8" x2="95.9756" y1="39" y2="39"/><line style="stroke:#000000;stroke-width:0.5;" x1="8" x2="95.9756" y1="47" y2="47"/></g><!--class Usuario--><g class="entity" data-qualified-name="Usuario" data-source-line="17" id="ent0003"><rect fill="#FFFFFF" height="48" rx="2.5" ry="2.5" style="stroke:#000000;stroke-width:0.5;" width="85.2041" x="132.39" y="7"/><ellipse cx="147.39" cy="23" fill="#A9DCDF" rx="11" ry="11" style="stroke:#181818;stroke-width:1;"/><path d="M147.4994,18.3438 L146.3431,23.4219 L148.6713,23.4219 L147.4994,18.3438 Z M146.015,16.1094 L148.9994,16.1094 L152.3588,28.5 L149.9056,28.5 L149.14,25.4375 L145.8588,25.4375 L145.1088,28.5 L142.6713,28.5 L146.015,16.1094 Z " fill="#000000"/><text fill="#000000" font-family="sans-serif" font-size="14" font-style="italic" lengthAdjust="spacing" textLength="53.2041" x="161.39" y="27.8467">Usuario</text><line style="stroke:#000000;stroke-width:0.5;" x1="133.39" x2="216.5941" y1="39" y2="39"/><line style="stroke:#000000;stroke-width:0.5;" x1="133.39" x2="216.5941" y1="47" y2="47"/></g><!--class Aluno--><g class="entity" data-qualified-name="Aluno" data-source-line="26" id="ent0004"><rect fill="#FFFFFF" height="48" rx="2.5" ry="2.5" style="stroke:#000000;stroke-width:0.5;" width="71.7783" x="16.1" y="115"/><ellipse cx="31.1" cy="131" fill="#ADD1B2" rx="11" ry="11" style="stroke:#181818;stroke-width:1;"/><path d="M34.0688,136.6406 Q33.4906,136.9375 32.85,137.0781 Q32.2094,137.2344 31.5063,137.2344 Q29.0063,137.2344 27.6781,135.5938 Q26.3656,133.9375 26.3656,130.8125 Q26.3656,127.6875 27.6781,126.0313 Q29.0063,124.375 31.5063,124.375 Q32.2094,124.375 32.85,124.5313 Q33.5063,124.6875 34.0688,124.9844 L34.0688,127.7031 Q33.4438,127.125 32.85,126.8594 Q32.2563,126.5781 31.6313,126.5781 Q30.2875,126.5781 29.6,127.6563 Q28.9125,128.7188 28.9125,130.8125 Q28.9125,132.9063 29.6,133.9844 Q30.2875,135.0469 31.6313,135.0469 Q32.2563,135.0469 32.85,134.7813 Q33.4438,134.5 34.0688,133.9219 L34.0688,136.6406 Z " fill="#000000"/><text fill="#000000" font-family="sans-serif" font-size="14" lengthAdjust="spacing" textLength="39.7783" x="45.1" y="135.8467">Aluno</text><line style="stroke:#000000;stroke-width:0.5;" x1="17.1" x2="86.8783" y1="147" y2="147"/><line style="stroke:#000000;stroke-width:0.5;" x1="17.1" x2="86.8783" y1="155" y2="155"/></g><!--class Secretaria--><g class="entity" data-qualified-name="Secretaria" data-source-line="35" id="ent0006"><rect fill="#FFFFFF" height="48" rx="2.5" ry="2.5" style="stroke:#000000;stroke-width:0.5;" width="103.8594" x="123.06" y="115"/><ellipse cx="138.06" cy="131" fill="#ADD1B2" rx="11" ry="11" style="stroke:#181818;stroke-width:1;"/><path d="M141.0288,136.6406 Q140.4506,136.9375 139.81,137.0781 Q139.1694,137.2344 138.4663,137.2344 Q135.9663,137.2344 134.6381,135.5938 Q133.3256,133.9375 133.3256,130.8125 Q133.3256,127.6875 134.6381,126.0313 Q135.9663,124.375 138.4663,124.375 Q139.1694,124.375 139.81,124.5313 Q140.4663,124.6875 141.0288,124.9844 L141.0288,127.7031 Q140.4038,127.125 139.81,126.8594 Q139.2163,126.5781 138.5913,126.5781 Q137.2475,126.5781 136.56,127.6563 Q135.8725,128.7188 135.8725,130.8125 Q135.8725,132.9063 136.56,133.9844 Q137.2475,135.0469 138.5913,135.0469 Q139.2163,135.0469 139.81,134.7813 Q140.4038,134.5 141.0288,133.9219 L141.0288,136.6406 Z " fill="#000000"/><text fill="#000000" font-family="sans-serif" font-size="14" lengthAdjust="spacing" textLength="71.8594" x="152.06" y="135.8467">Secretaria</text><line style="stroke:#000000;stroke-width:0.5;" x1="124.06" x2="225.9194" y1="147" y2="147"/><line style="stroke:#000000;stroke-width:0.5;" x1="124.06" x2="225.9194" y1="155" y2="155"/></g><!--class Coordenacao--><g class="entity" data-qualified-name="Coordenacao" data-source-line="42" id="ent0008"><rect fill="#FFFFFF" height="48" rx="2.5" ry="2.5" style="stroke:#000000;stroke-width:0.5;" width="124.4561" x="261.76" y="115"/><ellipse cx="276.76" cy="131" fill="#ADD1B2" rx="11" ry="11" style="stroke:#181818;stroke-width:1;"/><path d="M279.7288,136.6406 Q279.1506,136.9375 278.51,137.0781 Q277.8694,137.2344 277.1663,137.2344 Q274.6663,137.2344 273.3381,135.5938 Q272.0256,133.9375 272.0256,130.8125 Q272.0256,127.6875 273.3381,126.0313 Q274.6663,124.375 277.1663,124.375 Q277.8694,124.375 278.51,124.5313 Q279.1663,124.6875 279.7288,124.9844 L279.7288,127.7031 Q279.1038,127.125 278.51,126.8594 Q277.9163,126.5781 277.2913,126.5781 Q275.9475,126.5781 275.26,127.6563 Q274.5725,128.7188 274.5725,130.8125 Q274.5725,132.9063 275.26,133.9844 Q275.9475,135.0469 277.2913,135.0469 Q277.9163,135.0469 278.51,134.7813 Q279.1038,134.5 279.7288,133.9219 L279.7288,136.6406 Z " fill="#000000"/><text fill="#000000" font-family="sans-serif" font-size="14" lengthAdjust="spacing" textLength="92.4561" x="290.76" y="135.8467">Coordenacao</text><line style="stroke:#000000;stroke-width:0.5;" x1="262.76" x2="385.2161" y1="147" y2="147"/><line style="stroke:#000000;stroke-width:0.5;" x1="262.76" x2="385.2161" y1="155" y2="155"/></g><!--reverse link Usuario to Aluno--><g class="link" data-entity-1="ent0003" data-entity-2="ent0004" data-link-type="extension" id="lnk5"><path d="M134.3591,67.0158 C113.8591,84.6958 99.41,97.13 78.92,114.79" fill="none" id="Usuario-backto-Aluno" style="stroke:#000000;stroke-width:1;"/><polygon fill="none" points="147.99,55.26,130.4405,62.4722,138.2777,71.5594,147.99,55.26" style="stroke:#000000;stroke-width:1;"/></g><!--reverse link Usuario to Secretaria--><g class="link" data-entity-1="ent0003" data-entity-2="ent0006" data-link-type="extension" id="lnk7"><path d="M174.99,73.26 C174.99,90.94 174.99,97.13 174.99,114.79" fill="none" id="Usuario-backto-Secretaria" style="stroke:#000000;stroke-width:1;"/><polygon fill="none" points="174.99,55.26,168.99,73.26,180.99,73.26,174.99,55.26" style="stroke:#000000;stroke-width:1;"/></g><!--reverse link Usuario to Coordenacao--><g class="link" data-entity-1="ent0003" data-entity-2="ent0008" data-link-type="extension" id="lnk9"><path d="M222.3564,65.6954 C247.1064,83.3054 266.31,96.97 291.11,114.61" fill="none" id="Usuario-backto-Coordenacao" style="stroke:#000000;stroke-width:1;"/><polygon fill="none" points="207.69,55.26,218.8779,70.5842,225.8349,60.8066,207.69,55.26" style="stroke:#000000;stroke-width:1;"/></g><?plantuml-src fLF1Rjim3BtxAmJia0HjVg0tnoYm0iCMk2js67PWPIxbAekPA6K5XdxClcK_DafsQdlOJhr8uYD5FZvAAxFTRisrH78i-Lp98_aZ1EYDTI1YVbOxi8-7mCbt3JiEvjC3HQpg4FZ70EoSHbGx3Xs6EV9SLQiXlq_za1trPEuyTT2XfbwPNTssjUxDzVkFxOSClCrBMz_UlBkffnHD9eDYzDgTfD-_0eryuLvY01j7kke4zPNSRqmFCP1D3ioL8HyBvhb7DVKM-KD1i0ToIqZGFy0IIYFhgpD_HI-CumFvzKRHUsQN-GuyQfSy6toAwBibgwsnAGZhZIRl1JcYUhkCxOVJW0QsAC9rJ93vxKUx52PFbY2SiK9X4G0Udq3duLMUoEkERIuvcfjPI8jE4IqxnhpOcwcTMxG1e_O0_-pfmfp0gIXJkJFt6QjB0ugUeFIPrReqtvA-lAza8T9fadipppYnUttA8yhtH0AXJ4VMVpsFB67nVFuop9OaJWhBNjj67r4MMcliYqeDvp_WmSB_HWy1Sx5QjtcJ-W7XyEeMd_y0?></g></svg>