<svg xmlns="http://www.w3.org/2000/svg" xmlns:xlink="http://www.w3.org/1999/xlink" contentStyleType="text/css" data-diagram-type="CLASS" height="966px" preserveAspectRatio="none" style="width:1498px;height:966px;background:#FFFFFF;" version="1.1" viewBox="0 0 1498 966" width="1498px" zoomAndPan="magnify"><?plantuml 1.2026.4beta2?><defs/><g><!--class StatusProcesso--><g class="entity" data-qualified-name="StatusProcesso" data-source-line="9" id="ent0002"><rect fill="#FFFFFF" height="178.375" rx="2.5" ry="2.5" style="stroke:#000000;stroke-width:0.5;" width="217.8027" x="429.35" y="732.68"/><ellipse cx="480.5819" cy="748.68" fill="#EB937F" rx="11" ry="11" style="stroke:#181818;stroke-width:1;"/><path d="M484.6913,754.68 L476.9726,754.68 L476.9726,742.2894 L484.6913,742.2894 L484.6913,744.4456 L479.4257,744.4456 L479.4257,747.1175 L484.1913,747.1175 L484.1913,749.2738 L479.4257,749.2738 L479.4257,752.5238 L484.6913,752.5238 L484.6913,754.68 Z " fill="#000000"/><text fill="#000000" font-family="sans-serif" font-size="14" lengthAdjust="spacing" textLength="106.8389" x="501.0819" y="753.5267">StatusProcesso</text><line style="stroke:#000000;stroke-width:0.5;" x1="430.35" x2="646.1527" y1="764.68" y2="764.68"/><text fill="#000000" font-family="sans-serif" font-size="14" lengthAdjust="spacing" textLength="57.3262" x="435.35" y="781.6751">ABERTO</text><text fill="#000000" font-family="sans-serif" font-size="14" lengthAdjust="spacing" textLength="181.8564" x="435.35" y="797.972">EM_ANALISE_SECRETARIA</text><text fill="#000000" font-family="sans-serif" font-size="14" lengthAdjust="spacing" textLength="205.8027" x="435.35" y="814.2689">EM_ANALISE_COORDENACAO</text><text fill="#000000" font-family="sans-serif" font-size="14" lengthAdjust="spacing" textLength="132.4941" x="435.35" y="830.5657">PENDENTE_AJUSTE</text><text fill="#000000" font-family="sans-serif" font-size="14" lengthAdjust="spacing" textLength="79.7207" x="435.35" y="846.8626">APROVADO</text><text fill="#000000" font-family="sans-serif" font-size="14" lengthAdjust="spacing" textLength="88.7168" x="435.35" y="863.1595">REPROVADO</text><text fill="#000000" font-family="sans-serif" font-size="14" lengthAdjust="spacing" textLength="85.0186" x="435.35" y="879.4564">CONCLUIDO</text><text fill="#000000" font-family="sans-serif" font-size="14" lengthAdjust="spacing" textLength="87.623" x="435.35" y="895.7532">CANCELADO</text><line style="stroke:#000000;stroke-width:0.5;" x1="430.35" x2="646.1527" y1="903.055" y2="903.055"/></g><!--class Unidade--><g class="entity" data-qualified-name="Unidade" data-source-line="20" id="ent0003"><rect fill="#FFFFFF" height="113.1875" rx="2.5" ry="2.5" style="stroke:#000000;stroke-width:0.5;" width="89.9756" x="745.27" y="23.3"/><ellipse cx="760.27" cy="39.3" fill="#EB937F" rx="11" ry="11" style="stroke:#181818;stroke-width:1;"/><path d="M764.3794,45.3 L756.6606,45.3 L756.6606,32.9094 L764.3794,32.9094 L764.3794,35.0656 L759.1138,35.0656 L759.1138,37.7375 L763.8794,37.7375 L763.8794,39.8937 L759.1138,39.8937 L759.1138,43.1437 L764.3794,43.1437 L764.3794,45.3 Z " fill="#000000"/><text fill="#000000" font-family="sans-serif" font-size="14" lengthAdjust="spacing" textLength="57.9756" x="774.27" y="44.1467">Unidade</text><line style="stroke:#000000;stroke-width:0.5;" x1="746.27" x2="834.2456" y1="55.3" y2="55.3"/><text fill="#000000" font-family="sans-serif" font-size="14" lengthAdjust="spacing" textLength="48.2139" x="751.27" y="72.2951">BARRA</text><text fill="#000000" font-family="sans-serif" font-size="14" lengthAdjust="spacing" textLength="58.3926" x="751.27" y="88.592">CENTRO</text><text fill="#000000" font-family="sans-serif" font-size="14" lengthAdjust="spacing" textLength="20.1318" x="751.27" y="104.8889">BH</text><text fill="#000000" font-family="sans-serif" font-size="14" lengthAdjust="spacing" textLength="63.4307" x="751.27" y="121.1857">BRASILIA</text><line style="stroke:#000000;stroke-width:0.5;" x1="746.27" x2="834.2456" y1="128.4875" y2="128.4875"/></g><!--class Periodo--><g class="entity" data-qualified-name="Periodo" data-source-line="27" id="ent0004"><rect fill="#FFFFFF" height="64.2969" rx="2.5" ry="2.5" style="stroke:#000000;stroke-width:0.5;" width="274.5068" x="7" y="493.6"/><ellipse cx="113.644" cy="509.6" fill="#EB937F" rx="11" ry="11" style="stroke:#181818;stroke-width:1;"/><path d="M117.7534,515.6 L110.0347,515.6 L110.0347,503.2094 L117.7534,503.2094 L117.7534,505.3656 L112.4878,505.3656 L112.4878,508.0375 L117.2534,508.0375 L117.2534,510.1937 L112.4878,510.1937 L112.4878,513.4437 L117.7534,513.4437 L117.7534,515.6 Z " fill="#000000"/><text fill="#000000" font-family="sans-serif" font-size="14" lengthAdjust="spacing" textLength="52.7188" x="134.144" y="514.4467">Periodo</text><line style="stroke:#000000;stroke-width:0.5;" x1="8" x2="280.5068" y1="525.6" y2="525.6"/><text fill="#000000" font-family="sans-serif" font-size="14" lengthAdjust="spacing" textLength="262.5068" x="13" y="542.5951">P1, P2, P3, P4, P5, P6, P7, P8, P9, P10</text><line style="stroke:#000000;stroke-width:0.5;" x1="8" x2="280.5068" y1="549.8969" y2="549.8969"/></g><!--class Usuario--><g class="entity" data-qualified-name="Usuario" data-source-line="33" id="ent0005"><rect fill="#FFFFFF" height="145.7813" rx="2.5" ry="2.5" style="stroke:#000000;stroke-width:0.5;" width="154.1943" x="556.16" y="7"/><ellipse cx="602.4051" cy="23" fill="#A9DCDF" rx="11" ry="11" style="stroke:#181818;stroke-width:1;"/><path d="M602.5145,18.3438 L601.3582,23.4219 L603.6864,23.4219 L602.5145,18.3438 Z M601.0301,16.1094 L604.0145,16.1094 L607.3739,28.5 L604.9207,28.5 L604.1551,25.4375 L600.8739,25.4375 L600.1239,28.5 L597.6864,28.5 L601.0301,16.1094 Z " fill="#000000"/><text fill="#000000" font-family="sans-serif" font-size="14" font-style="italic" lengthAdjust="spacing" textLength="53.2041" x="622.9051" y="27.8467">Usuario</text><line style="stroke:#000000;stroke-width:0.5;" x1="557.16" x2="709.3543" y1="39" y2="39"/><g data-visibility-modifier="PROTECTED_FIELD"><polygon fill="none" points="567.16,47.6484,571.16,51.6484,567.16,55.6484,563.16,51.6484" style="stroke:#B38D22;stroke-width:1;"/></g><text fill="#000000" font-family="sans-serif" font-size="14" lengthAdjust="spacing" textLength="98.2598" x="576.16" y="55.9951">matricula : int</text><g data-visibility-modifier="PROTECTED_FIELD"><polygon fill="none" points="567.16,63.9453,571.16,67.9453,567.16,71.9453,563.16,67.9453" style="stroke:#B38D22;stroke-width:1;"/></g><text fill="#000000" font-family="sans-serif" font-size="14" lengthAdjust="spacing" textLength="93.4951" x="576.16" y="72.292">nome : string</text><g data-visibility-modifier="PROTECTED_FIELD"><polygon fill="none" points="567.16,80.2422,571.16,84.2422,567.16,88.2422,563.16,84.2422" style="stroke:#B38D22;stroke-width:1;"/></g><text fill="#000000" font-family="sans-serif" font-size="14" lengthAdjust="spacing" textLength="92.415" x="576.16" y="88.5889">email : string</text><g data-visibility-modifier="PROTECTED_FIELD"><polygon fill="none" points="567.16,96.5391,571.16,100.5391,567.16,104.5391,563.16,100.5391" style="stroke:#B38D22;stroke-width:1;"/></g><text fill="#000000" font-family="sans-serif" font-size="14" lengthAdjust="spacing" textLength="96.0381" x="576.16" y="104.8857">senha : string</text><g data-visibility-modifier="PROTECTED_FIELD"><polygon fill="none" points="567.16,112.8359,571.16,116.8359,567.16,120.8359,563.16,116.8359" style="stroke:#B38D22;stroke-width:1;"/></g><text fill="#000000" font-family="sans-serif" font-size="14" lengthAdjust="spacing" textLength="128.1943" x="576.16" y="121.1826">unidade : Unidade</text><line style="stroke:#000000;stroke-width:0.5;" x1="557.16" x2="709.3543" y1="128.4844" y2="128.4844"/><g data-visibility-modifier="PUBLIC_METHOD"><ellipse cx="567.16" cy="142.1328" fill="#84BE84" rx="3" ry="3" style="stroke:#038048;stroke-width:1;"/></g><text fill="#000000" font-family="sans-serif" font-size="14" lengthAdjust="spacing" textLength="88.5527" x="576.16" y="145.4795">login() : bool</text></g><!--class Aluno--><g class="entity" data-qualified-name="Aluno" data-source-line="42" id="ent0006"><rect fill="#FFFFFF" height="145.7813" rx="2.5" ry="2.5" style="stroke:#000000;stroke-width:0.5;" width="250.5264" x="78.99" y="213.78"/><ellipse cx="180.114" cy="229.78" fill="#ADD1B2" rx="11" ry="11" style="stroke:#181818;stroke-width:1;"/><path d="M183.0828,235.4206 Q182.5046,235.7175 181.864,235.8581 Q181.2234,236.0144 180.5203,236.0144 Q178.0203,236.0144 176.6921,234.3737 Q175.3796,232.7175 175.3796,229.5925 Q175.3796,226.4675 176.6921,224.8112 Q178.0203,223.155 180.5203,223.155 Q181.2234,223.155 181.864,223.3112 Q182.5203,223.4675 183.0828,223.7644 L183.0828,226.4831 Q182.4578,225.905 181.864,225.6394 Q181.2703,225.3581 180.6453,225.3581 Q179.3015,225.3581 178.614,226.4362 Q177.9265,227.4987 177.9265,229.5925 Q177.9265,231.6862 178.614,232.7644 Q179.3015,233.8269 180.6453,233.8269 Q181.2703,233.8269 181.864,233.5612 Q182.4578,233.28 183.0828,232.7019 L183.0828,235.4206 Z " fill="#000000"/><text fill="#000000" font-family="sans-serif" font-size="14" lengthAdjust="spacing" textLength="39.7783" x="200.614" y="234.6267">Aluno</text><line style="stroke:#000000;stroke-width:0.5;" x1="79.99" x2="328.5164" y1="245.78" y2="245.78"/><g data-visibility-modifier="PRIVATE_FIELD"><rect fill="none" height="6" style="stroke:#C82930;stroke-width:1;" width="6" x="86.99" y="256.4284"/></g><text fill="#000000" font-family="sans-serif" font-size="14" lengthAdjust="spacing" textLength="83.0703" x="98.99" y="262.7751">cursoId : int</text><g data-visibility-modifier="PRIVATE_FIELD"><rect fill="none" height="6" style="stroke:#C82930;stroke-width:1;" width="6" x="86.99" y="272.7253"/></g><text fill="#000000" font-family="sans-serif" font-size="14" lengthAdjust="spacing" textLength="119.499" x="98.99" y="279.072">periodo : Periodo</text><g data-visibility-modifier="PRIVATE_FIELD"><rect fill="none" height="6" style="stroke:#C82930;stroke-width:1;" width="6" x="86.99" y="289.0222"/></g><text fill="#000000" font-family="sans-serif" font-size="14" lengthAdjust="spacing" textLength="143.9648" x="98.99" y="295.3689">processoAtualId : int</text><line style="stroke:#000000;stroke-width:0.5;" x1="79.99" x2="328.5164" y1="302.6706" y2="302.6706"/><g data-visibility-modifier="PUBLIC_METHOD"><ellipse cx="89.99" cy="316.3191" fill="#84BE84" rx="3" ry="3" style="stroke:#038048;stroke-width:1;"/></g><text fill="#000000" font-family="sans-serif" font-size="14" lengthAdjust="spacing" textLength="191.5703" x="98.99" y="319.6657">iniciarProcesso() : Processo</text><g data-visibility-modifier="PUBLIC_METHOD"><ellipse cx="89.99" cy="332.6159" fill="#84BE84" rx="3" ry="3" style="stroke:#038048;stroke-width:1;"/></g><text fill="#000000" font-family="sans-serif" font-size="14" lengthAdjust="spacing" textLength="220.5615" x="98.99" y="335.9626">anexarContrato(doc : Contrato)</text><g data-visibility-modifier="PUBLIC_METHOD"><ellipse cx="89.99" cy="348.9128" fill="#84BE84" rx="3" ry="3" style="stroke:#038048;stroke-width:1;"/></g><text fill="#000000" font-family="sans-serif" font-size="14" lengthAdjust="spacing" textLength="224.5264" x="98.99" y="352.2595">anexarRelatorio(doc : Relatorio)</text></g><!--class Secretaria--><g class="entity" data-qualified-name="Secretaria" data-source-line="51" id="ent0008"><rect fill="#FFFFFF" height="96.8906" rx="2.5" ry="2.5" style="stroke:#000000;stroke-width:0.5;" width="546.4063" x="937.05" y="238.23"/><ellipse cx="1170.0734" cy="254.23" fill="#ADD1B2" rx="11" ry="11" style="stroke:#181818;stroke-width:1;"/><path d="M1173.0422,259.8706 Q1172.4641,260.1675 1171.8234,260.3081 Q1171.1828,260.4644 1170.4797,260.4644 Q1167.9797,260.4644 1166.6516,258.8237 Q1165.3391,257.1675 1165.3391,254.0425 Q1165.3391,250.9175 1166.6516,249.2612 Q1167.9797,247.605 1170.4797,247.605 Q1171.1828,247.605 1171.8234,247.7612 Q1172.4797,247.9175 1173.0422,248.2144 L1173.0422,250.9331 Q1172.4172,250.355 1171.8234,250.0894 Q1171.2297,249.8081 1170.6047,249.8081 Q1169.2609,249.8081 1168.5734,250.8862 Q1167.8859,251.9487 1167.8859,254.0425 Q1167.8859,256.1362 1168.5734,257.2144 Q1169.2609,258.2769 1170.6047,258.2769 Q1171.2297,258.2769 1171.8234,258.0112 Q1172.4172,257.73 1173.0422,257.1519 L1173.0422,259.8706 Z " fill="#000000"/><text fill="#000000" font-family="sans-serif" font-size="14" lengthAdjust="spacing" textLength="71.8594" x="1190.5734" y="259.0767">Secretaria</text><line style="stroke:#000000;stroke-width:0.5;" x1="938.05" x2="1482.4563" y1="270.23" y2="270.23"/><line style="stroke:#000000;stroke-width:0.5;" x1="938.05" x2="1482.4563" y1="278.23" y2="278.23"/><g data-visibility-modifier="PUBLIC_METHOD"><ellipse cx="948.05" cy="291.8784" fill="#84BE84" rx="3" ry="3" style="stroke:#038048;stroke-width:1;"/></g><text fill="#000000" font-family="sans-serif" font-size="14" lengthAdjust="spacing" textLength="520.4063" x="957.05" y="295.2251">validarContrato(processo : Processo, aprovado : bool, justificativa : string)</text><g data-visibility-modifier="PUBLIC_METHOD"><ellipse cx="948.05" cy="308.1753" fill="#84BE84" rx="3" ry="3" style="stroke:#038048;stroke-width:1;"/></g><text fill="#000000" font-family="sans-serif" font-size="14" lengthAdjust="spacing" textLength="288.6475" x="957.05" y="311.522">pesquisarAlunos(matricula : int) : Aluno[]</text><g data-visibility-modifier="PUBLIC_METHOD"><ellipse cx="948.05" cy="324.4722" fill="#84BE84" rx="3" ry="3" style="stroke:#038048;stroke-width:1;"/></g><text fill="#000000" font-family="sans-serif" font-size="14" lengthAdjust="spacing" textLength="275.8096" x="957.05" y="327.8189">listarProcessosPendentes() : Processo[]</text></g><!--class Coordenacao--><g class="entity" data-qualified-name="Coordenacao" data-source-line="57" id="ent0010"><rect fill="#FFFFFF" height="80.5938" rx="2.5" ry="2.5" style="stroke:#000000;stroke-width:0.5;" width="536.8633" x="364.82" y="246.38"/><ellipse cx="582.7736" cy="262.38" fill="#ADD1B2" rx="11" ry="11" style="stroke:#181818;stroke-width:1;"/><path d="M585.7424,268.0206 Q585.1642,268.3175 584.5236,268.4581 Q583.883,268.6144 583.1799,268.6144 Q580.6799,268.6144 579.3517,266.9738 Q578.0392,265.3175 578.0392,262.1925 Q578.0392,259.0675 579.3517,257.4113 Q580.6799,255.755 583.1799,255.755 Q583.883,255.755 584.5236,255.9113 Q585.1799,256.0675 585.7424,256.3644 L585.7424,259.0831 Q585.1174,258.505 584.5236,258.2394 Q583.9299,257.9581 583.3049,257.9581 Q581.9611,257.9581 581.2736,259.0363 Q580.5861,260.0988 580.5861,262.1925 Q580.5861,264.2863 581.2736,265.3644 Q581.9611,266.4269 583.3049,266.4269 Q583.9299,266.4269 584.5236,266.1613 Q585.1174,265.88 585.7424,265.3019 L585.7424,268.0206 Z " fill="#000000"/><text fill="#000000" font-family="sans-serif" font-size="14" lengthAdjust="spacing" textLength="92.4561" x="603.2736" y="267.2267">Coordenacao</text><line style="stroke:#000000;stroke-width:0.5;" x1="365.82" x2="900.6833" y1="278.38" y2="278.38"/><g data-visibility-modifier="PRIVATE_FIELD"><rect fill="none" height="6" style="stroke:#C82930;stroke-width:1;" width="6" x="372.82" y="289.0284"/></g><text fill="#000000" font-family="sans-serif" font-size="14" lengthAdjust="spacing" textLength="76.4121" x="384.82" y="295.3751">areaId : int</text><line style="stroke:#000000;stroke-width:0.5;" x1="365.82" x2="900.6833" y1="302.6769" y2="302.6769"/><g data-visibility-modifier="PUBLIC_METHOD"><ellipse cx="375.82" cy="316.3253" fill="#84BE84" rx="3" ry="3" style="stroke:#038048;stroke-width:1;"/></g><text fill="#000000" font-family="sans-serif" font-size="14" lengthAdjust="spacing" textLength="510.8633" x="384.82" y="319.672">validarEstagio(processo : Processo, aprovado : bool, justificativa : string)</text></g><!--class Processo--><g class="entity" data-qualified-name="Processo" data-source-line="62" id="ent0012"><rect fill="#FFFFFF" height="178.375" rx="2.5" ry="2.5" style="stroke:#000000;stroke-width:0.5;" width="398.9893" x="584.76" y="436.57"/><ellipse cx="748.8909" cy="452.57" fill="#ADD1B2" rx="11" ry="11" style="stroke:#181818;stroke-width:1;"/><path d="M751.8596,458.2106 Q751.2815,458.5075 750.6409,458.6481 Q750.0002,458.8044 749.2971,458.8044 Q746.7971,458.8044 745.469,457.1637 Q744.1565,455.5075 744.1565,452.3825 Q744.1565,449.2575 745.469,447.6012 Q746.7971,445.945 749.2971,445.945 Q750.0002,445.945 750.6409,446.1012 Q751.2971,446.2575 751.8596,446.5544 L751.8596,449.2731 Q751.2346,448.695 750.6409,448.4294 Q750.0471,448.1481 749.4221,448.1481 Q748.0784,448.1481 747.3909,449.2262 Q746.7034,450.2887 746.7034,452.3825 Q746.7034,454.4762 747.3909,455.5544 Q748.0784,456.6169 749.4221,456.6169 Q750.0471,456.6169 750.6409,456.3512 Q751.2346,456.07 751.8596,455.4919 L751.8596,458.2106 Z " fill="#000000"/><text fill="#000000" font-family="sans-serif" font-size="14" lengthAdjust="spacing" textLength="62.2275" x="769.3909" y="457.4167">Processo</text><line style="stroke:#000000;stroke-width:0.5;" x1="585.76" x2="982.7493" y1="468.57" y2="468.57"/><g data-visibility-modifier="PRIVATE_FIELD"><rect fill="none" height="6" style="stroke:#C82930;stroke-width:1;" width="6" x="592.76" y="479.2184"/></g><text fill="#000000" font-family="sans-serif" font-size="14" lengthAdjust="spacing" textLength="107.5566" x="604.76" y="485.5651">processoId : int</text><g data-visibility-modifier="PRIVATE_FIELD"><rect fill="none" height="6" style="stroke:#C82930;stroke-width:1;" width="6" x="592.76" y="495.5153"/></g><text fill="#000000" font-family="sans-serif" font-size="14" lengthAdjust="spacing" textLength="166.1475" x="604.76" y="501.862">dataCriacao : DateTime</text><g data-visibility-modifier="PRIVATE_FIELD"><rect fill="none" height="6" style="stroke:#C82930;stroke-width:1;" width="6" x="592.76" y="511.8122"/></g><text fill="#000000" font-family="sans-serif" font-size="14" lengthAdjust="spacing" textLength="163.4746" x="604.76" y="518.1589">status : StatusProcesso</text><g data-visibility-modifier="PRIVATE_FIELD"><rect fill="none" height="6" style="stroke:#C82930;stroke-width:1;" width="6" x="592.76" y="528.1091"/></g><text fill="#000000" font-family="sans-serif" font-size="14" lengthAdjust="spacing" textLength="138.0381" x="604.76" y="534.4557">matriculaAluno : int</text><g data-visibility-modifier="PRIVATE_FIELD"><rect fill="none" height="6" style="stroke:#C82930;stroke-width:1;" width="6" x="592.76" y="544.4059"/></g><text fill="#000000" font-family="sans-serif" font-size="14" lengthAdjust="spacing" textLength="190.7158" x="604.76" y="550.7526">matriculaCoordenacao : int</text><g data-visibility-modifier="PRIVATE_FIELD"><rect fill="none" height="6" style="stroke:#C82930;stroke-width:1;" width="6" x="592.76" y="560.7028"/></g><text fill="#000000" font-family="sans-serif" font-size="14" lengthAdjust="spacing" textLength="170.1191" x="604.76" y="567.0495">matriculaSecretaria : int</text><line style="stroke:#000000;stroke-width:0.5;" x1="585.76" x2="982.7493" y1="574.3512" y2="574.3512"/><g data-visibility-modifier="PUBLIC_METHOD"><ellipse cx="595.76" cy="587.9997" fill="#84BE84" rx="3" ry="3" style="stroke:#038048;stroke-width:1;"/></g><text fill="#000000" font-family="sans-serif" font-size="14" lengthAdjust="spacing" textLength="315.875" x="604.76" y="591.3464">atualizarStatus(novoStatus : StatusProcesso)</text><g data-visibility-modifier="PUBLIC_METHOD"><ellipse cx="595.76" cy="604.2966" fill="#84BE84" rx="3" ry="3" style="stroke:#038048;stroke-width:1;"/></g><text fill="#000000" font-family="sans-serif" font-size="14" lengthAdjust="spacing" textLength="372.9893" x="604.76" y="607.6432">validarContrato(aprovado : bool, justificativa : string)</text></g><!--class Contrato--><g class="entity" data-qualified-name="Contrato" data-source-line="73" id="ent0013"><rect fill="#FFFFFF" height="259.8594" rx="2.5" ry="2.5" style="stroke:#000000;stroke-width:0.5;" width="214.7881" x="681.86" y="691.94"/><ellipse cx="754.4577" cy="707.94" fill="#ADD1B2" rx="11" ry="11" style="stroke:#181818;stroke-width:1;"/><path d="M757.4264,713.5806 Q756.8483,713.8775 756.2077,714.0181 Q755.567,714.1744 754.8639,714.1744 Q752.3639,714.1744 751.0358,712.5337 Q749.7233,710.8775 749.7233,707.7525 Q749.7233,704.6275 751.0358,702.9712 Q752.3639,701.315 754.8639,701.315 Q755.567,701.315 756.2077,701.4712 Q756.8639,701.6275 757.4264,701.9244 L757.4264,704.6431 Q756.8014,704.065 756.2077,703.7994 Q755.6139,703.5181 754.9889,703.5181 Q753.6452,703.5181 752.9577,704.5962 Q752.2702,705.6587 752.2702,707.7525 Q752.2702,709.8462 752.9577,710.9244 Q753.6452,711.9869 754.9889,711.9869 Q755.6139,711.9869 756.2077,711.7212 Q756.8014,711.44 757.4264,710.8619 L757.4264,713.5806 Z " fill="#000000"/><text fill="#000000" font-family="sans-serif" font-size="14" lengthAdjust="spacing" textLength="61.0928" x="774.9577" y="712.7867">Contrato</text><line style="stroke:#000000;stroke-width:0.5;" x1="682.86" x2="895.6481" y1="723.94" y2="723.94"/><g data-visibility-modifier="PRIVATE_FIELD"><rect fill="none" height="6" style="stroke:#C82930;stroke-width:1;" width="6" x="689.86" y="734.5884"/></g><text fill="#000000" font-family="sans-serif" font-size="14" lengthAdjust="spacing" textLength="107.5566" x="701.86" y="740.9351">processoId : int</text><g data-visibility-modifier="PRIVATE_FIELD"><rect fill="none" height="6" style="stroke:#C82930;stroke-width:1;" width="6" x="689.86" y="750.8853"/></g><text fill="#000000" font-family="sans-serif" font-size="14" lengthAdjust="spacing" textLength="103.8994" x="701.86" y="757.232">contratoId : int</text><g data-visibility-modifier="PRIVATE_FIELD"><rect fill="none" height="6" style="stroke:#C82930;stroke-width:1;" width="6" x="689.86" y="767.1822"/></g><text fill="#000000" font-family="sans-serif" font-size="14" lengthAdjust="spacing" textLength="147.3281" x="701.86" y="773.5289">nomeArquivo : string</text><g data-visibility-modifier="PRIVATE_FIELD"><rect fill="none" height="6" style="stroke:#C82930;stroke-width:1;" width="6" x="689.86" y="783.4791"/></g><text fill="#000000" font-family="sans-serif" font-size="14" lengthAdjust="spacing" textLength="162.3604" x="701.86" y="789.8257">dataUpload : DateTime</text><g data-visibility-modifier="PRIVATE_FIELD"><rect fill="none" height="6" style="stroke:#C82930;stroke-width:1;" width="6" x="689.86" y="799.7759"/></g><text fill="#000000" font-family="sans-serif" font-size="14" lengthAdjust="spacing" textLength="144.7646" x="701.86" y="806.1226">cnpjEmpresa : string</text><g data-visibility-modifier="PRIVATE_FIELD"><rect fill="none" height="6" style="stroke:#C82930;stroke-width:1;" width="6" x="689.86" y="816.0728"/></g><text fill="#000000" font-family="sans-serif" font-size="14" lengthAdjust="spacing" textLength="155.1074" x="701.86" y="822.4195">nomeEmpresa : string</text><g data-visibility-modifier="PRIVATE_FIELD"><rect fill="none" height="6" style="stroke:#C82930;stroke-width:1;" width="6" x="689.86" y="832.3697"/></g><text fill="#000000" font-family="sans-serif" font-size="14" lengthAdjust="spacing" textLength="115.6572" x="701.86" y="838.7164">dataInicio : Date</text><g data-visibility-modifier="PRIVATE_FIELD"><rect fill="none" height="6" style="stroke:#C82930;stroke-width:1;" width="6" x="689.86" y="848.6666"/></g><text fill="#000000" font-family="sans-serif" font-size="14" lengthAdjust="spacing" textLength="136.5" x="701.86" y="855.0132">dataTermino : Date</text><g data-visibility-modifier="PRIVATE_FIELD"><rect fill="none" height="6" style="stroke:#C82930;stroke-width:1;" width="6" x="689.86" y="864.9634"/></g><text fill="#000000" font-family="sans-serif" font-size="14" lengthAdjust="spacing" textLength="153.5078" x="701.86" y="871.3101">apoliceSeguro : string</text><g data-visibility-modifier="PRIVATE_FIELD"><rect fill="none" height="6" style="stroke:#C82930;stroke-width:1;" width="6" x="689.86" y="881.2603"/></g><text fill="#000000" font-family="sans-serif" font-size="14" lengthAdjust="spacing" textLength="148.415" x="701.86" y="887.607">planoAtividade : bool</text><g data-visibility-modifier="PRIVATE_FIELD"><rect fill="none" height="6" style="stroke:#C82930;stroke-width:1;" width="6" x="689.86" y="897.5572"/></g><text fill="#000000" font-family="sans-serif" font-size="14" lengthAdjust="spacing" textLength="156.5088" x="701.86" y="903.9039">assinaturaAluno : bool</text><g data-visibility-modifier="PRIVATE_FIELD"><rect fill="none" height="6" style="stroke:#C82930;stroke-width:1;" width="6" x="689.86" y="913.8541"/></g><text fill="#000000" font-family="sans-serif" font-size="14" lengthAdjust="spacing" textLength="178.3428" x="701.86" y="920.2007">assinaturaEmpresa : bool</text><g data-visibility-modifier="PRIVATE_FIELD"><rect fill="none" height="6" style="stroke:#C82930;stroke-width:1;" width="6" x="689.86" y="930.1509"/></g><text fill="#000000" font-family="sans-serif" font-size="14" lengthAdjust="spacing" textLength="188.7881" x="701.86" y="936.4976">assinaturaFaculdade : bool</text><line style="stroke:#000000;stroke-width:0.5;" x1="682.86" x2="895.6481" y1="943.7994" y2="943.7994"/></g><!--class Relatorio--><g class="entity" data-qualified-name="Relatorio" data-source-line="89" id="ent0014"><rect fill="#FFFFFF" height="162.0781" rx="2.5" ry="2.5" style="stroke:#000000;stroke-width:0.5;" width="226.7646" x="931.87" y="740.83"/><ellipse cx="1009.4647" cy="756.83" fill="#ADD1B2" rx="11" ry="11" style="stroke:#181818;stroke-width:1;"/><path d="M1012.4335,762.4706 Q1011.8554,762.7675 1011.2147,762.9081 Q1010.5741,763.0644 1009.871,763.0644 Q1007.371,763.0644 1006.0429,761.4237 Q1004.7304,759.7675 1004.7304,756.6425 Q1004.7304,753.5175 1006.0429,751.8612 Q1007.371,750.205 1009.871,750.205 Q1010.5741,750.205 1011.2147,750.3612 Q1011.871,750.5175 1012.4335,750.8144 L1012.4335,753.5331 Q1011.8085,752.955 1011.2147,752.6894 Q1010.621,752.4081 1009.996,752.4081 Q1008.6522,752.4081 1007.9647,753.4862 Q1007.2772,754.5487 1007.2772,756.6425 Q1007.2772,758.7362 1007.9647,759.8144 Q1008.6522,760.8769 1009.996,760.8769 Q1010.621,760.8769 1011.2147,760.6112 Q1011.8085,760.33 1012.4335,759.7519 L1012.4335,762.4706 Z " fill="#000000"/><text fill="#000000" font-family="sans-serif" font-size="14" lengthAdjust="spacing" textLength="63.0752" x="1029.9647" y="761.6767">Relatorio</text><line style="stroke:#000000;stroke-width:0.5;" x1="932.87" x2="1157.6346" y1="772.83" y2="772.83"/><g data-visibility-modifier="PRIVATE_FIELD"><rect fill="none" height="6" style="stroke:#C82930;stroke-width:1;" width="6" x="939.87" y="783.4784"/></g><text fill="#000000" font-family="sans-serif" font-size="14" lengthAdjust="spacing" textLength="107.5566" x="951.87" y="789.8251">processoId : int</text><g data-visibility-modifier="PRIVATE_FIELD"><rect fill="none" height="6" style="stroke:#C82930;stroke-width:1;" width="6" x="939.87" y="799.7753"/></g><text fill="#000000" font-family="sans-serif" font-size="14" lengthAdjust="spacing" textLength="103.9883" x="951.87" y="806.122">relatorioId : int</text><g data-visibility-modifier="PRIVATE_FIELD"><rect fill="none" height="6" style="stroke:#C82930;stroke-width:1;" width="6" x="939.87" y="816.0722"/></g><text fill="#000000" font-family="sans-serif" font-size="14" lengthAdjust="spacing" textLength="147.3281" x="951.87" y="822.4189">nomeArquivo : string</text><g data-visibility-modifier="PRIVATE_FIELD"><rect fill="none" height="6" style="stroke:#C82930;stroke-width:1;" width="6" x="939.87" y="832.3691"/></g><text fill="#000000" font-family="sans-serif" font-size="14" lengthAdjust="spacing" textLength="162.3604" x="951.87" y="838.7157">dataUpload : DateTime</text><g data-visibility-modifier="PRIVATE_FIELD"><rect fill="none" height="6" style="stroke:#C82930;stroke-width:1;" width="6" x="939.87" y="848.6659"/></g><text fill="#000000" font-family="sans-serif" font-size="14" lengthAdjust="spacing" textLength="157.3906" x="951.87" y="855.0126">horasTrabalhadas : int</text><g data-visibility-modifier="PRIVATE_FIELD"><rect fill="none" height="6" style="stroke:#C82930;stroke-width:1;" width="6" x="939.87" y="864.9628"/></g><text fill="#000000" font-family="sans-serif" font-size="14" lengthAdjust="spacing" textLength="182.2598" x="951.87" y="871.3095">periodoReferencia : string</text><g data-visibility-modifier="PRIVATE_FIELD"><rect fill="none" height="6" style="stroke:#C82930;stroke-width:1;" width="6" x="939.87" y="881.2597"/></g><text fill="#000000" font-family="sans-serif" font-size="14" lengthAdjust="spacing" textLength="200.7646" x="951.87" y="887.6064">aprovadoPelaEmpresa : bool</text><line style="stroke:#000000;stroke-width:0.5;" x1="932.87" x2="1157.6346" y1="894.9081" y2="894.9081"/></g><!--class Curso--><g class="entity" data-qualified-name="Curso" data-source-line="99" id="ent0015"><rect fill="#FFFFFF" height="96.8906" rx="2.5" ry="2.5" style="stroke:#000000;stroke-width:0.5;" width="119.4951" x="274.51" y="773.43"/><ellipse cx="310.7642" cy="789.43" fill="#ADD1B2" rx="11" ry="11" style="stroke:#181818;stroke-width:1;"/><path d="M313.7329,795.0706 Q313.1548,795.3675 312.5142,795.5081 Q311.8735,795.6644 311.1704,795.6644 Q308.6704,795.6644 307.3423,794.0238 Q306.0298,792.3675 306.0298,789.2425 Q306.0298,786.1175 307.3423,784.4613 Q308.6704,782.805 311.1704,782.805 Q311.8735,782.805 312.5142,782.9613 Q313.1704,783.1175 313.7329,783.4144 L313.7329,786.1331 Q313.1079,785.555 312.5142,785.2894 Q311.9204,785.0081 311.2954,785.0081 Q309.9517,785.0081 309.2642,786.0863 Q308.5767,787.1488 308.5767,789.2425 Q308.5767,791.3363 309.2642,792.4144 Q309.9517,793.4769 311.2954,793.4769 Q311.9204,793.4769 312.5142,793.2113 Q313.1079,792.93 313.7329,792.3519 L313.7329,795.0706 Z " fill="#000000"/><text fill="#000000" font-family="sans-serif" font-size="14" lengthAdjust="spacing" textLength="40.2637" x="329.4873" y="794.2767">Curso</text><line style="stroke:#000000;stroke-width:0.5;" x1="275.51" x2="393.0051" y1="805.43" y2="805.43"/><g data-visibility-modifier="PRIVATE_FIELD"><rect fill="none" height="6" style="stroke:#C82930;stroke-width:1;" width="6" x="282.51" y="816.0784"/></g><text fill="#000000" font-family="sans-serif" font-size="14" lengthAdjust="spacing" textLength="83.0703" x="294.51" y="822.4251">cursoId : int</text><g data-visibility-modifier="PRIVATE_FIELD"><rect fill="none" height="6" style="stroke:#C82930;stroke-width:1;" width="6" x="282.51" y="832.3753"/></g><text fill="#000000" font-family="sans-serif" font-size="14" lengthAdjust="spacing" textLength="93.4951" x="294.51" y="838.722">nome : string</text><g data-visibility-modifier="PRIVATE_FIELD"><rect fill="none" height="6" style="stroke:#C82930;stroke-width:1;" width="6" x="282.51" y="848.6722"/></g><text fill="#000000" font-family="sans-serif" font-size="14" lengthAdjust="spacing" textLength="76.4121" x="294.51" y="855.0189">areaId : int</text><line style="stroke:#000000;stroke-width:0.5;" x1="275.51" x2="393.0051" y1="862.3206" y2="862.3206"/></g><!--class Area--><g class="entity" data-qualified-name="Area" data-source-line="105" id="ent0016"><rect fill="#FFFFFF" height="80.5938" rx="2.5" ry="2.5" style="stroke:#000000;stroke-width:0.5;" width="119.4951" x="425.51" y="485.46"/><ellipse cx="465.2464" cy="501.46" fill="#ADD1B2" rx="11" ry="11" style="stroke:#181818;stroke-width:1;"/><path d="M468.2151,507.1006 Q467.637,507.3975 466.9964,507.5381 Q466.3558,507.6944 465.6526,507.6944 Q463.1526,507.6944 461.8245,506.0538 Q460.512,504.3975 460.512,501.2725 Q460.512,498.1475 461.8245,496.4913 Q463.1526,494.835 465.6526,494.835 Q466.3558,494.835 466.9964,494.9913 Q467.6526,495.1475 468.2151,495.4444 L468.2151,498.1631 Q467.5901,497.585 466.9964,497.3194 Q466.4026,497.0381 465.7776,497.0381 Q464.4339,497.0381 463.7464,498.1163 Q463.0589,499.1788 463.0589,501.2725 Q463.0589,503.3663 463.7464,504.4444 Q464.4339,505.5069 465.7776,505.5069 Q466.4026,505.5069 466.9964,505.2413 Q467.5901,504.96 468.2151,504.3819 L468.2151,507.1006 Z " fill="#000000"/><text fill="#000000" font-family="sans-serif" font-size="14" lengthAdjust="spacing" textLength="32.5254" x="484.7433" y="506.3067">Area</text><line style="stroke:#000000;stroke-width:0.5;" x1="426.51" x2="544.0051" y1="517.46" y2="517.46"/><g data-visibility-modifier="PRIVATE_FIELD"><rect fill="none" height="6" style="stroke:#C82930;stroke-width:1;" width="6" x="433.51" y="528.1084"/></g><text fill="#000000" font-family="sans-serif" font-size="14" lengthAdjust="spacing" textLength="76.4121" x="445.51" y="534.4551">areaId : int</text><g data-visibility-modifier="PRIVATE_FIELD"><rect fill="none" height="6" style="stroke:#C82930;stroke-width:1;" width="6" x="433.51" y="544.4053"/></g><text fill="#000000" font-family="sans-serif" font-size="14" lengthAdjust="spacing" textLength="93.4951" x="445.51" y="550.752">nome : string</text><line style="stroke:#000000;stroke-width:0.5;" x1="426.51" x2="544.0051" y1="558.0538" y2="558.0538"/></g><!--reverse link Usuario to Aluno--><g class="link" data-entity-1="ent0005" data-entity-2="ent0006" data-link-type="extension" data-source-line="43" id="lnk7"><path d="M539.5031,123.5616 C481.7831,149.9816 417.49,179.82 347.25,213.78 C341.5,216.57 335.63,219.43 329.7,222.34" fill="none" id="Usuario-backto-Aluno" style="stroke:#000000;stroke-width:1;"/><polygon fill="none" points="555.87,116.07,537.0059,118.1059,542.0003,129.0172,555.87,116.07" style="stroke:#000000;stroke-width:1;"/></g><!--reverse link Usuario to Secretaria--><g class="link" data-entity-1="ent0005" data-entity-2="ent0008" data-link-type="extension" data-source-line="52" id="lnk9"><path d="M726.1809,152.4967 C731.9409,156.0067 722.41,149.9 728.25,152.78 C755.77,166.36 899.89,205.47 1023.44,237.77" fill="none" id="Usuario-backto-Secretaria" style="stroke:#000000;stroke-width:1;"/><polygon fill="none" points="710.81,143.13,723.0587,157.6203,729.3032,147.373,710.81,143.13" style="stroke:#000000;stroke-width:1;"/></g><!--reverse link Usuario to Coordenacao--><g class="link" data-entity-1="ent0005" data-entity-2="ent0010" data-link-type="extension" data-source-line="58" id="lnk11"><path d="M633.25,171.09 C633.25,202.3 633.25,219.61 633.25,245.95" fill="none" id="Usuario-backto-Coordenacao" style="stroke:#000000;stroke-width:1;"/><polygon fill="none" points="633.25,153.09,627.25,171.09,639.25,171.09,633.25,153.09" style="stroke:#000000;stroke-width:1;"/></g><!--link Aluno to Curso--><g class="link" data-entity-1="ent0006" data-entity-2="ent0015" data-link-type="association" data-source-line="113" id="lnk17"><path codeLine="113" d="M260.03,359.83 C275.29,383.14 290.13,409.87 299.25,436.57 C338.86,552.42 339.75,698.71 337.02,772.94" fill="none" id="Aluno-Curso" style="stroke:#000000;stroke-width:1;"/><text fill="#000000" font-family="sans-serif" font-size="13" lengthAdjust="spacing" textLength="23.0356" x="241.2518" y="379.5911">0..*</text><text fill="#000000" font-family="sans-serif" font-size="13" lengthAdjust="spacing" textLength="8.271" x="328.8719" y="762.4323">1</text></g><!--link Aluno to Periodo--><g class="link" data-entity-1="ent0006" data-entity-2="ent0004" data-link-type="association" data-source-line="114" id="lnk18"><path codeLine="114" d="M186.01,359.77 C174.73,404.32 160.83,459.26 152.25,493.15" fill="none" id="Aluno-Periodo" style="stroke:#000000;stroke-width:1;"/><text fill="#000000" font-family="sans-serif" font-size="13" lengthAdjust="spacing" textLength="23.0356" x="160.1768" y="379.5254">0..*</text><text fill="#000000" font-family="sans-serif" font-size="13" lengthAdjust="spacing" textLength="8.271" x="145.0377" y="482.5858">1</text></g><!--link Area to Curso--><g class="link" data-entity-1="ent0016" data-entity-2="ent0015" data-link-type="association" data-source-line="117" id="lnk19"><path codeLine="117" d="M464.89,566.42 C437.36,620.04 388.32,715.56 358.79,773.08" fill="none" id="Area-Curso" style="stroke:#000000;stroke-width:1;"/><text fill="#000000" font-family="sans-serif" font-size="13" lengthAdjust="spacing" textLength="8.271" x="453.028" y="586.1735">1</text><text fill="#000000" font-family="sans-serif" font-size="13" lengthAdjust="spacing" textLength="23.0356" x="363.8596" y="762.2397">0..*</text></g><!--link Coordenacao to Area--><g class="link" data-entity-1="ent0010" data-entity-2="ent0016" data-link-type="association" data-source-line="118" id="lnk20"><path codeLine="118" d="M608.48,327.36 C581.08,371.25 537.19,441.55 509.86,485.34" fill="none" id="Coordenacao-Area" style="stroke:#000000;stroke-width:1;"/><text fill="#000000" font-family="sans-serif" font-size="13" lengthAdjust="spacing" textLength="8.271" x="595.9161" y="347.1167">1</text><text fill="#000000" font-family="sans-serif" font-size="13" lengthAdjust="spacing" textLength="8.271" x="505.2947" y="474.4817">1</text></g><!--link Aluno to Processo--><g class="link" data-entity-1="ent0006" data-entity-2="ent0012" data-link-type="association" data-source-line="121" id="lnk21"><path codeLine="121" d="M329.79,351.85 C335.67,354.52 341.51,357.1 347.25,359.57 C440.55,399.55 467.3,400.71 562.25,436.57 C569.53,439.31 576.93,442.13 584.4,444.99" fill="none" id="Aluno-Processo" style="stroke:#000000;stroke-width:1;"/><polygon fill="#000000" points="482.9457,399.8542,475.4608,393.9867,473.4415,399.5068,482.9457,399.8542" style="stroke:#000000;stroke-width:1;"/><text fill="#000000" font-family="sans-serif" font-size="13" lengthAdjust="spacing" textLength="41.6025" x="487.25" y="402.6369">possui</text><text fill="#000000" font-family="sans-serif" font-size="13" lengthAdjust="spacing" textLength="8.271" x="337.6919" y="352.4358">1</text><text fill="#000000" font-family="sans-serif" font-size="13" lengthAdjust="spacing" textLength="24.8066" x="552.1402" y="438.6115">0..1</text></g><!--link Secretaria to Processo--><g class="link" data-entity-1="ent0008" data-entity-2="ent0012" data-link-type="association" data-source-line="122" id="lnk22"><path codeLine="122" d="M1124.3,335.51 C1072.41,364.39 1004.67,402.09 943.32,436.23" fill="none" id="Secretaria-Processo" style="stroke:#000000;stroke-width:1;"/><polygon fill="#000000" points="1022.881,400.5679,1032.2138,398.7373,1029.3554,393.6013,1022.881,400.5679" style="stroke:#000000;stroke-width:1;"/><text fill="#000000" font-family="sans-serif" font-size="13" lengthAdjust="spacing" textLength="41.1328" x="1036.25" y="402.6369">audita</text><text fill="#000000" font-family="sans-serif" font-size="13" lengthAdjust="spacing" textLength="8.271" x="1104.2308" y="355.1558">1</text><text fill="#000000" font-family="sans-serif" font-size="13" lengthAdjust="spacing" textLength="23.0356" x="932.0805" y="425.5703">0..*</text></g><!--link Coordenacao to Processo--><g class="link" data-entity-1="ent0010" data-entity-2="ent0012" data-link-type="association" data-source-line="123" id="lnk23"><path codeLine="123" d="M658.53,327.36 C677.42,357.02 703.99,398.73 727.83,436.17" fill="none" id="Coordenacao-Processo" style="stroke:#000000;stroke-width:1;"/><polygon fill="#000000" points="716.936,402.3537,714.5559,393.1458,709.5981,396.3033,716.936,402.3537" style="stroke:#000000;stroke-width:1;"/><text fill="#000000" font-family="sans-serif" font-size="13" lengthAdjust="spacing" textLength="39.1016" x="723.25" y="402.6369">valida</text><text fill="#000000" font-family="sans-serif" font-size="13" lengthAdjust="spacing" textLength="8.271" x="653.9428" y="347.1167">1</text><text fill="#000000" font-family="sans-serif" font-size="13" lengthAdjust="spacing" textLength="23.0356" x="699.4187" y="425.5055">0..*</text></g><!--reverse link Processo to Contrato--><g class="link" data-entity-1="ent0012" data-entity-2="ent0013" data-link-type="composition" data-source-line="125" id="lnk24"><path codeLine="125" d="M785.9649,627.3983 C786.3749,651.4083 786.62,665.92 787.06,691.67" fill="none" id="Processo-backto-Contrato" style="stroke:#000000;stroke-width:1;"/><polygon fill="#000000" points="785.76,615.4,781.863,621.4674,785.9649,627.3983,789.8619,621.3308,785.76,615.4" style="stroke:#000000;stroke-width:1;"/><polygon fill="#000000" points="791.3352,658.5057,794.1196,649.4118,788.2426,649.512,791.3352,658.5057" style="stroke:#000000;stroke-width:1;"/><text fill="#000000" font-family="sans-serif" font-size="13" lengthAdjust="spacing" textLength="49.0991" x="800.25" y="658.0069">cont&#233;m</text><text fill="#000000" font-family="sans-serif" font-size="13" lengthAdjust="spacing" textLength="8.271" x="777.5794" y="634.9095">1</text><text fill="#000000" font-family="sans-serif" font-size="13" lengthAdjust="spacing" textLength="23.0356" x="763.2693" y="680.78">1..*</text></g><!--reverse link Processo to Relatorio--><g class="link" data-entity-1="ent0012" data-entity-2="ent0014" data-link-type="composition" data-source-line="126" id="lnk25"><path codeLine="126" d="M870.8844,624.376 C906.1544,664.126 939.49,701.69 973.86,740.42" fill="none" id="Processo-backto-Relatorio" style="stroke:#000000;stroke-width:1;"/><polygon fill="#000000" points="862.92,615.4,863.9102,622.5428,870.8844,624.376,869.8942,617.2332,862.92,615.4" style="stroke:#000000;stroke-width:1;"/><polygon fill="#000000" points="906.5687,657.2462,902.7634,648.5301,898.3669,652.4315,906.5687,657.2462" style="stroke:#000000;stroke-width:1;"/><text fill="#000000" font-family="sans-serif" font-size="13" lengthAdjust="spacing" textLength="49.0991" x="912.25" y="658.0069">cont&#233;m</text><text fill="#000000" font-family="sans-serif" font-size="13" lengthAdjust="spacing" textLength="8.271" x="860.6469" y="634.9095">1</text><text fill="#000000" font-family="sans-serif" font-size="13" lengthAdjust="spacing" textLength="23.0356" x="943.738" y="729.8485">0..*</text></g><!--link Processo to StatusProcesso--><g class="link" data-entity-1="ent0012" data-entity-2="ent0002" data-link-type="association" data-source-line="127" id="lnk26"><path codeLine="127" d="M710.11,615.4 C679.13,652.44 643.21,695.39 612.24,732.41" fill="none" id="Processo-StatusProcesso" style="stroke:#000000;stroke-width:1;"/><polygon fill="#000000" points="686.0421,657.3417,694.0996,652.2892,689.5909,648.518,686.0421,657.3417" style="stroke:#000000;stroke-width:1;"/><text fill="#000000" font-family="sans-serif" font-size="13" lengthAdjust="spacing" textLength="41.6025" x="698.25" y="658.0069">possui</text><text fill="#000000" font-family="sans-serif" font-size="13" lengthAdjust="spacing" textLength="23.0356" x="680.5542" y="634.9095">0..*</text><text fill="#000000" font-family="sans-serif" font-size="13" lengthAdjust="spacing" textLength="8.271" x="609.828" y="721.7559">1</text></g><?plantuml-src fLR1Sjis4BtZAp3E8NPiPU8sRL8TEWFHx4GTL-9GKdheT3nh4f6Ha003W6ecdHxwEJtqA_nZNP042KhCeUq1Dh2xs7tx5hlKKpgRpMXih2YKSNjYFWXPWOQIPWKOGtyd2yW-xBMgPHwfGcdwyuEmd32jrM-jO56W1LaedNCTIluWv6dhNzPbwvtZZcuisDeaMcNS68KHs29EjsiI_tJ7LknskOdlDd6KnbkMBbaeZTRhz2PUiOYjIHAlSBkDxzYFkyqs9Yn9rs_PpPgaiTz5wrLqkrkw7Lj5yQsJ8QO6mqwA77BkqcDfoaY4lj8rMRmXYvHjbhSOs9icN0kLEvp9zHLDliBrDQwNkBx1zIskLxXUu_eEr_MB8V78KSWDJRIGcQX0j2mGk3TMGsOxZdUc1eo14PxG4gmMMLq0dLCXBKgaAZaUy8QGUppp4aGH2WoN3n0AwYwvkK-JND92xOKylq3PlLA5WzZ6PaKj5UMVB9TvY6H6ireRjSmx73DQTJpCFIDErXMHsHgAtlOI_ufCWFOrRkBw0wf1ya-0RqKY2rQTvof3lJzUz0OfB_2CiJgB_dmnuD_mJ7EBe64YYKjwW08P649vm06UAmeeFK2JcYFdYhwliIFUYGoiE0pCEc0LDnzhOK0tl9dpetAvF1lDBxywpeMn0macGNHSMcv6TA1bdqoaN1D9o62w9A0v12ntoM7xmbxytznw445Z3WKEta4E5YBasu6SqnkmV2jAZWhJz3NAnWsEcfwbzhLvJxqupFj46LJO9mxkkOdFeDj8vr8Tr6Ow-iN48_ZtdFYhN-8aw_I1oBKjq_XO3chepPQzNLKeoCVaPR9w7vULvWP2S-TbGkoyB5sF-H9qiYtNfP2142fLY8nl-BxM8nnL0HBRLXpyg6Z60bumHaWaKFUrEb4CU4vKFm1MB7JOCzZtxfSerDxWltFue3IOhOPxA1uW1tCykbB-ZckEatZ4fNyD2G8uIcselvk5arDnF9sFMdIOiYWzxU3Zs_rtmv65jPLGuhpeFioesfKKcg9WFZWSCaw1uWUgWKIvapx-xUPoMxcp5y-VFpl3k_Ji-gpDO5BZfpa6U2Eu1iStK2nXrFbz_1D1aoO5P--kjGvQds7pUZt-S_REvpWNvxSV31sQmQT3CmonIXbJ2_ez2IR0641W37KkBA3n59mJwtOYe3NfXSxsMOEzpSrt_BnfxiU_IhG-DMuz3uzxsdh4zz7Fdo7FVm00?></g></svg>