<svg xmlns="http://www.w3.org/2000/svg" xmlns:xlink="http://www.w3.org/1999/xlink" contentStyleType="text/css" data-diagram-type="CLASS" height="608px" preserveAspectRatio="none" style="width:406px;height:608px;background:#FFFFFF;" version="1.1" viewBox="0 0 406 608" width="406px" zoomAndPan="magnify"><?plantuml 1.2026.3beta6?><defs/><g><!--class Usuario--><g class="entity" data-qualified-name="Usuario" data-source-line="9" id="ent0002"><rect fill="#FFFFFF" height="129.4844" rx="2.5" ry="2.5" style="stroke:#000000;stroke-width:0.5;" width="124.2598" x="94" y="7"/><ellipse cx="126.575" cy="23" fill="#A9DCDF" rx="11" ry="11" style="stroke:#181818;stroke-width:1;"/><path d="M126.6844,18.3438 L125.5282,23.4219 L127.8563,23.4219 L126.6844,18.3438 Z M125.2,16.1094 L128.1844,16.1094 L131.5438,28.5 L129.0907,28.5 L128.325,25.4375 L125.0438,25.4375 L124.2938,28.5 L121.8563,28.5 L125.2,16.1094 Z " fill="#000000"/><text fill="#000000" font-family="sans-serif" font-size="14" font-style="italic" lengthAdjust="spacing" textLength="53.2041" x="144.4806" y="27.8467">Usuario</text><line style="stroke:#000000;stroke-width:0.5;" x1="95" x2="217.2598" y1="39" y2="39"/><g data-visibility-modifier="PROTECTED_FIELD"><polygon fill="none" points="105,47.6484,109,51.6484,105,55.6484,101,51.6484" style="stroke:#B38D22;stroke-width:1;"/></g><text fill="#000000" font-family="sans-serif" font-size="14" lengthAdjust="spacing" textLength="98.2598" x="114" y="55.9951">matricula : int</text><g data-visibility-modifier="PROTECTED_FIELD"><polygon fill="none" points="105,63.9453,109,67.9453,105,71.9453,101,67.9453" style="stroke:#B38D22;stroke-width:1;"/></g><text fill="#000000" font-family="sans-serif" font-size="14" lengthAdjust="spacing" textLength="93.4951" x="114" y="72.292">nome : string</text><g data-visibility-modifier="PROTECTED_FIELD"><polygon fill="none" points="105,80.2422,109,84.2422,105,88.2422,101,84.2422" style="stroke:#B38D22;stroke-width:1;"/></g><text fill="#000000" font-family="sans-serif" font-size="14" lengthAdjust="spacing" textLength="92.415" x="114" y="88.5889">email : string</text><g data-visibility-modifier="PROTECTED_FIELD"><polygon fill="none" points="105,96.5391,109,100.5391,105,104.5391,101,100.5391" style="stroke:#B38D22;stroke-width:1;"/></g><text fill="#000000" font-family="sans-serif" font-size="14" lengthAdjust="spacing" textLength="96.0381" x="114" y="104.8857">senha : string</text><line style="stroke:#000000;stroke-width:0.5;" x1="95" x2="217.2598" y1="112.1875" y2="112.1875"/><g data-visibility-modifier="PUBLIC_METHOD"><ellipse cx="105" cy="125.8359" fill="#84BE84" rx="3" ry="3" style="stroke:#038048;stroke-width:1;"/></g><text fill="#000000" font-family="sans-serif" font-size="14" lengthAdjust="spacing" textLength="88.5527" x="114" y="129.1826">login() : bool</text></g><!--class Aluno--><g class="entity" data-qualified-name="Aluno" data-source-line="17" id="ent0003"><rect fill="#FFFFFF" height="145.7813" rx="2.5" ry="2.5" style="stroke:#000000;stroke-width:0.5;" width="250.5264" x="30.87" y="197.49"/><ellipse cx="131.994" cy="213.49" fill="#ADD1B2" rx="11" ry="11" style="stroke:#181818;stroke-width:1;"/><path d="M134.9628,219.1306 Q134.3846,219.4275 133.744,219.5681 Q133.1034,219.7244 132.4003,219.7244 Q129.9003,219.7244 128.5721,218.0838 Q127.2596,216.4275 127.2596,213.3025 Q127.2596,210.1775 128.5721,208.5213 Q129.9003,206.865 132.4003,206.865 Q133.1034,206.865 133.744,207.0213 Q134.4003,207.1775 134.9628,207.4744 L134.9628,210.1931 Q134.3378,209.615 133.744,209.3494 Q133.1503,209.0681 132.5253,209.0681 Q131.1815,209.0681 130.494,210.1463 Q129.8065,211.2088 129.8065,213.3025 Q129.8065,215.3963 130.494,216.4744 Q131.1815,217.5369 132.5253,217.5369 Q133.1503,217.5369 133.744,217.2713 Q134.3378,216.99 134.9628,216.4119 L134.9628,219.1306 Z " fill="#000000"/><text fill="#000000" font-family="sans-serif" font-size="14" lengthAdjust="spacing" textLength="39.7783" x="152.494" y="218.3367">Aluno</text><line style="stroke:#000000;stroke-width:0.5;" x1="31.87" x2="280.3964" y1="229.49" y2="229.49"/><g data-visibility-modifier="PRIVATE_FIELD"><rect fill="none" height="6" style="stroke:#C82930;stroke-width:1;" width="6" x="38.87" y="240.1384"/></g><text fill="#000000" font-family="sans-serif" font-size="14" lengthAdjust="spacing" textLength="92.0664" x="50.87" y="246.4851">curso : Curso</text><g data-visibility-modifier="PRIVATE_FIELD"><rect fill="none" height="6" style="stroke:#C82930;stroke-width:1;" width="6" x="38.87" y="256.4353"/></g><text fill="#000000" font-family="sans-serif" font-size="14" lengthAdjust="spacing" textLength="119.499" x="50.87" y="262.782">periodo : Periodo</text><g data-visibility-modifier="PRIVATE_FIELD"><rect fill="none" height="6" style="stroke:#C82930;stroke-width:1;" width="6" x="38.87" y="272.7322"/></g><text fill="#000000" font-family="sans-serif" font-size="14" lengthAdjust="spacing" textLength="174.9248" x="50.87" y="279.0789">processoAtual : Processo</text><line style="stroke:#000000;stroke-width:0.5;" x1="31.87" x2="280.3964" y1="286.3806" y2="286.3806"/><g data-visibility-modifier="PUBLIC_METHOD"><ellipse cx="41.87" cy="300.0291" fill="#84BE84" rx="3" ry="3" style="stroke:#038048;stroke-width:1;"/></g><text fill="#000000" font-family="sans-serif" font-size="14" lengthAdjust="spacing" textLength="191.5703" x="50.87" y="303.3757">iniciarProcesso() : Processo</text><g data-visibility-modifier="PUBLIC_METHOD"><ellipse cx="41.87" cy="316.3259" fill="#84BE84" rx="3" ry="3" style="stroke:#038048;stroke-width:1;"/></g><text fill="#000000" font-family="sans-serif" font-size="14" lengthAdjust="spacing" textLength="220.5615" x="50.87" y="319.6726">anexarContrato(doc : Contrato)</text><g data-visibility-modifier="PUBLIC_METHOD"><ellipse cx="41.87" cy="332.6228" fill="#84BE84" rx="3" ry="3" style="stroke:#038048;stroke-width:1;"/></g><text fill="#000000" font-family="sans-serif" font-size="14" lengthAdjust="spacing" textLength="224.5264" x="50.87" y="335.9695">anexarRelatorio(doc : Relatorio)</text></g><!--class Curso--><g class="entity" data-qualified-name="Curso" data-source-line="26" id="ent0005"><rect fill="#FFFFFF" height="48" rx="2.5" ry="2.5" style="stroke:#000000;stroke-width:0.5;" width="72.2637" x="7" y="420.27"/><ellipse cx="22" cy="436.27" fill="#ADD1B2" rx="11" ry="11" style="stroke:#181818;stroke-width:1;"/><path d="M24.9688,441.9106 Q24.3906,442.2075 23.75,442.3481 Q23.1094,442.5044 22.4063,442.5044 Q19.9063,442.5044 18.5781,440.8638 Q17.2656,439.2075 17.2656,436.0825 Q17.2656,432.9575 18.5781,431.3013 Q19.9063,429.645 22.4063,429.645 Q23.1094,429.645 23.75,429.8013 Q24.4063,429.9575 24.9688,430.2544 L24.9688,432.9731 Q24.3438,432.395 23.75,432.1294 Q23.1563,431.8481 22.5313,431.8481 Q21.1875,431.8481 20.5,432.9263 Q19.8125,433.9888 19.8125,436.0825 Q19.8125,438.1763 20.5,439.2544 Q21.1875,440.3169 22.5313,440.3169 Q23.1563,440.3169 23.75,440.0513 Q24.3438,439.77 24.9688,439.1919 L24.9688,441.9106 Z " fill="#000000"/><text fill="#000000" font-family="sans-serif" font-size="14" lengthAdjust="spacing" textLength="40.2637" x="36" y="441.1167">Curso</text><line style="stroke:#000000;stroke-width:0.5;" x1="8" x2="78.2637" y1="452.27" y2="452.27"/><line style="stroke:#000000;stroke-width:0.5;" x1="8" x2="78.2637" y1="460.27" y2="460.27"/></g><!--class Periodo--><g class="entity" data-qualified-name="Periodo" data-source-line="29" id="ent0006"><rect fill="#FFFFFF" height="48" rx="2.5" ry="2.5" style="stroke:#000000;stroke-width:0.5;" width="84.7188" x="113.77" y="420.27"/><ellipse cx="128.77" cy="436.27" fill="#ADD1B2" rx="11" ry="11" style="stroke:#181818;stroke-width:1;"/><path d="M131.7387,441.9106 Q131.1606,442.2075 130.52,442.3481 Q129.8794,442.5044 129.1762,442.5044 Q126.6762,442.5044 125.3481,440.8638 Q124.0356,439.2075 124.0356,436.0825 Q124.0356,432.9575 125.3481,431.3013 Q126.6762,429.645 129.1762,429.645 Q129.8794,429.645 130.52,429.8013 Q131.1762,429.9575 131.7387,430.2544 L131.7387,432.9731 Q131.1137,432.395 130.52,432.1294 Q129.9262,431.8481 129.3012,431.8481 Q127.9575,431.8481 127.27,432.9263 Q126.5825,433.9888 126.5825,436.0825 Q126.5825,438.1763 127.27,439.2544 Q127.9575,440.3169 129.3012,440.3169 Q129.9262,440.3169 130.52,440.0513 Q131.1137,439.77 131.7387,439.1919 L131.7387,441.9106 Z " fill="#000000"/><text fill="#000000" font-family="sans-serif" font-size="14" lengthAdjust="spacing" textLength="52.7188" x="142.77" y="441.1167">Periodo</text><line style="stroke:#000000;stroke-width:0.5;" x1="114.77" x2="197.4887" y1="452.27" y2="452.27"/><line style="stroke:#000000;stroke-width:0.5;" x1="114.77" x2="197.4887" y1="460.27" y2="460.27"/></g><!--class Processo--><g class="entity" data-qualified-name="Processo" data-source-line="32" id="ent0007"><rect fill="#FFFFFF" height="48" rx="2.5" ry="2.5" style="stroke:#000000;stroke-width:0.5;" width="94.2275" x="233.02" y="420.27"/><ellipse cx="248.02" cy="436.27" fill="#ADD1B2" rx="11" ry="11" style="stroke:#181818;stroke-width:1;"/><path d="M250.9888,441.9106 Q250.4106,442.2075 249.77,442.3481 Q249.1294,442.5044 248.4263,442.5044 Q245.9263,442.5044 244.5981,440.8638 Q243.2856,439.2075 243.2856,436.0825 Q243.2856,432.9575 244.5981,431.3013 Q245.9263,429.645 248.4263,429.645 Q249.1294,429.645 249.77,429.8013 Q250.4263,429.9575 250.9888,430.2544 L250.9888,432.9731 Q250.3638,432.395 249.77,432.1294 Q249.1763,431.8481 248.5513,431.8481 Q247.2075,431.8481 246.52,432.9263 Q245.8325,433.9888 245.8325,436.0825 Q245.8325,438.1763 246.52,439.2544 Q247.2075,440.3169 248.5513,440.3169 Q249.1763,440.3169 249.77,440.0513 Q250.3638,439.77 250.9888,439.1919 L250.9888,441.9106 Z " fill="#000000"/><text fill="#000000" font-family="sans-serif" font-size="14" lengthAdjust="spacing" textLength="62.2275" x="262.02" y="441.1167">Processo</text><line style="stroke:#000000;stroke-width:0.5;" x1="234.02" x2="326.2475" y1="452.27" y2="452.27"/><line style="stroke:#000000;stroke-width:0.5;" x1="234.02" x2="326.2475" y1="460.27" y2="460.27"/></g><!--class Contrato--><g class="entity" data-qualified-name="Contrato" data-source-line="35" id="ent0008"><rect fill="#FFFFFF" height="48" rx="2.5" ry="2.5" style="stroke:#000000;stroke-width:0.5;" width="93.0928" x="168.59" y="545.27"/><ellipse cx="183.59" cy="561.27" fill="#ADD1B2" rx="11" ry="11" style="stroke:#181818;stroke-width:1;"/><path d="M186.5588,566.9106 Q185.9806,567.2075 185.34,567.3481 Q184.6994,567.5044 183.9963,567.5044 Q181.4963,567.5044 180.1681,565.8638 Q178.8556,564.2075 178.8556,561.0825 Q178.8556,557.9575 180.1681,556.3013 Q181.4963,554.645 183.9963,554.645 Q184.6994,554.645 185.34,554.8013 Q185.9963,554.9575 186.5588,555.2544 L186.5588,557.9731 Q185.9338,557.395 185.34,557.1294 Q184.7463,556.8481 184.1213,556.8481 Q182.7775,556.8481 182.09,557.9263 Q181.4025,558.9888 181.4025,561.0825 Q181.4025,563.1763 182.09,564.2544 Q182.7775,565.3169 184.1213,565.3169 Q184.7463,565.3169 185.34,565.0513 Q185.9338,564.77 186.5588,564.1919 L186.5588,566.9106 Z " fill="#000000"/><text fill="#000000" font-family="sans-serif" font-size="14" lengthAdjust="spacing" textLength="61.0928" x="197.59" y="566.1167">Contrato</text><line style="stroke:#000000;stroke-width:0.5;" x1="169.59" x2="260.6828" y1="577.27" y2="577.27"/><line style="stroke:#000000;stroke-width:0.5;" x1="169.59" x2="260.6828" y1="585.27" y2="585.27"/></g><!--class Relatorio--><g class="entity" data-qualified-name="Relatorio" data-source-line="38" id="ent0009"><rect fill="#FFFFFF" height="48" rx="2.5" ry="2.5" style="stroke:#000000;stroke-width:0.5;" width="95.0752" x="296.59" y="545.27"/><ellipse cx="311.59" cy="561.27" fill="#ADD1B2" rx="11" ry="11" style="stroke:#181818;stroke-width:1;"/><path d="M314.5588,566.9106 Q313.9806,567.2075 313.34,567.3481 Q312.6994,567.5044 311.9963,567.5044 Q309.4963,567.5044 308.1681,565.8638 Q306.8556,564.2075 306.8556,561.0825 Q306.8556,557.9575 308.1681,556.3013 Q309.4963,554.645 311.9963,554.645 Q312.6994,554.645 313.34,554.8013 Q313.9963,554.9575 314.5588,555.2544 L314.5588,557.9731 Q313.9338,557.395 313.34,557.1294 Q312.7463,556.8481 312.1213,556.8481 Q310.7775,556.8481 310.09,557.9263 Q309.4025,558.9888 309.4025,561.0825 Q309.4025,563.1763 310.09,564.2544 Q310.7775,565.3169 312.1213,565.3169 Q312.7463,565.3169 313.34,565.0513 Q313.9338,564.77 314.5588,564.1919 L314.5588,566.9106 Z " fill="#000000"/><text fill="#000000" font-family="sans-serif" font-size="14" lengthAdjust="spacing" textLength="63.0752" x="325.59" y="566.1167">Relatorio</text><line style="stroke:#000000;stroke-width:0.5;" x1="297.59" x2="390.6652" y1="577.27" y2="577.27"/><line style="stroke:#000000;stroke-width:0.5;" x1="297.59" x2="390.6652" y1="585.27" y2="585.27"/></g><!--reverse link Usuario to Aluno--><g class="link" data-entity-1="ent0002" data-entity-2="ent0003" data-link-type="extension" data-source-line="18" id="lnk4"><path d="M156.13,154.86 C156.13,174.14 156.13,177.42 156.13,197.18" fill="none" id="Usuario-backto-Aluno" style="stroke:#000000;stroke-width:1;"/><polygon fill="none" points="156.13,136.86,150.13,154.86,162.13,154.86,156.13,136.86" style="stroke:#000000;stroke-width:1;"/></g><!--link Aluno to Curso--><g class="link" data-entity-1="ent0003" data-entity-2="ent0005" data-link-type="association" data-source-line="42" id="lnk10"><path codeLine="42" d="M108.86,343.28 C90.84,370.7 71.53,400.07 58.54,419.84" fill="none" id="Aluno-Curso" style="stroke:#000000;stroke-width:1;"/><text fill="#000000" font-family="sans-serif" font-size="13" lengthAdjust="spacing" textLength="23.0356" x="80.0763" y="363.2677">0..*</text><text fill="#000000" font-family="sans-serif" font-size="13" lengthAdjust="spacing" textLength="8.271" x="53.3538" y="409.1401">1</text></g><!--link Aluno to Periodo--><g class="link" data-entity-1="ent0003" data-entity-2="ent0006" data-link-type="association" data-source-line="43" id="lnk11"><path codeLine="43" d="M156.13,343.28 C156.13,370.7 156.13,400.07 156.13,419.84" fill="none" id="Aluno-Periodo" style="stroke:#000000;stroke-width:1;"/><text fill="#000000" font-family="sans-serif" font-size="13" lengthAdjust="spacing" textLength="23.0356" x="131.9994" y="363.2677">0..*</text><text fill="#000000" font-family="sans-serif" font-size="13" lengthAdjust="spacing" textLength="8.271" x="147.1882" y="409.1401">1</text></g><!--link Aluno to Processo--><g class="link" data-entity-1="ent0003" data-entity-2="ent0007" data-link-type="association" data-source-line="44" id="lnk12"><path codeLine="44" d="M208,343.28 C227.78,370.7 248.97,400.07 263.23,419.84" fill="none" id="Aluno-Processo" style="stroke:#000000;stroke-width:1;"/><polygon fill="#000000" points="247.0552,385.8914,244.1469,376.8364,239.38,380.2753,247.0552,385.8914" style="stroke:#000000;stroke-width:1;"/><text fill="#000000" font-family="sans-serif" font-size="13" lengthAdjust="spacing" textLength="41.6025" x="253.13" y="386.3369">possui</text><text fill="#000000" font-family="sans-serif" font-size="13" lengthAdjust="spacing" textLength="8.271" x="204.7252" y="363.2677">1</text><text fill="#000000" font-family="sans-serif" font-size="13" lengthAdjust="spacing" textLength="24.8066" x="232.283" y="409.1401">0..1</text></g><!--reverse link Processo to Contrato--><g class="link" data-entity-1="ent0007" data-entity-2="ent0008" data-link-type="composition" data-source-line="45" id="lnk13"><path codeLine="45" d="M249.4569,477.6548 C241.8669,486.4048 241.78,487.73 236.13,498.27 C228.28,512.92 222.96,530.9 219.65,544.98" fill="none" id="Processo-backto-Contrato" style="stroke:#000000;stroke-width:1;"/><polygon fill="#000000" points="257.32,468.59,250.3668,470.5014,249.4569,477.6548,256.4101,475.7435,257.32,468.59" style="stroke:#000000;stroke-width:1;"/><polygon fill="#000000" points="239.1059,511.4084,245.4549,504.3274,240.0802,501.9478,239.1059,511.4084" style="stroke:#000000;stroke-width:1;"/><text fill="#000000" font-family="sans-serif" font-size="13" lengthAdjust="spacing" textLength="49.0991" x="250.13" y="511.3369">cont&#233;m</text><text fill="#000000" font-family="sans-serif" font-size="13" lengthAdjust="spacing" textLength="8.271" x="242.8172" y="488.4292">1</text><text fill="#000000" font-family="sans-serif" font-size="13" lengthAdjust="spacing" textLength="23.0356" x="194.9514" y="534.3143">1..*</text></g><!--reverse link Processo to Relatorio--><g class="link" data-entity-1="ent0007" data-entity-2="ent0009" data-link-type="composition" data-source-line="46" id="lnk14"><path codeLine="46" d="M297.859,479.3352 C309.249,501.2252 320.62,523.07 331.99,544.93" fill="none" id="Processo-backto-Relatorio" style="stroke:#000000;stroke-width:1;"/><polygon fill="#000000" points="292.32,468.69,291.5411,475.8589,297.859,479.3352,298.6379,472.1663,292.32,468.69" style="stroke:#000000;stroke-width:1;"/><polygon fill="#000000" points="322.4379,511.2719,320.87,501.8915,315.6557,504.6046,322.4379,511.2719" style="stroke:#000000;stroke-width:1;"/><text fill="#000000" font-family="sans-serif" font-size="13" lengthAdjust="spacing" textLength="49.0991" x="329.13" y="511.3369">cont&#233;m</text><text fill="#000000" font-family="sans-serif" font-size="13" lengthAdjust="spacing" textLength="8.271" x="286.2444" y="488.1538">1</text><text fill="#000000" font-family="sans-serif" font-size="13" lengthAdjust="spacing" textLength="23.0356" x="303.2327" y="534.2521">0..*</text></g><?plantuml-src RP9DQiCm48NtFiNWBl9J79fj5WKdT1yAfUk9F2GYiYP8SXieFL3FqOjrPCcE2rbPxvldUQEnPr1L5Rpue0txU2xyMTiBEcn16VGUleejglFHSMUR7Hjsy7xIWOhQEVvCO6l4KMpPDUIcvBiePdt_NUn47bx9q0VQG2aA3puuL24dlVaEdMP9V80MWzEgCmWRq3O8iToI27b3swDeQb6RAV1aJtW3Zs3ugEry8UZ0RE8qAQSsdMMWQo3RJ5ChK9tpBFvTV8g-a5IQIFRf59bZHTvp7JgC-Vki9L1RhJIwWVJHap9Qkg8ioCgb0yyRLZ4goyLea2M9bhZi6FNYTeL-G1bv17c-VoWdJzcGDcLZ_mJJ5ujGQRROaWtvpqXxAvzMgsKf0CfrcJTrhp9iBDVMgI2MM1j6sy25lUyqF1SZYzPbtwHlDuwy0IN7tv_shZbbt-uoSVy1?></g></svg>