<svg xmlns="http://www.w3.org/2000/svg" xmlns:xlink="http://www.w3.org/1999/xlink" contentStyleType="text/css" data-diagram-type="CLASS" height="504px" preserveAspectRatio="none" style="width:755px;height:504px;background:#FFFFFF;" version="1.1" viewBox="0 0 755 504" width="755px" zoomAndPan="magnify"><?plantuml 1.2026.4beta2?><defs/><g><!--class StatusProcesso--><g class="entity" data-qualified-name="StatusProcesso" data-source-line="9" id="ent0002"><rect fill="#FFFFFF" height="178.375" rx="2.5" ry="2.5" style="stroke:#000000;stroke-width:0.5;" width="217.8027" x="7" y="270.52"/><ellipse cx="58.2319" cy="286.52" fill="#EB937F" rx="11" ry="11" style="stroke:#181818;stroke-width:1;"/><path d="M62.3413,292.52 L54.6226,292.52 L54.6226,280.1294 L62.3413,280.1294 L62.3413,282.2856 L57.0757,282.2856 L57.0757,284.9575 L61.8413,284.9575 L61.8413,287.1138 L57.0757,287.1138 L57.0757,290.3638 L62.3413,290.3638 L62.3413,292.52 Z " fill="#000000"/><text fill="#000000" font-family="sans-serif" font-size="14" lengthAdjust="spacing" textLength="106.8389" x="78.7319" y="291.3667">StatusProcesso</text><line style="stroke:#000000;stroke-width:0.5;" x1="8" x2="223.8027" y1="302.52" y2="302.52"/><text fill="#000000" font-family="sans-serif" font-size="14" lengthAdjust="spacing" textLength="57.3262" x="13" y="319.5151">ABERTO</text><text fill="#000000" font-family="sans-serif" font-size="14" lengthAdjust="spacing" textLength="181.8564" x="13" y="335.812">EM_ANALISE_SECRETARIA</text><text fill="#000000" font-family="sans-serif" font-size="14" lengthAdjust="spacing" textLength="205.8027" x="13" y="352.1089">EM_ANALISE_COORDENACAO</text><text fill="#000000" font-family="sans-serif" font-size="14" lengthAdjust="spacing" textLength="132.4941" x="13" y="368.4057">PENDENTE_AJUSTE</text><text fill="#000000" font-family="sans-serif" font-size="14" lengthAdjust="spacing" textLength="79.7207" x="13" y="384.7026">APROVADO</text><text fill="#000000" font-family="sans-serif" font-size="14" lengthAdjust="spacing" textLength="88.7168" x="13" y="400.9995">REPROVADO</text><text fill="#000000" font-family="sans-serif" font-size="14" lengthAdjust="spacing" textLength="85.0186" x="13" y="417.2964">CONCLUIDO</text><text fill="#000000" font-family="sans-serif" font-size="14" lengthAdjust="spacing" textLength="87.623" x="13" y="433.5932">CANCELADO</text><line style="stroke:#000000;stroke-width:0.5;" x1="8" x2="223.8027" y1="440.895" y2="440.895"/></g><!--class Processo--><g class="entity" data-qualified-name="Processo" data-source-line="21" id="ent0003"><rect fill="#FFFFFF" height="145.7813" rx="2.5" ry="2.5" style="stroke:#000000;stroke-width:0.5;" width="398.9893" x="169.41" y="7"/><ellipse cx="333.5409" cy="23" fill="#ADD1B2" rx="11" ry="11" style="stroke:#181818;stroke-width:1;"/><path d="M336.5096,28.6406 Q335.9315,28.9375 335.2909,29.0781 Q334.6502,29.2344 333.9471,29.2344 Q331.4471,29.2344 330.119,27.5938 Q328.8065,25.9375 328.8065,22.8125 Q328.8065,19.6875 330.119,18.0313 Q331.4471,16.375 333.9471,16.375 Q334.6502,16.375 335.2909,16.5313 Q335.9471,16.6875 336.5096,16.9844 L336.5096,19.7031 Q335.8846,19.125 335.2909,18.8594 Q334.6971,18.5781 334.0721,18.5781 Q332.7284,18.5781 332.0409,19.6563 Q331.3534,20.7188 331.3534,22.8125 Q331.3534,24.9063 332.0409,25.9844 Q332.7284,27.0469 334.0721,27.0469 Q334.6971,27.0469 335.2909,26.7813 Q335.8846,26.5 336.5096,25.9219 L336.5096,28.6406 Z " fill="#000000"/><text fill="#000000" font-family="sans-serif" font-size="14" lengthAdjust="spacing" textLength="62.2275" x="354.0409" y="27.8467">Processo</text><line style="stroke:#000000;stroke-width:0.5;" x1="170.41" x2="567.3993" y1="39" y2="39"/><g data-visibility-modifier="PRIVATE_FIELD"><rect fill="none" height="6" style="stroke:#C82930;stroke-width:1;" width="6" x="177.41" y="49.6484"/></g><text fill="#000000" font-family="sans-serif" font-size="14" lengthAdjust="spacing" textLength="44.6455" x="189.41" y="55.9951">id : int</text><g data-visibility-modifier="PRIVATE_FIELD"><rect fill="none" height="6" style="stroke:#C82930;stroke-width:1;" width="6" x="177.41" y="65.9453"/></g><text fill="#000000" font-family="sans-serif" font-size="14" lengthAdjust="spacing" textLength="136.377" x="189.41" y="72.292">data_criacao : Date</text><g data-visibility-modifier="PRIVATE_FIELD"><rect fill="none" height="6" style="stroke:#C82930;stroke-width:1;" width="6" x="177.41" y="82.2422"/></g><text fill="#000000" font-family="sans-serif" font-size="14" lengthAdjust="spacing" textLength="163.4746" x="189.41" y="88.5889">status : StatusProcesso</text><g data-visibility-modifier="PRIVATE_FIELD"><rect fill="none" height="6" style="stroke:#C82930;stroke-width:1;" width="6" x="177.41" y="98.5391"/></g><text fill="#000000" font-family="sans-serif" font-size="14" lengthAdjust="spacing" textLength="144.04" x="189.41" y="104.8857">matricula_aluno : int</text><line style="stroke:#000000;stroke-width:0.5;" x1="170.41" x2="567.3993" y1="112.1875" y2="112.1875"/><g data-visibility-modifier="PUBLIC_METHOD"><ellipse cx="180.41" cy="125.8359" fill="#84BE84" rx="3" ry="3" style="stroke:#038048;stroke-width:1;"/></g><text fill="#000000" font-family="sans-serif" font-size="14" lengthAdjust="spacing" textLength="315.875" x="189.41" y="129.1826">atualizarStatus(novoStatus : StatusProcesso)</text><g data-visibility-modifier="PUBLIC_METHOD"><ellipse cx="180.41" cy="142.1328" fill="#84BE84" rx="3" ry="3" style="stroke:#038048;stroke-width:1;"/></g><text fill="#000000" font-family="sans-serif" font-size="14" lengthAdjust="spacing" textLength="372.9893" x="189.41" y="145.4795">validarContrato(aprovado : bool, justificativa : string)</text></g><!--class Contrato--><g class="entity" data-qualified-name="Contrato" data-source-line="30" id="ent0004"><rect fill="#FFFFFF" height="259.8594" rx="2.5" ry="2.5" style="stroke:#000000;stroke-width:0.5;" width="218.6641" x="259.57" y="229.78"/><ellipse cx="334.1056" cy="245.78" fill="#ADD1B2" rx="11" ry="11" style="stroke:#181818;stroke-width:1;"/><path d="M337.0744,251.4206 Q336.4963,251.7175 335.8556,251.8581 Q335.215,252.0144 334.5119,252.0144 Q332.0119,252.0144 330.6838,250.3737 Q329.3713,248.7175 329.3713,245.5925 Q329.3713,242.4675 330.6838,240.8112 Q332.0119,239.155 334.5119,239.155 Q335.215,239.155 335.8556,239.3112 Q336.5119,239.4675 337.0744,239.7644 L337.0744,242.4831 Q336.4494,241.905 335.8556,241.6394 Q335.2619,241.3581 334.6369,241.3581 Q333.2931,241.3581 332.6056,242.4362 Q331.9181,243.4987 331.9181,245.5925 Q331.9181,247.6862 332.6056,248.7644 Q333.2931,249.8269 334.6369,249.8269 Q335.2619,249.8269 335.8556,249.5612 Q336.4494,249.28 337.0744,248.7019 L337.0744,251.4206 Z " fill="#000000"/><text fill="#000000" font-family="sans-serif" font-size="14" lengthAdjust="spacing" textLength="61.0928" x="354.6056" y="250.6267">Contrato</text><line style="stroke:#000000;stroke-width:0.5;" x1="260.57" x2="477.2341" y1="261.78" y2="261.78"/><g data-visibility-modifier="PRIVATE_FIELD"><rect fill="none" height="6" style="stroke:#C82930;stroke-width:1;" width="6" x="267.57" y="272.4284"/></g><text fill="#000000" font-family="sans-serif" font-size="14" lengthAdjust="spacing" textLength="44.6455" x="279.57" y="278.7751">id : int</text><g data-visibility-modifier="PRIVATE_FIELD"><rect fill="none" height="6" style="stroke:#C82930;stroke-width:1;" width="6" x="267.57" y="288.7253"/></g><text fill="#000000" font-family="sans-serif" font-size="14" lengthAdjust="spacing" textLength="106.6406" x="279.57" y="295.072">arquivo : string</text><g data-visibility-modifier="PRIVATE_FIELD"><rect fill="none" height="6" style="stroke:#C82930;stroke-width:1;" width="6" x="267.57" y="305.0222"/></g><text fill="#000000" font-family="sans-serif" font-size="14" lengthAdjust="spacing" textLength="133.2939" x="279.57" y="311.3689">data_upload : Date</text><g data-visibility-modifier="PRIVATE_FIELD"><rect fill="none" height="6" style="stroke:#C82930;stroke-width:1;" width="6" x="267.57" y="321.3191"/></g><text fill="#000000" font-family="sans-serif" font-size="14" lengthAdjust="spacing" textLength="151.5322" x="279.57" y="327.6657">cnpj_empresa : string</text><g data-visibility-modifier="PRIVATE_FIELD"><rect fill="none" height="6" style="stroke:#C82930;stroke-width:1;" width="6" x="267.57" y="337.6159"/></g><text fill="#000000" font-family="sans-serif" font-size="14" lengthAdjust="spacing" textLength="161.875" x="279.57" y="343.9626">nome_empresa : string</text><g data-visibility-modifier="PRIVATE_FIELD"><rect fill="none" height="6" style="stroke:#C82930;stroke-width:1;" width="6" x="267.57" y="353.9128"/></g><text fill="#000000" font-family="sans-serif" font-size="14" lengthAdjust="spacing" textLength="122.418" x="279.57" y="360.2595">data_inicio : Date</text><g data-visibility-modifier="PRIVATE_FIELD"><rect fill="none" height="6" style="stroke:#C82930;stroke-width:1;" width="6" x="267.57" y="370.2097"/></g><text fill="#000000" font-family="sans-serif" font-size="14" lengthAdjust="spacing" textLength="140.4375" x="279.57" y="376.5564">data_termino : Date</text><g data-visibility-modifier="PRIVATE_FIELD"><rect fill="none" height="6" style="stroke:#C82930;stroke-width:1;" width="6" x="267.57" y="386.5066"/></g><text fill="#000000" font-family="sans-serif" font-size="14" lengthAdjust="spacing" textLength="158.915" x="279.57" y="392.8532">apolice_seguro : string</text><g data-visibility-modifier="PRIVATE_FIELD"><rect fill="none" height="6" style="stroke:#C82930;stroke-width:1;" width="6" x="267.57" y="402.8034"/></g><text fill="#000000" font-family="sans-serif" font-size="14" lengthAdjust="spacing" textLength="154.417" x="279.57" y="409.1501">plano_atividade : bool</text><g data-visibility-modifier="PRIVATE_FIELD"><rect fill="none" height="6" style="stroke:#C82930;stroke-width:1;" width="6" x="267.57" y="419.1003"/></g><text fill="#000000" font-family="sans-serif" font-size="14" lengthAdjust="spacing" textLength="162.5107" x="279.57" y="425.447">assinatura_aluno : bool</text><g data-visibility-modifier="PRIVATE_FIELD"><rect fill="none" height="6" style="stroke:#C82930;stroke-width:1;" width="6" x="267.57" y="435.3972"/></g><text fill="#000000" font-family="sans-serif" font-size="14" lengthAdjust="spacing" textLength="185.1104" x="279.57" y="441.7439">assinatura_empresa : bool</text><g data-visibility-modifier="PRIVATE_FIELD"><rect fill="none" height="6" style="stroke:#C82930;stroke-width:1;" width="6" x="267.57" y="451.6941"/></g><text fill="#000000" font-family="sans-serif" font-size="14" lengthAdjust="spacing" textLength="192.6641" x="279.57" y="458.0407">assinatura_faculdade : bool</text><g data-visibility-modifier="PRIVATE_FIELD"><rect fill="none" height="6" style="stroke:#C82930;stroke-width:1;" width="6" x="267.57" y="467.9909"/></g><text fill="#000000" font-family="sans-serif" font-size="14" lengthAdjust="spacing" textLength="107.5566" x="279.57" y="474.3376">processoId : int</text><line style="stroke:#000000;stroke-width:0.5;" x1="260.57" x2="477.2341" y1="481.6394" y2="481.6394"/></g><!--class Relatorio--><g class="entity" data-qualified-name="Relatorio" data-source-line="46" id="ent0005"><rect fill="#FFFFFF" height="162.0781" rx="2.5" ry="2.5" style="stroke:#000000;stroke-width:0.5;" width="226.7646" x="513.52" y="278.67"/><ellipse cx="591.1147" cy="294.67" fill="#ADD1B2" rx="11" ry="11" style="stroke:#181818;stroke-width:1;"/><path d="M594.0835,300.3106 Q593.5054,300.6075 592.8647,300.7481 Q592.2241,300.9044 591.521,300.9044 Q589.021,300.9044 587.6929,299.2637 Q586.3804,297.6075 586.3804,294.4825 Q586.3804,291.3575 587.6929,289.7012 Q589.021,288.045 591.521,288.045 Q592.2241,288.045 592.8647,288.2012 Q593.521,288.3575 594.0835,288.6544 L594.0835,291.3731 Q593.4585,290.795 592.8647,290.5294 Q592.271,290.2481 591.646,290.2481 Q590.3022,290.2481 589.6147,291.3262 Q588.9272,292.3887 588.9272,294.4825 Q588.9272,296.5762 589.6147,297.6544 Q590.3022,298.7169 591.646,298.7169 Q592.271,298.7169 592.8647,298.4512 Q593.4585,298.17 594.0835,297.5919 L594.0835,300.3106 Z " fill="#000000"/><text fill="#000000" font-family="sans-serif" font-size="14" lengthAdjust="spacing" textLength="63.0752" x="611.6147" y="299.5167">Relatorio</text><line style="stroke:#000000;stroke-width:0.5;" x1="514.52" x2="739.2846" y1="310.67" y2="310.67"/><g data-visibility-modifier="PRIVATE_FIELD"><rect fill="none" height="6" style="stroke:#C82930;stroke-width:1;" width="6" x="521.52" y="321.3184"/></g><text fill="#000000" font-family="sans-serif" font-size="14" lengthAdjust="spacing" textLength="107.5566" x="533.52" y="327.6651">processoId : int</text><g data-visibility-modifier="PRIVATE_FIELD"><rect fill="none" height="6" style="stroke:#C82930;stroke-width:1;" width="6" x="521.52" y="337.6153"/></g><text fill="#000000" font-family="sans-serif" font-size="14" lengthAdjust="spacing" textLength="103.9883" x="533.52" y="343.962">relatorioId : int</text><g data-visibility-modifier="PRIVATE_FIELD"><rect fill="none" height="6" style="stroke:#C82930;stroke-width:1;" width="6" x="521.52" y="353.9122"/></g><text fill="#000000" font-family="sans-serif" font-size="14" lengthAdjust="spacing" textLength="147.3281" x="533.52" y="360.2589">nomeArquivo : string</text><g data-visibility-modifier="PRIVATE_FIELD"><rect fill="none" height="6" style="stroke:#C82930;stroke-width:1;" width="6" x="521.52" y="370.2091"/></g><text fill="#000000" font-family="sans-serif" font-size="14" lengthAdjust="spacing" textLength="162.3604" x="533.52" y="376.5557">dataUpload : DateTime</text><g data-visibility-modifier="PRIVATE_FIELD"><rect fill="none" height="6" style="stroke:#C82930;stroke-width:1;" width="6" x="521.52" y="386.5059"/></g><text fill="#000000" font-family="sans-serif" font-size="14" lengthAdjust="spacing" textLength="157.3906" x="533.52" y="392.8526">horasTrabalhadas : int</text><g data-visibility-modifier="PRIVATE_FIELD"><rect fill="none" height="6" style="stroke:#C82930;stroke-width:1;" width="6" x="521.52" y="402.8028"/></g><text fill="#000000" font-family="sans-serif" font-size="14" lengthAdjust="spacing" textLength="182.2598" x="533.52" y="409.1495">periodoReferencia : string</text><g data-visibility-modifier="PRIVATE_FIELD"><rect fill="none" height="6" style="stroke:#C82930;stroke-width:1;" width="6" x="521.52" y="419.0997"/></g><text fill="#000000" font-family="sans-serif" font-size="14" lengthAdjust="spacing" textLength="200.7646" x="533.52" y="425.4464">aprovadoPelaEmpresa : bool</text><line style="stroke:#000000;stroke-width:0.5;" x1="514.52" x2="739.2846" y1="432.7481" y2="432.7481"/></g><!--reverse link Processo to Contrato--><g class="link" data-entity-1="ent0003" data-entity-2="ent0004" data-link-type="composition" data-source-line="57" id="lnk6"><path codeLine="57" d="M368.9,165.16 C368.9,188.55 368.9,203.25 368.9,229.48" fill="none" id="Processo-backto-Contrato" style="stroke:#000000;stroke-width:1;"/><polygon fill="#000000" points="368.9,153.16,364.9,159.16,368.9,165.16,372.9,159.16,368.9,153.16" style="stroke:#000000;stroke-width:1;"/><polygon fill="#000000" points="373.9,196.3464,376.8389,187.3013,370.9611,187.3013,373.9,196.3464" style="stroke:#000000;stroke-width:1;"/><text fill="#000000" font-family="sans-serif" font-size="13" lengthAdjust="spacing" textLength="49.0991" x="382.9" y="195.8469">cont&#233;m</text><text fill="#000000" font-family="sans-serif" font-size="13" lengthAdjust="spacing" textLength="8.271" x="360.5312" y="172.9316">1</text><text fill="#000000" font-family="sans-serif" font-size="13" lengthAdjust="spacing" textLength="23.0356" x="345.2361" y="218.5882">1..*</text></g><!--reverse link Processo to Relatorio--><g class="link" data-entity-1="ent0003" data-entity-2="ent0005" data-link-type="composition" data-source-line="58" id="lnk7"><path codeLine="58" d="M444.1772,161.9519 C479.8672,200.3719 515.66,238.93 552.4,278.49" fill="none" id="Processo-backto-Relatorio" style="stroke:#000000;stroke-width:1;"/><polygon fill="#000000" points="436.01,153.16,437.163,160.2783,444.1772,161.9519,443.0242,154.8336,436.01,153.16" style="stroke:#000000;stroke-width:1;"/><polygon fill="#000000" points="483.3024,195.0102,479.3009,186.3824,474.9939,190.3822,483.3024,195.0102" style="stroke:#000000;stroke-width:1;"/><text fill="#000000" font-family="sans-serif" font-size="13" lengthAdjust="spacing" textLength="49.0991" x="488.9" y="195.8469">cont&#233;m</text><text fill="#000000" font-family="sans-serif" font-size="13" lengthAdjust="spacing" textLength="8.271" x="434.0376" y="172.9316">1</text><text fill="#000000" font-family="sans-serif" font-size="13" lengthAdjust="spacing" textLength="23.0356" x="521.742" y="267.6613">0..*</text></g><!--link Processo to StatusProcesso--><g class="link" data-entity-1="ent0003" data-entity-2="ent0002" data-link-type="association" data-source-line="59" id="lnk8"><path codeLine="59" d="M303.09,153.16 C270.51,188.93 230.9,232.43 196.52,270.19" fill="none" id="Processo-StatusProcesso" style="stroke:#000000;stroke-width:1;"/><polygon fill="#000000" points="274.5335,195.0433,282.7965,190.3343,278.4506,186.3768,274.5335,195.0433" style="stroke:#000000;stroke-width:1;"/><text fill="#000000" font-family="sans-serif" font-size="13" lengthAdjust="spacing" textLength="41.6025" x="286.9" y="195.8469">possui</text><text fill="#000000" font-family="sans-serif" font-size="13" lengthAdjust="spacing" textLength="23.0356" x="272.7226" y="172.9316">0..*</text><text fill="#000000" font-family="sans-serif" font-size="13" lengthAdjust="spacing" textLength="8.271" x="194.6363" y="259.5311">1</text></g><?plantuml-src RLHDZzem4BtdLrXSzgDbrRroMCa47wWeGG7QOpJh6F2kuqdjX4gj-cjwgFex-6CT9qi82xV9yvkNUS-JtB3XSCY4hxH17-h8lsfRWeE2IGFUir_H6EJhrc5jynWDElPjfoiLSUVmHmkC3J6YCRfSkJxoEufkMdrR5wsweeejAwXglt0ebVT8R-1ZaQwII7p9-9pFfakHBKMSYXLFfxoFnacIJiISnpo95c9EvKfa_FDwkH8HNwJ9Lpv9ebGSgpYPnxFrD5Hy7ejPmBgPuk1EUPOhrasYs0HbNIXRmU7luGys8xSnzAOTCfsp4TEseZA72ZBfD4X00YT0qGoPRnpIyxbLEYcWSbhM1Z8mjSKtdG-CQ63qJt1jnwt5FIwlgzmHVK_a72XjMpcey1PAXtl8Wzupeld8NcgwqusMKEaz4EhfjNPx5_otXewjxms1-rxhFNOjHuzrQH3oaqLfovTC5QLJ7lfaYuMwXZSYscgfUparOALSeMqFXHADbYhpQbkxiqbA0nQpu8dSqysrRaEBzzfIIEwKw-N9QQhBimtGfPnhbczvJu_XTDcbob1oJhVXNV26p1q9FIm4mw-7k-vdkz9526673lpAmJEO7UJWEvrIaMwEgTeefwpKPoaVzs110uXpkztcX-df5Yo4HSVpBo0iVFSmU1omUseOF3uyt0zE6pDYaih3lu8zNI5_QiYdYAwpMrOZFdZ_GnYn4hslDNlw3m00?></g></svg>