<svg xmlns="http://www.w3.org/2000/svg" xmlns:xlink="http://www.w3.org/1999/xlink" contentStyleType="text/css" data-diagram-type="CLASS" height="286px" preserveAspectRatio="none" style="width:239px;height:286px;background:#FFFFFF;" version="1.1" viewBox="0 0 239 286" width="239px" zoomAndPan="magnify"><?plantuml 1.2026.3beta6?><defs/><g><!--class Periodo--><g class="entity" data-qualified-name="Periodo" data-source-line="9" id="ent0002"><rect fill="#FFFFFF" height="48" rx="2.5" ry="2.5" style="stroke:#000000;stroke-width:0.5;" width="84.7188" x="7" y="223"/><ellipse cx="22" cy="239" fill="#EB937F" rx="11" ry="11" style="stroke:#181818;stroke-width:1;"/><path d="M26.1094,245 L18.3906,245 L18.3906,232.6094 L26.1094,232.6094 L26.1094,234.7656 L20.8438,234.7656 L20.8438,237.4375 L25.6094,237.4375 L25.6094,239.5938 L20.8438,239.5938 L20.8438,242.8438 L26.1094,242.8438 L26.1094,245 Z " fill="#000000"/><text fill="#000000" font-family="sans-serif" font-size="14" lengthAdjust="spacing" textLength="52.7188" x="36" y="243.8467">Periodo</text><line style="stroke:#000000;stroke-width:0.5;" x1="8" x2="90.7188" y1="255" y2="255"/><line style="stroke:#000000;stroke-width:0.5;" x1="8" x2="90.7188" y1="263" y2="263"/></g><!--class Aluno--><g class="entity" data-qualified-name="Aluno" data-source-line="14" id="ent0003"><rect fill="#FFFFFF" height="48" rx="2.5" ry="2.5" style="stroke:#000000;stroke-width:0.5;" width="71.7783" x="18.47" y="115"/><ellipse cx="33.47" cy="131" fill="#ADD1B2" rx="11" ry="11" style="stroke:#181818;stroke-width:1;"/><path d="M36.4388,136.6406 Q35.8606,136.9375 35.22,137.0781 Q34.5794,137.2344 33.8763,137.2344 Q31.3763,137.2344 30.0481,135.5938 Q28.7356,133.9375 28.7356,130.8125 Q28.7356,127.6875 30.0481,126.0313 Q31.3763,124.375 33.8763,124.375 Q34.5794,124.375 35.22,124.5313 Q35.8763,124.6875 36.4388,124.9844 L36.4388,127.7031 Q35.8138,127.125 35.22,126.8594 Q34.6263,126.5781 34.0013,126.5781 Q32.6575,126.5781 31.97,127.6563 Q31.2825,128.7188 31.2825,130.8125 Q31.2825,132.9063 31.97,133.9844 Q32.6575,135.0469 34.0013,135.0469 Q34.6263,135.0469 35.22,134.7813 Q35.8138,134.5 36.4388,133.9219 L36.4388,136.6406 Z " fill="#000000"/><text fill="#000000" font-family="sans-serif" font-size="14" lengthAdjust="spacing" textLength="39.7783" x="47.47" y="135.8467">Aluno</text><line style="stroke:#000000;stroke-width:0.5;" x1="19.47" x2="89.2483" y1="147" y2="147"/><line style="stroke:#000000;stroke-width:0.5;" x1="19.47" x2="89.2483" y1="155" y2="155"/></g><!--class Curso--><g class="entity" data-qualified-name="Curso" data-source-line="23" id="ent0004"><rect fill="#FFFFFF" height="48" rx="2.5" ry="2.5" style="stroke:#000000;stroke-width:0.5;" width="72.2637" x="126.23" y="223"/><ellipse cx="141.23" cy="239" fill="#ADD1B2" rx="11" ry="11" style="stroke:#181818;stroke-width:1;"/><path d="M144.1988,244.6406 Q143.6206,244.9375 142.98,245.0781 Q142.3394,245.2344 141.6363,245.2344 Q139.1363,245.2344 137.8081,243.5938 Q136.4956,241.9375 136.4956,238.8125 Q136.4956,235.6875 137.8081,234.0313 Q139.1363,232.375 141.6363,232.375 Q142.3394,232.375 142.98,232.5313 Q143.6363,232.6875 144.1988,232.9844 L144.1988,235.7031 Q143.5738,235.125 142.98,234.8594 Q142.3863,234.5781 141.7613,234.5781 Q140.4175,234.5781 139.73,235.6563 Q139.0425,236.7188 139.0425,238.8125 Q139.0425,240.9063 139.73,241.9844 Q140.4175,243.0469 141.7613,243.0469 Q142.3863,243.0469 142.98,242.7813 Q143.5738,242.5 144.1988,241.9219 L144.1988,244.6406 Z " fill="#000000"/><text fill="#000000" font-family="sans-serif" font-size="14" lengthAdjust="spacing" textLength="40.2637" x="155.23" y="243.8467">Curso</text><line style="stroke:#000000;stroke-width:0.5;" x1="127.23" x2="197.4937" y1="255" y2="255"/><line style="stroke:#000000;stroke-width:0.5;" x1="127.23" x2="197.4937" y1="263" y2="263"/></g><!--class Area--><g class="entity" data-qualified-name="Area" data-source-line="28" id="ent0005"><rect fill="#FFFFFF" height="48" rx="2.5" ry="2.5" style="stroke:#000000;stroke-width:0.5;" width="64.5254" x="130.1" y="115"/><ellipse cx="145.1" cy="131" fill="#ADD1B2" rx="11" ry="11" style="stroke:#181818;stroke-width:1;"/><path d="M148.0688,136.6406 Q147.4906,136.9375 146.85,137.0781 Q146.2094,137.2344 145.5063,137.2344 Q143.0063,137.2344 141.6781,135.5938 Q140.3656,133.9375 140.3656,130.8125 Q140.3656,127.6875 141.6781,126.0313 Q143.0063,124.375 145.5063,124.375 Q146.2094,124.375 146.85,124.5313 Q147.5063,124.6875 148.0688,124.9844 L148.0688,127.7031 Q147.4438,127.125 146.85,126.8594 Q146.2563,126.5781 145.6313,126.5781 Q144.2875,126.5781 143.6,127.6563 Q142.9125,128.7188 142.9125,130.8125 Q142.9125,132.9063 143.6,133.9844 Q144.2875,135.0469 145.6313,135.0469 Q146.2563,135.0469 146.85,134.7813 Q147.4438,134.5 148.0688,133.9219 L148.0688,136.6406 Z " fill="#000000"/><text fill="#000000" font-family="sans-serif" font-size="14" lengthAdjust="spacing" textLength="32.5254" x="159.1" y="135.8467">Area</text><line style="stroke:#000000;stroke-width:0.5;" x1="131.1" x2="193.6254" y1="147" y2="147"/><line style="stroke:#000000;stroke-width:0.5;" x1="131.1" x2="193.6254" y1="155" y2="155"/></g><!--class Coordenacao--><g class="entity" data-qualified-name="Coordenacao" data-source-line="33" id="ent0006"><rect fill="#FFFFFF" height="48" rx="2.5" ry="2.5" style="stroke:#000000;stroke-width:0.5;" width="124.4561" x="100.13" y="7"/><ellipse cx="115.13" cy="23" fill="#ADD1B2" rx="11" ry="11" style="stroke:#181818;stroke-width:1;"/><path d="M118.0988,28.6406 Q117.5206,28.9375 116.88,29.0781 Q116.2394,29.2344 115.5363,29.2344 Q113.0363,29.2344 111.7081,27.5938 Q110.3956,25.9375 110.3956,22.8125 Q110.3956,19.6875 111.7081,18.0313 Q113.0363,16.375 115.5363,16.375 Q116.2394,16.375 116.88,16.5313 Q117.5363,16.6875 118.0988,16.9844 L118.0988,19.7031 Q117.4738,19.125 116.88,18.8594 Q116.2863,18.5781 115.6613,18.5781 Q114.3175,18.5781 113.63,19.6563 Q112.9425,20.7188 112.9425,22.8125 Q112.9425,24.9063 113.63,25.9844 Q114.3175,27.0469 115.6613,27.0469 Q116.2863,27.0469 116.88,26.7813 Q117.4738,26.5 118.0988,25.9219 L118.0988,28.6406 Z " fill="#000000"/><text fill="#000000" font-family="sans-serif" font-size="14" lengthAdjust="spacing" textLength="92.4561" x="129.13" y="27.8467">Coordenacao</text><line style="stroke:#000000;stroke-width:0.5;" x1="101.13" x2="223.5861" y1="39" y2="39"/><line style="stroke:#000000;stroke-width:0.5;" x1="101.13" x2="223.5861" y1="47" y2="47"/></g><!--link Aluno to Curso--><g class="link" data-entity-1="ent0003" data-entity-2="ent0004" data-link-type="association" data-source-line="40" id="lnk7"><path codeLine="40" d="M78.06,163.26 C96.07,180.94 120.72,205.13 138.71,222.79" fill="none" id="Aluno-Curso" style="stroke:#000000;stroke-width:1;"/><text fill="#000000" font-family="sans-serif" font-size="13" lengthAdjust="spacing" textLength="23.0356" x="58.0383" y="183.0846">0..*</text><text fill="#000000" font-family="sans-serif" font-size="13" lengthAdjust="spacing" textLength="8.271" x="123.6589" y="211.7482">1</text></g><!--link Aluno to Periodo--><g class="link" data-entity-1="ent0003" data-entity-2="ent0002" data-link-type="association" data-source-line="41" id="lnk8"><path codeLine="41" d="M53.26,163.26 C52.43,180.94 51.29,205.13 50.45,222.79" fill="none" id="Aluno-Periodo" style="stroke:#000000;stroke-width:1;"/><text fill="#000000" font-family="sans-serif" font-size="13" lengthAdjust="spacing" textLength="23.0356" x="27.1933" y="183.0846">0..*</text><text fill="#000000" font-family="sans-serif" font-size="13" lengthAdjust="spacing" textLength="8.271" x="41.7392" y="211.7482">1</text></g><!--link Area to Curso--><g class="link" data-entity-1="ent0005" data-entity-2="ent0004" data-link-type="association" data-source-line="44" id="lnk9"><path codeLine="44" d="M162.36,163.26 C162.36,180.94 162.36,205.13 162.36,222.79" fill="none" id="Area-Curso" style="stroke:#000000;stroke-width:1;"/><text fill="#000000" font-family="sans-serif" font-size="13" lengthAdjust="spacing" textLength="8.271" x="153.4174" y="183.0846">1</text><text fill="#000000" font-family="sans-serif" font-size="13" lengthAdjust="spacing" textLength="23.0356" x="136.4172" y="211.7482">0..*</text></g><!--link Coordenacao to Area--><g class="link" data-entity-1="ent0006" data-entity-2="ent0005" data-link-type="association" data-source-line="45" id="lnk10"><path codeLine="45" d="M162.36,55.26 C162.36,72.94 162.36,97.13 162.36,114.79" fill="none" id="Coordenacao-Area" style="stroke:#000000;stroke-width:1;"/><text fill="#000000" font-family="sans-serif" font-size="13" lengthAdjust="spacing" textLength="8.271" x="153.4185" y="75.0846">1</text><text fill="#000000" font-family="sans-serif" font-size="13" lengthAdjust="spacing" textLength="8.271" x="153.369" y="103.7482">1</text></g><?plantuml-src ZL9BRXin3DtFAGXl73Ts4FVVxCP6W7Pd52YwPYNMLQCH4qfo2nHTz3e1SWfVhDHe9Xu4NNH1I7pYvv5FSrYjLd0Ta_CSoxs9DoxSec07ncECyAlPeBdP2-TWj-nPuFCtbwXfHVX71JPU8veDYoMP8h-RPbxhXzpLwgGts94ujgobvx1RBs7tNEs5sakrLsglrTwelLLxfxQ-FDNQ5bOKmMAXBJbbGMWDskDzvmpsNIhprkTGcwp0P8aCLx0jPu_S3YIkHZeL5JOK8xSfeozlWw-Fv-22CmvbnCuMJmCmq4_K5OGacFZCiYaj1tSn2Vb8NX5jEyGy-eioQANVKvtI_s0rqeNK8u4xKbStuCB-bDGAuP23UlsVb2qNuG8Qv4cc1fPQFUS3UcTHTDsuLyhZZYRJBm4LFM2_po_CVWdVitwghwf8SWTyRBiu2LbcDeu3TXJIyFdcyAa3x7LJVH85Gu2WNwRgHmKzFXInghYpoukBPpDDXTbwDeZxhvTHOctmtf6Wt6M7O6bOCi7nJncstrw9BscrGAqvtT7uhaU9_mi0?></g></svg>