<svg xmlns="http://www.w3.org/2000/svg" xmlns:xlink="http://www.w3.org/1999/xlink" contentStyleType="text/css" data-diagram-type="SALT" height="94px" preserveAspectRatio="none" style="width:233px;height:94px;background:#FFFFFF;" version="1.1" viewBox="0 0 233 94" width="233px" zoomAndPan="magnify"><?plantuml 1.2026.3beta6?><defs/><g><text fill="#000000" font-family="sans-serif" font-size="12" lengthAdjust="spacing" textLength="182.0977" x="6" y="17.1387">Receber Contrato (Empresas):</text><text fill="#000000" font-family="sans-serif" font-size="12" lengthAdjust="spacing" textLength="52.8105" x="7" y="34.1074">Empresa</text><text fill="#000000" font-family="sans-serif" font-size="12" lengthAdjust="spacing" textLength="52.3652" x="61.8105" y="34.1074">Contrato</text><text fill="#000000" font-family="sans-serif" font-size="12" lengthAdjust="spacing" textLength="29.502" x="144.8809" y="34.1074">A&#231;&#227;o</text><text fill="#000000" font-family="sans-serif" font-size="12" lengthAdjust="spacing" textLength="40.3242" x="7" y="50.0762">Faetec</text><text fill="#000000" font-family="sans-serif" font-size="12" lengthAdjust="spacing" textLength="81.0703" x="61.8105" y="50.0762">TCE Assinado</text><rect fill="#EEEEEE" height="17.9688" rx="5" ry="5" style="stroke:#000000;stroke-width:2.5;" width="76" x="147.3809" y="41.4375"/><text fill="#000000" font-family="sans-serif" font-size="12" lengthAdjust="spacing" textLength="41.6191" x="164.5713" y="54.5762">Avaliar</text><text fill="#000000" font-family="sans-serif" font-size="12" lengthAdjust="spacing" textLength="33.4629" x="7" y="75.0449">Firjan</text><text fill="#000000" font-family="sans-serif" font-size="12" lengthAdjust="spacing" textLength="54.0645" x="61.8105" y="75.0449">Relat&#243;rio</text><rect fill="#EEEEEE" height="17.9688" rx="5" ry="5" style="stroke:#000000;stroke-width:2.5;" width="76" x="147.3809" y="66.4063"/><text fill="#000000" font-family="sans-serif" font-size="12" lengthAdjust="spacing" textLength="41.6191" x="164.5713" y="79.5449">Avaliar</text><line style="stroke:#000000;stroke-width:1;" x1="6" x2="60.8105" y1="21.9688" y2="21.9688"/><line style="stroke:#000000;stroke-width:1;" x1="60.8105" x2="143.8809" y1="37.9375" y2="37.9375"/><line style="stroke:#000000;stroke-width:1;" x1="143.8809" x2="226.8809" y1="62.9063" y2="62.9063"/><line style="stroke:#000000;stroke-width:1;" x1="60.8105" x2="143.8809" y1="21.9688" y2="21.9688"/><line style="stroke:#000000;stroke-width:1;" x1="143.8809" x2="226.8809" y1="37.9375" y2="37.9375"/><line style="stroke:#000000;stroke-width:1;" x1="143.8809" x2="226.8809" y1="21.9688" y2="21.9688"/><line style="stroke:#000000;stroke-width:1;" x1="6" x2="60.8105" y1="87.875" y2="87.875"/><line style="stroke:#000000;stroke-width:1;" x1="60.8105" x2="143.8809" y1="87.875" y2="87.875"/><line style="stroke:#000000;stroke-width:1;" x1="6" x2="60.8105" y1="62.9063" y2="62.9063"/><line style="stroke:#000000;stroke-width:1;" x1="143.8809" x2="226.8809" y1="87.875" y2="87.875"/><line style="stroke:#000000;stroke-width:1;" x1="6" x2="60.8105" y1="37.9375" y2="37.9375"/><line style="stroke:#000000;stroke-width:1;" x1="60.8105" x2="143.8809" y1="62.9063" y2="62.9063"/><line style="stroke:#000000;stroke-width:1;" x1="6" x2="6" y1="21.9688" y2="37.9375"/><line style="stroke:#000000;stroke-width:1;" x1="60.8105" x2="60.8105" y1="37.9375" y2="62.9063"/><line style="stroke:#000000;stroke-width:1;" x1="143.8809" x2="143.8809" y1="62.9063" y2="87.875"/><line style="stroke:#000000;stroke-width:1;" x1="226.8809" x2="226.8809" y1="62.9063" y2="87.875"/><line style="stroke:#000000;stroke-width:1;" x1="60.8105" x2="60.8105" y1="21.9688" y2="37.9375"/><line style="stroke:#000000;stroke-width:1;" x1="143.8809" x2="143.8809" y1="37.9375" y2="62.9063"/><line style="stroke:#000000;stroke-width:1;" x1="226.8809" x2="226.8809" y1="37.9375" y2="62.9063"/><line style="stroke:#000000;stroke-width:1;" x1="143.8809" x2="143.8809" y1="21.9688" y2="37.9375"/><line style="stroke:#000000;stroke-width:1;" x1="226.8809" x2="226.8809" y1="21.9688" y2="37.9375"/><line style="stroke:#000000;stroke-width:1;" x1="6" x2="6" y1="62.9063" y2="87.875"/><line style="stroke:#000000;stroke-width:1;" x1="6" x2="6" y1="37.9375" y2="62.9063"/><line style="stroke:#000000;stroke-width:1;" x1="60.8105" x2="60.8105" y1="62.9063" y2="87.875"/><line style="stroke:#000000;stroke-width:1;" x1="5" x2="227.8809" y1="5" y2="5"/><line style="stroke:#000000;stroke-width:1;" x1="5" x2="227.8809" y1="88.875" y2="88.875"/><line style="stroke:#000000;stroke-width:1;" x1="5" x2="5" y1="5" y2="20.9688"/><line style="stroke:#000000;stroke-width:1;" x1="227.8809" x2="227.8809" y1="20.9688" y2="88.875"/><line style="stroke:#000000;stroke-width:1;" x1="227.8809" x2="227.8809" y1="5" y2="20.9688"/><line style="stroke:#000000;stroke-width:1;" x1="5" x2="5" y1="20.9688" y2="88.875"/><?plantuml-src SoWkIImgAKxCAU6grkOAIarEJKejKd3EpoifIYp9Lz1mpIqeIYrEBDQqugfMveBo56eGAceK70ylFxmudyijCRKaDHd83t5sLN0iBixCIqm1IKShE9ObvcGc5Yd4Shbb5cKbvW45Wr9p4aiERoxAH5TH2uGEgNafO1Tn6UeP6HYPwHadfPOacW40?></g></svg>