<svg xmlns="http://www.w3.org/2000/svg" xmlns:xlink="http://www.w3.org/1999/xlink" contentStyleType="text/css" data-diagram-type="SALT" height="145px" preserveAspectRatio="none" style="width:372px;height:145px;background:#FFFFFF;" version="1.1" viewBox="0 0 372 145" width="372px" zoomAndPan="magnify"><?plantuml 1.2026.3beta6?><defs/><g><text fill="#000000" font-family="sans-serif" font-size="12" font-weight="700" lengthAdjust="spacing" textLength="100.2188" x="7" y="18.1387">Perfil do Aluno</text><line style="stroke:#AAAAAA;stroke-width:1;" x1="7" x2="365.6133" y1="26.4688" y2="26.4688"/><text fill="#000000" font-family="sans-serif" font-size="12" lengthAdjust="spacing" textLength="39.4336" x="8" y="43.1074">Nome:</text><text fill="#000000" font-family="sans-serif" font-size="12" lengthAdjust="spacing" textLength="76.459" x="72.6133" y="43.1074">Tixa da Silva</text><line style="stroke:#000000;stroke-width:1;" x1="70.6133" x2="361.6133" y1="45.9375" y2="45.9375"/><line style="stroke:#000000;stroke-width:1;" x1="70.6133" x2="70.6133" y1="42.9375" y2="44.9375"/><line style="stroke:#000000;stroke-width:1;" x1="361.6133" x2="361.6133" y1="42.9375" y2="44.9375"/><text fill="#000000" font-family="sans-serif" font-size="12" lengthAdjust="spacing" textLength="59.6133" x="8" y="61.0762">Matr&#237;cula:</text><text fill="#000000" font-family="sans-serif" font-size="12" lengthAdjust="spacing" textLength="91.6172" x="72.6133" y="61.0762">202410567872</text><line style="stroke:#000000;stroke-width:1;" x1="70.6133" x2="361.6133" y1="63.9063" y2="63.9063"/><line style="stroke:#000000;stroke-width:1;" x1="70.6133" x2="70.6133" y1="60.9063" y2="62.9063"/><line style="stroke:#000000;stroke-width:1;" x1="361.6133" x2="361.6133" y1="60.9063" y2="62.9063"/><text fill="#000000" font-family="sans-serif" font-size="12" lengthAdjust="spacing" textLength="38.5547" x="8" y="79.0449">Curso:</text><text fill="#000000" font-family="sans-serif" font-size="12" lengthAdjust="spacing" textLength="144.375" x="72.6133" y="79.0449">Engenharia de Software</text><line style="stroke:#000000;stroke-width:1;" x1="70.6133" x2="361.6133" y1="81.875" y2="81.875"/><line style="stroke:#000000;stroke-width:1;" x1="70.6133" x2="70.6133" y1="78.875" y2="80.875"/><line style="stroke:#000000;stroke-width:1;" x1="361.6133" x2="361.6133" y1="78.875" y2="80.875"/><text fill="#000000" font-family="sans-serif" font-size="12" lengthAdjust="spacing" textLength="37.3359" x="8" y="97.0137">Email:</text><text fill="#000000" font-family="sans-serif" font-size="12" lengthAdjust="spacing" textLength="217.8398" x="72.6133" y="97.0137">tixa.silva@alunos.ibmec.edu.br.com</text><line style="stroke:#000000;stroke-width:1;" x1="70.6133" x2="361.6133" y1="99.8438" y2="99.8438"/><line style="stroke:#000000;stroke-width:1;" x1="70.6133" x2="70.6133" y1="96.8438" y2="98.8438"/><line style="stroke:#000000;stroke-width:1;" x1="361.6133" x2="361.6133" y1="96.8438" y2="98.8438"/><line style="stroke:#AAAAAA;stroke-width:1;" x1="7" x2="365.6133" y1="108.3438" y2="108.3438"/><rect fill="#EEEEEE" height="17.9688" rx="5" ry="5" style="stroke:#000000;stroke-width:2.5;" width="164" x="10.5" y="116.3438"/><text fill="#000000" font-family="sans-serif" font-size="12" lengthAdjust="spacing" textLength="123.6563" x="30.6719" y="129.4824">Contratos anteriores</text><rect fill="#EEEEEE" height="17.9688" rx="5" ry="5" style="stroke:#000000;stroke-width:2.5;" width="156" x="181.5" y="116.3438"/><text fill="#000000" font-family="sans-serif" font-size="12" lengthAdjust="spacing" textLength="132.4863" x="193.2568" y="129.4824">Acompanhar Contrato</text><line style="stroke:#000000;stroke-width:1;" x1="6" x2="365.6133" y1="6" y2="6"/><line style="stroke:#000000;stroke-width:1;" x1="6" x2="365.6133" y1="138.8125" y2="138.8125"/><line style="stroke:#000000;stroke-width:1;" x1="6" x2="6" y1="6" y2="21.9688"/><line style="stroke:#000000;stroke-width:1;" x1="365.6133" x2="365.6133" y1="21.9688" y2="29.9688"/><line style="stroke:#000000;stroke-width:1;" x1="365.6133" x2="365.6133" y1="6" y2="21.9688"/><line style="stroke:#000000;stroke-width:1;" x1="6" x2="6" y1="111.8438" y2="138.8125"/><line style="stroke:#000000;stroke-width:1;" x1="6" x2="6" y1="103.8438" y2="111.8438"/><line style="stroke:#000000;stroke-width:1;" x1="365.6133" x2="365.6133" y1="111.8438" y2="138.8125"/><line style="stroke:#000000;stroke-width:1;" x1="6" x2="6" y1="29.9688" y2="103.8438"/><line style="stroke:#000000;stroke-width:1;" x1="365.6133" x2="365.6133" y1="103.8438" y2="111.8438"/><line style="stroke:#000000;stroke-width:1;" x1="6" x2="6" y1="21.9688" y2="29.9688"/><line style="stroke:#000000;stroke-width:1;" x1="365.6133" x2="365.6133" y1="29.9688" y2="103.8438"/><?plantuml-src TP31JiCm38RlUGfhnw95Mu4EzTHfsd4JqhXDq-Is7aHAaybn0MdqaNWANeoaqZWWyD7sv___NGL1be1MGCZYyKnyClQ8jdTUNTJbHcNPuzY3riCojRDCJQTnjlKTbJ3M1qoUp3j2Yx0pzXNXxvge3Gf_VJQznJ91-Io_cy_kYyN38eT_eLNFmPTNeRLx9lU2RA8SmSwVv0sPVZFh3etzOIIQqo4vgyPaGPkweqPJs-kQTUExn0nZhltAEs4K7m2T41lF50xnoduPzywOjE6wSnXKn0PLaMlJ4vMQwnYgqBSr2HRV?></g></svg>