<svg xmlns="http://www.w3.org/2000/svg" xmlns:xlink="http://www.w3.org/1999/xlink" contentStyleType="text/css" data-diagram-type="SALT" height="281px" preserveAspectRatio="none" style="width:372px;height:281px;background:#FFFFFF;" version="1.1" viewBox="0 0 372 281" width="372px" zoomAndPan="magnify"><?plantuml 1.2026.3beta6?><defs/><g><text fill="#000000" font-family="sans-serif" font-size="12" font-weight="700" lengthAdjust="spacing" textLength="237.4512" x="7" y="18.1387">Acompanhar contratos (secretaria)</text><line style="stroke:#AAAAAA;stroke-width:1;" x1="7" x2="365.1348" y1="26.4688" y2="26.4688"/><text fill="#000000" font-family="sans-serif" font-size="12" lengthAdjust="spacing" textLength="99.9199" x="8" y="43.1074">Pesquisar Aluno:</text><text fill="#000000" font-family="sans-serif" font-size="12" lengthAdjust="spacing" textLength="3.8145" x="112.9199" y="43.1074">&#160;</text><line style="stroke:#000000;stroke-width:1;" x1="110.9199" x2="305.9199" y1="45.9375" y2="45.9375"/><line style="stroke:#000000;stroke-width:1;" x1="110.9199" x2="110.9199" y1="42.9375" y2="44.9375"/><line style="stroke:#000000;stroke-width:1;" x1="305.9199" x2="305.9199" y1="42.9375" y2="44.9375"/><rect fill="#EEEEEE" height="17.9688" rx="5" ry="5" style="stroke:#000000;stroke-width:2.5;" width="52" x="10.5" y="52.4375"/><text fill="#000000" font-family="sans-serif" font-size="12" lengthAdjust="spacing" textLength="40.9746" x="16.0127" y="65.5762">Buscar</text><line style="stroke:#AAAAAA;stroke-width:1;" x1="7" x2="365.1348" y1="79.4063" y2="79.4063"/><text fill="#000000" font-family="sans-serif" font-size="12" lengthAdjust="spacing" textLength="34.0957" x="8" y="96.0449">Aluno</text><text fill="#000000" font-family="sans-serif" font-size="12" lengthAdjust="spacing" textLength="52.3652" x="95.8633" y="96.0449">Contrato</text><text fill="#000000" font-family="sans-serif" font-size="12" lengthAdjust="spacing" textLength="38.2383" x="215.0098" y="96.0449">Status</text><text fill="#000000" font-family="sans-serif" font-size="12" lengthAdjust="spacing" textLength="29.502" x="290.1348" y="96.0449">A&#231;&#227;o</text><text fill="#000000" font-family="sans-serif" font-size="12" lengthAdjust="spacing" textLength="69.3398" x="8" y="112.0137">Lucas Jesus</text><text fill="#000000" font-family="sans-serif" font-size="12" lengthAdjust="spacing" textLength="117.1465" x="95.8633" y="112.0137">Est&#225;gio - Tech Corp</text><text fill="#000000" font-family="sans-serif" font-size="12" font-weight="700" lengthAdjust="spacing" textLength="73.125" x="215.0098" y="112.0137">Em an&#225;lise</text><rect fill="#EEEEEE" height="17.9688" rx="5" ry="5" style="stroke:#000000;stroke-width:2.5;" width="68" x="292.6348" y="103.375"/><text fill="#000000" font-family="sans-serif" font-size="12" lengthAdjust="spacing" textLength="53.2559" x="300.0068" y="116.5137">Detalhes</text><text fill="#000000" font-family="sans-serif" font-size="12" lengthAdjust="spacing" textLength="82.0898" x="8" y="136.9824">Caio Ximenes</text><text fill="#000000" font-family="sans-serif" font-size="12" lengthAdjust="spacing" textLength="101.5898" x="95.8633" y="136.9824">Est&#225;gio - Soft Inc</text><text fill="#000000" font-family="sans-serif" font-size="12" font-weight="700" lengthAdjust="spacing" textLength="64.793" x="215.0098" y="136.9824">Aprovado</text><rect fill="#EEEEEE" height="17.9688" rx="5" ry="5" style="stroke:#000000;stroke-width:2.5;" width="68" x="292.6348" y="128.3438"/><text fill="#000000" font-family="sans-serif" font-size="12" lengthAdjust="spacing" textLength="53.2559" x="300.0068" y="141.4824">Detalhes</text><text fill="#000000" font-family="sans-serif" font-size="12" lengthAdjust="spacing" textLength="85.8633" x="8" y="161.9512">Otto balestrini</text><text fill="#000000" font-family="sans-serif" font-size="12" lengthAdjust="spacing" textLength="86.2676" x="95.8633" y="161.9512">Estagio - cisco</text><text fill="#000000" font-family="sans-serif" font-size="12" font-weight="700" lengthAdjust="spacing" textLength="64.623" x="215.0098" y="161.9512">Pendente</text><rect fill="#EEEEEE" height="17.9688" rx="5" ry="5" style="stroke:#000000;stroke-width:2.5;" width="68" x="292.6348" y="153.3125"/><text fill="#000000" font-family="sans-serif" font-size="12" lengthAdjust="spacing" textLength="53.2559" x="300.0068" y="166.4512">Detalhes</text><line style="stroke:#000000;stroke-width:1;" x1="7" x2="94.8633" y1="83.9063" y2="83.9063"/><line style="stroke:#000000;stroke-width:1;" x1="214.0098" x2="289.1348" y1="124.8438" y2="124.8438"/><line style="stroke:#000000;stroke-width:1;" x1="94.8633" x2="214.0098" y1="83.9063" y2="83.9063"/><line style="stroke:#000000;stroke-width:1;" x1="289.1348" x2="364.1348" y1="124.8438" y2="124.8438"/><line style="stroke:#000000;stroke-width:1;" x1="214.0098" x2="289.1348" y1="83.9063" y2="83.9063"/><line style="stroke:#000000;stroke-width:1;" x1="289.1348" x2="364.1348" y1="83.9063" y2="83.9063"/><line style="stroke:#000000;stroke-width:1;" x1="7" x2="94.8633" y1="149.8125" y2="149.8125"/><line style="stroke:#000000;stroke-width:1;" x1="94.8633" x2="214.0098" y1="149.8125" y2="149.8125"/><line style="stroke:#000000;stroke-width:1;" x1="7" x2="94.8633" y1="99.875" y2="99.875"/><line style="stroke:#000000;stroke-width:1;" x1="214.0098" x2="289.1348" y1="149.8125" y2="149.8125"/><line style="stroke:#000000;stroke-width:1;" x1="94.8633" x2="214.0098" y1="99.875" y2="99.875"/><line style="stroke:#000000;stroke-width:1;" x1="289.1348" x2="364.1348" y1="149.8125" y2="149.8125"/><line style="stroke:#000000;stroke-width:1;" x1="214.0098" x2="289.1348" y1="99.875" y2="99.875"/><line style="stroke:#000000;stroke-width:1;" x1="289.1348" x2="364.1348" y1="99.875" y2="99.875"/><line style="stroke:#000000;stroke-width:1;" x1="7" x2="94.8633" y1="174.7813" y2="174.7813"/><line style="stroke:#000000;stroke-width:1;" x1="94.8633" x2="214.0098" y1="174.7813" y2="174.7813"/><line style="stroke:#000000;stroke-width:1;" x1="214.0098" x2="289.1348" y1="174.7813" y2="174.7813"/><line style="stroke:#000000;stroke-width:1;" x1="7" x2="94.8633" y1="124.8438" y2="124.8438"/><line style="stroke:#000000;stroke-width:1;" x1="289.1348" x2="364.1348" y1="174.7813" y2="174.7813"/><line style="stroke:#000000;stroke-width:1;" x1="94.8633" x2="214.0098" y1="124.8438" y2="124.8438"/><line style="stroke:#000000;stroke-width:1;" x1="7" x2="7" y1="83.9063" y2="99.875"/><line style="stroke:#000000;stroke-width:1;" x1="214.0098" x2="214.0098" y1="124.8438" y2="149.8125"/><line style="stroke:#000000;stroke-width:1;" x1="94.8633" x2="94.8633" y1="83.9063" y2="99.875"/><line style="stroke:#000000;stroke-width:1;" x1="289.1348" x2="289.1348" y1="124.8438" y2="149.8125"/><line style="stroke:#000000;stroke-width:1;" x1="364.1348" x2="364.1348" y1="124.8438" y2="149.8125"/><line style="stroke:#000000;stroke-width:1;" x1="214.0098" x2="214.0098" y1="83.9063" y2="99.875"/><line style="stroke:#000000;stroke-width:1;" x1="289.1348" x2="289.1348" y1="83.9063" y2="99.875"/><line style="stroke:#000000;stroke-width:1;" x1="364.1348" x2="364.1348" y1="83.9063" y2="99.875"/><line style="stroke:#000000;stroke-width:1;" x1="7" x2="7" y1="149.8125" y2="174.7813"/><line style="stroke:#000000;stroke-width:1;" x1="94.8633" x2="94.8633" y1="149.8125" y2="174.7813"/><line style="stroke:#000000;stroke-width:1;" x1="7" x2="7" y1="99.875" y2="124.8438"/><line style="stroke:#000000;stroke-width:1;" x1="214.0098" x2="214.0098" y1="149.8125" y2="174.7813"/><line style="stroke:#000000;stroke-width:1;" x1="94.8633" x2="94.8633" y1="99.875" y2="124.8438"/><line style="stroke:#000000;stroke-width:1;" x1="289.1348" x2="289.1348" y1="149.8125" y2="174.7813"/><line style="stroke:#000000;stroke-width:1;" x1="364.1348" x2="364.1348" y1="149.8125" y2="174.7813"/><line style="stroke:#000000;stroke-width:1;" x1="214.0098" x2="214.0098" y1="99.875" y2="124.8438"/><line style="stroke:#000000;stroke-width:1;" x1="289.1348" x2="289.1348" y1="99.875" y2="124.8438"/><line style="stroke:#000000;stroke-width:1;" x1="364.1348" x2="364.1348" y1="99.875" y2="124.8438"/><line style="stroke:#000000;stroke-width:1;" x1="7" x2="7" y1="124.8438" y2="149.8125"/><line style="stroke:#000000;stroke-width:1;" x1="94.8633" x2="94.8633" y1="124.8438" y2="149.8125"/><line style="stroke:#AAAAAA;stroke-width:1;" x1="7" x2="365.1348" y1="180.2813" y2="180.2813"/><text fill="#000000" font-family="sans-serif" font-size="12" font-weight="700" lengthAdjust="spacing" textLength="293.4551" x="8" y="196.9199">Hist&#243;rico de Movimenta&#231;&#245;es (Selecionado):</text><text fill="#000000" font-family="sans-serif" font-size="12" lengthAdjust="spacing" textLength="201.1055" x="8" y="212.8887">- 10/04: Recebido pela Secretaria</text><text fill="#000000" font-family="sans-serif" font-size="12" lengthAdjust="spacing" textLength="290.8359" x="8" y="228.8574">- 12/04: Aguardando assinatura do Coordenador</text><text fill="#000000" font-family="sans-serif" font-size="12" lengthAdjust="spacing" textLength="288.7969" x="8" y="244.8262">- 15/04: Em an&#225;lise t&#233;cnica (Documenta&#231;&#227;o OK)</text><rect fill="#EEEEEE" height="17.9688" rx="5" ry="5" style="stroke:#000000;stroke-width:2.5;" width="220" x="10.5" y="252.1563"/><text fill="#000000" font-family="sans-serif" font-size="12" lengthAdjust="spacing" textLength="188.4316" x="26.2842" y="265.2949">Fazer Download do Documento</text><line style="stroke:#000000;stroke-width:1;" x1="6" x2="365.1348" y1="6" y2="6"/><line style="stroke:#000000;stroke-width:1;" x1="6" x2="365.1348" y1="274.625" y2="274.625"/><line style="stroke:#000000;stroke-width:1;" x1="6" x2="6" y1="6" y2="21.9688"/><line style="stroke:#000000;stroke-width:1;" x1="365.1348" x2="365.1348" y1="6" y2="21.9688"/><line style="stroke:#000000;stroke-width:1;" x1="6" x2="6" y1="175.7813" y2="183.7813"/><line style="stroke:#000000;stroke-width:1;" x1="365.1348" x2="365.1348" y1="175.7813" y2="183.7813"/><line style="stroke:#000000;stroke-width:1;" x1="6" x2="6" y1="74.9063" y2="82.9063"/><line style="stroke:#000000;stroke-width:1;" x1="365.1348" x2="365.1348" y1="74.9063" y2="82.9063"/><line style="stroke:#000000;stroke-width:1;" x1="6" x2="6" y1="21.9688" y2="29.9688"/><line style="stroke:#000000;stroke-width:1;" x1="365.1348" x2="365.1348" y1="21.9688" y2="29.9688"/><line style="stroke:#000000;stroke-width:1;" x1="6" x2="6" y1="183.7813" y2="274.625"/><line style="stroke:#000000;stroke-width:1;" x1="365.1348" x2="365.1348" y1="183.7813" y2="274.625"/><line style="stroke:#000000;stroke-width:1;" x1="6" x2="6" y1="82.9063" y2="175.7813"/><line style="stroke:#000000;stroke-width:1;" x1="365.1348" x2="365.1348" y1="82.9063" y2="175.7813"/><line style="stroke:#000000;stroke-width:1;" x1="6" x2="6" y1="29.9688" y2="74.9063"/><line style="stroke:#000000;stroke-width:1;" x1="365.1348" x2="365.1348" y1="29.9688" y2="74.9063"/><?plantuml-src TLBBIWD14BpFLpHwILQYCJuEERacYayKuq488ftPrWnifkFqh8AFZn4FubdyWlqnUpSgeZZCOQQfggxgcGs96A9W7Y5IZXSPMtDlxXTCagIM9rFqOmnWsSU0aGKQGZQGSXmsayIqMee-9hakd2WkpGlFNNY0EVXdpPdXPY4MmxbvhDdpfYOff_VPH8-3YB4GFQJbI_dCvg2mAB17KXUt99PFLuwX1QTanqeCKoqdoTO4q9TFkHDA4gqC--eq7vEScnug_inDoDClYG5VHjZrjbP8fu5lCEFVzAEelaQOayJWl9ifu4p0Eh6iqIh-CVcCVFpJVfPLXxhZjFDRSCh820xvfh8KKME-gx76W7AoZhrQQ7Qh-S9oUwczseKJiZHo6SDKNma6tuzG8Jer8hqgC6Je5OCYpki40uBUUin1JQbagD1hDVh7g22MhzOxYz3eios-_3mp7EqtpN0RxoX0dszzpfXLWbyehd8z6jqR6hlwGyOiBtRQdVN5bP7QM_y0?></g></svg>