<?xml version="1.0" encoding="us-ascii" standalone="no"?><svg xmlns="http://www.w3.org/2000/svg" xmlns:xlink="http://www.w3.org/1999/xlink" contentStyleType="text/css" height="186px" preserveAspectRatio="none" style="width:300px;height:186px;background:#FFFFFF;" version="1.1" viewBox="0 0 300 186" width="300px" zoomAndPan="magnify"><defs/><g><rect fill="#EEEEEE" height="19.0938" rx="5" ry="5" style="stroke:#000000;stroke-width:2.5;" width="172" x="8.5" y="8.5"/><text fill="#000000" font-family="sans-serif" font-size="12" lengthAdjust="spacing" textLength="125" x="32" y="22.957">Documento Expandido</text><line style="stroke:#AAAAAA;stroke-width:1.0;" x1="6" x2="293" y1="35.5938" y2="35.5938"/><text fill="#000000" font-family="sans-serif" font-size="12" lengthAdjust="spacing" textLength="123" x="6" y="52.5508">Hist&#243;rico de Empresa:</text><text fill="#000000" font-family="sans-serif" font-size="12" lengthAdjust="spacing" textLength="150" x="9" y="69.6445">Athena Educa&#231;&#227;o - Regular</text><line style="stroke:#000000;stroke-width:1.0;" x1="7" x2="210" y1="72.2813" y2="72.2813"/><line style="stroke:#000000;stroke-width:1.0;" x1="7" x2="7" y1="69.2813" y2="71.2813"/><line style="stroke:#000000;stroke-width:1.0;" x1="210" x2="210" y1="69.2813" y2="71.2813"/><line style="stroke:#AAAAAA;stroke-width:1.0;" x1="6" x2="293" y1="79.7813" y2="79.7813"/><text fill="#000000" font-family="sans-serif" font-size="12" lengthAdjust="spacing" textLength="114" x="6" y="96.7383">Mensagem de aviso:</text><text fill="#000000" font-family="sans-serif" font-size="12" lengthAdjust="spacing" textLength="195" x="9" y="113.832">Justificativa em caso de reprova&#231;&#227;o</text><line style="stroke:#000000;stroke-width:1.0;" x1="7" x2="290" y1="116.4688" y2="116.4688"/><line style="stroke:#000000;stroke-width:1.0;" x1="7" x2="7" y1="113.4688" y2="115.4688"/><line style="stroke:#000000;stroke-width:1.0;" x1="290" x2="290" y1="113.4688" y2="115.4688"/><line style="stroke:#AAAAAA;stroke-width:1.0;" x1="6" x2="293" y1="123.9688" y2="123.9688"/><rect fill="#EEEEEE" height="19.0938" rx="5" ry="5" style="stroke:#000000;stroke-width:2.5;" width="76" x="8.5" y="130.9688"/><text fill="#000000" font-family="sans-serif" font-size="12" lengthAdjust="spacing" textLength="38" x="27.5" y="145.4258">Validar</text><rect fill="#EEEEEE" height="19.0938" rx="5" ry="5" style="stroke:#000000;stroke-width:2.5;" width="84" x="8.5" y="157.0625"/><text fill="#000000" font-family="sans-serif" font-size="12" lengthAdjust="spacing" textLength="50" x="25.5" y="171.5195">Reprovar</text><line style="stroke:#000000;stroke-width:1.0;" x1="5" x2="293" y1="5" y2="5"/><line style="stroke:#000000;stroke-width:1.0;" x1="5" x2="293" y1="179.6563" y2="179.6563"/><line style="stroke:#000000;stroke-width:1.0;" x1="5" x2="5" y1="5" y2="31.0938"/><line style="stroke:#000000;stroke-width:1.0;" x1="293" x2="293" y1="5" y2="31.0938"/><line style="stroke:#000000;stroke-width:1.0;" x1="5" x2="5" y1="153.5625" y2="179.6563"/><line style="stroke:#000000;stroke-width:1.0;" x1="293" x2="293" y1="153.5625" y2="179.6563"/><line style="stroke:#000000;stroke-width:1.0;" x1="5" x2="5" y1="119.4688" y2="127.4688"/><line style="stroke:#000000;stroke-width:1.0;" x1="293" x2="293" y1="119.4688" y2="127.4688"/><line style="stroke:#000000;stroke-width:1.0;" x1="5" x2="5" y1="83.2813" y2="100.375"/><line style="stroke:#000000;stroke-width:1.0;" x1="293" x2="293" y1="83.2813" y2="100.375"/><line style="stroke:#000000;stroke-width:1.0;" x1="5" x2="5" y1="56.1875" y2="75.2813"/><line style="stroke:#000000;stroke-width:1.0;" x1="293" x2="293" y1="56.1875" y2="75.2813"/><line style="stroke:#000000;stroke-width:1.0;" x1="5" x2="5" y1="31.0938" y2="39.0938"/><line style="stroke:#000000;stroke-width:1.0;" x1="293" x2="293" y1="31.0938" y2="39.0938"/><line style="stroke:#000000;stroke-width:1.0;" x1="5" x2="5" y1="127.4688" y2="153.5625"/><line style="stroke:#000000;stroke-width:1.0;" x1="293" x2="293" y1="127.4688" y2="153.5625"/><line style="stroke:#000000;stroke-width:1.0;" x1="5" x2="5" y1="100.375" y2="119.4688"/><line style="stroke:#000000;stroke-width:1.0;" x1="293" x2="293" y1="100.375" y2="119.4688"/><line style="stroke:#000000;stroke-width:1.0;" x1="5" x2="5" y1="75.2813" y2="83.2813"/><line style="stroke:#000000;stroke-width:1.0;" x1="293" x2="293" y1="75.2813" y2="83.2813"/><line style="stroke:#000000;stroke-width:1.0;" x1="5" x2="5" y1="39.0938" y2="56.1875"/><line style="stroke:#000000;stroke-width:1.0;" x1="293" x2="293" y1="39.0938" y2="56.1875"/><!--SRC=[FL1BRi8m4Dtx52DMe2g8fD15LXH8Yn2HKA1i48iXDi5IOaVsE6fLzJHTz00z0XUh4qGtbfxVPzxCr18QibWI-tnW00TOwDnLGf66vBr6nINNSFHC4FXdAIrTVutCDN01ILKROJ46p_IUwI8KGi9TZjUVwxU6039Hk19DxsvFXR9OYAerOoEjZbldobcIPvaZoGR1ipdQBj-8skZcblQVSO0zbfAZWIDqCBkfF6PVR2eKxxPXcn8LlQLhQ8InKYi8Xz4e6WyV-xkBWnTnWd02uLCy7iMZ2Soo7RJqWFLVD-ic0gkToGLmlx2H9qS-OS1Mw0jcJf6iH0mjwk_I0MoJ-oSagf56g_Q0RBLFRo9OQjhMcZhnqpYOIOAjCBuOx5Es46Tq9NbhhhbKHGppEemc4LkZAfm_LmmriRds4yn7x9l-0G00]--></g></svg>