<svg xmlns="http://www.w3.org/2000/svg" xmlns:xlink="http://www.w3.org/1999/xlink" contentStyleType="text/css" data-diagram-type="SALT" height="178px" preserveAspectRatio="none" style="width:355px;height:178px;background:#FFFFFF;" version="1.1" viewBox="0 0 355 178" width="355px" zoomAndPan="magnify"><?plantuml 1.2026.3beta6?><defs/><g><text fill="#000000" font-family="sans-serif" font-size="12" lengthAdjust="spacing" textLength="39.4336" x="6" y="17.1387">Nome:</text><text fill="#000000" font-family="sans-serif" font-size="12" lengthAdjust="spacing" textLength="140.4316" x="9" y="33.1074">Digite o nome do aluno</text><line style="stroke:#000000;stroke-width:1;" x1="7" x2="186" y1="35.9375" y2="35.9375"/><line style="stroke:#000000;stroke-width:1;" x1="7" x2="7" y1="32.9375" y2="34.9375"/><line style="stroke:#000000;stroke-width:1;" x1="186" x2="186" y1="32.9375" y2="34.9375"/><text fill="#000000" font-family="sans-serif" font-size="12" lengthAdjust="spacing" textLength="59.6133" x="6" y="51.0762">Matr&#237;cula:</text><text fill="#000000" font-family="sans-serif" font-size="12" lengthAdjust="spacing" textLength="107.502" x="9" y="67.0449">Digite a matr&#237;cula</text><line style="stroke:#000000;stroke-width:1;" x1="7" x2="154" y1="69.875" y2="69.875"/><line style="stroke:#000000;stroke-width:1;" x1="7" x2="7" y1="66.875" y2="68.875"/><line style="stroke:#000000;stroke-width:1;" x1="154" x2="154" y1="66.875" y2="68.875"/><line style="stroke:#AAAAAA;stroke-width:1;" x1="6" x2="349.7695" y1="77.375" y2="77.375"/><rect fill="#EEEEEE" height="17.9688" rx="5" ry="5" style="stroke:#000000;stroke-width:2.5;" width="68" x="8.5" y="84.375"/><text fill="#000000" font-family="sans-serif" font-size="12" lengthAdjust="spacing" textLength="40.9746" x="22.0127" y="97.5137">Buscar</text><line style="stroke:#AAAAAA;stroke-width:1;" x1="6" x2="349.7695" y1="110.3438" y2="110.3438"/><text fill="#000000" font-family="sans-serif" font-size="12" lengthAdjust="spacing" textLength="35.3906" x="7" y="126.9824">Nome</text><text fill="#000000" font-family="sans-serif" font-size="12" lengthAdjust="spacing" textLength="55.5703" x="91.0898" y="126.9824">Matr&#237;cula</text><text fill="#000000" font-family="sans-serif" font-size="12" lengthAdjust="spacing" textLength="29.502" x="258.7695" y="126.9824">A&#231;&#227;o</text><text fill="#000000" font-family="sans-serif" font-size="12" lengthAdjust="spacing" textLength="69.2637" x="7" y="142.9512">Binas Miller</text><text fill="#000000" font-family="sans-serif" font-size="12" lengthAdjust="spacing" textLength="91.6172" x="91.0898" y="142.9512">202405052362</text><rect fill="#EEEEEE" height="17.9688" rx="5" ry="5" style="stroke:#000000;stroke-width:2.5;" width="84" x="261.2695" y="134.3125"/><text fill="#000000" font-family="sans-serif" font-size="12" lengthAdjust="spacing" textLength="53.2559" x="276.6416" y="147.4512">Detalhes</text><text fill="#000000" font-family="sans-serif" font-size="12" lengthAdjust="spacing" textLength="82.0898" x="7" y="167.9199">Caio Ximenes</text><text fill="#000000" font-family="sans-serif" font-size="12" lengthAdjust="spacing" textLength="165.6797" x="91.0898" y="167.9199">202562342344 [ Detalhes ]</text><line style="stroke:#000000;stroke-width:1;" x1="6" x2="90.0898" y1="114.8438" y2="114.8438"/><line style="stroke:#000000;stroke-width:1;" x1="90.0898" x2="257.7695" y1="130.8125" y2="130.8125"/><line style="stroke:#000000;stroke-width:1;" x1="257.7695" x2="348.7695" y1="155.7813" y2="155.7813"/><line style="stroke:#000000;stroke-width:1;" x1="90.0898" x2="257.7695" y1="114.8438" y2="114.8438"/><line style="stroke:#000000;stroke-width:1;" x1="257.7695" x2="348.7695" y1="130.8125" y2="130.8125"/><line style="stroke:#000000;stroke-width:1;" x1="257.7695" x2="348.7695" y1="114.8438" y2="114.8438"/><line style="stroke:#000000;stroke-width:1;" x1="6" x2="90.0898" y1="171.75" y2="171.75"/><line style="stroke:#000000;stroke-width:1;" x1="90.0898" x2="257.7695" y1="171.75" y2="171.75"/><line style="stroke:#000000;stroke-width:1;" x1="6" x2="90.0898" y1="155.7813" y2="155.7813"/><line style="stroke:#000000;stroke-width:1;" x1="257.7695" x2="348.7695" y1="171.75" y2="171.75"/><line style="stroke:#000000;stroke-width:1;" x1="6" x2="90.0898" y1="130.8125" y2="130.8125"/><line style="stroke:#000000;stroke-width:1;" x1="90.0898" x2="257.7695" y1="155.7813" y2="155.7813"/><line style="stroke:#000000;stroke-width:1;" x1="6" x2="6" y1="114.8438" y2="130.8125"/><line style="stroke:#000000;stroke-width:1;" x1="90.0898" x2="90.0898" y1="130.8125" y2="155.7813"/><line style="stroke:#000000;stroke-width:1;" x1="257.7695" x2="257.7695" y1="155.7813" y2="171.75"/><line style="stroke:#000000;stroke-width:1;" x1="348.7695" x2="348.7695" y1="155.7813" y2="171.75"/><line style="stroke:#000000;stroke-width:1;" x1="90.0898" x2="90.0898" y1="114.8438" y2="130.8125"/><line style="stroke:#000000;stroke-width:1;" x1="257.7695" x2="257.7695" y1="130.8125" y2="155.7813"/><line style="stroke:#000000;stroke-width:1;" x1="348.7695" x2="348.7695" y1="130.8125" y2="155.7813"/><line style="stroke:#000000;stroke-width:1;" x1="257.7695" x2="257.7695" y1="114.8438" y2="130.8125"/><line style="stroke:#000000;stroke-width:1;" x1="348.7695" x2="348.7695" y1="114.8438" y2="130.8125"/><line style="stroke:#000000;stroke-width:1;" x1="6" x2="6" y1="155.7813" y2="171.75"/><line style="stroke:#000000;stroke-width:1;" x1="6" x2="6" y1="130.8125" y2="155.7813"/><line style="stroke:#000000;stroke-width:1;" x1="90.0898" x2="90.0898" y1="155.7813" y2="171.75"/><line style="stroke:#000000;stroke-width:1;" x1="5" x2="349.7695" y1="5" y2="5"/><line style="stroke:#000000;stroke-width:1;" x1="5" x2="349.7695" y1="172.75" y2="172.75"/><line style="stroke:#000000;stroke-width:1;" x1="5" x2="5" y1="5" y2="20.9688"/><line style="stroke:#000000;stroke-width:1;" x1="349.7695" x2="349.7695" y1="5" y2="20.9688"/><line style="stroke:#000000;stroke-width:1;" x1="5" x2="5" y1="113.8438" y2="172.75"/><line style="stroke:#000000;stroke-width:1;" x1="349.7695" x2="349.7695" y1="113.8438" y2="172.75"/><line style="stroke:#000000;stroke-width:1;" x1="5" x2="5" y1="80.875" y2="105.8438"/><line style="stroke:#000000;stroke-width:1;" x1="349.7695" x2="349.7695" y1="80.875" y2="105.8438"/><line style="stroke:#000000;stroke-width:1;" x1="5" x2="5" y1="54.9063" y2="72.875"/><line style="stroke:#000000;stroke-width:1;" x1="349.7695" x2="349.7695" y1="54.9063" y2="72.875"/><line style="stroke:#000000;stroke-width:1;" x1="5" x2="5" y1="20.9688" y2="38.9375"/><line style="stroke:#000000;stroke-width:1;" x1="349.7695" x2="349.7695" y1="20.9688" y2="38.9375"/><line style="stroke:#000000;stroke-width:1;" x1="5" x2="5" y1="105.8438" y2="113.8438"/><line style="stroke:#000000;stroke-width:1;" x1="349.7695" x2="349.7695" y1="105.8438" y2="113.8438"/><line style="stroke:#000000;stroke-width:1;" x1="5" x2="5" y1="72.875" y2="80.875"/><line style="stroke:#000000;stroke-width:1;" x1="349.7695" x2="349.7695" y1="72.875" y2="80.875"/><line style="stroke:#000000;stroke-width:1;" x1="5" x2="5" y1="38.9375" y2="54.9063"/><line style="stroke:#000000;stroke-width:1;" x1="349.7695" x2="349.7695" y1="38.9375" y2="54.9063"/><?plantuml-src LO-_3e8m48VtFiK5HmF1ycTmGcJ5sOGudD1eaz8cRPd0ft5myYbuCKy6YRbRlb---oLNE8_MErIUZLjsChtOiw2ID-a56D34q1b0DMWJi1gzdT_je72L4FfV6h0mP0sKWslHmkLBusOfXGdMOuB3_9gVXfLIeuDQAYKifJpcQPp56KzoFa43bV2exi9HrH6bWRFiXIPSp2pdIKgR_eiFcaBeRdc9xI8oyoYvaf1_0000?></g></svg>