<?xml version="1.0" encoding="us-ascii" standalone="no"?><svg xmlns="http://www.w3.org/2000/svg" xmlns:xlink="http://www.w3.org/1999/xlink" contentStyleType="text/css" height="197px" preserveAspectRatio="none" style="width:271px;height:197px;background:#FFFFFF;" version="1.1" viewBox="0 0 271 197" width="271px" zoomAndPan="magnify"><defs/><g><text fill="#000000" font-family="sans-serif" font-size="12" lengthAdjust="spacing" textLength="37" x="6" y="18.457">Nome:</text><text fill="#000000" font-family="sans-serif" font-size="12" lengthAdjust="spacing" textLength="128" x="9" y="35.5508">Digite o nome do aluno</text><line style="stroke:#000000;stroke-width:1.0;" x1="7" x2="186" y1="38.1875" y2="38.1875"/><line style="stroke:#000000;stroke-width:1.0;" x1="7" x2="7" y1="35.1875" y2="37.1875"/><line style="stroke:#000000;stroke-width:1.0;" x1="186" x2="186" y1="35.1875" y2="37.1875"/><text fill="#000000" font-family="sans-serif" font-size="12" lengthAdjust="spacing" textLength="52" x="6" y="54.6445">Matr&#237;cula:</text><text fill="#000000" font-family="sans-serif" font-size="12" lengthAdjust="spacing" textLength="96" x="9" y="71.7383">Digite a matr&#237;cula</text><line style="stroke:#000000;stroke-width:1.0;" x1="7" x2="154" y1="74.375" y2="74.375"/><line style="stroke:#000000;stroke-width:1.0;" x1="7" x2="7" y1="71.375" y2="73.375"/><line style="stroke:#000000;stroke-width:1.0;" x1="154" x2="154" y1="71.375" y2="73.375"/><line style="stroke:#AAAAAA;stroke-width:1.0;" x1="6" x2="264" y1="81.875" y2="81.875"/><rect fill="#EEEEEE" height="19.0938" rx="5" ry="5" style="stroke:#000000;stroke-width:2.5;" width="68" x="8.5" y="88.875"/><text fill="#000000" font-family="sans-serif" font-size="12" lengthAdjust="spacing" textLength="39" x="23" y="103.332">Buscar</text><line style="stroke:#AAAAAA;stroke-width:1.0;" x1="6" x2="264" y1="115.9688" y2="115.9688"/><text fill="#000000" font-family="sans-serif" font-size="12" lengthAdjust="spacing" textLength="34" x="7" y="133.9258">Nome</text><text fill="#000000" font-family="sans-serif" font-size="12" lengthAdjust="spacing" textLength="49" x="87" y="133.9258">Matr&#237;cula</text><text fill="#000000" font-family="sans-serif" font-size="12" lengthAdjust="spacing" textLength="27" x="173" y="133.9258">A&#231;&#227;o</text><text fill="#000000" font-family="sans-serif" font-size="12" lengthAdjust="spacing" textLength="64" x="7" y="151.0195">Binas Miller</text><text fill="#000000" font-family="sans-serif" font-size="12" lengthAdjust="spacing" textLength="84" x="87" y="151.0195">202405052362</text><rect fill="#EEEEEE" height="19.0938" rx="5" ry="5" style="stroke:#000000;stroke-width:2.5;" width="84" x="175.5" y="141.0625"/><text fill="#000000" font-family="sans-serif" font-size="12" lengthAdjust="spacing" textLength="50" x="192.5" y="155.5195">Detalhes</text><text fill="#000000" font-family="sans-serif" font-size="12" lengthAdjust="spacing" textLength="78" x="7" y="177.1133">Caio Ximenes</text><text fill="#000000" font-family="sans-serif" font-size="12" lengthAdjust="spacing" textLength="84" x="87" y="177.1133">202562359232</text><rect fill="#EEEEEE" height="19.0938" rx="5" ry="5" style="stroke:#000000;stroke-width:2.5;" width="84" x="175.5" y="167.1563"/><text fill="#000000" font-family="sans-serif" font-size="12" lengthAdjust="spacing" textLength="50" x="192.5" y="181.6133">Detalhes</text><line style="stroke:#000000;stroke-width:1.0;" x1="6" x2="86" y1="120.4688" y2="120.4688"/><line style="stroke:#000000;stroke-width:1.0;" x1="86" x2="172" y1="137.5625" y2="137.5625"/><line style="stroke:#000000;stroke-width:1.0;" x1="172" x2="263" y1="163.6563" y2="163.6563"/><line style="stroke:#000000;stroke-width:1.0;" x1="86" x2="172" y1="120.4688" y2="120.4688"/><line style="stroke:#000000;stroke-width:1.0;" x1="172" x2="263" y1="137.5625" y2="137.5625"/><line style="stroke:#000000;stroke-width:1.0;" x1="172" x2="263" y1="120.4688" y2="120.4688"/><line style="stroke:#000000;stroke-width:1.0;" x1="6" x2="86" y1="189.75" y2="189.75"/><line style="stroke:#000000;stroke-width:1.0;" x1="86" x2="172" y1="189.75" y2="189.75"/><line style="stroke:#000000;stroke-width:1.0;" x1="6" x2="86" y1="163.6563" y2="163.6563"/><line style="stroke:#000000;stroke-width:1.0;" x1="172" x2="263" y1="189.75" y2="189.75"/><line style="stroke:#000000;stroke-width:1.0;" x1="6" x2="86" y1="137.5625" y2="137.5625"/><line style="stroke:#000000;stroke-width:1.0;" x1="86" x2="172" y1="163.6563" y2="163.6563"/><line style="stroke:#000000;stroke-width:1.0;" x1="6" x2="6" y1="120.4688" y2="137.5625"/><line style="stroke:#000000;stroke-width:1.0;" x1="86" x2="86" y1="137.5625" y2="163.6563"/><line style="stroke:#000000;stroke-width:1.0;" x1="172" x2="172" y1="163.6563" y2="189.75"/><line style="stroke:#000000;stroke-width:1.0;" x1="263" x2="263" y1="163.6563" y2="189.75"/><line style="stroke:#000000;stroke-width:1.0;" x1="86" x2="86" y1="120.4688" y2="137.5625"/><line style="stroke:#000000;stroke-width:1.0;" x1="172" x2="172" y1="137.5625" y2="163.6563"/><line style="stroke:#000000;stroke-width:1.0;" x1="263" x2="263" y1="137.5625" y2="163.6563"/><line style="stroke:#000000;stroke-width:1.0;" x1="172" x2="172" y1="120.4688" y2="137.5625"/><line style="stroke:#000000;stroke-width:1.0;" x1="263" x2="263" y1="120.4688" y2="137.5625"/><line style="stroke:#000000;stroke-width:1.0;" x1="6" x2="6" y1="163.6563" y2="189.75"/><line style="stroke:#000000;stroke-width:1.0;" x1="6" x2="6" y1="137.5625" y2="163.6563"/><line style="stroke:#000000;stroke-width:1.0;" x1="86" x2="86" y1="163.6563" y2="189.75"/><line style="stroke:#000000;stroke-width:1.0;" x1="5" x2="264" y1="5" y2="5"/><line style="stroke:#000000;stroke-width:1.0;" x1="5" x2="264" y1="190.75" y2="190.75"/><line style="stroke:#000000;stroke-width:1.0;" x1="5" x2="5" y1="5" y2="22.0938"/><line style="stroke:#000000;stroke-width:1.0;" x1="264" x2="264" y1="5" y2="22.0938"/><line style="stroke:#000000;stroke-width:1.0;" x1="5" x2="5" y1="119.4688" y2="190.75"/><line style="stroke:#000000;stroke-width:1.0;" x1="264" x2="264" y1="119.4688" y2="190.75"/><line style="stroke:#000000;stroke-width:1.0;" x1="5" x2="5" y1="85.375" y2="111.4688"/><line style="stroke:#000000;stroke-width:1.0;" x1="264" x2="264" y1="85.375" y2="111.4688"/><line style="stroke:#000000;stroke-width:1.0;" x1="5" x2="5" y1="58.2813" y2="77.375"/><line style="stroke:#000000;stroke-width:1.0;" x1="264" x2="264" y1="58.2813" y2="77.375"/><line style="stroke:#000000;stroke-width:1.0;" x1="5" x2="5" y1="22.0938" y2="41.1875"/><line style="stroke:#000000;stroke-width:1.0;" x1="264" x2="264" y1="22.0938" y2="41.1875"/><line style="stroke:#000000;stroke-width:1.0;" x1="5" x2="5" y1="111.4688" y2="119.4688"/><line style="stroke:#000000;stroke-width:1.0;" x1="264" x2="264" y1="111.4688" y2="119.4688"/><line style="stroke:#000000;stroke-width:1.0;" x1="5" x2="5" y1="77.375" y2="85.375"/><line style="stroke:#000000;stroke-width:1.0;" x1="264" x2="264" y1="77.375" y2="85.375"/><line style="stroke:#000000;stroke-width:1.0;" x1="5" x2="5" y1="41.1875" y2="58.2813"/><line style="stroke:#000000;stroke-width:1.0;" x1="264" x2="264" y1="41.1875" y2="58.2813"/><!--SRC=[PL3DQW8n6BpdAJxiHIdARjPTw9xigcqHjuXQAPGUufgkWPX8VXQA-ZGzzDIdyCNwkM8HUld2DpEPcQHd7JFECkd8xfO0FEiDJ_5i34Gf70SD2X5OQM3IAzr0AcVE77yABzcraC7c3p-fscqSRv1vMp03xnTaTuFZ70FxAojSxe_VnozTqvbGp48kfEG66HhGRX07COqIkaVJ0NTChhcjRG7wJ6Xu5Hkk4AhLSKAZ-8v6_zK7SY0zhbRrYyb4CkLUyZ5Kt5YX5OITKrOdQixN7Xxu4i8OmYJj1caGGpQTrrLQfFau6LSKhFQcmCyHrXcnz0uTMcJ4AWPJhnmMIk6qDUTv2sR32mX3LGcZ5VPrPBJ8po9uqcwsrQuM9zrs9XpCkC5YiCZ9W7ymBnrUBVHAg3A5_ZQaCILZfahFIapQEjBNc60-Kspw2m00]--></g></svg>