<svg xmlns="http://www.w3.org/2000/svg" xmlns:xlink="http://www.w3.org/1999/xlink" contentStyleType="text/css" data-diagram-type="DESCRIPTION" height="1340px" preserveAspectRatio="none" style="width:664px;height:1340px;background:#FFFFFF;" version="1.1" viewBox="0 0 664 1340" width="664px" zoomAndPan="magnify"><?plantuml 1.2026.3beta6?><defs/><g><g class="title" data-source-line="1"><text fill="#000000" font-family="sans-serif" font-size="14" font-weight="700" lengthAdjust="spacing" textLength="347.7852" x="154.8519" y="22.9951">Sistema de Gest&#227;o de Est&#225;gios Obrigat&#243;rios</text></g><!--cluster Plataforma de Est?gios--><g class="cluster" data-qualified-name="Plataforma de Est.gios" data-source-line="12" id="ent0006"><rect fill="none" height="1282" rx="2.5" ry="2.5" style="stroke:#181818;stroke-width:1;" width="367.57" x="118.46" y="44.2969"/><text fill="#000000" font-family="sans-serif" font-size="14" font-weight="700" lengthAdjust="spacing" textLength="183.3672" x="210.5614" y="59.292">Plataforma de Est&#225;gios</text></g><!--cluster Comum--><g class="cluster" data-qualified-name="Plataforma de Est.gios.Comum" data-source-line="14" id="ent0007"><rect fill="none" height="609" rx="2.5" ry="2.5" style="stroke:#181818;stroke-width:1;" width="278.87" x="162.81" y="192.2969"/><text fill="#000000" font-family="sans-serif" font-size="14" font-weight="700" lengthAdjust="spacing" textLength="59.0352" x="272.7274" y="207.292">Comum</text></g><!--cluster Aluno--><g class="cluster" data-qualified-name="Plataforma de Est.gios.Aluno" data-source-line="25" id="ent0016"><rect fill="none" height="81" rx="2.5" ry="2.5" style="stroke:#181818;stroke-width:1;" width="162.97" x="220.76" y="87.2969"/><text fill="#000000" font-family="sans-serif" font-size="14" font-weight="700" lengthAdjust="spacing" textLength="45.1855" x="279.6522" y="102.292">Aluno</text></g><!--cluster Opera??o--><g class="cluster" data-qualified-name="Plataforma de Est.gios.Opera..o" data-source-line="29" id="ent0018"><rect fill="none" height="477" rx="2.5" ry="2.5" style="stroke:#181818;stroke-width:1;" width="319.57" x="142.46" y="825.2969"/><text fill="#000000" font-family="sans-serif" font-size="14" font-weight="700" lengthAdjust="spacing" textLength="75.1338" x="264.6781" y="840.292">Opera&#231;&#227;o</text></g><!--entity acompanhar--><g class="entity" data-qualified-name="Plataforma de Est.gios.Comum.acompanhar" data-source-line="15" id="ent0008"><ellipse cx="302.2438" cy="553.2936" fill="#F1F1F1" rx="123.4338" ry="27.0868" style="stroke:#181818;stroke-width:0.5;"/><text fill="#000000" font-family="sans-serif" font-size="14" lengthAdjust="spacing" textLength="226.666" x="188.9108" y="557.9421">Acompanhar Status do Processo</text></g><!--entity enviar--><g class="entity" data-qualified-name="Plataforma de Est.gios.Comum.enviar" data-source-line="16" id="ent0009"><ellipse cx="302.2406" cy="634.295" fill="#F1F1F1" rx="81.9406" ry="18.7881" style="stroke:#181818;stroke-width:0.5;"/><text fill="#000000" font-family="sans-serif" font-size="14" lengthAdjust="spacing" textLength="135.2285" x="234.6263" y="638.9434">Anexar Documento</text></g><!--entity download--><g class="entity" data-qualified-name="Plataforma de Est.gios.Comum.download" data-source-line="17" id="ent0010"><ellipse cx="302.2362" cy="464.2921" fill="#F1F1F1" rx="120.2262" ry="26.4452" style="stroke:#181818;stroke-width:0.5;"/><text fill="#000000" font-family="sans-serif" font-size="14" lengthAdjust="spacing" textLength="219.8369" x="192.3178" y="468.9406">Fazer Download do Documento</text></g><!--entity iniciar--><g class="entity" data-qualified-name="Plataforma de Est.gios.Comum.iniciar" data-source-line="18" id="ent0011"><ellipse cx="302.2423" cy="244.2953" fill="#F1F1F1" rx="71.2423" ry="16.6485" style="stroke:#181818;stroke-width:0.5;"/><text fill="#000000" font-family="sans-serif" font-size="14" lengthAdjust="spacing" textLength="109.4912" x="247.4967" y="248.9438">Iniciar Processo</text></g><!--entity enviarHoras--><g class="entity" data-qualified-name="Plataforma de Est.gios.Comum.enviarHoras" data-source-line="19" id="ent0012"><ellipse cx="302.2432" cy="386.2975" fill="#F1F1F1" rx="72.1532" ry="16.8306" style="stroke:#181818;stroke-width:0.5;"/><text fill="#000000" font-family="sans-serif" font-size="14" lengthAdjust="spacing" textLength="111.7539" x="246.3662" y="390.9459">Enviar Relat&#243;rio</text></g><!--entity login--><g class="entity" data-qualified-name="Plataforma de Est.gios.Comum.login" data-source-line="20" id="ent0013"><ellipse cx="302.2444" cy="702.3005" fill="#F1F1F1" rx="60.1444" ry="14.5236" style="stroke:#181818;stroke-width:0.5;"/><text fill="#000000" font-family="sans-serif" font-size="14" lengthAdjust="spacing" textLength="80.8145" x="261.8372" y="706.9489">Fazer Login</text></g><!--entity analisarDoc--><g class="entity" data-qualified-name="Plataforma de Est.gios.Comum.analisarDoc" data-source-line="21" id="ent0014"><ellipse cx="302.2416" cy="315.2972" fill="#F1F1F1" rx="84.8516" ry="19.3703" style="stroke:#181818;stroke-width:0.5;"/><text fill="#000000" font-family="sans-serif" font-size="14" lengthAdjust="spacing" textLength="141.9824" x="231.2503" y="319.9456">Analisar Documento</text></g><!--entity cadastrarAluno--><g class="entity" data-qualified-name="Plataforma de Est.gios.Comum.cadastrarAluno" data-source-line="22" id="ent0015"><ellipse cx="302.2422" cy="768.3013" fill="#F1F1F1" rx="72.2222" ry="16.8444" style="stroke:#181818;stroke-width:0.5;"/><text fill="#000000" font-family="sans-serif" font-size="14" lengthAdjust="spacing" textLength="111.9248" x="246.2798" y="772.9498">Cadastrar aluno</text></g><!--entity reportarErro--><g class="entity" data-qualified-name="Plataforma de Est.gios.Aluno.reportarErro" data-source-line="26" id="ent0017"><ellipse cx="302.243" cy="137.2935" fill="#F1F1F1" rx="65.483" ry="15.4966" style="stroke:#181818;stroke-width:0.5;"/><text fill="#000000" font-family="sans-serif" font-size="14" lengthAdjust="spacing" textLength="94.7461" x="254.87" y="141.9419">Reportar Erro</text></g><!--entity validarDoc--><g class="entity" data-qualified-name="Plataforma de Est.gios.Opera..o.validarDoc" data-source-line="30" id="ent0019"><ellipse cx="302.2353" cy="1104.2999" fill="#F1F1F1" rx="81.7153" ry="18.7431" style="stroke:#181818;stroke-width:0.5;"/><text fill="#000000" font-family="sans-serif" font-size="14" lengthAdjust="spacing" textLength="134.7021" x="234.8842" y="1108.9484">Validar Documento</text></g><!--entity reprovarJustificativa--><g class="entity" data-qualified-name="Plataforma de Est.gios.Opera..o.reprovarJustificativa" data-source-line="31" id="ent0020"><ellipse cx="302.2377" cy="1189.2944" fill="#F1F1F1" rx="143.7877" ry="31.1575" style="stroke:#181818;stroke-width:0.5;"/><text fill="#000000" font-family="sans-serif" font-size="14" lengthAdjust="spacing" textLength="269.5273" x="167.474" y="1193.9429">Reprovar Documento com Justificativa</text></g><!--entity pesquisarAlunos--><g class="entity" data-qualified-name="Plataforma de Est.gios.Opera..o.pesquisarAlunos" data-source-line="32" id="ent0021"><ellipse cx="302.2429" cy="1033.2995" fill="#F1F1F1" rx="74.7629" ry="17.3526" style="stroke:#181818;stroke-width:0.5;"/><text fill="#000000" font-family="sans-serif" font-size="14" lengthAdjust="spacing" textLength="118.1523" x="243.1668" y="1037.9479">Pesquisar alunos</text></g><!--entity encerrar--><g class="entity" data-qualified-name="Plataforma de Est.gios.Opera..o.encerrar" data-source-line="33" id="ent0022"><ellipse cx="302.2357" cy="878.296" fill="#F1F1F1" rx="78.4457" ry="18.0891" style="stroke:#181818;stroke-width:0.5;"/><text fill="#000000" font-family="sans-serif" font-size="14" lengthAdjust="spacing" textLength="126.998" x="238.7367" y="882.9445">Encerrar processo</text></g><!--entity pesquisarStatus--><g class="entity" data-qualified-name="Plataforma de Est.gios.Opera..o.pesquisarStatus" data-source-line="35" id="ent0023"><ellipse cx="302.2382" cy="956.2945" fill="#F1F1F1" rx="113.0382" ry="25.0076" style="stroke:#181818;stroke-width:0.5;"/><text fill="#000000" font-family="sans-serif" font-size="14" lengthAdjust="spacing" textLength="204.4355" x="200.0204" y="960.9429">Pesquisar Status da empresa</text></g><!--entity validarHoras--><g class="entity" data-qualified-name="Plataforma de Est.gios.Opera..o.validarHoras" data-source-line="36" id="ent0024"><ellipse cx="302.2351" cy="1271.2919" fill="#F1F1F1" rx="65.3251" ry="15.465" style="stroke:#181818;stroke-width:0.5;"/><text fill="#000000" font-family="sans-serif" font-size="14" lengthAdjust="spacing" textLength="94.3291" x="255.0706" y="1275.9403">Validar Horas</text></g><!--entity aluno--><g class="entity" data-qualified-name="aluno" data-source-line="5" id="ent0002"><ellipse cx="52.2292" cy="434.6469" fill="#F1F1F1" rx="8" ry="8" style="stroke:#181818;stroke-width:0.5;"/><path d="M52.2292,442.6469 L52.2292,469.6469 M39.2292,450.6469 L65.2292,450.6469 M52.2292,469.6469 L39.2292,484.6469 M52.2292,469.6469 L65.2292,484.6469" fill="none" style="stroke:#181818;stroke-width:0.5;"/><text fill="#000000" font-family="sans-serif" font-size="14" lengthAdjust="spacing" textLength="39.7783" x="32.34" y="499.142">Aluno</text></g><!--entity sec--><g class="entity" data-qualified-name="sec" data-source-line="6" id="ent0003"><ellipse cx="52.2297" cy="672.6469" fill="#F1F1F1" rx="8" ry="8" style="stroke:#181818;stroke-width:0.5;"/><path d="M52.2297,680.6469 L52.2297,707.6469 M39.2297,688.6469 L65.2297,688.6469 M52.2297,707.6469 L39.2297,722.6469 M52.2297,707.6469 L65.2297,722.6469" fill="none" style="stroke:#181818;stroke-width:0.5;"/><text fill="#000000" font-family="sans-serif" font-size="14" lengthAdjust="spacing" textLength="71.8594" x="16.3" y="737.142">Secretaria</text></g><!--entity coord--><g class="entity" data-qualified-name="coord" data-source-line="7" id="ent0004"><ellipse cx="52.228" cy="1241.6469" fill="#F1F1F1" rx="8" ry="8" style="stroke:#181818;stroke-width:0.5;"/><path d="M52.228,1249.6469 L52.228,1276.6469 M39.228,1257.6469 L65.228,1257.6469 M52.228,1276.6469 L39.228,1291.6469 M52.228,1276.6469 L65.228,1291.6469" fill="none" style="stroke:#181818;stroke-width:0.5;"/><text fill="#000000" font-family="sans-serif" font-size="14" lengthAdjust="spacing" textLength="92.4561" x="6" y="1306.142">Coordena&#231;&#227;o</text></g><!--entity ia--><g class="entity" data-qualified-name="ia" data-source-line="10" id="ent0005"><ellipse cx="577.7595" cy="614.7938" fill="#F1F1F1" rx="8" ry="8" style="stroke:#181818;stroke-width:0.5;"/><path d="M577.7595,622.7938 L577.7595,649.7938 M564.7595,630.7938 L590.7595,630.7938 M577.7595,649.7938 L564.7595,664.7938 M577.7595,649.7938 L590.7595,664.7938" fill="none" style="stroke:#181818;stroke-width:0.5;"/><text fill="#000000" font-family="sans-serif" font-size="14" lengthAdjust="spacing" textLength="143.459" x="506.03" y="679.2889">Intelig&#234;ncia Artificial</text><text fill="#000000" font-family="sans-serif" font-size="14" font-style="italic" lengthAdjust="spacing" textLength="73.5205" x="540.9992" y="602.992">&#171;Sistema&#187;</text></g><!--link aluno to iniciar--><g class="link" data-entity-1="ent0002" data-entity-2="ent0011" data-link-type="dependency" data-source-line="42" id="lnk25"><path d="M53.87,425.6569 C56.79,383.0369 68.33,315.5769 110.46,278.2969 C143.59,248.9769 187.0319,240.9574 227.2719,239.9474" fill="none" id="aluno-to-iniciar" style="stroke:#181818;stroke-width:1;"/><polygon fill="#181818" points="233.27,239.7969,224.1725,236.024,228.2716,239.9223,224.3732,244.0214,233.27,239.7969" style="stroke:#181818;stroke-width:1;"/></g><!--link aluno to enviar--><g class="link" data-entity-1="ent0002" data-entity-2="ent0009" data-link-type="dependency" data-source-line="43" id="lnk26"><path d="M59.54,502.8969 C66.6,533.4469 81.17,574.7669 110.46,598.2969 C141.07,622.8969 177.3528,632.0347 214.3228,635.2647" fill="none" id="aluno-to-enviar" style="stroke:#181818;stroke-width:1;"/><polygon fill="#181818" points="220.3,635.7869,211.6823,631.0187,215.319,635.3517,210.986,638.9884,220.3,635.7869" style="stroke:#181818;stroke-width:1;"/></g><!--link aluno to acompanhar--><g class="link" data-entity-1="ent0002" data-entity-2="ent0008" data-link-type="dependency" data-source-line="44" id="lnk27"><path d="M72.5,482.4469 C83,491.4369 96.65,501.7369 110.46,508.2969 C138.27,521.5169 164.4192,529.677 194.1592,536.437" fill="none" id="aluno-to-acompanhar" style="stroke:#181818;stroke-width:1;"/><polygon fill="#181818" points="200.01,537.7669,192.1205,531.8715,195.1344,536.6586,190.3473,539.6725,200.01,537.7669" style="stroke:#181818;stroke-width:1;"/></g><!--link aluno to reportarErro--><g class="link" data-entity-1="ent0002" data-entity-2="ent0017" data-link-type="dependency" data-source-line="45" id="lnk28"><path d="M57.5,425.7669 C65.14,363.1569 82.99,243.1369 110.46,211.2969 C144.21,172.1469 195.3501,154.7912 238.2801,146.0712" fill="none" id="aluno-to-reportarErro" style="stroke:#181818;stroke-width:1;"/><polygon fill="#181818" points="244.16,144.8769,234.5439,142.7484,239.2601,145.8722,236.1363,150.5883,244.16,144.8769" style="stroke:#181818;stroke-width:1;"/></g><!--link aluno to download--><g class="link" data-entity-1="ent0002" data-entity-2="ent0010" data-link-type="dependency" data-source-line="46" id="lnk29"><path d="M72.28,464.2969 C96.21,464.2969 133.3,464.2969 175.7,464.2969" fill="none" id="aluno-to-download" style="stroke:#181818;stroke-width:1;"/><polygon fill="#181818" points="181.7,464.2969,172.7,460.2969,176.7,464.2969,172.7,468.2969,181.7,464.2969" style="stroke:#181818;stroke-width:1;"/></g><!--link aluno to enviarHoras--><g class="link" data-entity-1="ent0002" data-entity-2="ent0012" data-link-type="dependency" data-source-line="47" id="lnk30"><path d="M72.61,445.6069 C83.04,436.5869 96.58,426.4269 110.46,420.2969 C148.77,403.3769 188.9789,395.5487 226.3089,391.2787" fill="none" id="aluno-to-enviarHoras" style="stroke:#181818;stroke-width:1;"/><polygon fill="#181818" points="232.27,390.5969,222.8737,387.6456,227.3024,391.1651,223.7829,395.5938,232.27,390.5969" style="stroke:#181818;stroke-width:1;"/></g><!--link aluno to login--><g class="link" data-entity-1="ent0002" data-entity-2="ent0013" data-link-type="dependency" data-source-line="48" id="lnk31"><path d="M61.56,502.6869 C74.15,559.0969 97.87,658.9669 110.46,670.2969 C146.9,703.1069 197.8319,709.049 240.0219,707.979" fill="none" id="aluno-to-login" style="stroke:#181818;stroke-width:1;"/><polygon fill="#181818" points="246.02,707.8269,236.9215,704.0563,241.0216,707.9536,237.1243,712.0538,246.02,707.8269" style="stroke:#181818;stroke-width:1;"/></g><!--link sec to validarDoc--><g class="link" data-entity-1="ent0003" data-entity-2="ent0019" data-link-type="dependency" data-source-line="50" id="lnk32"><path d="M53.83,740.8569 C55.97,825.1969 65.75,1022.1669 110.46,1068.2969 C139.19,1097.9469 178.1168,1107.1813 217.1568,1109.0413" fill="none" id="sec-to-validarDoc" style="stroke:#181818;stroke-width:1;"/><polygon fill="#181818" points="223.15,1109.3269,214.3506,1104.9031,218.1557,1109.0889,213.9698,1112.894,223.15,1109.3269" style="stroke:#181818;stroke-width:1;"/></g><!--link sec to pesquisarAlunos--><g class="link" data-entity-1="ent0003" data-entity-2="ent0021" data-link-type="dependency" data-source-line="52" id="lnk33"><path d="M55.36,740.9369 C60.17,812.9769 74.37,963.7169 110.46,999.2969 C141.72,1030.1269 184.6908,1038.2591 225.1808,1038.9191" fill="none" id="sec-to-pesquisarAlunos" style="stroke:#181818;stroke-width:1;"/><polygon fill="#181818" points="231.18,1039.0169,222.2464,1034.8707,226.1807,1038.9354,222.116,1042.8697,231.18,1039.0169" style="stroke:#181818;stroke-width:1;"/></g><!--link sec to encerrar--><g class="link" data-entity-1="ent0003" data-entity-2="ent0022" data-link-type="dependency" data-source-line="53" id="lnk34"><path d="M68.13,740.7569 C77.64,761.0369 91.72,785.0269 110.46,801.2969 C148.75,834.5569 197.475,853.0151 238.435,864.2851" fill="none" id="sec-to-encerrar" style="stroke:#181818;stroke-width:1;"/><polygon fill="#181818" points="244.22,865.8769,236.6036,859.6326,239.3992,864.5504,234.4813,867.346,244.22,865.8769" style="stroke:#181818;stroke-width:1;"/></g><!--link sec to cadastrarAluno--><g class="link" data-entity-1="ent0003" data-entity-2="ent0015" data-link-type="dependency" data-source-line="54" id="lnk35"><path d="M88.38,724.3469 C95.49,728.1169 103.06,731.6569 110.46,734.2969 C150.54,748.6169 191.641,756.3064 228.991,761.2064" fill="none" id="sec-to-cadastrarAluno" style="stroke:#181818;stroke-width:1;"/><polygon fill="#181818" points="234.94,761.9869,226.5368,756.8502,229.9825,761.3365,225.4962,764.7822,234.94,761.9869" style="stroke:#181818;stroke-width:1;"/></g><!--link sec to login--><g class="link" data-entity-1="ent0003" data-entity-2="ent0013" data-link-type="dependency" data-source-line="55" id="lnk36"><path d="M88.5,711.5269 C132.9,715.9469 203.1896,716.6914 251.3296,712.7914" fill="none" id="sec-to-login" style="stroke:#181818;stroke-width:1;"/><polygon fill="#181818" points="257.31,712.3069,248.0164,709.0467,252.3263,712.7106,248.6624,717.0206,257.31,712.3069" style="stroke:#181818;stroke-width:1;"/></g><!--link sec to login--><g class="link" data-entity-1="ent0003" data-entity-2="ent0013" data-link-type="dependency" data-source-line="61" id="lnk42"><path d="M88.5,692.5269 C133.43,687.7869 205.0337,687.0343 253.0637,691.3143" fill="none" id="sec-to-login-1" style="stroke:#181818;stroke-width:1;"/><polygon fill="#181818" points="259.04,691.8469,250.4306,687.0638,254.0597,691.4031,249.7205,695.0323,259.04,691.8469" style="stroke:#181818;stroke-width:1;"/></g><!--link sec to iniciar--><g class="link" data-entity-1="ent0003" data-entity-2="ent0011" data-link-type="dependency" data-source-line="56" id="lnk37"><path d="M65.14,663.6769 C75.87,627.1369 91.04,570.5469 98.46,520.2969 C102.39,493.6669 92.66,298.4969 110.46,278.2969 C141.36,243.1969 188.9514,236.0557 231.4814,236.9857" fill="none" id="sec-to-iniciar" style="stroke:#181818;stroke-width:1;"/><polygon fill="#181818" points="237.48,237.1169,228.5696,232.9211,232.4812,237.0076,228.3947,240.9192,237.48,237.1169" style="stroke:#181818;stroke-width:1;"/></g><!--link sec to enviar--><g class="link" data-entity-1="ent0003" data-entity-2="ent0009" data-link-type="dependency" data-source-line="57" id="lnk38"><path d="M88.41,680.3069 C95.51,676.5369 103.07,672.9769 110.46,670.2969 C148,656.6669 185.7371,648.8417 221.8071,643.4017" fill="none" id="sec-to-enviar" style="stroke:#181818;stroke-width:1;"/><polygon fill="#181818" points="227.74,642.5069,218.2441,639.8938,222.7959,643.2525,219.4372,647.8043,227.74,642.5069" style="stroke:#181818;stroke-width:1;"/></g><!--link sec to acompanhar--><g class="link" data-entity-1="ent0003" data-entity-2="ent0008" data-link-type="dependency" data-source-line="58" id="lnk39"><path d="M65.46,663.8069 C74.48,641.4769 88.96,614.6269 110.46,598.2969 C132.81,581.3169 154.7427,572.026 182.1027,565.316" fill="none" id="sec-to-acompanhar" style="stroke:#181818;stroke-width:1;"/><polygon fill="#181818" points="187.93,563.8869,178.2363,562.1457,183.0739,565.0778,180.1418,569.9155,187.93,563.8869" style="stroke:#181818;stroke-width:1;"/></g><!--link sec to download--><g class="link" data-entity-1="ent0003" data-entity-2="ent0010" data-link-type="dependency" data-source-line="59" id="lnk40"><path d="M53.62,664.0169 C56.21,620.0669 67.38,548.8569 110.46,508.2969 C131,488.9569 152.4358,478.9276 179.9258,472.3276" fill="none" id="sec-to-download" style="stroke:#181818;stroke-width:1;"/><polygon fill="#181818" points="185.76,470.9269,176.0749,469.1385,180.8982,472.0941,177.9425,476.9174,185.76,470.9269" style="stroke:#181818;stroke-width:1;"/></g><!--link sec to enviarHoras--><g class="link" data-entity-1="ent0003" data-entity-2="ent0012" data-link-type="dependency" data-source-line="60" id="lnk41"><path d="M64.25,663.8969 C74.4,627.2769 89.26,570.4169 98.46,520.2969 C102.5,498.2869 95.09,436.5669 110.46,420.2969 C141.76,387.1569 187.3801,379.5481 229.0301,379.7481" fill="none" id="sec-to-enviarHoras" style="stroke:#181818;stroke-width:1;"/><polygon fill="#181818" points="235.03,379.7769,226.0493,375.7337,230.0301,379.7529,226.0109,383.7336,235.03,379.7769" style="stroke:#181818;stroke-width:1;"/></g><!--reverse link analisarDoc to ia--><g class="link" data-entity-1="ent0014" data-entity-2="ent0005" data-link-type="dependency" data-source-line="63" id="lnk43"><path d="M392.5281,313.2785 C429.5681,316.4485 465.24,326.0369 494.03,352.2969 C561.29,413.6369 575.07,526.1869 577.18,589.6169" fill="none" id="analisarDoc-backto-ia" style="stroke:#181818;stroke-width:1;"/><polygon fill="#181818" points="386.55,312.7669,395.1761,317.5197,391.5318,313.1932,395.8583,309.5489,386.55,312.7669" style="stroke:#181818;stroke-width:1;"/></g><!--reverse link pesquisarStatus to ia--><g class="link" data-entity-1="ent0023" data-entity-2="ent0005" data-link-type="dependency" data-source-line="64" id="lnk44"><path d="M419.5327,950.8075 C448.6727,944.7075 472.18,934.6169 494.03,914.2969 C558.93,853.9469 573.7,745.1769 576.59,683.0969" fill="none" id="pesquisarStatus-backto-ia" style="stroke:#181818;stroke-width:1;"/><polygon fill="#181818" points="413.66,952.0369,423.2886,954.108,418.5539,951.0124,421.6495,946.2777,413.66,952.0369" style="stroke:#181818;stroke-width:1;"/></g><!--link coord to validarHoras--><g class="link" data-entity-1="ent0004" data-entity-2="ent0024" data-link-type="dependency" data-source-line="66" id="lnk45"><path d="M98.72,1271.2969 C137.31,1271.2969 187.15,1271.2969 230.42,1271.2969" fill="none" id="coord-to-validarHoras" style="stroke:#181818;stroke-width:1;"/><polygon fill="#181818" points="236.42,1271.2969,227.42,1267.2969,231.42,1271.2969,227.42,1275.2969,236.42,1271.2969" style="stroke:#181818;stroke-width:1;"/></g><?plantuml-src bLHBZXCn4Dtx5ALiMEK6KQHe2308QQA9nBvmLtgiwRQRiZlyn64G2oIs724NmvzssvsmOH79VlLxzVpIJhcEuAYienwX8NXDrbr-cd3S-zEFLXaB3nzOjUWkVzZVH4Sd1yw0nvuSD8f9EcMqiCzA3yZOmu3o6LiwkY--UGYZRZiI0gKp3AjTDsgp0hI0uPJX8qacXwmmnYp97BapXXlIUFdbgSMW38WGBo1d83CfHfkY-PORt6j7dMellxLK23jswgJygOlP7jbi9WcsMo5cmh0wTEZmP3XfCmkoWcz2J4i6TltO1sZqbD5wP2TDFw1-GeQZGpTQQ0mSs4YoTbfypgYgD7ts5I-D77lIBYMIFgiwwHL-fP3pINS6cz1tcTzCaL9nhyEgl9ol4bYozd4EF58tlNCr_Oq9KbvHU6TQfMDI5qxr6jWfUxC8Jh17I-uTDcWT-sISFI4p5cqYnFUYz6ISIkb76Wnxpy2UEPNpX0J0rvRYXu4uEwZgyDxJQcxOdXEw8EjdiJdNgTw6FRmTRRGJEdN6J24cBYAbpu7inp4g59TEbXqo67UqzSD8ug3GKByVJUX_IVaF1jcU2DGFJ1QNP5BuLgpeY5geP14lT_X50h1URsUR5MJoSm6gVq815uzOuDdSr_tI-88cImfFErwhrvonQy4pFYkRWIiHCvn6v5jUj7GvrzTgoGpDkonBqYRB8QBwxy1clVPVB77rH1aMySDOBnqR_WK0?></g></svg>