<svg xmlns="http://www.w3.org/2000/svg" xmlns:xlink="http://www.w3.org/1999/xlink" contentStyleType="text/css" data-diagram-type="DESCRIPTION" height="627px" preserveAspectRatio="none" style="width:780px;height:627px;background:#FFFFFF;" version="1.1" viewBox="0 0 780 627" width="780px" zoomAndPan="magnify"><?plantuml 1.2026.3beta6?><defs/><g><g class="title" data-source-line="1"><text fill="#000000" font-family="sans-serif" font-size="14" font-weight="700" lengthAdjust="spacing" textLength="224.0205" x="274.7197" y="22.9951">Casos de Uso - Pacote Aluno</text></g><!--cluster Plataforma de Est?gios--><g class="cluster" data-qualified-name="Plataforma de Est.gios" data-source-line="7" id="ent0003"><rect fill="none" height="569" rx="2.5" ry="2.5" style="stroke:#181818;stroke-width:1;" width="673.68" x="92.78" y="44.2969"/><text fill="#000000" font-family="sans-serif" font-size="14" font-weight="700" lengthAdjust="spacing" textLength="183.3672" x="337.9364" y="59.292">Plataforma de Est&#225;gios</text></g><!--cluster M?dulo do Aluno--><g class="cluster" data-qualified-name="Plataforma de Est.gios.M.dulo do Aluno" data-source-line="9" id="ent0004"><rect fill="none" height="502" rx="2.5" ry="2.5" style="stroke:#181818;stroke-width:1;" width="625.68" x="116.78" y="87.2969"/><text fill="#000000" font-family="sans-serif" font-size="14" font-weight="700" lengthAdjust="spacing" textLength="132.5283" x="363.3558" y="102.292">M&#243;dulo do Aluno</text></g><!--entity login--><g class="entity" data-qualified-name="Plataforma de Est.gios.M.dulo do Aluno.login" data-source-line="10" id="ent0005"><ellipse cx="615.5544" cy="310.3005" fill="#F1F1F1" rx="60.1444" ry="14.5236" style="stroke:#181818;stroke-width:0.5;"/><text fill="#000000" font-family="sans-serif" font-size="14" lengthAdjust="spacing" textLength="80.8145" x="575.1472" y="314.9489">Fazer Login</text></g><!--entity enviar--><g class="entity" data-qualified-name="Plataforma de Est.gios.M.dulo do Aluno.enviar" data-source-line="11" id="ent0006"><ellipse cx="615.5536" cy="191.2996" fill="#F1F1F1" rx="73.5636" ry="17.1127" style="stroke:#181818;stroke-width:0.5;"/><text fill="#000000" font-family="sans-serif" font-size="14" lengthAdjust="spacing" textLength="115.2266" x="557.9403" y="195.948">Anexar Contrato</text></g><!--entity iniciar--><g class="entity" data-qualified-name="Plataforma de Est.gios.M.dulo do Aluno.iniciar" data-source-line="13" id="ent0007"><ellipse cx="256.2123" cy="196.2953" fill="#F1F1F1" rx="71.2423" ry="16.6485" style="stroke:#181818;stroke-width:0.5;"/><text fill="#000000" font-family="sans-serif" font-size="14" lengthAdjust="spacing" textLength="109.4912" x="201.4667" y="200.9438">Iniciar Processo</text></g><!--entity enviarHoras--><g class="entity" data-qualified-name="Plataforma de Est.gios.M.dulo do Aluno.enviarHoras" data-source-line="14" id="ent0008"><ellipse cx="256.2106" cy="292.293" fill="#F1F1F1" rx="101.2806" ry="22.6561" style="stroke:#181818;stroke-width:0.5;"/><text fill="#000000" font-family="sans-serif" font-size="14" lengthAdjust="spacing" textLength="178.876" x="166.7726" y="296.9414">Enviar Relat&#243;rio de Horas</text></g><!--entity acompanhar--><g class="entity" data-qualified-name="Plataforma de Est.gios.M.dulo do Aluno.acompanhar" data-source-line="15" id="ent0009"><ellipse cx="256.2138" cy="424.2936" fill="#F1F1F1" rx="123.4338" ry="27.0868" style="stroke:#181818;stroke-width:0.5;"/><text fill="#000000" font-family="sans-serif" font-size="14" lengthAdjust="spacing" textLength="226.666" x="142.8808" y="428.9421">Acompanhar Status do Processo</text></g><!--entity download--><g class="entity" data-qualified-name="Plataforma de Est.gios.M.dulo do Aluno.download" data-source-line="17" id="ent0010"><ellipse cx="615.5547" cy="548.2978" fill="#F1F1F1" rx="110.9047" ry="24.5809" style="stroke:#181818;stroke-width:0.5;"/><text fill="#000000" font-family="sans-serif" font-size="14" lengthAdjust="spacing" textLength="199.835" x="515.6372" y="552.9463">Fazer Download do Contrato</text></g><!--entity visualizarDoc--><g class="entity" data-qualified-name="Plataforma de Est.gios.M.dulo do Aluno.visualizarDoc" data-source-line="18" id="ent0011"><ellipse cx="615.5516" cy="470.2932" fill="#F1F1F1" rx="81.0816" ry="18.6163" style="stroke:#181818;stroke-width:0.5;"/><text fill="#000000" font-family="sans-serif" font-size="14" lengthAdjust="spacing" textLength="133.2188" x="548.9422" y="474.9416">Visualizar Contrato</text></g><!--entity reportarErro--><g class="entity" data-qualified-name="Plataforma de Est.gios.M.dulo do Aluno.reportarErro" data-source-line="19" id="ent0012"><ellipse cx="615.553" cy="401.2935" fill="#F1F1F1" rx="65.483" ry="15.4966" style="stroke:#181818;stroke-width:0.5;"/><text fill="#000000" font-family="sans-serif" font-size="14" lengthAdjust="spacing" textLength="94.7461" x="568.18" y="405.9419">Reportar Erro</text></g><!--entity aluno--><g class="entity" data-qualified-name="aluno" data-source-line="5" id="ent0002"><ellipse cx="25.8892" cy="262.6469" fill="#F1F1F1" rx="8" ry="8" style="stroke:#181818;stroke-width:0.5;"/><path d="M25.8892,270.6469 L25.8892,297.6469 M12.8892,278.6469 L38.8892,278.6469 M25.8892,297.6469 L12.8892,312.6469 M25.8892,297.6469 L38.8892,312.6469" fill="none" style="stroke:#181818;stroke-width:0.5;"/><text fill="#000000" font-family="sans-serif" font-size="14" lengthAdjust="spacing" textLength="39.7783" x="6" y="327.142">Aluno</text></g><!--link aluno to iniciar--><g class="link" data-entity-1="ent0002" data-entity-2="ent0007" data-link-type="dependency" data-source-line="24" id="lnk13"><path d="M46.11,276.9269 C56.98,268.7869 71.1,259.0869 84.78,252.2969 C123.83,232.8969 165.3532,219.5522 200.2132,210.0022" fill="none" id="aluno-to-iniciar" style="stroke:#181818;stroke-width:1;"/><polygon fill="#181818" points="206,208.4169,196.263,206.937,201.1777,209.738,198.3767,214.6527,206,208.4169" style="stroke:#181818;stroke-width:1;"/></g><!--link aluno to enviarHoras--><g class="link" data-entity-1="ent0002" data-entity-2="ent0008" data-link-type="dependency" data-source-line="25" id="lnk14"><path d="M45.96,292.2969 C70.13,292.2969 107.6,292.2969 148.68,292.2969" fill="none" id="aluno-to-enviarHoras" style="stroke:#181818;stroke-width:1;"/><polygon fill="#181818" points="154.68,292.2969,145.68,288.2969,149.68,292.2969,145.68,296.2969,154.68,292.2969" style="stroke:#181818;stroke-width:1;"/></g><!--link aluno to acompanhar--><g class="link" data-entity-1="ent0002" data-entity-2="ent0009" data-link-type="dependency" data-source-line="26" id="lnk15"><path d="M46.1,306.3569 C57.2,314.2869 71.55,324.1869 84.78,332.2969 C124.49,356.6269 165.7773,378.8169 200.2173,396.5769" fill="none" id="aluno-to-acompanhar" style="stroke:#181818;stroke-width:1;"/><polygon fill="#181818" points="205.55,399.3269,199.3843,391.6468,201.1061,397.0352,195.7176,398.7571,205.55,399.3269" style="stroke:#181818;stroke-width:1;"/></g><!--link iniciar to login--><g class="link" data-entity-1="ent0007" data-entity-2="ent0005" data-link-type="dependency" data-source-line="28" id="lnk16"><path d="M322.79,202.6169 C366.67,208.1469 425.2,218.0969 474.65,235.2969 C519.42,250.8669 562.1299,276.137 588.6599,293.157" fill="none" id="iniciar-to-login" style="stroke:#181818;stroke-width:1;stroke-dasharray:7,7;"/><polygon fill="#181818" points="593.71,296.3969,588.2947,288.1704,589.5016,293.697,583.975,294.9039,593.71,296.3969" style="stroke:#181818;stroke-width:1;"/><text fill="#000000" font-family="sans-serif" font-size="13" lengthAdjust="spacing" textLength="63.0068" x="410.65" y="214.3638">&#171;include&#187;</text></g><!--link enviarHoras to login--><g class="link" data-entity-1="ent0008" data-entity-2="ent0005" data-link-type="dependency" data-source-line="29" id="lnk17"><path d="M338.88,305.6469 C361.71,308.8069 386.59,311.7169 409.65,313.2969 C438.47,315.2769 445.76,313.6069 474.65,313.2969 C501.13,313.0169 524.4216,312.5665 549.3316,311.9865" fill="none" id="enviarHoras-to-login" style="stroke:#181818;stroke-width:1;stroke-dasharray:7,7;"/><polygon fill="#181818" points="555.33,311.8469,546.2393,308.0575,550.3314,311.9633,546.4255,316.0553,555.33,311.8469" style="stroke:#181818;stroke-width:1;"/><text fill="#000000" font-family="sans-serif" font-size="13" lengthAdjust="spacing" textLength="63.0068" x="410.65" y="309.3638">&#171;include&#187;</text></g><!--link acompanhar to login--><g class="link" data-entity-1="ent0009" data-entity-2="ent0005" data-link-type="dependency" data-source-line="30" id="lnk18"><path d="M327.38,401.9069 C402.59,377.9169 513.3537,342.58 572.1737,323.82" fill="none" id="acompanhar-to-login" style="stroke:#181818;stroke-width:1;stroke-dasharray:7,7;"/><polygon fill="#181818" points="577.89,321.9969,568.1001,320.9207,573.1264,323.5162,570.531,328.5425,577.89,321.9969" style="stroke:#181818;stroke-width:1;"/><text fill="#000000" font-family="sans-serif" font-size="13" lengthAdjust="spacing" textLength="63.0068" x="410.65" y="353.3638">&#171;include&#187;</text></g><!--link iniciar to enviar--><g class="link" data-entity-1="ent0007" data-entity-2="ent0006" data-link-type="dependency" data-source-line="32" id="lnk19"><path d="M317.52,187.5169 C345.48,183.8769 379.19,180.0869 409.65,178.2969 C438.48,176.5969 445.79,176.9569 474.65,178.2969 C498.77,179.4169 519.1883,181.0348 542.4783,183.3048" fill="none" id="iniciar-to-enviar" style="stroke:#181818;stroke-width:1;stroke-dasharray:7,7;"/><polygon fill="#181818" points="548.45,183.8869,539.8805,179.0327,543.4736,183.4018,539.1044,186.9949,548.45,183.8869" style="stroke:#181818;stroke-width:1;"/><text fill="#000000" font-family="sans-serif" font-size="13" lengthAdjust="spacing" textLength="63.0068" x="410.65" y="173.3638">&#171;include&#187;</text></g><!--link enviarHoras to enviar--><g class="link" data-entity-1="ent0008" data-entity-2="ent0006" data-link-type="dependency" data-source-line="33" id="lnk20"><path d="M348.67,282.7569 C388.01,277.2269 434.16,268.7969 474.65,256.2969 C514.82,243.8869 553.0565,225.1002 580.7065,210.2202" fill="none" id="enviarHoras-to-enviar" style="stroke:#181818;stroke-width:1;stroke-dasharray:7,7;"/><polygon fill="#181818" points="585.99,207.3769,576.1692,208.1196,581.5871,209.7463,579.9603,215.1642,585.99,207.3769" style="stroke:#181818;stroke-width:1;"/><text fill="#000000" font-family="sans-serif" font-size="13" lengthAdjust="spacing" textLength="63.0068" x="410.65" y="252.3638">&#171;include&#187;</text></g><!--reverse link acompanhar to download--><g class="link" data-entity-1="ent0009" data-entity-2="ent0010" data-link-type="dependency" data-source-line="35" id="lnk21"><path d="M317.159,451.3172 C345.979,463.8972 376.65,476.5769 409.65,488.2969 C453.31,503.7969 503.19,518.4669 542.8,529.4169" fill="none" id="acompanhar-backto-download" style="stroke:#181818;stroke-width:1;stroke-dasharray:7,7;"/><polygon fill="#181818" points="311.66,448.9169,318.3082,456.1833,316.2425,450.9171,321.5086,448.8514,311.66,448.9169" style="stroke:#181818;stroke-width:1;"/><text fill="#000000" font-family="sans-serif" font-size="13" lengthAdjust="spacing" textLength="61.1851" x="411.65" y="484.3638">&#171;extend&#187;</text></g><!--reverse link acompanhar to visualizarDoc--><g class="link" data-entity-1="ent0009" data-entity-2="ent0011" data-link-type="dependency" data-source-line="36" id="lnk22"><path d="M347.3831,445.3942 C369.4431,450.0042 387.41,453.2169 409.65,456.2969 C450.79,461.9969 496.93,465.4069 534.98,467.4269" fill="none" id="acompanhar-backto-visualizarDoc" style="stroke:#181818;stroke-width:1;stroke-dasharray:7,7;"/><polygon fill="#181818" points="341.51,444.1669,349.5015,449.9233,346.4043,445.1897,351.1379,442.0925,341.51,444.1669" style="stroke:#181818;stroke-width:1;"/><text fill="#000000" font-family="sans-serif" font-size="13" lengthAdjust="spacing" textLength="61.1851" x="411.65" y="452.3638">&#171;extend&#187;</text></g><!--reverse link acompanhar to reportarErro--><g class="link" data-entity-1="ent0009" data-entity-2="ent0012" data-link-type="dependency" data-source-line="37" id="lnk23"><path d="M382.7295,430.5541 C414.5995,430.9641 442.97,430.2169 474.65,427.2969 C505.89,424.4169 540.56,417.9969 567.58,412.2569" fill="none" id="acompanhar-backto-reportarErro" style="stroke:#181818;stroke-width:1;stroke-dasharray:7,7;"/><polygon fill="#181818" points="376.73,430.4769,385.6778,434.5923,381.7296,430.5412,385.7807,426.593,376.73,430.4769" style="stroke:#181818;stroke-width:1;"/><text fill="#000000" font-family="sans-serif" font-size="13" lengthAdjust="spacing" textLength="61.1851" x="411.65" y="423.3638">&#171;extend&#187;</text></g><?plantuml-src XP5VQi904CRVznH3tlK0HGHHImijYDA-3vinBguxiZknLkbXUWQFuCMQJKB-I6qX3yatl_c-cOaOiGHJ31mW9NWB30DOe6OXcDZSiRAq5X06RxADG6eyQJ7iLDWQjqUFEzYZtc96A_aih68PNMP9ATJ27fBI9W4CWAMXQX185XO5r-nt6DFdGQxVcU6Gm5cfsXQIr-ibpIr3ob1xdLKUI6CeYezu8Wyld1bNPjZurfOdZexeOSfEF4er1hc3GQzQwDaPNIYmyAmfX8eobTXIyx8DbbJCVBrumt7a9_OOEgxbToTUyswFRbFqhGGb3t69NWmsXBfTQiOVpZAciQUtG5eNsePt4tAqvdIxwg7HPwnRV4bxzbB0S-yhqDTA5DINYa_vjs0m63UdQ9NkigtQtQNkWU5mNFqJU83Ho3XjyvJ6OzLnkCkqVdUHNaxb-K_Ghr0tQZGSDXSkCJeAkRG_JuHwn_sJx5wt1_u0?></g></svg>