<svg xmlns="http://www.w3.org/2000/svg" xmlns:xlink="http://www.w3.org/1999/xlink" contentStyleType="text/css" data-diagram-type="DESCRIPTION" height="1380px" preserveAspectRatio="none" style="width:664px;height:1380px;background:#FFFFFF;" version="1.1" viewBox="0 0 664 1380" width="664px" zoomAndPan="magnify"><?plantuml 1.2026.3beta6?><defs/><g><g class="title" data-source-line="1"><text fill="#000000" font-family="sans-serif" font-size="14" font-weight="700" lengthAdjust="spacing" textLength="347.7852" x="154.8519" y="22.9951">Sistema de Gest&#227;o de Est&#225;gios Obrigat&#243;rios</text></g><!--cluster Plataforma de Est?gios--><g class="cluster" data-qualified-name="Plataforma de Est.gios" data-source-line="12" id="ent0006"><rect fill="none" height="1322" rx="2.5" ry="2.5" style="stroke:#181818;stroke-width:1;" width="367.57" x="118.46" y="44.2969"/><text fill="#000000" font-family="sans-serif" font-size="14" font-weight="700" lengthAdjust="spacing" textLength="183.3672" x="210.5614" y="59.292">Plataforma de Est&#225;gios</text></g><!--cluster Comum--><g class="cluster" data-qualified-name="Plataforma de Est.gios.Comum" data-source-line="14" id="ent0007"><rect fill="none" height="540" rx="2.5" ry="2.5" style="stroke:#181818;stroke-width:1;" width="278.87" x="162.81" y="192.2969"/><text fill="#000000" font-family="sans-serif" font-size="14" font-weight="700" lengthAdjust="spacing" textLength="59.0352" x="272.7274" y="207.292">Comum</text></g><!--cluster Aluno--><g class="cluster" data-qualified-name="Plataforma de Est.gios.Aluno" data-source-line="24" id="ent0015"><rect fill="none" height="81" rx="2.5" ry="2.5" style="stroke:#181818;stroke-width:1;" width="162.97" x="220.76" y="87.2969"/><text fill="#000000" font-family="sans-serif" font-size="14" font-weight="700" lengthAdjust="spacing" textLength="45.1855" x="279.6522" y="102.292">Aluno</text></g><!--cluster Secretaria--><g class="cluster" data-qualified-name="Plataforma de Est.gios.Secretaria" data-source-line="28" id="ent0017"><rect fill="none" height="481" rx="2.5" ry="2.5" style="stroke:#181818;stroke-width:1;" width="319.57" x="142.46" y="756.2969"/><text fill="#000000" font-family="sans-serif" font-size="14" font-weight="700" lengthAdjust="spacing" textLength="81.5664" x="261.4618" y="771.292">Secretaria</text></g><!--cluster Coordena??o--><g class="cluster" data-qualified-name="Plataforma de Est.gios.Coordena..o" data-source-line="37" id="ent0024"><rect fill="none" height="81" rx="2.5" ry="2.5" style="stroke:#181818;stroke-width:1;" width="162.65" x="220.92" y="1261.2969"/><text fill="#000000" font-family="sans-serif" font-size="14" font-weight="700" lengthAdjust="spacing" textLength="102.71" x="250.89" y="1276.292">Coordena&#231;&#227;o</text></g><!--entity acompanhar--><g class="entity" data-qualified-name="Plataforma de Est.gios.Comum.acompanhar" data-source-line="15" id="ent0008"><ellipse cx="302.2438" cy="556.2936" fill="#F1F1F1" rx="123.4338" ry="27.0868" style="stroke:#181818;stroke-width:0.5;"/><text fill="#000000" font-family="sans-serif" font-size="14" lengthAdjust="spacing" textLength="226.666" x="188.9108" y="560.9421">Acompanhar Status do Processo</text></g><!--entity enviar--><g class="entity" data-qualified-name="Plataforma de Est.gios.Comum.enviar" data-source-line="16" id="ent0009"><ellipse cx="302.2406" cy="475.295" fill="#F1F1F1" rx="81.9406" ry="18.7881" style="stroke:#181818;stroke-width:0.5;"/><text fill="#000000" font-family="sans-serif" font-size="14" lengthAdjust="spacing" textLength="135.2285" x="234.6263" y="479.9434">Anexar Documento</text></g><!--entity download--><g class="entity" data-qualified-name="Plataforma de Est.gios.Comum.download" data-source-line="17" id="ent0010"><ellipse cx="302.2362" cy="395.2921" fill="#F1F1F1" rx="120.2262" ry="26.4452" style="stroke:#181818;stroke-width:0.5;"/><text fill="#000000" font-family="sans-serif" font-size="14" lengthAdjust="spacing" textLength="219.8369" x="192.3178" y="399.9406">Fazer Download do Documento</text></g><!--entity iniciar--><g class="entity" data-qualified-name="Plataforma de Est.gios.Comum.iniciar" data-source-line="18" id="ent0011"><ellipse cx="302.2423" cy="317.2953" fill="#F1F1F1" rx="71.2423" ry="16.6485" style="stroke:#181818;stroke-width:0.5;"/><text fill="#000000" font-family="sans-serif" font-size="14" lengthAdjust="spacing" textLength="109.4912" x="247.4967" y="321.9438">Iniciar Processo</text></g><!--entity enviarHoras--><g class="entity" data-qualified-name="Plataforma de Est.gios.Comum.enviarHoras" data-source-line="19" id="ent0012"><ellipse cx="302.2432" cy="635.2975" fill="#F1F1F1" rx="72.1532" ry="16.8306" style="stroke:#181818;stroke-width:0.5;"/><text fill="#000000" font-family="sans-serif" font-size="14" lengthAdjust="spacing" textLength="111.7539" x="246.3662" y="639.9459">Enviar Relat&#243;rio</text></g><!--entity login--><g class="entity" data-qualified-name="Plataforma de Est.gios.Comum.login" data-source-line="20" id="ent0013"><ellipse cx="302.2444" cy="701.3005" fill="#F1F1F1" rx="60.1444" ry="14.5236" style="stroke:#181818;stroke-width:0.5;"/><text fill="#000000" font-family="sans-serif" font-size="14" lengthAdjust="spacing" textLength="80.8145" x="261.8372" y="705.9489">Fazer Login</text></g><!--entity analisarDoc--><g class="entity" data-qualified-name="Plataforma de Est.gios.Comum.analisarDoc" data-source-line="21" id="ent0014"><ellipse cx="302.2416" cy="246.2972" fill="#F1F1F1" rx="84.8516" ry="19.3703" style="stroke:#181818;stroke-width:0.5;"/><text fill="#000000" font-family="sans-serif" font-size="14" lengthAdjust="spacing" textLength="141.9824" x="231.2503" y="250.9456">Analisar Documento</text></g><!--entity reportarErro--><g class="entity" data-qualified-name="Plataforma de Est.gios.Aluno.reportarErro" data-source-line="25" id="ent0016"><ellipse cx="302.243" cy="137.2935" fill="#F1F1F1" rx="65.483" ry="15.4966" style="stroke:#181818;stroke-width:0.5;"/><text fill="#000000" font-family="sans-serif" font-size="14" lengthAdjust="spacing" textLength="94.7461" x="254.87" y="141.9419">Reportar Erro</text></g><!--entity validarDoc--><g class="entity" data-qualified-name="Plataforma de Est.gios.Secretaria.validarDoc" data-source-line="29" id="ent0018"><ellipse cx="302.2353" cy="1202.2999" fill="#F1F1F1" rx="81.7153" ry="18.7431" style="stroke:#181818;stroke-width:0.5;"/><text fill="#000000" font-family="sans-serif" font-size="14" lengthAdjust="spacing" textLength="134.7021" x="234.8842" y="1206.9484">Validar Documento</text></g><!--entity reprovarJustificativa--><g class="entity" data-qualified-name="Plataforma de Est.gios.Secretaria.reprovarJustificativa" data-source-line="30" id="ent0019"><ellipse cx="302.2377" cy="1117.2944" fill="#F1F1F1" rx="143.7877" ry="31.1575" style="stroke:#181818;stroke-width:0.5;"/><text fill="#000000" font-family="sans-serif" font-size="14" lengthAdjust="spacing" textLength="269.5273" x="167.474" y="1121.9429">Reprovar Documento com Justificativa</text></g><!--entity pesquisarAlunos--><g class="entity" data-qualified-name="Plataforma de Est.gios.Secretaria.pesquisarAlunos" data-source-line="31" id="ent0020"><ellipse cx="302.2429" cy="1033.2995" fill="#F1F1F1" rx="74.7629" ry="17.3526" style="stroke:#181818;stroke-width:0.5;"/><text fill="#000000" font-family="sans-serif" font-size="14" lengthAdjust="spacing" textLength="118.1523" x="243.1668" y="1037.9479">Pesquisar alunos</text></g><!--entity cadastrarAluno--><g class="entity" data-qualified-name="Plataforma de Est.gios.Secretaria.cadastrarAluno" data-source-line="32" id="ent0021"><ellipse cx="302.2422" cy="964.3013" fill="#F1F1F1" rx="72.2222" ry="16.8444" style="stroke:#181818;stroke-width:0.5;"/><text fill="#000000" font-family="sans-serif" font-size="14" lengthAdjust="spacing" textLength="111.9248" x="246.2798" y="968.9498">Cadastrar aluno</text></g><!--entity encerrar--><g class="entity" data-qualified-name="Plataforma de Est.gios.Secretaria.encerrar" data-source-line="33" id="ent0022"><ellipse cx="302.2357" cy="894.296" fill="#F1F1F1" rx="78.4457" ry="18.0891" style="stroke:#181818;stroke-width:0.5;"/><text fill="#000000" font-family="sans-serif" font-size="14" lengthAdjust="spacing" textLength="126.998" x="238.7367" y="898.9445">Encerrar processo</text></g><!--entity pesquisarStatus--><g class="entity" data-qualified-name="Plataforma de Est.gios.Secretaria.pesquisarStatus" data-source-line="35" id="ent0023"><ellipse cx="302.2382" cy="816.2945" fill="#F1F1F1" rx="113.0382" ry="25.0076" style="stroke:#181818;stroke-width:0.5;"/><text fill="#000000" font-family="sans-serif" font-size="14" lengthAdjust="spacing" textLength="204.4355" x="200.0204" y="820.9429">Pesquisar Status da empresa</text></g><!--entity validarHoras--><g class="entity" data-qualified-name="Plataforma de Est.gios.Coordena..o.validarHoras" data-source-line="38" id="ent0025"><ellipse cx="302.2351" cy="1311.2919" fill="#F1F1F1" rx="65.3251" ry="15.465" style="stroke:#181818;stroke-width:0.5;"/><text fill="#000000" font-family="sans-serif" font-size="14" lengthAdjust="spacing" textLength="94.3291" x="255.0706" y="1315.9403">Validar Horas</text></g><!--entity aluno--><g class="entity" data-qualified-name="aluno" data-source-line="5" id="ent0002"><ellipse cx="52.2292" cy="445.6469" fill="#F1F1F1" rx="8" ry="8" style="stroke:#181818;stroke-width:0.5;"/><path d="M52.2292,453.6469 L52.2292,480.6469 M39.2292,461.6469 L65.2292,461.6469 M52.2292,480.6469 L39.2292,495.6469 M52.2292,480.6469 L65.2292,495.6469" fill="none" style="stroke:#181818;stroke-width:0.5;"/><text fill="#000000" font-family="sans-serif" font-size="14" lengthAdjust="spacing" textLength="39.7783" x="32.34" y="510.142">Aluno</text></g><!--entity sec--><g class="entity" data-qualified-name="sec" data-source-line="6" id="ent0003"><ellipse cx="52.2297" cy="671.6469" fill="#F1F1F1" rx="8" ry="8" style="stroke:#181818;stroke-width:0.5;"/><path d="M52.2297,679.6469 L52.2297,706.6469 M39.2297,687.6469 L65.2297,687.6469 M52.2297,706.6469 L39.2297,721.6469 M52.2297,706.6469 L65.2297,721.6469" fill="none" style="stroke:#181818;stroke-width:0.5;"/><text fill="#000000" font-family="sans-serif" font-size="14" lengthAdjust="spacing" textLength="71.8594" x="16.3" y="736.142">Secretaria</text></g><!--entity coord--><g class="entity" data-qualified-name="coord" data-source-line="7" id="ent0004"><ellipse cx="52.228" cy="1281.6469" fill="#F1F1F1" rx="8" ry="8" style="stroke:#181818;stroke-width:0.5;"/><path d="M52.228,1289.6469 L52.228,1316.6469 M39.228,1297.6469 L65.228,1297.6469 M52.228,1316.6469 L39.228,1331.6469 M52.228,1316.6469 L65.228,1331.6469" fill="none" style="stroke:#181818;stroke-width:0.5;"/><text fill="#000000" font-family="sans-serif" font-size="14" lengthAdjust="spacing" textLength="92.4561" x="6" y="1346.142">Coordena&#231;&#227;o</text></g><!--entity ia--><g class="entity" data-qualified-name="ia" data-source-line="10" id="ent0005"><ellipse cx="577.7595" cy="509.7938" fill="#F1F1F1" rx="8" ry="8" style="stroke:#181818;stroke-width:0.5;"/><path d="M577.7595,517.7938 L577.7595,544.7938 M564.7595,525.7938 L590.7595,525.7938 M577.7595,544.7938 L564.7595,559.7938 M577.7595,544.7938 L590.7595,559.7938" fill="none" style="stroke:#181818;stroke-width:0.5;"/><text fill="#000000" font-family="sans-serif" font-size="14" lengthAdjust="spacing" textLength="143.459" x="506.03" y="574.2889">Intelig&#234;ncia Artificial</text><text fill="#000000" font-family="sans-serif" font-size="14" font-style="italic" lengthAdjust="spacing" textLength="73.5205" x="540.9992" y="497.992">&#171;Sistema&#187;</text></g><!--link aluno to iniciar--><g class="link" data-entity-1="ent0002" data-entity-2="ent0011" data-link-type="dependency" data-source-line="44" id="lnk26"><path d="M60.99,436.8369 C68.7,408.7869 83.43,372.1569 110.46,351.2969 C144.68,324.8769 186.6269,316.7039 225.8869,314.8239" fill="none" id="aluno-to-iniciar" style="stroke:#181818;stroke-width:1;"/><polygon fill="#181818" points="231.88,314.5369,222.699,310.9719,226.8857,314.776,223.0816,318.9628,231.88,314.5369" style="stroke:#181818;stroke-width:1;"/></g><!--link aluno to enviar--><g class="link" data-entity-1="ent0002" data-entity-2="ent0009" data-link-type="dependency" data-source-line="45" id="lnk27"><path d="M72.28,475.2969 C103.53,475.2969 161.44,475.2969 213.82,475.2969" fill="none" id="aluno-to-enviar" style="stroke:#181818;stroke-width:1;"/><polygon fill="#181818" points="219.82,475.2969,210.82,471.2969,214.82,475.2969,210.82,479.2969,219.82,475.2969" style="stroke:#181818;stroke-width:1;"/></g><!--link aluno to acompanhar--><g class="link" data-entity-1="ent0002" data-entity-2="ent0008" data-link-type="dependency" data-source-line="46" id="lnk28"><path d="M72.47,489.6569 C83.18,497.0569 97.03,505.6769 110.46,511.2969 C139.81,523.5869 167.3165,531.5893 197.8365,538.4593" fill="none" id="aluno-to-acompanhar" style="stroke:#181818;stroke-width:1;"/><polygon fill="#181818" points="203.69,539.7769,195.7881,533.8981,198.8121,538.6789,194.0313,541.7028,203.69,539.7769" style="stroke:#181818;stroke-width:1;"/></g><!--link aluno to reportarErro--><g class="link" data-entity-1="ent0002" data-entity-2="ent0016" data-link-type="dependency" data-source-line="47" id="lnk29"><path d="M57.11,436.6669 C64.33,371.8169 81.78,244.8569 110.46,211.2969 C144.04,171.9969 195.1987,154.6546 238.1787,145.9746" fill="none" id="aluno-to-reportarErro" style="stroke:#181818;stroke-width:1;"/><polygon fill="#181818" points="244.06,144.7869,234.4463,142.6477,239.1589,145.7767,236.0299,150.4893,244.06,144.7869" style="stroke:#181818;stroke-width:1;"/></g><!--link aluno to download--><g class="link" data-entity-1="ent0002" data-entity-2="ent0010" data-link-type="dependency" data-source-line="48" id="lnk30"><path d="M72.46,460.9069 C83.17,453.5069 97.02,444.8869 110.46,439.2969 C140.12,426.9669 168.0184,419.0181 198.8084,412.2881" fill="none" id="aluno-to-download" style="stroke:#181818;stroke-width:1;"/><polygon fill="#181818" points="204.67,411.0069,195.0234,409.021,199.7853,412.0746,196.7317,416.8364,204.67,411.0069" style="stroke:#181818;stroke-width:1;"/></g><!--link aluno to enviarHoras--><g class="link" data-entity-1="ent0002" data-entity-2="ent0012" data-link-type="dependency" data-source-line="49" id="lnk31"><path d="M60.66,513.7669 C68.24,542.3369 82.94,579.9269 110.46,601.2969 C144.33,627.6069 185.7974,635.8496 224.9074,637.7896" fill="none" id="aluno-to-enviarHoras" style="stroke:#181818;stroke-width:1;"/><polygon fill="#181818" points="230.9,638.0869,222.1092,633.6459,225.9061,637.8392,221.7129,641.6361,230.9,638.0869" style="stroke:#181818;stroke-width:1;"/></g><!--link aluno to login--><g class="link" data-entity-1="ent0002" data-entity-2="ent0013" data-link-type="dependency" data-source-line="50" id="lnk32"><path d="M62.24,513.6669 C75.14,567.1669 98.63,658.8169 110.46,669.2969 C147.03,701.7069 197.6615,707.7409 239.7315,706.8009" fill="none" id="aluno-to-login" style="stroke:#181818;stroke-width:1;"/><polygon fill="#181818" points="245.73,706.6669,236.6429,702.8689,240.7312,706.7786,236.8216,710.8669,245.73,706.6669" style="stroke:#181818;stroke-width:1;"/></g><!--link sec to validarDoc--><g class="link" data-entity-1="ent0003" data-entity-2="ent0018" data-link-type="dependency" data-source-line="52" id="lnk33"><path d="M55.39,739.8069 C61.68,845.6769 81.42,1135.3369 110.46,1166.2969 C138.93,1196.6569 178.3452,1205.8572 217.7152,1207.4972" fill="none" id="sec-to-validarDoc" style="stroke:#181818;stroke-width:1;"/><polygon fill="#181818" points="223.71,1207.7469,214.8843,1203.3758,218.7143,1207.5388,214.5513,1211.3688,223.71,1207.7469" style="stroke:#181818;stroke-width:1;"/></g><!--link sec to pesquisarAlunos--><g class="link" data-entity-1="ent0003" data-entity-2="ent0020" data-link-type="dependency" data-source-line="53" id="lnk34"><path d="M55.38,739.9269 C60.21,811.9369 74.47,962.6269 110.46,998.2969 C141.55,1029.1169 184.2617,1037.5159 224.6817,1038.4659" fill="none" id="sec-to-pesquisarAlunos" style="stroke:#181818;stroke-width:1;"/><polygon fill="#181818" points="230.68,1038.6069,221.7765,1034.3965,225.6814,1038.4894,221.5885,1042.3943,230.68,1038.6069" style="stroke:#181818;stroke-width:1;"/></g><!--link sec to encerrar--><g class="link" data-entity-1="ent0003" data-entity-2="ent0022" data-link-type="dependency" data-source-line="54" id="lnk35"><path d="M56.5,739.9369 C61.72,776.3169 75.27,829.5169 110.46,859.2969 C141.69,885.7269 180.2618,894.5807 218.4618,896.9807" fill="none" id="sec-to-encerrar" style="stroke:#181818;stroke-width:1;"/><polygon fill="#181818" points="224.45,897.3569,215.7185,892.8004,219.4598,897.0434,215.2169,900.7847,224.45,897.3569" style="stroke:#181818;stroke-width:1;"/></g><!--link sec to cadastrarAluno--><g class="link" data-entity-1="ent0003" data-entity-2="ent0021" data-link-type="dependency" data-source-line="55" id="lnk36"><path d="M57.79,739.8169 C65.49,798.1069 82.97,904.6369 110.46,930.2969 C142.92,960.6069 186.631,968.5889 227.171,969.3189" fill="none" id="sec-to-cadastrarAluno" style="stroke:#181818;stroke-width:1;"/><polygon fill="#181818" points="233.17,969.4269,224.2435,965.2655,228.1708,969.3369,224.0994,973.2642,233.17,969.4269" style="stroke:#181818;stroke-width:1;"/></g><!--link sec to login--><g class="link" data-entity-1="ent0003" data-entity-2="ent0013" data-link-type="dependency" data-source-line="56" id="lnk37"><path d="M88.5,710.5269 C132.9,714.9469 203.1896,715.6914 251.3296,711.7914" fill="none" id="sec-to-login" style="stroke:#181818;stroke-width:1;"/><polygon fill="#181818" points="257.31,711.3069,248.0164,708.0467,252.3263,711.7106,248.6624,716.0206,257.31,711.3069" style="stroke:#181818;stroke-width:1;"/></g><!--link sec to login--><g class="link" data-entity-1="ent0003" data-entity-2="ent0013" data-link-type="dependency" data-source-line="62" id="lnk43"><path d="M88.5,691.5269 C133.43,686.7869 205.0337,686.0343 253.0637,690.3143" fill="none" id="sec-to-login-1" style="stroke:#181818;stroke-width:1;"/><polygon fill="#181818" points="259.04,690.8469,250.4306,686.0638,254.0597,690.4031,249.7205,694.0323,259.04,690.8469" style="stroke:#181818;stroke-width:1;"/></g><!--link sec to iniciar--><g class="link" data-entity-1="ent0003" data-entity-2="ent0011" data-link-type="dependency" data-source-line="57" id="lnk38"><path d="M65.72,662.9369 C76.28,628.7869 90.88,577.2469 98.46,531.2969 C101.71,511.5169 97.08,366.2269 110.46,351.2969 C141.55,316.5869 188.841,309.375 231.211,310.165" fill="none" id="sec-to-iniciar" style="stroke:#181818;stroke-width:1;"/><polygon fill="#181818" points="237.21,310.2769,228.2861,306.1098,232.2109,310.1837,228.137,314.1084,237.21,310.2769" style="stroke:#181818;stroke-width:1;"/></g><!--link sec to enviar--><g class="link" data-entity-1="ent0003" data-entity-2="ent0009" data-link-type="dependency" data-source-line="58" id="lnk39"><path d="M62.53,662.8669 C75.58,610.3869 98.99,521.6069 110.46,511.2969 C140.16,484.5869 177.2554,475.327 214.9654,472.617" fill="none" id="sec-to-enviar" style="stroke:#181818;stroke-width:1;"/><polygon fill="#181818" points="220.95,472.1869,211.6864,468.8423,215.9629,472.5453,212.2599,476.8217,220.95,472.1869" style="stroke:#181818;stroke-width:1;"/></g><!--link sec to acompanhar--><g class="link" data-entity-1="ent0003" data-entity-2="ent0008" data-link-type="dependency" data-source-line="59" id="lnk40"><path d="M66.45,662.7869 C75.63,641.6169 89.94,616.6169 110.46,601.2969 C133.09,584.3969 155.2707,575.1477 182.8007,568.4377" fill="none" id="sec-to-acompanhar" style="stroke:#181818;stroke-width:1;"/><polygon fill="#181818" points="188.63,567.0169,178.9388,565.2619,183.7722,568.2009,180.8332,573.0343,188.63,567.0169" style="stroke:#181818;stroke-width:1;"/></g><!--link sec to download--><g class="link" data-entity-1="ent0003" data-entity-2="ent0010" data-link-type="dependency" data-source-line="60" id="lnk41"><path d="M65.01,662.8069 C75.11,628.5669 89.44,576.9869 98.46,531.2969 C102.45,511.0669 96.6,454.5669 110.46,439.2969 C129.42,418.4069 150.3082,407.8476 177.7582,401.2076" fill="none" id="sec-to-download" style="stroke:#181818;stroke-width:1;"/><polygon fill="#181818" points="183.59,399.7969,173.9018,398.025,178.7302,400.9724,175.7827,405.8008,183.59,399.7969" style="stroke:#181818;stroke-width:1;"/></g><!--link sec to enviarHoras--><g class="link" data-entity-1="ent0003" data-entity-2="ent0012" data-link-type="dependency" data-source-line="61" id="lnk42"><path d="M88.38,679.2469 C95.49,675.4769 103.06,671.9369 110.46,669.2969 C150.54,654.9769 191.641,647.2873 228.991,642.3873" fill="none" id="sec-to-enviarHoras" style="stroke:#181818;stroke-width:1;"/><polygon fill="#181818" points="234.94,641.6069,225.4962,638.8116,229.9825,642.2573,226.5368,646.7436,234.94,641.6069" style="stroke:#181818;stroke-width:1;"/></g><!--reverse link analisarDoc to ia--><g class="link" data-entity-1="ent0014" data-entity-2="ent0005" data-link-type="dependency" data-source-line="64" id="lnk44"><path d="M393.0349,244.9055 C429.7349,248.2755 464.99,257.8169 494.03,283.2969 C552.54,334.6369 569.79,428.4869 574.8,484.8569" fill="none" id="analisarDoc-backto-ia" style="stroke:#181818;stroke-width:1;"/><polygon fill="#181818" points="387.06,244.3569,395.6565,249.1631,392.0391,244.8141,396.3881,241.1966,387.06,244.3569" style="stroke:#181818;stroke-width:1;"/></g><!--reverse link pesquisarStatus to ia--><g class="link" data-entity-1="ent0023" data-entity-2="ent0005" data-link-type="dependency" data-source-line="65" id="lnk45"><path d="M384.7433,795.743 C423.3733,782.893 462.94,764.1569 494.03,732.2969 C535.81,689.4969 557.57,622.6469 568.08,577.9269" fill="none" id="pesquisarStatus-backto-ia" style="stroke:#181818;stroke-width:1;"/><polygon fill="#181818" points="379.05,797.6369,388.8525,798.5916,383.7944,796.0587,386.3274,791.0006,379.05,797.6369" style="stroke:#181818;stroke-width:1;"/></g><!--link coord to validarHoras--><g class="link" data-entity-1="ent0004" data-entity-2="ent0025" data-link-type="dependency" data-source-line="67" id="lnk46"><path d="M98.72,1311.2969 C137.31,1311.2969 187.15,1311.2969 230.42,1311.2969" fill="none" id="coord-to-validarHoras" style="stroke:#181818;stroke-width:1;"/><polygon fill="#181818" points="236.42,1311.2969,227.42,1307.2969,231.42,1311.2969,227.42,1315.2969,236.42,1311.2969" style="stroke:#181818;stroke-width:1;"/></g><?plantuml-src dLHBZjGm4Dtx5ANUiEeRj4Pg3GtC28dMjCI-IAeprYHsA3lDJnm6iK1Yon7wOlWREnbMI5dOhrxzdsEbxGbEqbWQ45g2rsJizQVsnuCx_UYaDl3k0yiExVKFkvlewMp1Qd3OeuLMCZLMQYNCarGZCWumOlE47Pti5nVScr5rFGc1ZTKCctq_ARq1D83-bE4JDKmMMMAm6MgovLPhRadXzPShBHWRZmZn0Z83cKaoccZDjnpWJbdgPNVzhHg9i6ShpzAT-i1so6wNHd1p8yHSC6oEFLeyQuwpcGUoWMz2f2PzTSCqU6Xo9QDnoBxHmuZg4HbE5kraeDLmPDsGCQdncL5vAVhiF5xgPXf8sKWaTP4rwHL-9S_vf7gDhO-xvBV9KZpkb6-Lb_bb10lh4FB00_LfprNsDzgFSbN2Mzr95KYzFzLjO2_DiqOmmGuLudkPNX93DRq76ZKx7S21EVfoGZpWV8jpBPagmdkNgdrMmIMYle0w5-jBJNNI6k1-Ca4YQEK5Smc1kB2KE4So7wVGTP1qbE6OmT1ZDS5RRD5OpkoasOG5ShsOXjXJntf_bD3_YrcgpV94e65aChWiF9hhTQsUuZ-67jHI3ppAn-_DVQ4us6vlPWaM96cz0DKhAU1230MUXR-E5zCNDCfLkBB3jL95XjPxo_Wyz0oivflXc27VSfybogM-LZrcQ6vbwH8RMIOHrRE2tNRhVcPYjRqCY_3Fh7iE0Vy2?></g></svg>