<svg xmlns="http://www.w3.org/2000/svg" xmlns:xlink="http://www.w3.org/1999/xlink" contentStyleType="text/css" data-diagram-type="ACTIVITY" height="586px" preserveAspectRatio="none" style="width:1155px;height:586px;background:#FFFFFF;" version="1.1" viewBox="0 0 1155 586" width="1155px" zoomAndPan="magnify"><?plantuml 1.2026.3beta6?><defs/><g><rect fill="none" height="20.9531" style="stroke:none;stroke-width:1;" width="1108.562" x="20" y="17.7451"/><ellipse cx="141.1758" cy="53.6982" fill="#222222" rx="10" ry="10" style="stroke:#222222;stroke-width:1;"/><rect fill="#F1F1F1" height="47.9375" rx="12.5" ry="12.5" style="stroke:#181818;stroke-width:0.5;" width="230.3516" x="26" y="83.6982"/><text fill="#000000" font-family="sans-serif" font-size="12" lengthAdjust="spacing" textLength="165.2578" x="36" y="104.8369">Aluno aprovado em est&#225;gio</text><text fill="#000000" font-family="sans-serif" font-size="12" lengthAdjust="spacing" textLength="210.3516" x="36" y="118.8057">entra em contato com a Secretaria</text><rect fill="#F1F1F1" height="33.9688" rx="12.5" ry="12.5" style="stroke:#181818;stroke-width:0.5;" width="190.5488" x="45.9014" y="367.5107"/><text fill="#000000" font-family="sans-serif" font-size="12" lengthAdjust="spacing" textLength="170.5488" x="55.9014" y="388.6494">Realiza o per&#237;odo de est&#225;gio</text><line style="stroke:#000000;stroke-width:1.5;" x1="20" x2="20" y1="17.7451" y2="565.3857"/><rect fill="#F1F1F1" height="33.9688" rx="12.5" ry="12.5" style="stroke:#181818;stroke-width:0.5;" width="298.9883" x="266.3516" y="151.6357"/><text fill="#000000" font-family="sans-serif" font-size="12" lengthAdjust="spacing" textLength="278.9883" x="276.3516" y="172.7744">Envia contrato para aluno repassar &#224; empresa</text><rect fill="#F1F1F1" height="33.9688" rx="12.5" ry="12.5" style="stroke:#181818;stroke-width:0.5;" width="122.7559" x="354.4678" y="259.5732"/><text fill="#000000" font-family="sans-serif" font-size="12" lengthAdjust="spacing" textLength="102.7559" x="364.4678" y="280.7119">Valida o contrato</text><line style="stroke:#000000;stroke-width:1.5;" x1="260.3516" x2="260.3516" y1="17.7451" y2="565.3857"/><rect fill="#F1F1F1" height="33.9688" rx="12.5" ry="12.5" style="stroke:#181818;stroke-width:0.5;" width="141.6816" x="575.3398" y="205.6045"/><text fill="#000000" font-family="sans-serif" font-size="12" lengthAdjust="spacing" textLength="121.6816" x="585.3398" y="226.7432">Preenche o contrato</text><line style="stroke:#000000;stroke-width:1.5;" x1="569.3398" x2="569.3398" y1="17.7451" y2="565.3857"/><rect fill="#F1F1F1" height="33.9688" rx="12.5" ry="12.5" style="stroke:#181818;stroke-width:0.5;" width="195.0137" x="727.0215" y="313.542"/><text fill="#000000" font-family="sans-serif" font-size="12" lengthAdjust="spacing" textLength="175.0137" x="737.0215" y="334.6807">Guarda para controle interno</text><line style="stroke:#000000;stroke-width:1.5;" x1="721.0215" x2="721.0215" y1="17.7451" y2="565.3857"/><rect fill="#F1F1F1" height="47.9375" rx="12.5" ry="12.5" style="stroke:#181818;stroke-width:0.5;" width="190.666" x="932.0352" y="421.4795"/><text fill="#000000" font-family="sans-serif" font-size="12" lengthAdjust="spacing" textLength="170.666" x="942.0352" y="442.6182">Compara per&#237;odo de est&#225;gio</text><text fill="#000000" font-family="sans-serif" font-size="12" lengthAdjust="spacing" textLength="91.1836" x="942.0352" y="456.5869">com o contrato</text><rect fill="#F1F1F1" height="33.9688" rx="12.5" ry="12.5" style="stroke:#181818;stroke-width:0.5;" width="111.9219" x="971.4072" y="489.417"/><text fill="#000000" font-family="sans-serif" font-size="12" lengthAdjust="spacing" textLength="91.9219" x="981.4072" y="510.5557">Valida as horas</text><ellipse cx="1027.3682" cy="554.3857" fill="none" rx="11" ry="11" style="stroke:#222222;stroke-width:1;"/><ellipse cx="1027.3682" cy="554.3857" fill="#222222" rx="6" ry="6" style="stroke:#222222;stroke-width:1;"/><line style="stroke:#000000;stroke-width:1.5;" x1="926.0352" x2="926.0352" y1="17.7451" y2="565.3857"/><line style="stroke:#000000;stroke-width:1.5;" x1="1126.7012" x2="1126.7012" y1="17.7451" y2="565.3857"/><line style="stroke:#181818;stroke-width:1;" x1="141.1758" x2="141.1758" y1="63.6982" y2="83.6982"/><polygon fill="#181818" points="137.1758,73.6982,141.1758,83.6982,145.1758,73.6982,141.1758,77.6982" style="stroke:#181818;stroke-width:1;"/><line style="stroke:#181818;stroke-width:1;" x1="1027.3682" x2="1027.3682" y1="469.417" y2="489.417"/><polygon fill="#181818" points="1023.3682,479.417,1027.3682,489.417,1031.3682,479.417,1027.3682,483.417" style="stroke:#181818;stroke-width:1;"/><line style="stroke:#181818;stroke-width:1;" x1="1027.3682" x2="1027.3682" y1="523.3857" y2="543.3857"/><polygon fill="#181818" points="1023.3682,533.3857,1027.3682,543.3857,1031.3682,533.3857,1027.3682,537.3857" style="stroke:#181818;stroke-width:1;"/><line style="stroke:#181818;stroke-width:1;" x1="141.1758" x2="141.1758" y1="131.6357" y2="136.6357"/><line style="stroke:#181818;stroke-width:1;" x1="141.1758" x2="415.8457" y1="136.6357" y2="136.6357"/><line style="stroke:#181818;stroke-width:1;" x1="415.8457" x2="415.8457" y1="136.6357" y2="151.6357"/><polygon fill="#181818" points="411.8457,141.6357,415.8457,151.6357,419.8457,141.6357,415.8457,145.6357" style="stroke:#181818;stroke-width:1;"/><line style="stroke:#181818;stroke-width:1;" x1="415.8457" x2="415.8457" y1="185.6045" y2="190.6045"/><line style="stroke:#181818;stroke-width:1;" x1="415.8457" x2="646.1807" y1="190.6045" y2="190.6045"/><line style="stroke:#181818;stroke-width:1;" x1="646.1807" x2="646.1807" y1="190.6045" y2="205.6045"/><polygon fill="#181818" points="642.1807,195.6045,646.1807,205.6045,650.1807,195.6045,646.1807,199.6045" style="stroke:#181818;stroke-width:1;"/><line style="stroke:#181818;stroke-width:1;" x1="646.1807" x2="646.1807" y1="239.5732" y2="244.5732"/><line style="stroke:#181818;stroke-width:1;" x1="646.1807" x2="415.8457" y1="244.5732" y2="244.5732"/><line style="stroke:#181818;stroke-width:1;" x1="415.8457" x2="415.8457" y1="244.5732" y2="259.5732"/><polygon fill="#181818" points="411.8457,249.5732,415.8457,259.5732,419.8457,249.5732,415.8457,253.5732" style="stroke:#181818;stroke-width:1;"/><line style="stroke:#181818;stroke-width:1;" x1="415.8457" x2="415.8457" y1="293.542" y2="298.542"/><line style="stroke:#181818;stroke-width:1;" x1="415.8457" x2="824.5283" y1="298.542" y2="298.542"/><line style="stroke:#181818;stroke-width:1;" x1="824.5283" x2="824.5283" y1="298.542" y2="313.542"/><polygon fill="#181818" points="820.5283,303.542,824.5283,313.542,828.5283,303.542,824.5283,307.542" style="stroke:#181818;stroke-width:1;"/><line style="stroke:#181818;stroke-width:1;" x1="824.5283" x2="824.5283" y1="347.5107" y2="352.5107"/><line style="stroke:#181818;stroke-width:1;" x1="824.5283" x2="141.1758" y1="352.5107" y2="352.5107"/><line style="stroke:#181818;stroke-width:1;" x1="141.1758" x2="141.1758" y1="352.5107" y2="367.5107"/><polygon fill="#181818" points="137.1758,357.5107,141.1758,367.5107,145.1758,357.5107,141.1758,361.5107" style="stroke:#181818;stroke-width:1;"/><line style="stroke:#181818;stroke-width:1;" x1="141.1758" x2="141.1758" y1="401.4795" y2="406.4795"/><line style="stroke:#181818;stroke-width:1;" x1="141.1758" x2="1027.3682" y1="406.4795" y2="406.4795"/><line style="stroke:#181818;stroke-width:1;" x1="1027.3682" x2="1027.3682" y1="406.4795" y2="421.4795"/><polygon fill="#181818" points="1023.3682,411.4795,1027.3682,421.4795,1031.3682,411.4795,1027.3682,415.4795" style="stroke:#181818;stroke-width:1;"/><text fill="#000000" font-family="sans-serif" font-size="18" lengthAdjust="spacing" textLength="51.1436" x="114.604" y="34.4531">Aluno</text><text fill="#000000" font-family="sans-serif" font-size="18" lengthAdjust="spacing" textLength="92.3906" x="368.6504" y="34.4531">Secretaria</text><text fill="#000000" font-family="sans-serif" font-size="18" lengthAdjust="spacing" textLength="79.2158" x="605.5728" y="34.4531">Empresa</text><text fill="#000000" font-family="sans-serif" font-size="18" lengthAdjust="spacing" textLength="82.2832" x="782.3867" y="34.4531">Carreiras</text><text fill="#000000" font-family="sans-serif" font-size="18" lengthAdjust="spacing" textLength="118.8721" x="966.9321" y="34.4531">Coordena&#231;&#227;o</text><?plantuml-src RP11JWCn34NtEONFCQnGLR55hSJ-QyQYaMRYo4cxG7EO8XQiE4KkXcDAgO1LukZzPplh_NnCiePIeJKCNX6ooWcJ42_4fRRNvoY1KrNqbr5IHHKx5mBjULIsSCHT2EjFjOPXcquHZcldComFRw2SKGgKsjcCMRbuUljrjUYZCgVnm2JN_1_z4-OuuHUnWIf7HJ7WuGWrmFiw8pDJJ9KrENjPVTYncLwwAREs3x759xukxbOHdJYXlRUtdjZ8ujR_-D3_vNQexq5Hw20scGbBbVm9?></g></svg>