<svg xmlns="http://www.w3.org/2000/svg" xmlns:xlink="http://www.w3.org/1999/xlink" contentStyleType="text/css" data-diagram-type="MINDMAP" height="914px" preserveAspectRatio="none" style="width:995px;height:914px;background:#FFFFFF;" version="1.1" viewBox="0 0 995 914" width="995px" zoomAndPan="magnify"><?plantuml 1.2026.3beta6?><defs/><g><rect fill="#F1F1F1" height="36.2969" rx="12.5" ry="12.5" style="stroke:#181818;stroke-width:1.5;" width="88.2432" x="10" y="438.5234"/><text fill="#000000" font-family="sans-serif" font-size="14" lengthAdjust="spacing" textLength="68.2432" x="20" y="461.5186">Valida&#231;&#227;o</text><rect fill="#F1F1F1" height="36.2969" rx="12.5" ry="12.5" style="stroke:#181818;stroke-width:1.5;" width="88.3867" x="148.2432" y="325.9297"/><text fill="#000000" font-family="sans-serif" font-size="14" lengthAdjust="spacing" textLength="68.3867" x="158.2432" y="348.9248">Contratos</text><rect fill="#F1F1F1" height="36.2969" rx="12.5" ry="12.5" style="stroke:#181818;stroke-width:1.5;" width="130.2363" x="286.6299" y="140.7422"/><text fill="#000000" font-family="sans-serif" font-size="14" lengthAdjust="spacing" textLength="110.2363" x="296.6299" y="163.7373">Dados do Aluno</text><rect fill="#F1F1F1" height="36.2969" rx="12.5" ry="12.5" style="stroke:#181818;stroke-width:1.5;" width="126.4219" x="466.8662" y="20"/><text fill="#000000" font-family="sans-serif" font-size="14" lengthAdjust="spacing" textLength="106.4219" x="476.8662" y="42.9951">Nome do aluno</text><path d="M416.8662,158.8906 L426.8662,158.8906 C441.8662,158.8906 441.8662,38.1484 456.8662,38.1484 L466.8662,38.1484" fill="none" style="stroke:#181818;stroke-width:1;"/><rect fill="#F1F1F1" height="36.2969" rx="12.5" ry="12.5" style="stroke:#181818;stroke-width:1.5;" width="84.832" x="466.8662" y="76.2969"/><text fill="#000000" font-family="sans-serif" font-size="14" lengthAdjust="spacing" textLength="64.832" x="476.8662" y="99.292">Matr&#237;cula</text><path d="M416.8662,158.8906 L426.8662,158.8906 C441.8662,158.8906 441.8662,94.4453 456.8662,94.4453 L466.8662,94.4453" fill="none" style="stroke:#181818;stroke-width:1;"/><rect fill="#F1F1F1" height="36.2969" rx="12.5" ry="12.5" style="stroke:#181818;stroke-width:1.5;" width="46.2705" x="466.8662" y="132.5938"/><text fill="#000000" font-family="sans-serif" font-size="14" lengthAdjust="spacing" textLength="26.2705" x="476.8662" y="155.5889">CPF</text><path d="M416.8662,158.8906 L426.8662,158.8906 C441.8662,158.8906 441.8662,150.7422 456.8662,150.7422 L466.8662,150.7422" fill="none" style="stroke:#181818;stroke-width:1;"/><rect fill="#F1F1F1" height="36.2969" rx="12.5" ry="12.5" style="stroke:#181818;stroke-width:1.5;" width="60.2637" x="466.8662" y="188.8906"/><text fill="#000000" font-family="sans-serif" font-size="14" lengthAdjust="spacing" textLength="40.2637" x="476.8662" y="211.8857">Curso</text><path d="M416.8662,158.8906 L426.8662,158.8906 C441.8662,158.8906 441.8662,207.0391 456.8662,207.0391 L466.8662,207.0391" fill="none" style="stroke:#181818;stroke-width:1;"/><rect fill="#F1F1F1" height="52.5938" rx="12.5" ry="12.5" style="stroke:#181818;stroke-width:1.5;" width="507.4297" x="466.8662" y="245.1875"/><text fill="#000000" font-family="sans-serif" font-size="14" lengthAdjust="spacing" textLength="312.8945" x="476.8662" y="268.1826">Deve estar matriculado na disciplina Est&#225;gio</text><text fill="#000000" font-family="sans-serif" font-size="14" lengthAdjust="spacing" textLength="487.4297" x="476.8662" y="284.4795">(caso contr&#225;rio as horas n&#227;o ser&#227;o v&#225;lidas para "isentar" a disciplina)</text><path d="M416.8662,158.8906 L426.8662,158.8906 C441.8662,158.8906 441.8662,271.4844 456.8662,271.4844 L466.8662,271.4844" fill="none" style="stroke:#181818;stroke-width:1;"/><path d="M236.6299,344.0781 L246.6299,344.0781 C261.6299,344.0781 261.6299,158.8906 276.6299,158.8906 L286.6299,158.8906" fill="none" style="stroke:#181818;stroke-width:1;"/><rect fill="#F1F1F1" height="36.2969" rx="12.5" ry="12.5" style="stroke:#181818;stroke-width:1.5;" width="60.7217" x="286.6299" y="325.9297"/><text fill="#000000" font-family="sans-serif" font-size="14" lengthAdjust="spacing" textLength="40.7217" x="296.6299" y="348.9248">Datas</text><rect fill="#F1F1F1" height="52.5938" rx="12.5" ry="12.5" style="stroke:#181818;stroke-width:1.5;" width="489.9365" x="397.3516" y="317.7813"/><text fill="#000000" font-family="sans-serif" font-size="14" lengthAdjust="spacing" textLength="144.7715" x="407.3516" y="340.7764">Dura&#231;&#227;o: in&#237;cio e fim</text><text fill="#000000" font-family="sans-serif" font-size="14" lengthAdjust="spacing" textLength="469.9365" x="407.3516" y="357.0732">(aten&#231;&#227;o: aluno pode terminar a faculdade no meio desse per&#237;odo)</text><path d="M347.3516,344.0781 L357.3516,344.0781 C372.3516,344.0781 372.3516,344.0781 387.3516,344.0781 L397.3516,344.0781" fill="none" style="stroke:#181818;stroke-width:1;"/><path d="M236.6299,344.0781 L246.6299,344.0781 C261.6299,344.0781 261.6299,344.0781 276.6299,344.0781 L286.6299,344.0781" fill="none" style="stroke:#181818;stroke-width:1;"/><rect fill="#F1F1F1" height="36.2969" rx="12.5" ry="12.5" style="stroke:#181818;stroke-width:1.5;" width="76.875" x="286.6299" y="398.5234"/><text fill="#000000" font-family="sans-serif" font-size="14" lengthAdjust="spacing" textLength="56.875" x="296.6299" y="421.5186">Seguros</text><rect fill="#F1F1F1" height="52.5938" rx="12.5" ry="12.5" style="stroke:#181818;stroke-width:1.5;" width="361.0859" x="413.5049" y="390.375"/><text fill="#000000" font-family="sans-serif" font-size="14" lengthAdjust="spacing" textLength="132.8018" x="423.5049" y="413.3701">Ap&#243;lice de seguros</text><text fill="#000000" font-family="sans-serif" font-size="14" lengthAdjust="spacing" textLength="341.0859" x="423.5049" y="429.667">(obrigat&#243;rio &#8212; Ibmec n&#227;o paga seguro de aluno)</text><path d="M363.5049,416.6719 L373.5049,416.6719 C388.5049,416.6719 388.5049,416.6719 403.5049,416.6719 L413.5049,416.6719" fill="none" style="stroke:#181818;stroke-width:1;"/><path d="M236.6299,344.0781 L246.6299,344.0781 C261.6299,344.0781 261.6299,416.6719 276.6299,416.6719 L286.6299,416.6719" fill="none" style="stroke:#181818;stroke-width:1;"/><rect fill="#F1F1F1" height="36.2969" rx="12.5" ry="12.5" style="stroke:#181818;stroke-width:1.5;" width="169.8369" x="286.6299" y="491.1172"/><text fill="#000000" font-family="sans-serif" font-size="14" lengthAdjust="spacing" textLength="149.8369" x="296.6299" y="514.1123">Hor&#225;rios e Atividades</text><rect fill="#F1F1F1" height="36.2969" rx="12.5" ry="12.5" style="stroke:#181818;stroke-width:1.5;" width="463.1328" x="506.4668" y="462.9688"/><text fill="#000000" font-family="sans-serif" font-size="14" lengthAdjust="spacing" textLength="443.1328" x="516.4668" y="485.9639">Verificar se hor&#225;rio de est&#225;gio n&#227;o conflita com hor&#225;rio de aula</text><path d="M456.4668,509.2656 L466.4668,509.2656 C481.4668,509.2656 481.4668,481.1172 496.4668,481.1172 L506.4668,481.1172" fill="none" style="stroke:#181818;stroke-width:1;"/><rect fill="#F1F1F1" height="36.2969" rx="12.5" ry="12.5" style="stroke:#181818;stroke-width:1.5;" width="282.6504" x="506.4668" y="519.2656"/><text fill="#000000" font-family="sans-serif" font-size="14" lengthAdjust="spacing" textLength="262.6504" x="516.4668" y="542.2607">Verificar se h&#225; um plano de atividade</text><path d="M456.4668,509.2656 L466.4668,509.2656 C481.4668,509.2656 481.4668,537.4141 496.4668,537.4141 L506.4668,537.4141" fill="none" style="stroke:#181818;stroke-width:1;"/><path d="M236.6299,344.0781 L246.6299,344.0781 C261.6299,344.0781 261.6299,509.2656 276.6299,509.2656 L286.6299,509.2656" fill="none" style="stroke:#181818;stroke-width:1;"/><rect fill="#F1F1F1" height="36.2969" rx="12.5" ry="12.5" style="stroke:#181818;stroke-width:1.5;" width="101.498" x="286.6299" y="603.7109"/><text fill="#000000" font-family="sans-serif" font-size="14" lengthAdjust="spacing" textLength="81.498" x="296.6299" y="626.7061">Assinaturas</text><rect fill="#F1F1F1" height="36.2969" rx="12.5" ry="12.5" style="stroke:#181818;stroke-width:1.5;" width="355.959" x="438.1279" y="575.5625"/><text fill="#000000" font-family="sans-serif" font-size="14" lengthAdjust="spacing" textLength="335.959" x="448.1279" y="598.5576">Assinatura do aluno e da empresa com carimbo</text><path d="M388.1279,621.8594 L398.1279,621.8594 C413.1279,621.8594 413.1279,593.7109 428.1279,593.7109 L438.1279,593.7109" fill="none" style="stroke:#181818;stroke-width:1;"/><rect fill="#F1F1F1" height="36.2969" rx="12.5" ry="12.5" style="stroke:#181818;stroke-width:1.5;" width="207.0791" x="438.1279" y="631.8594"/><text fill="#000000" font-family="sans-serif" font-size="14" lengthAdjust="spacing" textLength="187.0791" x="448.1279" y="654.8545">IBMEC &#233; a &#250;ltima a assinar</text><path d="M388.1279,621.8594 L398.1279,621.8594 C413.1279,621.8594 413.1279,650.0078 428.1279,650.0078 L438.1279,650.0078" fill="none" style="stroke:#181818;stroke-width:1;"/><path d="M236.6299,344.0781 L246.6299,344.0781 C261.6299,344.0781 261.6299,621.8594 276.6299,621.8594 L286.6299,621.8594" fill="none" style="stroke:#181818;stroke-width:1;"/><path d="M98.2432,456.6719 L108.2432,456.6719 C123.2432,456.6719 123.2432,344.0781 138.2432,344.0781 L148.2432,344.0781" fill="none" style="stroke:#181818;stroke-width:1;"/><rect fill="#F1F1F1" height="36.2969" rx="12.5" ry="12.5" style="stroke:#181818;stroke-width:1.5;" width="60.7217" x="148.2432" y="772.6016"/><text fill="#000000" font-family="sans-serif" font-size="14" lengthAdjust="spacing" textLength="40.7217" x="158.2432" y="795.5967">Horas</text><rect fill="#F1F1F1" height="36.2969" rx="12.5" ry="12.5" style="stroke:#181818;stroke-width:1.5;" width="93.3906" x="258.9648" y="716.3047"/><text fill="#000000" font-family="sans-serif" font-size="14" lengthAdjust="spacing" textLength="73.3906" x="268.9648" y="739.2998">Atividades</text><rect fill="#F1F1F1" height="36.2969" rx="12.5" ry="12.5" style="stroke:#181818;stroke-width:1.5;" width="211.3311" x="402.3555" y="688.1563"/><text fill="#000000" font-family="sans-serif" font-size="14" lengthAdjust="spacing" textLength="191.3311" x="412.3555" y="711.1514">Compatibilidade com curso</text><path d="M352.3555,734.4531 L362.3555,734.4531 C377.3555,734.4531 377.3555,706.3047 392.3555,706.3047 L402.3555,706.3047" fill="none" style="stroke:#181818;stroke-width:1;"/><rect fill="#F1F1F1" height="36.2969" rx="12.5" ry="12.5" style="stroke:#181818;stroke-width:1.5;" width="212.6299" x="402.3555" y="744.4531"/><text fill="#000000" font-family="sans-serif" font-size="14" lengthAdjust="spacing" textLength="192.6299" x="412.3555" y="767.4482">Compatibilidade com cargo</text><path d="M352.3555,734.4531 L362.3555,734.4531 C377.3555,734.4531 377.3555,762.6016 392.3555,762.6016 L402.3555,762.6016" fill="none" style="stroke:#181818;stroke-width:1;"/><path d="M208.9648,790.75 L218.9648,790.75 C233.9648,790.75 233.9648,734.4531 248.9648,734.4531 L258.9648,734.4531" fill="none" style="stroke:#181818;stroke-width:1;"/><rect fill="#F1F1F1" height="36.2969" rx="12.5" ry="12.5" style="stroke:#181818;stroke-width:1.5;" width="167.1572" x="258.9648" y="828.8984"/><text fill="#000000" font-family="sans-serif" font-size="14" lengthAdjust="spacing" textLength="147.1572" x="268.9648" y="851.8936">Quantidade de horas</text><rect fill="#F1F1F1" height="36.2969" rx="12.5" ry="12.5" style="stroke:#181818;stroke-width:1.5;" width="211.3311" x="476.1221" y="800.75"/><text fill="#000000" font-family="sans-serif" font-size="14" lengthAdjust="spacing" textLength="191.3311" x="486.1221" y="823.7451">Compatibilidade com curso</text><path d="M426.1221,847.0469 L436.1221,847.0469 C451.1221,847.0469 451.1221,818.8984 466.1221,818.8984 L476.1221,818.8984" fill="none" style="stroke:#181818;stroke-width:1;"/><rect fill="#F1F1F1" height="36.2969" rx="12.5" ry="12.5" style="stroke:#181818;stroke-width:1.5;" width="212.6299" x="476.1221" y="857.0469"/><text fill="#000000" font-family="sans-serif" font-size="14" lengthAdjust="spacing" textLength="192.6299" x="486.1221" y="880.042">Compatibilidade com cargo</text><path d="M426.1221,847.0469 L436.1221,847.0469 C451.1221,847.0469 451.1221,875.1953 466.1221,875.1953 L476.1221,875.1953" fill="none" style="stroke:#181818;stroke-width:1;"/><path d="M208.9648,790.75 L218.9648,790.75 C233.9648,790.75 233.9648,847.0469 248.9648,847.0469 L258.9648,847.0469" fill="none" style="stroke:#181818;stroke-width:1;"/><path d="M98.2432,456.6719 L108.2432,456.6719 C123.2432,456.6719 123.2432,790.75 138.2432,790.75 L148.2432,790.75" fill="none" style="stroke:#181818;stroke-width:1;"/><?plantuml-src fPE_RXGn4CRxVOfHAhWYWY2beCfn2I9540Wf5StiUcupqlgFFDwhUGXUu4I1A5Abe_MRy2ICrxuB4NGqkzwPyVVzPjQ-a8GnMNR6OkYw5TpYn0Rpz_pDTwiLRBnB4PCN_LZ19HelO3oifzcLlCRUUqibX8-X6qmntm_pXFLxy-5jMynHMiqbxGYek8FLSYxLgk8G3Cl0OM9TNadA-v7zP_TiGF4m59gyZwns0dS-wjCfAGZ5yjhbVQ4N21WHJbZ8gS49_2dwl7MIK1h976k_hu6TOgiumPQjcc8Yrr9BUn2y8KWKTM0AZh15vJQeGKrQqgs6H0Y2yjnxuwlP9nhdw9lTEkI7YGUT6Idsab0dtqSUCUM7qjklBr_XkhSqrEO2ZjXAowQ5f0g_ytKQeiJhn3ikACtdbY9lUL1CvRbhXMK_jQ5MSHtfTkA4kh1Fol3u-vugvJtC5iA4hfOTR1UWjOXE9kb43zqU0ySpegm6WMo89DLMfTdsxM1Slxcvsa3-eTFDFwV45dM5YqpikjfqLV-hvOstGNbwdfPerNuySlzCOnoND7oSqQMQC5JFrd-gTXUar-fmjLwUdhquEpzzrLF2yzy0?></g></svg>