<svg xmlns="http://www.w3.org/2000/svg" xmlns:xlink="http://www.w3.org/1999/xlink" contentStyleType="text/css" data-diagram-type="MINDMAP" height="696px" preserveAspectRatio="none" style="width:775px;height:696px;background:#FFFFFF;" version="1.1" viewBox="0 0 775 696" width="775px" zoomAndPan="magnify"><?plantuml 1.2026.3beta6?><defs/><g><rect fill="#F1F1F1" height="36.2969" rx="12.5" ry="12.5" style="stroke:#181818;stroke-width:1.5;" width="88.2432" x="10" y="329.6328"/><text fill="#000000" font-family="sans-serif" font-size="14" lengthAdjust="spacing" textLength="68.2432" x="20" y="352.6279">Valida&#231;&#227;o</text><rect fill="#F1F1F1" height="36.2969" rx="12.5" ry="12.5" style="stroke:#181818;stroke-width:1.5;" width="88.3867" x="148.2432" y="329.6328"/><text fill="#000000" font-family="sans-serif" font-size="14" lengthAdjust="spacing" textLength="68.3867" x="158.2432" y="352.6279">Contratos</text><rect fill="#F1F1F1" height="36.2969" rx="12.5" ry="12.5" style="stroke:#181818;stroke-width:1.5;" width="130.2363" x="286.6299" y="132.5938"/><text fill="#000000" font-family="sans-serif" font-size="14" lengthAdjust="spacing" textLength="110.2363" x="296.6299" y="155.5889">Dados do Aluno</text><rect fill="#F1F1F1" height="36.2969" rx="12.5" ry="12.5" style="stroke:#181818;stroke-width:1.5;" width="126.4219" x="466.8662" y="20"/><text fill="#000000" font-family="sans-serif" font-size="14" lengthAdjust="spacing" textLength="106.4219" x="476.8662" y="42.9951">Nome do aluno</text><path d="M416.8662,150.7422 L426.8662,150.7422 C441.8662,150.7422 441.8662,38.1484 456.8662,38.1484 L466.8662,38.1484" fill="none" style="stroke:#181818;stroke-width:1;"/><rect fill="#F1F1F1" height="36.2969" rx="12.5" ry="12.5" style="stroke:#181818;stroke-width:1.5;" width="84.832" x="466.8662" y="76.2969"/><text fill="#000000" font-family="sans-serif" font-size="14" lengthAdjust="spacing" textLength="64.832" x="476.8662" y="99.292">Matr&#237;cula</text><path d="M416.8662,150.7422 L426.8662,150.7422 C441.8662,150.7422 441.8662,94.4453 456.8662,94.4453 L466.8662,94.4453" fill="none" style="stroke:#181818;stroke-width:1;"/><rect fill="#F1F1F1" height="36.2969" rx="12.5" ry="12.5" style="stroke:#181818;stroke-width:1.5;" width="46.2705" x="466.8662" y="132.5938"/><text fill="#000000" font-family="sans-serif" font-size="14" lengthAdjust="spacing" textLength="26.2705" x="476.8662" y="155.5889">CPF</text><path d="M416.8662,150.7422 L426.8662,150.7422 C441.8662,150.7422 441.8662,150.7422 456.8662,150.7422 L466.8662,150.7422" fill="none" style="stroke:#181818;stroke-width:1;"/><rect fill="#F1F1F1" height="36.2969" rx="12.5" ry="12.5" style="stroke:#181818;stroke-width:1.5;" width="60.2637" x="466.8662" y="188.8906"/><text fill="#000000" font-family="sans-serif" font-size="14" lengthAdjust="spacing" textLength="40.2637" x="476.8662" y="211.8857">Curso</text><path d="M416.8662,150.7422 L426.8662,150.7422 C441.8662,150.7422 441.8662,207.0391 456.8662,207.0391 L466.8662,207.0391" fill="none" style="stroke:#181818;stroke-width:1;"/><rect fill="#F1F1F1" height="36.2969" rx="12.5" ry="12.5" style="stroke:#181818;stroke-width:1.5;" width="232.96" x="466.8662" y="245.1875"/><text fill="#000000" font-family="sans-serif" font-size="14" lengthAdjust="spacing" textLength="212.96" x="476.8662" y="268.1826">Matr&#237;cula na disciplina Est&#225;gio</text><path d="M416.8662,150.7422 L426.8662,150.7422 C441.8662,150.7422 441.8662,263.3359 456.8662,263.3359 L466.8662,263.3359" fill="none" style="stroke:#181818;stroke-width:1;"/><path d="M236.6299,347.7813 L246.6299,347.7813 C261.6299,347.7813 261.6299,150.7422 276.6299,150.7422 L286.6299,150.7422" fill="none" style="stroke:#181818;stroke-width:1;"/><rect fill="#F1F1F1" height="36.2969" rx="12.5" ry="12.5" style="stroke:#181818;stroke-width:1.5;" width="60.7217" x="286.6299" y="301.4844"/><text fill="#000000" font-family="sans-serif" font-size="14" lengthAdjust="spacing" textLength="40.7217" x="296.6299" y="324.4795">Datas</text><rect fill="#F1F1F1" height="36.2969" rx="12.5" ry="12.5" style="stroke:#181818;stroke-width:1.5;" width="164.7715" x="397.3516" y="301.4844"/><text fill="#000000" font-family="sans-serif" font-size="14" lengthAdjust="spacing" textLength="144.7715" x="407.3516" y="324.4795">Dura&#231;&#227;o: in&#237;cio e fim</text><path d="M347.3516,319.6328 L357.3516,319.6328 C372.3516,319.6328 372.3516,319.6328 387.3516,319.6328 L397.3516,319.6328" fill="none" style="stroke:#181818;stroke-width:1;"/><path d="M236.6299,347.7813 L246.6299,347.7813 C261.6299,347.7813 261.6299,319.6328 276.6299,319.6328 L286.6299,319.6328" fill="none" style="stroke:#181818;stroke-width:1;"/><rect fill="#F1F1F1" height="36.2969" rx="12.5" ry="12.5" style="stroke:#181818;stroke-width:1.5;" width="76.875" x="286.6299" y="357.7813"/><text fill="#000000" font-family="sans-serif" font-size="14" lengthAdjust="spacing" textLength="56.875" x="296.6299" y="380.7764">Seguros</text><rect fill="#F1F1F1" height="36.2969" rx="12.5" ry="12.5" style="stroke:#181818;stroke-width:1.5;" width="152.8018" x="413.5049" y="357.7813"/><text fill="#000000" font-family="sans-serif" font-size="14" lengthAdjust="spacing" textLength="132.8018" x="423.5049" y="380.7764">Ap&#243;lice de seguros</text><path d="M363.5049,375.9297 L373.5049,375.9297 C388.5049,375.9297 388.5049,375.9297 403.5049,375.9297 L413.5049,375.9297" fill="none" style="stroke:#181818;stroke-width:1;"/><path d="M236.6299,347.7813 L246.6299,347.7813 C261.6299,347.7813 261.6299,375.9297 276.6299,375.9297 L286.6299,375.9297" fill="none" style="stroke:#181818;stroke-width:1;"/><rect fill="#F1F1F1" height="36.2969" rx="12.5" ry="12.5" style="stroke:#181818;stroke-width:1.5;" width="169.8369" x="286.6299" y="442.2266"/><text fill="#000000" font-family="sans-serif" font-size="14" lengthAdjust="spacing" textLength="149.8369" x="296.6299" y="465.2217">Hor&#225;rios e Atividades</text><rect fill="#F1F1F1" height="36.2969" rx="12.5" ry="12.5" style="stroke:#181818;stroke-width:1.5;" width="219.083" x="506.4668" y="414.0781"/><text fill="#000000" font-family="sans-serif" font-size="14" lengthAdjust="spacing" textLength="199.083" x="516.4668" y="437.0732">Conflito com hor&#225;rio de aula</text><path d="M456.4668,460.375 L466.4668,460.375 C481.4668,460.375 481.4668,432.2266 496.4668,432.2266 L506.4668,432.2266" fill="none" style="stroke:#181818;stroke-width:1;"/><rect fill="#F1F1F1" height="36.2969" rx="12.5" ry="12.5" style="stroke:#181818;stroke-width:1.5;" width="248.1494" x="506.4668" y="470.375"/><text fill="#000000" font-family="sans-serif" font-size="14" lengthAdjust="spacing" textLength="228.1494" x="516.4668" y="493.3701">Exist&#234;ncia de plano de atividade</text><path d="M456.4668,460.375 L466.4668,460.375 C481.4668,460.375 481.4668,488.5234 496.4668,488.5234 L506.4668,488.5234" fill="none" style="stroke:#181818;stroke-width:1;"/><path d="M236.6299,347.7813 L246.6299,347.7813 C261.6299,347.7813 261.6299,460.375 276.6299,460.375 L286.6299,460.375" fill="none" style="stroke:#181818;stroke-width:1;"/><rect fill="#F1F1F1" height="36.2969" rx="12.5" ry="12.5" style="stroke:#181818;stroke-width:1.5;" width="101.498" x="286.6299" y="582.9688"/><text fill="#000000" font-family="sans-serif" font-size="14" lengthAdjust="spacing" textLength="81.498" x="296.6299" y="605.9639">Assinaturas</text><rect fill="#F1F1F1" height="36.2969" rx="12.5" ry="12.5" style="stroke:#181818;stroke-width:1.5;" width="159.3369" x="438.1279" y="526.6719"/><text fill="#000000" font-family="sans-serif" font-size="14" lengthAdjust="spacing" textLength="139.3369" x="448.1279" y="549.667">Assinatura do aluno</text><path d="M388.1279,601.1172 L398.1279,601.1172 C413.1279,601.1172 413.1279,544.8203 428.1279,544.8203 L438.1279,544.8203" fill="none" style="stroke:#181818;stroke-width:1;"/><rect fill="#F1F1F1" height="36.2969" rx="12.5" ry="12.5" style="stroke:#181818;stroke-width:1.5;" width="277.7627" x="438.1279" y="582.9688"/><text fill="#000000" font-family="sans-serif" font-size="14" lengthAdjust="spacing" textLength="257.7627" x="448.1279" y="605.9639">Assinatura da empresa com carimbo</text><path d="M388.1279,601.1172 L398.1279,601.1172 C413.1279,601.1172 413.1279,601.1172 428.1279,601.1172 L438.1279,601.1172" fill="none" style="stroke:#181818;stroke-width:1;"/><rect fill="#F1F1F1" height="36.2969" rx="12.5" ry="12.5" style="stroke:#181818;stroke-width:1.5;" width="164.9902" x="438.1279" y="639.2656"/><text fill="#000000" font-family="sans-serif" font-size="14" lengthAdjust="spacing" textLength="144.9902" x="448.1279" y="662.2607">Assinatura do IBMEC</text><path d="M388.1279,601.1172 L398.1279,601.1172 C413.1279,601.1172 413.1279,657.4141 428.1279,657.4141 L438.1279,657.4141" fill="none" style="stroke:#181818;stroke-width:1;"/><path d="M236.6299,347.7813 L246.6299,347.7813 C261.6299,347.7813 261.6299,601.1172 276.6299,601.1172 L286.6299,601.1172" fill="none" style="stroke:#181818;stroke-width:1;"/><path d="M98.2432,347.7813 L108.2432,347.7813 C123.2432,347.7813 123.2432,347.7813 138.2432,347.7813 L148.2432,347.7813" fill="none" style="stroke:#181818;stroke-width:1;"/><?plantuml-src RL6xJWCn4EplAxQ-8e8WfQ3AaHo28WW9YNvZEs4bstkoVOZVYIYGaAZu1FyOUwy4GRhTdHdlZ7SP4uRao6k7JL6Ky8oMDEQF_Cv5MSAAVGgOE4fJmXerHz0CbMrzXyliWPtfHdWQRJ25_ALQYqE_UhmTYpR4Vnpm29gYeiQIb7LC-R0d7XScZ8DWtOR1rZMG5oKn6DYHwtbFPjy67fbLaxyjAN5b89u0kEEG3u4aWO4gqQlar6RKICwTfSIWsC7BIEmUm6EA-et4sgTNX1tGMFG3OtggNrB5A2cIc9tS70T_VkatW61S4qp4Vh_2G6xBv_JtDvjwLHHB8mURZdOvcr_C5xEhhKcu-040?></g></svg>