<svg xmlns="http://www.w3.org/2000/svg" xmlns:xlink="http://www.w3.org/1999/xlink" contentStyleType="text/css" data-diagram-type="CLASS" height="429px" preserveAspectRatio="none" style="width:627px;height:429px;background:#FFFFFF;" version="1.1" viewBox="0 0 627 429" width="627px" zoomAndPan="magnify"><?plantuml 1.2026.3beta6?><defs/><g><!--class StatusProcesso--><g class="entity" data-qualified-name="StatusProcesso" data-source-line="9" id="ent0002"><rect fill="#FFFFFF" height="48" rx="2.5" ry="2.5" style="stroke:#000000;stroke-width:0.5;" width="138.8389" x="215.94" y="366"/><ellipse cx="230.94" cy="382" fill="#EB937F" rx="11" ry="11" style="stroke:#181818;stroke-width:1;"/><path d="M235.0494,388 L227.3306,388 L227.3306,375.6094 L235.0494,375.6094 L235.0494,377.7656 L229.7838,377.7656 L229.7838,380.4375 L234.5494,380.4375 L234.5494,382.5938 L229.7838,382.5938 L229.7838,385.8438 L235.0494,385.8438 L235.0494,388 Z " fill="#000000"/><text fill="#000000" font-family="sans-serif" font-size="14" lengthAdjust="spacing" textLength="106.8389" x="244.94" y="386.8467">StatusProcesso</text><line style="stroke:#000000;stroke-width:0.5;" x1="216.94" x2="353.7789" y1="398" y2="398"/><line style="stroke:#000000;stroke-width:0.5;" x1="216.94" x2="353.7789" y1="406" y2="406"/></g><!--class Unidade--><g class="entity" data-qualified-name="Unidade" data-source-line="20" id="ent0003"><rect fill="#FFFFFF" height="48" rx="2.5" ry="2.5" style="stroke:#000000;stroke-width:0.5;" width="89.9756" x="360.37" y="7"/><ellipse cx="375.37" cy="23" fill="#EB937F" rx="11" ry="11" style="stroke:#181818;stroke-width:1;"/><path d="M379.4794,29 L371.7606,29 L371.7606,16.6094 L379.4794,16.6094 L379.4794,18.7656 L374.2138,18.7656 L374.2138,21.4375 L378.9794,21.4375 L378.9794,23.5938 L374.2138,23.5938 L374.2138,26.8438 L379.4794,26.8438 L379.4794,29 Z " fill="#000000"/><text fill="#000000" font-family="sans-serif" font-size="14" lengthAdjust="spacing" textLength="57.9756" x="389.37" y="27.8467">Unidade</text><line style="stroke:#000000;stroke-width:0.5;" x1="361.37" x2="449.3456" y1="39" y2="39"/><line style="stroke:#000000;stroke-width:0.5;" x1="361.37" x2="449.3456" y1="47" y2="47"/></g><!--class Periodo--><g class="entity" data-qualified-name="Periodo" data-source-line="27" id="ent0004"><rect fill="#FFFFFF" height="48" rx="2.5" ry="2.5" style="stroke:#000000;stroke-width:0.5;" width="84.7188" x="7" y="241"/><ellipse cx="22" cy="257" fill="#EB937F" rx="11" ry="11" style="stroke:#181818;stroke-width:1;"/><path d="M26.1094,263 L18.3906,263 L18.3906,250.6094 L26.1094,250.6094 L26.1094,252.7656 L20.8438,252.7656 L20.8438,255.4375 L25.6094,255.4375 L25.6094,257.5938 L20.8438,257.5938 L20.8438,260.8438 L26.1094,260.8438 L26.1094,263 Z " fill="#000000"/><text fill="#000000" font-family="sans-serif" font-size="14" lengthAdjust="spacing" textLength="52.7188" x="36" y="261.8467">Periodo</text><line style="stroke:#000000;stroke-width:0.5;" x1="8" x2="90.7188" y1="273" y2="273"/><line style="stroke:#000000;stroke-width:0.5;" x1="8" x2="90.7188" y1="281" y2="281"/></g><!--class Usuario--><g class="entity" data-qualified-name="Usuario" data-source-line="33" id="ent0005"><rect fill="#FFFFFF" height="48" rx="2.5" ry="2.5" style="stroke:#000000;stroke-width:0.5;" width="85.2041" x="239.76" y="7"/><ellipse cx="254.76" cy="23" fill="#A9DCDF" rx="11" ry="11" style="stroke:#181818;stroke-width:1;"/><path d="M254.8694,18.3438 L253.7131,23.4219 L256.0413,23.4219 L254.8694,18.3438 Z M253.385,16.1094 L256.3694,16.1094 L259.7288,28.5 L257.2756,28.5 L256.51,25.4375 L253.2288,25.4375 L252.4788,28.5 L250.0413,28.5 L253.385,16.1094 Z " fill="#000000"/><text fill="#000000" font-family="sans-serif" font-size="14" font-style="italic" lengthAdjust="spacing" textLength="53.2041" x="268.76" y="27.8467">Usuario</text><line style="stroke:#000000;stroke-width:0.5;" x1="240.76" x2="323.9641" y1="39" y2="39"/><line style="stroke:#000000;stroke-width:0.5;" x1="240.76" x2="323.9641" y1="47" y2="47"/></g><!--class Aluno--><g class="entity" data-qualified-name="Aluno" data-source-line="42" id="ent0006"><rect fill="#FFFFFF" height="48" rx="2.5" ry="2.5" style="stroke:#000000;stroke-width:0.5;" width="71.7783" x="111.47" y="116"/><ellipse cx="126.47" cy="132" fill="#ADD1B2" rx="11" ry="11" style="stroke:#181818;stroke-width:1;"/><path d="M129.4388,137.6406 Q128.8606,137.9375 128.22,138.0781 Q127.5794,138.2344 126.8763,138.2344 Q124.3763,138.2344 123.0481,136.5938 Q121.7356,134.9375 121.7356,131.8125 Q121.7356,128.6875 123.0481,127.0313 Q124.3763,125.375 126.8763,125.375 Q127.5794,125.375 128.22,125.5313 Q128.8763,125.6875 129.4388,125.9844 L129.4388,128.7031 Q128.8138,128.125 128.22,127.8594 Q127.6263,127.5781 127.0013,127.5781 Q125.6575,127.5781 124.97,128.6563 Q124.2825,129.7188 124.2825,131.8125 Q124.2825,133.9063 124.97,134.9844 Q125.6575,136.0469 127.0013,136.0469 Q127.6263,136.0469 128.22,135.7813 Q128.8138,135.5 129.4388,134.9219 L129.4388,137.6406 Z " fill="#000000"/><text fill="#000000" font-family="sans-serif" font-size="14" lengthAdjust="spacing" textLength="39.7783" x="140.47" y="136.8467">Aluno</text><line style="stroke:#000000;stroke-width:0.5;" x1="112.47" x2="182.2483" y1="148" y2="148"/><line style="stroke:#000000;stroke-width:0.5;" x1="112.47" x2="182.2483" y1="156" y2="156"/></g><!--class Secretaria--><g class="entity" data-qualified-name="Secretaria" data-source-line="51" id="ent0008"><rect fill="#FFFFFF" height="48" rx="2.5" ry="2.5" style="stroke:#000000;stroke-width:0.5;" width="103.8594" x="380.43" y="116"/><ellipse cx="395.43" cy="132" fill="#ADD1B2" rx="11" ry="11" style="stroke:#181818;stroke-width:1;"/><path d="M398.3988,137.6406 Q397.8206,137.9375 397.18,138.0781 Q396.5394,138.2344 395.8363,138.2344 Q393.3363,138.2344 392.0081,136.5938 Q390.6956,134.9375 390.6956,131.8125 Q390.6956,128.6875 392.0081,127.0313 Q393.3363,125.375 395.8363,125.375 Q396.5394,125.375 397.18,125.5313 Q397.8363,125.6875 398.3988,125.9844 L398.3988,128.7031 Q397.7738,128.125 397.18,127.8594 Q396.5863,127.5781 395.9613,127.5781 Q394.6175,127.5781 393.93,128.6563 Q393.2425,129.7188 393.2425,131.8125 Q393.2425,133.9063 393.93,134.9844 Q394.6175,136.0469 395.9613,136.0469 Q396.5863,136.0469 397.18,135.7813 Q397.7738,135.5 398.3988,134.9219 L398.3988,137.6406 Z " fill="#000000"/><text fill="#000000" font-family="sans-serif" font-size="14" lengthAdjust="spacing" textLength="71.8594" x="409.43" y="136.8467">Secretaria</text><line style="stroke:#000000;stroke-width:0.5;" x1="381.43" x2="483.2894" y1="148" y2="148"/><line style="stroke:#000000;stroke-width:0.5;" x1="381.43" x2="483.2894" y1="156" y2="156"/></g><!--class Coordenacao--><g class="entity" data-qualified-name="Coordenacao" data-source-line="58" id="ent0010"><rect fill="#FFFFFF" height="48" rx="2.5" ry="2.5" style="stroke:#000000;stroke-width:0.5;" width="124.4561" x="220.13" y="116"/><ellipse cx="235.13" cy="132" fill="#ADD1B2" rx="11" ry="11" style="stroke:#181818;stroke-width:1;"/><path d="M238.0988,137.6406 Q237.5206,137.9375 236.88,138.0781 Q236.2394,138.2344 235.5363,138.2344 Q233.0363,138.2344 231.7081,136.5938 Q230.3956,134.9375 230.3956,131.8125 Q230.3956,128.6875 231.7081,127.0313 Q233.0363,125.375 235.5363,125.375 Q236.2394,125.375 236.88,125.5313 Q237.5363,125.6875 238.0988,125.9844 L238.0988,128.7031 Q237.4738,128.125 236.88,127.8594 Q236.2863,127.5781 235.6613,127.5781 Q234.3175,127.5781 233.63,128.6563 Q232.9425,129.7188 232.9425,131.8125 Q232.9425,133.9063 233.63,134.9844 Q234.3175,136.0469 235.6613,136.0469 Q236.2863,136.0469 236.88,135.7813 Q237.4738,135.5 238.0988,134.9219 L238.0988,137.6406 Z " fill="#000000"/><text fill="#000000" font-family="sans-serif" font-size="14" lengthAdjust="spacing" textLength="92.4561" x="249.13" y="136.8467">Coordenacao</text><line style="stroke:#000000;stroke-width:0.5;" x1="221.13" x2="343.5861" y1="148" y2="148"/><line style="stroke:#000000;stroke-width:0.5;" x1="221.13" x2="343.5861" y1="156" y2="156"/></g><!--class Processo--><g class="entity" data-qualified-name="Processo" data-source-line="63" id="ent0012"><rect fill="#FFFFFF" height="48" rx="2.5" ry="2.5" style="stroke:#000000;stroke-width:0.5;" width="94.2275" x="367.25" y="241"/><ellipse cx="382.25" cy="257" fill="#ADD1B2" rx="11" ry="11" style="stroke:#181818;stroke-width:1;"/><path d="M385.2188,262.6406 Q384.6406,262.9375 384,263.0781 Q383.3594,263.2344 382.6563,263.2344 Q380.1563,263.2344 378.8281,261.5938 Q377.5156,259.9375 377.5156,256.8125 Q377.5156,253.6875 378.8281,252.0313 Q380.1563,250.375 382.6563,250.375 Q383.3594,250.375 384,250.5313 Q384.6563,250.6875 385.2188,250.9844 L385.2188,253.7031 Q384.5938,253.125 384,252.8594 Q383.4063,252.5781 382.7813,252.5781 Q381.4375,252.5781 380.75,253.6563 Q380.0625,254.7188 380.0625,256.8125 Q380.0625,258.9063 380.75,259.9844 Q381.4375,261.0469 382.7813,261.0469 Q383.4063,261.0469 384,260.7813 Q384.5938,260.5 385.2188,259.9219 L385.2188,262.6406 Z " fill="#000000"/><text fill="#000000" font-family="sans-serif" font-size="14" lengthAdjust="spacing" textLength="62.2275" x="396.25" y="261.8467">Processo</text><line style="stroke:#000000;stroke-width:0.5;" x1="368.25" x2="460.4775" y1="273" y2="273"/><line style="stroke:#000000;stroke-width:0.5;" x1="368.25" x2="460.4775" y1="281" y2="281"/></g><!--class Contrato--><g class="entity" data-qualified-name="Contrato" data-source-line="75" id="ent0013"><rect fill="#FFFFFF" height="48" rx="2.5" ry="2.5" style="stroke:#000000;stroke-width:0.5;" width="93.0928" x="389.81" y="366"/><ellipse cx="404.81" cy="382" fill="#ADD1B2" rx="11" ry="11" style="stroke:#181818;stroke-width:1;"/><path d="M407.7788,387.6406 Q407.2006,387.9375 406.56,388.0781 Q405.9194,388.2344 405.2163,388.2344 Q402.7163,388.2344 401.3881,386.5938 Q400.0756,384.9375 400.0756,381.8125 Q400.0756,378.6875 401.3881,377.0313 Q402.7163,375.375 405.2163,375.375 Q405.9194,375.375 406.56,375.5313 Q407.2163,375.6875 407.7788,375.9844 L407.7788,378.7031 Q407.1538,378.125 406.56,377.8594 Q405.9663,377.5781 405.3413,377.5781 Q403.9975,377.5781 403.31,378.6563 Q402.6225,379.7188 402.6225,381.8125 Q402.6225,383.9063 403.31,384.9844 Q403.9975,386.0469 405.3413,386.0469 Q405.9663,386.0469 406.56,385.7813 Q407.1538,385.5 407.7788,384.9219 L407.7788,387.6406 Z " fill="#000000"/><text fill="#000000" font-family="sans-serif" font-size="14" lengthAdjust="spacing" textLength="61.0928" x="418.81" y="386.8467">Contrato</text><line style="stroke:#000000;stroke-width:0.5;" x1="390.81" x2="481.9028" y1="398" y2="398"/><line style="stroke:#000000;stroke-width:0.5;" x1="390.81" x2="481.9028" y1="406" y2="406"/></g><!--class Relatorio--><g class="entity" data-qualified-name="Relatorio" data-source-line="91" id="ent0014"><rect fill="#FFFFFF" height="48" rx="2.5" ry="2.5" style="stroke:#000000;stroke-width:0.5;" width="95.0752" x="517.82" y="366"/><ellipse cx="532.82" cy="382" fill="#ADD1B2" rx="11" ry="11" style="stroke:#181818;stroke-width:1;"/><path d="M535.7887,387.6406 Q535.2106,387.9375 534.57,388.0781 Q533.9294,388.2344 533.2262,388.2344 Q530.7262,388.2344 529.3981,386.5938 Q528.0856,384.9375 528.0856,381.8125 Q528.0856,378.6875 529.3981,377.0313 Q530.7262,375.375 533.2262,375.375 Q533.9294,375.375 534.57,375.5313 Q535.2262,375.6875 535.7887,375.9844 L535.7887,378.7031 Q535.1637,378.125 534.57,377.8594 Q533.9762,377.5781 533.3512,377.5781 Q532.0075,377.5781 531.32,378.6563 Q530.6325,379.7188 530.6325,381.8125 Q530.6325,383.9063 531.32,384.9844 Q532.0075,386.0469 533.3512,386.0469 Q533.9762,386.0469 534.57,385.7813 Q535.1637,385.5 535.7887,384.9219 L535.7887,387.6406 Z " fill="#000000"/><text fill="#000000" font-family="sans-serif" font-size="14" lengthAdjust="spacing" textLength="63.0752" x="546.82" y="386.8467">Relatorio</text><line style="stroke:#000000;stroke-width:0.5;" x1="518.82" x2="611.8952" y1="398" y2="398"/><line style="stroke:#000000;stroke-width:0.5;" x1="518.82" x2="611.8952" y1="406" y2="406"/></g><!--class Curso--><g class="entity" data-qualified-name="Curso" data-source-line="101" id="ent0015"><rect fill="#FFFFFF" height="48" rx="2.5" ry="2.5" style="stroke:#000000;stroke-width:0.5;" width="72.2637" x="108.23" y="366"/><ellipse cx="123.23" cy="382" fill="#ADD1B2" rx="11" ry="11" style="stroke:#181818;stroke-width:1;"/><path d="M126.1988,387.6406 Q125.6206,387.9375 124.98,388.0781 Q124.3394,388.2344 123.6363,388.2344 Q121.1363,388.2344 119.8081,386.5938 Q118.4956,384.9375 118.4956,381.8125 Q118.4956,378.6875 119.8081,377.0313 Q121.1363,375.375 123.6363,375.375 Q124.3394,375.375 124.98,375.5313 Q125.6363,375.6875 126.1988,375.9844 L126.1988,378.7031 Q125.5738,378.125 124.98,377.8594 Q124.3863,377.5781 123.7613,377.5781 Q122.4175,377.5781 121.73,378.6563 Q121.0425,379.7188 121.0425,381.8125 Q121.0425,383.9063 121.73,384.9844 Q122.4175,386.0469 123.7613,386.0469 Q124.3863,386.0469 124.98,385.7813 Q125.5738,385.5 126.1988,384.9219 L126.1988,387.6406 Z " fill="#000000"/><text fill="#000000" font-family="sans-serif" font-size="14" lengthAdjust="spacing" textLength="40.2637" x="137.23" y="386.8467">Curso</text><line style="stroke:#000000;stroke-width:0.5;" x1="109.23" x2="179.4937" y1="398" y2="398"/><line style="stroke:#000000;stroke-width:0.5;" x1="109.23" x2="179.4937" y1="406" y2="406"/></g><!--class Area--><g class="entity" data-qualified-name="Area" data-source-line="106" id="ent0016"><rect fill="#FFFFFF" height="48" rx="2.5" ry="2.5" style="stroke:#000000;stroke-width:0.5;" width="64.5254" x="223.1" y="241"/><ellipse cx="238.1" cy="257" fill="#ADD1B2" rx="11" ry="11" style="stroke:#181818;stroke-width:1;"/><path d="M241.0688,262.6406 Q240.4906,262.9375 239.85,263.0781 Q239.2094,263.2344 238.5063,263.2344 Q236.0063,263.2344 234.6781,261.5938 Q233.3656,259.9375 233.3656,256.8125 Q233.3656,253.6875 234.6781,252.0313 Q236.0063,250.375 238.5063,250.375 Q239.2094,250.375 239.85,250.5313 Q240.5063,250.6875 241.0688,250.9844 L241.0688,253.7031 Q240.4438,253.125 239.85,252.8594 Q239.2563,252.5781 238.6313,252.5781 Q237.2875,252.5781 236.6,253.6563 Q235.9125,254.7188 235.9125,256.8125 Q235.9125,258.9063 236.6,259.9844 Q237.2875,261.0469 238.6313,261.0469 Q239.2563,261.0469 239.85,260.7813 Q240.4438,260.5 241.0688,259.9219 L241.0688,262.6406 Z " fill="#000000"/><text fill="#000000" font-family="sans-serif" font-size="14" lengthAdjust="spacing" textLength="32.5254" x="252.1" y="261.8467">Area</text><line style="stroke:#000000;stroke-width:0.5;" x1="224.1" x2="286.6254" y1="273" y2="273"/><line style="stroke:#000000;stroke-width:0.5;" x1="224.1" x2="286.6254" y1="281" y2="281"/></g><!--reverse link Usuario to Aluno--><g class="link" data-entity-1="ent0005" data-entity-2="ent0006" data-link-type="extension" id="lnk7"><path d="M238.6231,66.6602 C216.1131,84.5002 199.41,97.75 176.92,115.57" fill="none" id="Usuario-backto-Aluno" style="stroke:#000000;stroke-width:1;"/><polygon fill="none" points="252.73,55.48,234.8964,61.9579,242.3499,71.3625,252.73,55.48" style="stroke:#000000;stroke-width:1;"/></g><!--reverse link Usuario to Secretaria--><g class="link" data-entity-1="ent0005" data-entity-2="ent0008" data-link-type="extension" id="lnk9"><path d="M329.9339,65.9329 C354.9439,83.7729 374.53,97.75 399.52,115.57" fill="none" id="Usuario-backto-Secretaria" style="stroke:#000000;stroke-width:1;"/><polygon fill="none" points="315.28,55.48,326.4496,70.8175,333.4182,61.0482,315.28,55.48" style="stroke:#000000;stroke-width:1;"/></g><!--reverse link Usuario to Coordenacao--><g class="link" data-entity-1="ent0005" data-entity-2="ent0010" data-link-type="extension" id="lnk11"><path d="M282.36,73.48 C282.36,91.32 282.36,97.75 282.36,115.57" fill="none" id="Usuario-backto-Coordenacao" style="stroke:#000000;stroke-width:1;"/><polygon fill="none" points="282.36,55.48,276.36,73.48,288.36,73.48,282.36,55.48" style="stroke:#000000;stroke-width:1;"/></g><!--link Aluno to Curso--><g class="link" data-entity-1="ent0006" data-entity-2="ent0015" data-link-type="association" data-source-line="114" id="lnk17"><path codeLine="114" d="M147.08,164.33 C146.51,211.6 145.22,318.18 144.64,365.55" fill="none" id="Aluno-Curso" style="stroke:#000000;stroke-width:1;"/><text fill="#000000" font-family="sans-serif" font-size="13" lengthAdjust="spacing" textLength="23.0356" x="149.8194" y="184.1716">0..*</text><text fill="#000000" font-family="sans-serif" font-size="13" lengthAdjust="spacing" textLength="8.271" x="135.7658" y="354.8453">1</text></g><!--link Aluno to Periodo--><g class="link" data-entity-1="ent0006" data-entity-2="ent0004" data-link-type="association" data-source-line="115" id="lnk18"><path codeLine="115" d="M128.7,164.42 C111.26,186.31 85.37,218.8 67.95,240.66" fill="none" id="Aluno-Periodo" style="stroke:#000000;stroke-width:1;"/><text fill="#000000" font-family="sans-serif" font-size="13" lengthAdjust="spacing" textLength="23.0356" x="98.7298" y="183.8838">0..*</text><text fill="#000000" font-family="sans-serif" font-size="13" lengthAdjust="spacing" textLength="8.271" x="63.5395" y="229.9821">1</text></g><!--link Area to Curso--><g class="link" data-entity-1="ent0016" data-entity-2="ent0015" data-link-type="association" data-source-line="118" id="lnk19"><path codeLine="118" d="M234.22,289.42 C214.47,311.31 185.15,343.8 165.42,365.66" fill="none" id="Area-Curso" style="stroke:#000000;stroke-width:1;"/><text fill="#000000" font-family="sans-serif" font-size="13" lengthAdjust="spacing" textLength="8.271" x="220.4371" y="308.8838">1</text><text fill="#000000" font-family="sans-serif" font-size="13" lengthAdjust="spacing" textLength="23.0356" x="173.3604" y="354.9821">0..*</text></g><!--link Coordenacao to Area--><g class="link" data-entity-1="ent0010" data-entity-2="ent0016" data-link-type="association" data-source-line="119" id="lnk20"><path codeLine="119" d="M277.22,164.42 C272.41,186.31 265.28,218.8 260.48,240.66" fill="none" id="Coordenacao-Area" style="stroke:#000000;stroke-width:1;"/><text fill="#000000" font-family="sans-serif" font-size="13" lengthAdjust="spacing" textLength="8.271" x="267.1382" y="183.8838">1</text><text fill="#000000" font-family="sans-serif" font-size="13" lengthAdjust="spacing" textLength="8.271" x="252.7854" y="229.9821">1</text></g><!--link Aluno to Processo--><g class="link" data-entity-1="ent0006" data-entity-2="ent0012" data-link-type="association" data-source-line="122" id="lnk21"><path codeLine="122" d="M183.72,162.16 C209.45,176.74 245,196.1 277.36,211 C306.55,224.44 340.19,237.49 366.83,247.28" fill="none" id="Aluno-Processo" style="stroke:#000000;stroke-width:1;"/><polygon fill="#000000" points="286.8941,204.6741,279.9307,198.1962,277.453,203.5263,286.8941,204.6741" style="stroke:#000000;stroke-width:1;"/><text fill="#000000" font-family="sans-serif" font-size="13" lengthAdjust="spacing" textLength="41.6025" x="291.36" y="207.0669">possui</text><text fill="#000000" font-family="sans-serif" font-size="13" lengthAdjust="spacing" textLength="8.271" x="191.1865" y="161.9421">1</text><text fill="#000000" font-family="sans-serif" font-size="13" lengthAdjust="spacing" textLength="24.8066" x="334.5148" y="240.8097">0..1</text></g><!--link Secretaria to Processo--><g class="link" data-entity-1="ent0008" data-entity-2="ent0012" data-link-type="association" data-source-line="123" id="lnk22"><path codeLine="123" d="M428.93,164.42 C425.73,186.31 420.97,218.8 417.77,240.66" fill="none" id="Secretaria-Processo" style="stroke:#000000;stroke-width:1;"/><polygon fill="#000000" points="428.6358,207.5137,432.8538,198.9896,427.0379,198.1383,428.6358,207.5137" style="stroke:#000000;stroke-width:1;"/><text fill="#000000" font-family="sans-serif" font-size="13" lengthAdjust="spacing" textLength="41.1328" x="438.36" y="207.0669">audita</text><text fill="#000000" font-family="sans-serif" font-size="13" lengthAdjust="spacing" textLength="8.271" x="419.2432" y="183.8838">1</text><text fill="#000000" font-family="sans-serif" font-size="13" lengthAdjust="spacing" textLength="23.0356" x="392.8015" y="229.9821">0..*</text></g><!--link Coordenacao to Processo--><g class="link" data-entity-1="ent0010" data-entity-2="ent0012" data-link-type="association" data-source-line="124" id="lnk23"><path codeLine="124" d="M307.5,164.42 C330.99,186.31 365.86,218.8 389.31,240.66" fill="none" id="Coordenacao-Processo" style="stroke:#000000;stroke-width:1;"/><polygon fill="#000000" points="365.0179,205.9752,360.4044,197.6586,356.3971,201.9587,365.0179,205.9752" style="stroke:#000000;stroke-width:1;"/><text fill="#000000" font-family="sans-serif" font-size="13" lengthAdjust="spacing" textLength="39.1016" x="370.36" y="207.0669">valida</text><text fill="#000000" font-family="sans-serif" font-size="13" lengthAdjust="spacing" textLength="8.271" x="304.4204" y="183.8838">1</text><text fill="#000000" font-family="sans-serif" font-size="13" lengthAdjust="spacing" textLength="23.0356" x="357.4044" y="229.9821">0..*</text></g><!--reverse link Processo to Contrato--><g class="link" data-entity-1="ent0012" data-entity-2="ent0013" data-link-type="composition" data-source-line="126" id="lnk24"><path codeLine="126" d="M420.66,301.233 C424.57,323.123 428.28,343.8 432.19,365.66" fill="none" id="Processo-backto-Contrato" style="stroke:#000000;stroke-width:1;"/><polygon fill="#000000" points="418.55,289.42,415.6673,296.0299,420.66,301.233,423.5427,294.6232,418.55,289.42" style="stroke:#000000;stroke-width:1;"/><polygon fill="#000000" points="432.2408,332.4882,433.5404,323.0669,427.7544,324.1023,432.2408,332.4882" style="stroke:#000000;stroke-width:1;"/><text fill="#000000" font-family="sans-serif" font-size="13" lengthAdjust="spacing" textLength="49.0991" x="440.36" y="332.0669">cont&#233;m</text><text fill="#000000" font-family="sans-serif" font-size="13" lengthAdjust="spacing" textLength="8.271" x="410.6244" y="308.8838">1</text><text fill="#000000" font-family="sans-serif" font-size="13" lengthAdjust="spacing" textLength="23.0356" x="405.3757" y="354.9821">1..*</text></g><!--reverse link Processo to Relatorio--><g class="link" data-entity-1="ent0012" data-entity-2="ent0014" data-link-type="composition" data-source-line="127" id="lnk25"><path codeLine="127" d="M466.1249,295.711 C480.1249,304.311 485.27,308.31 498.36,319 C515.55,333.05 532.83,351.22 545.53,365.53" fill="none" id="Processo-backto-Relatorio" style="stroke:#000000;stroke-width:1;"/><polygon fill="#000000" points="455.9,289.43,458.9188,295.9788,466.1249,295.711,463.1061,289.1622,455.9,289.43" style="stroke:#000000;stroke-width:1;"/><polygon fill="#000000" points="524.1149,330.868,519.2628,322.6883,515.3816,327.1024,524.1149,330.868" style="stroke:#000000;stroke-width:1;"/><text fill="#000000" font-family="sans-serif" font-size="13" lengthAdjust="spacing" textLength="49.0991" x="529.36" y="332.0669">cont&#233;m</text><text fill="#000000" font-family="sans-serif" font-size="13" lengthAdjust="spacing" textLength="8.271" x="456.6116" y="308.8961">1</text><text fill="#000000" font-family="sans-serif" font-size="13" lengthAdjust="spacing" textLength="23.0356" x="514.8982" y="354.8204">0..*</text></g><!--link Processo to StatusProcesso--><g class="link" data-entity-1="ent0012" data-entity-2="ent0002" data-link-type="association" data-source-line="128" id="lnk26"><path codeLine="128" d="M389.79,289.42 C366.84,311.31 332.76,343.8 309.84,365.66" fill="none" id="Processo-StatusProcesso" style="stroke:#000000;stroke-width:1;"/><polygon fill="#000000" points="359.7415,331.017,368.3156,326.9017,364.2592,322.6479,359.7415,331.017" style="stroke:#000000;stroke-width:1;"/><text fill="#000000" font-family="sans-serif" font-size="13" lengthAdjust="spacing" textLength="41.6025" x="372.36" y="332.0669">possui</text><text fill="#000000" font-family="sans-serif" font-size="13" lengthAdjust="spacing" textLength="23.0356" x="358.4521" y="308.8838">0..*</text><text fill="#000000" font-family="sans-serif" font-size="13" lengthAdjust="spacing" textLength="8.271" x="306.8652" y="354.9821">1</text></g><?plantuml-src fLR1Zjis4BthAuZDOTV9EiYsJThwK83MgeYBhIt8TdieYiMin7YPIAHAKcxGeeT-JWxzYlsn3ab9bBngYs8FbAZXSERDc-5GvsG-dvD46rvARUUH_i153GegafUWDVazMaB-uQ1a8ufObbAH7--vOH5LIlxg1SiIDQAbL0LJGyaVKNJkxOkcyjOPpiZMW6bqgcJEj9ReuPpGPPBjDZX9lh-bQtgpsYQtsoJEaXtDLdGiZpURx3fPqvZQ3MconezTSak_ssztYRMLPfiVwBLTp98mZpVh-6Q_ydEwZfCRAqUC3jDUy08Avi0iQPPPdp7QpQpwygrzP7Ixka4mtPQKAIuBZp-zkYJfPpW-n_45ZjSutk3u4iTNEBx6SVKgK19RSfacgU8YvpLmpqy4Tzeeo4tB_butW5wSZsUa0gDutfH05eGBusH2LWm_SHSN1oTX5V1oBD9CtCDOrBG1BxhGKVg2bFB0nSKCfNTIbXQknq7BHaZ2FXecYZ6gESaRXLbSaDY-dQHkcLbq77bfct1g6h3ukW9mZhdWEGVLoHo4aG88zX6ml0JIO-H58NFhilsS3LGoLg84tROw_VSiXBDbkM86Ou39c5wG8vH8Id3NOH-WkYI0qYEuE2rRb-HzWmVf7S_1y6EWUpQq6D0ztMJDz2yDrw1STlJ5INbO2jtAJp_xt79j0iCwnR2PC4oFk4RTdgLOsYCj88T_IZqePfrHV0s3n7u2XoU7sECOTOfGHwkYFmPpKe216FDfiIx8DHYsunLpIzgr6vIE-uuFmDLrovElva7GYo45tbOedCMWYdpvsRhclu7oVYw4FChjjE_PP94zhPx-Fw-TunDUnoVFCkBLHdpRjaCLbjzH3lkAJyI-BYKKftd8HVq-gMh5D8otM5kJ2zRMoZQ6BgUzTCTKnSL83BKiUSwsxD2e4qnr2GBR3ZzsBSyrDxT9QoumCmfeMmaJIm7RnEAtW2TkQBQdjq_DV_2hEhsd4dml5UYTWZiexw40FR3MTkIClMEAuOLpGdHNEob2EOasL8jhyuEM_mXki1dk3TiWGg_uzot-PhIqOSO5LDYTsfyINDfNxM75KB0LvOm0mKlONpxCIX_-iZUDp-FPgvSldv_XNd9sTTRUJ5ChtVs43jvofi0I3WIJ6RTs7_wqlSs5OVNjDc_0snoso6uTNwuXsl-FKIpMRf_v5asmQT642gcbrWqdtqI3gseCOA0CJS4DeF8Kd4VQldEWTjGBhUvpXzt7rZM6XJly3vygr7wix2s7Cf_M7l5zykiNulmR?></g></svg>