<svg xmlns="http://www.w3.org/2000/svg" xmlns:xlink="http://www.w3.org/1999/xlink" contentStyleType="text/css" data-diagram-type="CLASS" height="195px" preserveAspectRatio="none" style="width:418px;height:195px;background:#FFFFFF;" version="1.1" viewBox="0 0 418 195" width="418px" zoomAndPan="magnify"><?plantuml 1.2026.3beta6?><defs/><g><!--class StatusProcesso--><g class="entity" data-qualified-name="StatusProcesso" data-source-line="9" id="ent0002"><rect fill="#FFFFFF" height="48" rx="2.5" ry="2.5" style="stroke:#000000;stroke-width:0.5;" width="138.8389" x="7" y="132"/><ellipse cx="22" cy="148" fill="#EB937F" rx="11" ry="11" style="stroke:#181818;stroke-width:1;"/><path d="M26.1094,154 L18.3906,154 L18.3906,141.6094 L26.1094,141.6094 L26.1094,143.7656 L20.8438,143.7656 L20.8438,146.4375 L25.6094,146.4375 L25.6094,148.5938 L20.8438,148.5938 L20.8438,151.8438 L26.1094,151.8438 L26.1094,154 Z " fill="#000000"/><text fill="#000000" font-family="sans-serif" font-size="14" lengthAdjust="spacing" textLength="106.8389" x="36" y="152.8467">StatusProcesso</text><line style="stroke:#000000;stroke-width:0.5;" x1="8" x2="144.8389" y1="164" y2="164"/><line style="stroke:#000000;stroke-width:0.5;" x1="8" x2="144.8389" y1="172" y2="172"/></g><!--class Processo--><g class="entity" data-qualified-name="Processo" data-source-line="21" id="ent0003"><rect fill="#FFFFFF" height="48" rx="2.5" ry="2.5" style="stroke:#000000;stroke-width:0.5;" width="94.2275" x="180.31" y="7"/><ellipse cx="195.31" cy="23" fill="#ADD1B2" rx="11" ry="11" style="stroke:#181818;stroke-width:1;"/><path d="M198.2788,28.6406 Q197.7006,28.9375 197.06,29.0781 Q196.4194,29.2344 195.7163,29.2344 Q193.2163,29.2344 191.8881,27.5938 Q190.5756,25.9375 190.5756,22.8125 Q190.5756,19.6875 191.8881,18.0313 Q193.2163,16.375 195.7163,16.375 Q196.4194,16.375 197.06,16.5313 Q197.7163,16.6875 198.2788,16.9844 L198.2788,19.7031 Q197.6538,19.125 197.06,18.8594 Q196.4663,18.5781 195.8413,18.5781 Q194.4975,18.5781 193.81,19.6563 Q193.1225,20.7188 193.1225,22.8125 Q193.1225,24.9063 193.81,25.9844 Q194.4975,27.0469 195.8413,27.0469 Q196.4663,27.0469 197.06,26.7813 Q197.6538,26.5 198.2788,25.9219 L198.2788,28.6406 Z " fill="#000000"/><text fill="#000000" font-family="sans-serif" font-size="14" lengthAdjust="spacing" textLength="62.2275" x="209.31" y="27.8467">Processo</text><line style="stroke:#000000;stroke-width:0.5;" x1="181.31" x2="273.5375" y1="39" y2="39"/><line style="stroke:#000000;stroke-width:0.5;" x1="181.31" x2="273.5375" y1="47" y2="47"/></g><!--class Contrato--><g class="entity" data-qualified-name="Contrato" data-source-line="33" id="ent0004"><rect fill="#FFFFFF" height="48" rx="2.5" ry="2.5" style="stroke:#000000;stroke-width:0.5;" width="93.0928" x="180.87" y="132"/><ellipse cx="195.87" cy="148" fill="#ADD1B2" rx="11" ry="11" style="stroke:#181818;stroke-width:1;"/><path d="M198.8388,153.6406 Q198.2606,153.9375 197.62,154.0781 Q196.9794,154.2344 196.2763,154.2344 Q193.7763,154.2344 192.4481,152.5938 Q191.1356,150.9375 191.1356,147.8125 Q191.1356,144.6875 192.4481,143.0313 Q193.7763,141.375 196.2763,141.375 Q196.9794,141.375 197.62,141.5313 Q198.2763,141.6875 198.8388,141.9844 L198.8388,144.7031 Q198.2138,144.125 197.62,143.8594 Q197.0263,143.5781 196.4013,143.5781 Q195.0575,143.5781 194.37,144.6563 Q193.6825,145.7188 193.6825,147.8125 Q193.6825,149.9063 194.37,150.9844 Q195.0575,152.0469 196.4013,152.0469 Q197.0263,152.0469 197.62,151.7813 Q198.2138,151.5 198.8388,150.9219 L198.8388,153.6406 Z " fill="#000000"/><text fill="#000000" font-family="sans-serif" font-size="14" lengthAdjust="spacing" textLength="61.0928" x="209.87" y="152.8467">Contrato</text><line style="stroke:#000000;stroke-width:0.5;" x1="181.87" x2="272.9628" y1="164" y2="164"/><line style="stroke:#000000;stroke-width:0.5;" x1="181.87" x2="272.9628" y1="172" y2="172"/></g><!--class Relatorio--><g class="entity" data-qualified-name="Relatorio" data-source-line="49" id="ent0005"><rect fill="#FFFFFF" height="48" rx="2.5" ry="2.5" style="stroke:#000000;stroke-width:0.5;" width="95.0752" x="308.88" y="132"/><ellipse cx="323.88" cy="148" fill="#ADD1B2" rx="11" ry="11" style="stroke:#181818;stroke-width:1;"/><path d="M326.8488,153.6406 Q326.2706,153.9375 325.63,154.0781 Q324.9894,154.2344 324.2863,154.2344 Q321.7863,154.2344 320.4581,152.5938 Q319.1456,150.9375 319.1456,147.8125 Q319.1456,144.6875 320.4581,143.0313 Q321.7863,141.375 324.2863,141.375 Q324.9894,141.375 325.63,141.5313 Q326.2863,141.6875 326.8488,141.9844 L326.8488,144.7031 Q326.2238,144.125 325.63,143.8594 Q325.0363,143.5781 324.4113,143.5781 Q323.0675,143.5781 322.38,144.6563 Q321.6925,145.7188 321.6925,147.8125 Q321.6925,149.9063 322.38,150.9844 Q323.0675,152.0469 324.4113,152.0469 Q325.0363,152.0469 325.63,151.7813 Q326.2238,151.5 326.8488,150.9219 L326.8488,153.6406 Z " fill="#000000"/><text fill="#000000" font-family="sans-serif" font-size="14" lengthAdjust="spacing" textLength="63.0752" x="337.88" y="152.8467">Relatorio</text><line style="stroke:#000000;stroke-width:0.5;" x1="309.88" x2="402.9552" y1="164" y2="164"/><line style="stroke:#000000;stroke-width:0.5;" x1="309.88" x2="402.9552" y1="172" y2="172"/></g><!--reverse link Processo to Contrato--><g class="link" data-entity-1="ent0003" data-entity-2="ent0004" data-link-type="composition" data-source-line="60" id="lnk6"><path codeLine="60" d="M227.42,67.42 C227.42,89.31 227.42,109.8 227.42,131.66" fill="none" id="Processo-backto-Contrato" style="stroke:#000000;stroke-width:1;"/><polygon fill="#000000" points="227.42,55.42,223.42,61.42,227.42,67.42,231.42,61.42,227.42,55.42" style="stroke:#000000;stroke-width:1;"/><polygon fill="#000000" points="232.42,98.5664,235.3589,89.5213,229.4811,89.5213,232.42,98.5664" style="stroke:#000000;stroke-width:1;"/><text fill="#000000" font-family="sans-serif" font-size="13" lengthAdjust="spacing" textLength="49.0991" x="241.42" y="98.0669">cont&#233;m</text><text fill="#000000" font-family="sans-serif" font-size="13" lengthAdjust="spacing" textLength="8.271" x="218.5255" y="74.8838">1</text><text fill="#000000" font-family="sans-serif" font-size="13" lengthAdjust="spacing" textLength="23.0356" x="201.6221" y="120.9821">1..*</text></g><!--reverse link Processo to Relatorio--><g class="link" data-entity-1="ent0003" data-entity-2="ent0005" data-link-type="composition" data-source-line="61" id="lnk7"><path codeLine="61" d="M272.6395,62.3862 C284.7495,71.0762 288.29,74.4 299.42,85 C314.4,99.27 329.09,117.43 339.8,131.68" fill="none" id="Processo-backto-Relatorio" style="stroke:#000000;stroke-width:1;"/><polygon fill="#000000" points="262.89,55.39,265.4327,62.1379,272.6395,62.3862,270.0968,55.6382,262.89,55.39" style="stroke:#000000;stroke-width:1;"/><polygon fill="#000000" points="322.8998,97.1568,318.7151,88.6163,314.4944,92.7071,322.8998,97.1568" style="stroke:#000000;stroke-width:1;"/><text fill="#000000" font-family="sans-serif" font-size="13" lengthAdjust="spacing" textLength="49.0991" x="328.42" y="98.0669">cont&#233;m</text><text fill="#000000" font-family="sans-serif" font-size="13" lengthAdjust="spacing" textLength="8.271" x="262.5929" y="75.2463">1</text><text fill="#000000" font-family="sans-serif" font-size="13" lengthAdjust="spacing" textLength="23.0356" x="309.9507" y="121.007">0..*</text></g><!--link Processo to StatusProcesso--><g class="link" data-entity-1="ent0003" data-entity-2="ent0002" data-link-type="association" data-source-line="62" id="lnk8"><path codeLine="62" d="M198.66,55.42 C171.79,77.31 131.9,109.8 105.07,131.66" fill="none" id="Processo-StatusProcesso" style="stroke:#000000;stroke-width:1;"/><polygon fill="#000000" points="162.5434,96.7243,171.4124,93.2902,167.7,88.733,162.5434,96.7243" style="stroke:#000000;stroke-width:1;"/><text fill="#000000" font-family="sans-serif" font-size="13" lengthAdjust="spacing" textLength="41.6025" x="175.42" y="98.0669">possui</text><text fill="#000000" font-family="sans-serif" font-size="13" lengthAdjust="spacing" textLength="23.0356" x="166.3531" y="74.8838">0..*</text><text fill="#000000" font-family="sans-serif" font-size="13" lengthAdjust="spacing" textLength="8.271" x="103.1116" y="120.9821">1</text></g><?plantuml-src fLJDRjim3BxdAOHSqdLBiLvxAA0u6f2XImB7tOu1AwkfMbdq93a3DknfTXZw77cnKNRYn4Q0OTZ9_Fr8VgGyOkFnc0aVj44VvO5_qRO41mMJ1hndFmOJa2yRXvND4pJes9Sd7TI0EuVV6iF4KCHWWYvNxjJoSp0ODVYsAXfqHH9R1GYLNpgKodka2YF69oBD5YI8Jsi-vtUpbLYlH9AAZASpthKdYqKw5NEUy9Ym57DICh7c7-zNcOXOotJncK-ZCnL7ELdCaxlxMIFpUIBkehtjCOdJAizonThE59kYh0fb0-n-xtvXFK93IwVxCIltwYndDqpRK1jp290u3HAGh5C8AjE5gbs-fe2iNIvg7vZAnWGUlxL5OkJMxe6IezPWAUbK02eKyLg5V6yPWOFHty4rTIuiRd5rllQREc5BuJdG6crm4F02QB8jvB7k0w9vnvuhEfP7BI7eRIpeWzDsqqbEbQ5Kf_yXczRGy7eetEELGZiSoNrOXs-BXUBkQwMts4AtYxWl3KBUtuEqvRCeIgSyT5CYrbb7n9fPBVLXfwqrKwxGjcE64esMQgKsbUlrL1gmo8a6OenkhY6eIV9UMzgC0xw_X3EkOszdd1z0LkOKjgMtNSrV-7M7kFyb-0aT-Cp10vWdoC6Ve9MAy7DCrQDooahT8_fmEqjgfJTj-sZZEBG92_6DOlVnnhVQAiFh8RkaXE7rrTNby7XbD_KbxLuBTdic-7qTVEJiV7GJLOCF-_-s6rQYzvLcjty0?></g></svg>