<svg xmlns="http://www.w3.org/2000/svg" xmlns:xlink="http://www.w3.org/1999/xlink" contentStyleType="text/css" data-diagram-type="CLASS" height="178px" preserveAspectRatio="none" style="width:651px;height:178px;background:#FFFFFF;" version="1.1" viewBox="0 0 651 178" width="651px" zoomAndPan="magnify"><?plantuml 1.2026.3beta6?><defs/><g><!--class Secretaria--><g class="entity" data-qualified-name="Secretaria" data-source-line="11" id="ent0002"><rect fill="#F1F1F1" height="48" rx="2.5" ry="2.5" style="stroke:#181818;stroke-width:0.5;" width="103.8594" x="266.18" y="115"/><ellipse cx="281.18" cy="131" fill="#ADD1B2" rx="11" ry="11" style="stroke:#181818;stroke-width:1;"/><path d="M284.1488,136.6406 Q283.5706,136.9375 282.93,137.0781 Q282.2894,137.2344 281.5863,137.2344 Q279.0863,137.2344 277.7581,135.5938 Q276.4456,133.9375 276.4456,130.8125 Q276.4456,127.6875 277.7581,126.0313 Q279.0863,124.375 281.5863,124.375 Q282.2894,124.375 282.93,124.5313 Q283.5863,124.6875 284.1488,124.9844 L284.1488,127.7031 Q283.5238,127.125 282.93,126.8594 Q282.3363,126.5781 281.7113,126.5781 Q280.3675,126.5781 279.68,127.6563 Q278.9925,128.7188 278.9925,130.8125 Q278.9925,132.9063 279.68,133.9844 Q280.3675,135.0469 281.7113,135.0469 Q282.3363,135.0469 282.93,134.7813 Q283.5238,134.5 284.1488,133.9219 L284.1488,136.6406 Z " fill="#000000"/><text fill="#000000" font-family="sans-serif" font-size="14" lengthAdjust="spacing" textLength="71.8594" x="295.18" y="135.8467">Secretaria</text><line style="stroke:#181818;stroke-width:0.5;" x1="267.18" x2="369.0394" y1="147" y2="147"/><line style="stroke:#181818;stroke-width:0.5;" x1="267.18" x2="369.0394" y1="155" y2="155"/></g><!--class Usuario--><g class="entity" data-qualified-name="Usuario" data-source-line="12" id="ent0003"><rect fill="#F1F1F1" height="48" rx="2.5" ry="2.5" style="stroke:#181818;stroke-width:0.5;" width="85.2041" x="398.51" y="7"/><ellipse cx="413.51" cy="23" fill="#ADD1B2" rx="11" ry="11" style="stroke:#181818;stroke-width:1;"/><path d="M416.4788,28.6406 Q415.9006,28.9375 415.26,29.0781 Q414.6194,29.2344 413.9163,29.2344 Q411.4163,29.2344 410.0881,27.5938 Q408.7756,25.9375 408.7756,22.8125 Q408.7756,19.6875 410.0881,18.0313 Q411.4163,16.375 413.9163,16.375 Q414.6194,16.375 415.26,16.5313 Q415.9163,16.6875 416.4788,16.9844 L416.4788,19.7031 Q415.8538,19.125 415.26,18.8594 Q414.6663,18.5781 414.0413,18.5781 Q412.6975,18.5781 412.01,19.6563 Q411.3225,20.7188 411.3225,22.8125 Q411.3225,24.9063 412.01,25.9844 Q412.6975,27.0469 414.0413,27.0469 Q414.6663,27.0469 415.26,26.7813 Q415.8538,26.5 416.4788,25.9219 L416.4788,28.6406 Z " fill="#000000"/><text fill="#000000" font-family="sans-serif" font-size="14" lengthAdjust="spacing" textLength="53.2041" x="427.51" y="27.8467">Usuario</text><line style="stroke:#181818;stroke-width:0.5;" x1="399.51" x2="482.7141" y1="39" y2="39"/><line style="stroke:#181818;stroke-width:0.5;" x1="399.51" x2="482.7141" y1="47" y2="47"/></g><!--class Aluno--><g class="entity" data-qualified-name="Aluno" data-source-line="15" id="ent0005"><rect fill="#F1F1F1" height="48" rx="2.5" ry="2.5" style="stroke:#181818;stroke-width:0.5;" width="71.7783" x="405.22" y="115"/><ellipse cx="420.22" cy="131" fill="#ADD1B2" rx="11" ry="11" style="stroke:#181818;stroke-width:1;"/><path d="M423.1888,136.6406 Q422.6106,136.9375 421.97,137.0781 Q421.3294,137.2344 420.6263,137.2344 Q418.1263,137.2344 416.7981,135.5938 Q415.4856,133.9375 415.4856,130.8125 Q415.4856,127.6875 416.7981,126.0313 Q418.1263,124.375 420.6263,124.375 Q421.3294,124.375 421.97,124.5313 Q422.6263,124.6875 423.1888,124.9844 L423.1888,127.7031 Q422.5638,127.125 421.97,126.8594 Q421.3763,126.5781 420.7513,126.5781 Q419.4075,126.5781 418.72,127.6563 Q418.0325,128.7188 418.0325,130.8125 Q418.0325,132.9063 418.72,133.9844 Q419.4075,135.0469 420.7513,135.0469 Q421.3763,135.0469 421.97,134.7813 Q422.5638,134.5 423.1888,133.9219 L423.1888,136.6406 Z " fill="#000000"/><text fill="#000000" font-family="sans-serif" font-size="14" lengthAdjust="spacing" textLength="39.7783" x="434.22" y="135.8467">Aluno</text><line style="stroke:#181818;stroke-width:0.5;" x1="406.22" x2="475.9983" y1="147" y2="147"/><line style="stroke:#181818;stroke-width:0.5;" x1="406.22" x2="475.9983" y1="155" y2="155"/></g><!--class Coordenacao--><g class="entity" data-qualified-name="Coordenacao" data-source-line="19" id="ent0007"><rect fill="#F1F1F1" height="48" rx="2.5" ry="2.5" style="stroke:#181818;stroke-width:0.5;" width="124.4561" x="511.89" y="115"/><ellipse cx="526.89" cy="131" fill="#ADD1B2" rx="11" ry="11" style="stroke:#181818;stroke-width:1;"/><path d="M529.8588,136.6406 Q529.2806,136.9375 528.64,137.0781 Q527.9994,137.2344 527.2963,137.2344 Q524.7963,137.2344 523.4681,135.5938 Q522.1556,133.9375 522.1556,130.8125 Q522.1556,127.6875 523.4681,126.0313 Q524.7963,124.375 527.2963,124.375 Q527.9994,124.375 528.64,124.5313 Q529.2963,124.6875 529.8588,124.9844 L529.8588,127.7031 Q529.2338,127.125 528.64,126.8594 Q528.0463,126.5781 527.4213,126.5781 Q526.0775,126.5781 525.39,127.6563 Q524.7025,128.7188 524.7025,130.8125 Q524.7025,132.9063 525.39,133.9844 Q526.0775,135.0469 527.4213,135.0469 Q528.0463,135.0469 528.64,134.7813 Q529.2338,134.5 529.8588,133.9219 L529.8588,136.6406 Z " fill="#000000"/><text fill="#000000" font-family="sans-serif" font-size="14" lengthAdjust="spacing" textLength="92.4561" x="540.89" y="135.8467">Coordenacao</text><line style="stroke:#181818;stroke-width:0.5;" x1="512.89" x2="635.3461" y1="147" y2="147"/><line style="stroke:#181818;stroke-width:0.5;" x1="512.89" x2="635.3461" y1="155" y2="155"/></g><!--class Agente--><g class="entity" data-qualified-name="Agente" data-source-line="23" id="ent0009"><rect fill="#F1F1F1" height="48" rx="2.5" ry="2.5" style="stroke:#181818;stroke-width:0.5;" width="82.0527" x="13.09" y="7"/><ellipse cx="28.09" cy="23" fill="#ADD1B2" rx="11" ry="11" style="stroke:#181818;stroke-width:1;"/><path d="M31.0588,28.6406 Q30.4806,28.9375 29.84,29.0781 Q29.1994,29.2344 28.4963,29.2344 Q25.9963,29.2344 24.6681,27.5938 Q23.3556,25.9375 23.3556,22.8125 Q23.3556,19.6875 24.6681,18.0313 Q25.9963,16.375 28.4963,16.375 Q29.1994,16.375 29.84,16.5313 Q30.4963,16.6875 31.0588,16.9844 L31.0588,19.7031 Q30.4338,19.125 29.84,18.8594 Q29.2463,18.5781 28.6213,18.5781 Q27.2775,18.5781 26.59,19.6563 Q25.9025,20.7188 25.9025,22.8125 Q25.9025,24.9063 26.59,25.9844 Q27.2775,27.0469 28.6213,27.0469 Q29.2463,27.0469 29.84,26.7813 Q30.4338,26.5 31.0588,25.9219 L31.0588,28.6406 Z " fill="#000000"/><text fill="#000000" font-family="sans-serif" font-size="14" lengthAdjust="spacing" textLength="50.0527" x="42.09" y="27.8467">Agente</text><line style="stroke:#181818;stroke-width:0.5;" x1="14.09" x2="94.1427" y1="39" y2="39"/><line style="stroke:#181818;stroke-width:0.5;" x1="14.09" x2="94.1427" y1="47" y2="47"/></g><!--class Documento--><g class="entity" data-qualified-name="Documento" data-source-line="27" id="ent0010"><rect fill="#F1F1F1" height="48" rx="2.5" ry="2.5" style="stroke:#181818;stroke-width:0.5;" width="113.0947" x="130.57" y="7"/><ellipse cx="145.57" cy="23" fill="#ADD1B2" rx="11" ry="11" style="stroke:#181818;stroke-width:1;"/><path d="M148.5388,28.6406 Q147.9606,28.9375 147.32,29.0781 Q146.6794,29.2344 145.9763,29.2344 Q143.4763,29.2344 142.1481,27.5938 Q140.8356,25.9375 140.8356,22.8125 Q140.8356,19.6875 142.1481,18.0313 Q143.4763,16.375 145.9763,16.375 Q146.6794,16.375 147.32,16.5313 Q147.9763,16.6875 148.5388,16.9844 L148.5388,19.7031 Q147.9138,19.125 147.32,18.8594 Q146.7263,18.5781 146.1013,18.5781 Q144.7575,18.5781 144.07,19.6563 Q143.3825,20.7188 143.3825,22.8125 Q143.3825,24.9063 144.07,25.9844 Q144.7575,27.0469 146.1013,27.0469 Q146.7263,27.0469 147.32,26.7813 Q147.9138,26.5 148.5388,25.9219 L148.5388,28.6406 Z " fill="#000000"/><text fill="#000000" font-family="sans-serif" font-size="14" lengthAdjust="spacing" textLength="81.0947" x="159.57" y="27.8467">Documento</text><line style="stroke:#181818;stroke-width:0.5;" x1="131.57" x2="242.6647" y1="39" y2="39"/><line style="stroke:#181818;stroke-width:0.5;" x1="131.57" x2="242.6647" y1="47" y2="47"/></g><!--class Processo--><g class="entity" data-qualified-name="Processo" data-source-line="31" id="ent0011"><rect fill="#F1F1F1" height="48" rx="2.5" ry="2.5" style="stroke:#181818;stroke-width:0.5;" width="94.2275" x="7" y="115"/><ellipse cx="22" cy="131" fill="#ADD1B2" rx="11" ry="11" style="stroke:#181818;stroke-width:1;"/><path d="M24.9688,136.6406 Q24.3906,136.9375 23.75,137.0781 Q23.1094,137.2344 22.4063,137.2344 Q19.9063,137.2344 18.5781,135.5938 Q17.2656,133.9375 17.2656,130.8125 Q17.2656,127.6875 18.5781,126.0313 Q19.9063,124.375 22.4063,124.375 Q23.1094,124.375 23.75,124.5313 Q24.4063,124.6875 24.9688,124.9844 L24.9688,127.7031 Q24.3438,127.125 23.75,126.8594 Q23.1563,126.5781 22.5313,126.5781 Q21.1875,126.5781 20.5,127.6563 Q19.8125,128.7188 19.8125,130.8125 Q19.8125,132.9063 20.5,133.9844 Q21.1875,135.0469 22.5313,135.0469 Q23.1563,135.0469 23.75,134.7813 Q24.3438,134.5 24.9688,133.9219 L24.9688,136.6406 Z " fill="#000000"/><text fill="#000000" font-family="sans-serif" font-size="14" lengthAdjust="spacing" textLength="62.2275" x="36" y="135.8467">Processo</text><line style="stroke:#181818;stroke-width:0.5;" x1="8" x2="100.2275" y1="147" y2="147"/><line style="stroke:#181818;stroke-width:0.5;" x1="8" x2="100.2275" y1="155" y2="155"/></g><!--class Relat?rio--><g class="entity" data-qualified-name="Relat.rio" data-source-line="36" id="ent0012"><rect fill="#F1F1F1" height="48" rx="2.5" ry="2.5" style="stroke:#181818;stroke-width:0.5;" width="95.0752" x="136.58" y="115"/><ellipse cx="151.58" cy="131" fill="#ADD1B2" rx="11" ry="11" style="stroke:#181818;stroke-width:1;"/><path d="M154.5488,136.6406 Q153.9706,136.9375 153.33,137.0781 Q152.6894,137.2344 151.9863,137.2344 Q149.4863,137.2344 148.1581,135.5938 Q146.8456,133.9375 146.8456,130.8125 Q146.8456,127.6875 148.1581,126.0313 Q149.4863,124.375 151.9863,124.375 Q152.6894,124.375 153.33,124.5313 Q153.9863,124.6875 154.5488,124.9844 L154.5488,127.7031 Q153.9238,127.125 153.33,126.8594 Q152.7363,126.5781 152.1113,126.5781 Q150.7675,126.5781 150.08,127.6563 Q149.3925,128.7188 149.3925,130.8125 Q149.3925,132.9063 150.08,133.9844 Q150.7675,135.0469 152.1113,135.0469 Q152.7363,135.0469 153.33,134.7813 Q153.9238,134.5 154.5488,133.9219 L154.5488,136.6406 Z " fill="#000000"/><text fill="#000000" font-family="sans-serif" font-size="14" lengthAdjust="spacing" textLength="63.0752" x="165.58" y="135.8467">Relat&#243;rio</text><line style="stroke:#181818;stroke-width:0.5;" x1="137.58" x2="230.6552" y1="147" y2="147"/><line style="stroke:#181818;stroke-width:0.5;" x1="137.58" x2="230.6552" y1="155" y2="155"/></g><!--reverse link Usuario to Secretaria--><g class="link" data-entity-1="ent0003" data-entity-2="ent0002" data-link-type="extension" data-source-line="12" id="lnk4"><path d="M400.4863,67.0125 C379.9763,84.6925 365.54,97.13 345.04,114.79" fill="none" id="Usuario-backto-Secretaria" style="stroke:#181818;stroke-width:1;"/><polygon fill="none" points="414.12,55.26,396.5688,62.4679,404.4038,71.5571,414.12,55.26" style="stroke:#181818;stroke-width:1;"/></g><!--reverse link Usuario to Aluno--><g class="link" data-entity-1="ent0003" data-entity-2="ent0005" data-link-type="extension" data-source-line="16" id="lnk6"><path d="M441.11,73.26 C441.11,90.94 441.11,97.13 441.11,114.79" fill="none" id="Usuario-backto-Aluno" style="stroke:#181818;stroke-width:1;"/><polygon fill="none" points="441.11,55.26,435.11,73.26,447.11,73.26,441.11,55.26" style="stroke:#181818;stroke-width:1;"/></g><!--reverse link Usuario to Coordenacao--><g class="link" data-entity-1="ent0003" data-entity-2="ent0007" data-link-type="extension" data-source-line="20" id="lnk8"><path d="M484.3754,66.4797 C506.5554,84.1597 522.84,97.13 544.99,114.79" fill="none" id="Usuario-backto-Coordenacao" style="stroke:#181818;stroke-width:1;"/><polygon fill="none" points="470.3,55.26,480.6355,71.1715,488.1153,61.7879,470.3,55.26" style="stroke:#181818;stroke-width:1;"/></g><?plantuml-src VOzD2i8m44RtFSM0YrRi2TmLFO1OFC2OZZMGJ20_8eYdyWXUp1JRQ2gOvUFbUqm9U7JUel0W53e71nVGIWEteeJXBK2Zjr84XR06oJvnDfeYYhybzucIHgb-iIC-umUFV3NbgbcapjVhsUmoxLhgw2HPsdO8L6mks6QfGRqNnVkubeGb7uC8TFN4tVUzHT8Q5TZyDJR6s8uO1VxtcfxOKuQsHWGTQIxkh17at0H7kYU5_lcOLby0?></g></svg>