<svg xmlns="http://www.w3.org/2000/svg" xmlns:xlink="http://www.w3.org/1999/xlink" contentStyleType="text/css" data-diagram-type="CLASS" height="304px" preserveAspectRatio="none" style="width:215px;height:304px;background:#FFFFFF;" version="1.1" viewBox="0 0 215 304" width="215px" zoomAndPan="magnify"><?plantuml 1.2026.3beta6?><defs/><g><!--class Usuario--><g class="entity" data-qualified-name="Usuario" data-source-line="9" id="ent0002"><rect fill="#FFFFFF" height="48" rx="2.5" ry="2.5" style="stroke:#000000;stroke-width:0.5;" width="85.2041" x="53.66" y="7"/><ellipse cx="68.66" cy="23" fill="#A9DCDF" rx="11" ry="11" style="stroke:#181818;stroke-width:1;"/><path d="M68.7694,18.3438 L67.6131,23.4219 L69.9413,23.4219 L68.7694,18.3438 Z M67.285,16.1094 L70.2694,16.1094 L73.6288,28.5 L71.1756,28.5 L70.41,25.4375 L67.1288,25.4375 L66.3788,28.5 L63.9413,28.5 L67.285,16.1094 Z " fill="#000000"/><text fill="#000000" font-family="sans-serif" font-size="14" font-style="italic" lengthAdjust="spacing" textLength="53.2041" x="82.66" y="27.8467">Usuario</text><line style="stroke:#000000;stroke-width:0.5;" x1="54.66" x2="137.8641" y1="39" y2="39"/><line style="stroke:#000000;stroke-width:0.5;" x1="54.66" x2="137.8641" y1="47" y2="47"/></g><!--class Coordenacao--><g class="entity" data-qualified-name="Coordenacao" data-source-line="17" id="ent0003"><rect fill="#FFFFFF" height="48" rx="2.5" ry="2.5" style="stroke:#000000;stroke-width:0.5;" width="124.4561" x="34.03" y="116"/><ellipse cx="49.03" cy="132" fill="#ADD1B2" rx="11" ry="11" style="stroke:#181818;stroke-width:1;"/><path d="M51.9988,137.6406 Q51.4206,137.9375 50.78,138.0781 Q50.1394,138.2344 49.4363,138.2344 Q46.9363,138.2344 45.6081,136.5938 Q44.2956,134.9375 44.2956,131.8125 Q44.2956,128.6875 45.6081,127.0313 Q46.9363,125.375 49.4363,125.375 Q50.1394,125.375 50.78,125.5313 Q51.4363,125.6875 51.9988,125.9844 L51.9988,128.7031 Q51.3738,128.125 50.78,127.8594 Q50.1863,127.5781 49.5613,127.5781 Q48.2175,127.5781 47.53,128.6563 Q46.8425,129.7188 46.8425,131.8125 Q46.8425,133.9063 47.53,134.9844 Q48.2175,136.0469 49.5613,136.0469 Q50.1863,136.0469 50.78,135.7813 Q51.3738,135.5 51.9988,134.9219 L51.9988,137.6406 Z " fill="#000000"/><text fill="#000000" font-family="sans-serif" font-size="14" lengthAdjust="spacing" textLength="92.4561" x="63.03" y="136.8467">Coordenacao</text><line style="stroke:#000000;stroke-width:0.5;" x1="35.03" x2="157.4861" y1="148" y2="148"/><line style="stroke:#000000;stroke-width:0.5;" x1="35.03" x2="157.4861" y1="156" y2="156"/></g><!--class Area--><g class="entity" data-qualified-name="Area" data-source-line="22" id="ent0005"><rect fill="#FFFFFF" height="48" rx="2.5" ry="2.5" style="stroke:#000000;stroke-width:0.5;" width="64.5254" x="7" y="241"/><ellipse cx="22" cy="257" fill="#ADD1B2" rx="11" ry="11" style="stroke:#181818;stroke-width:1;"/><path d="M24.9688,262.6406 Q24.3906,262.9375 23.75,263.0781 Q23.1094,263.2344 22.4063,263.2344 Q19.9063,263.2344 18.5781,261.5938 Q17.2656,259.9375 17.2656,256.8125 Q17.2656,253.6875 18.5781,252.0313 Q19.9063,250.375 22.4063,250.375 Q23.1094,250.375 23.75,250.5313 Q24.4063,250.6875 24.9688,250.9844 L24.9688,253.7031 Q24.3438,253.125 23.75,252.8594 Q23.1563,252.5781 22.5313,252.5781 Q21.1875,252.5781 20.5,253.6563 Q19.8125,254.7188 19.8125,256.8125 Q19.8125,258.9063 20.5,259.9844 Q21.1875,261.0469 22.5313,261.0469 Q23.1563,261.0469 23.75,260.7813 Q24.3438,260.5 24.9688,259.9219 L24.9688,262.6406 Z " fill="#000000"/><text fill="#000000" font-family="sans-serif" font-size="14" lengthAdjust="spacing" textLength="32.5254" x="36" y="261.8467">Area</text><line style="stroke:#000000;stroke-width:0.5;" x1="8" x2="70.5254" y1="273" y2="273"/><line style="stroke:#000000;stroke-width:0.5;" x1="8" x2="70.5254" y1="281" y2="281"/></g><!--class Processo--><g class="entity" data-qualified-name="Processo" data-source-line="25" id="ent0006"><rect fill="#FFFFFF" height="48" rx="2.5" ry="2.5" style="stroke:#000000;stroke-width:0.5;" width="94.2275" x="106.15" y="241"/><ellipse cx="121.15" cy="257" fill="#ADD1B2" rx="11" ry="11" style="stroke:#181818;stroke-width:1;"/><path d="M124.1188,262.6406 Q123.5406,262.9375 122.9,263.0781 Q122.2594,263.2344 121.5563,263.2344 Q119.0563,263.2344 117.7281,261.5938 Q116.4156,259.9375 116.4156,256.8125 Q116.4156,253.6875 117.7281,252.0313 Q119.0563,250.375 121.5563,250.375 Q122.2594,250.375 122.9,250.5313 Q123.5563,250.6875 124.1188,250.9844 L124.1188,253.7031 Q123.4938,253.125 122.9,252.8594 Q122.3063,252.5781 121.6813,252.5781 Q120.3375,252.5781 119.65,253.6563 Q118.9625,254.7188 118.9625,256.8125 Q118.9625,258.9063 119.65,259.9844 Q120.3375,261.0469 121.6813,261.0469 Q122.3063,261.0469 122.9,260.7813 Q123.4938,260.5 124.1188,259.9219 L124.1188,262.6406 Z " fill="#000000"/><text fill="#000000" font-family="sans-serif" font-size="14" lengthAdjust="spacing" textLength="62.2275" x="135.15" y="261.8467">Processo</text><line style="stroke:#000000;stroke-width:0.5;" x1="107.15" x2="199.3775" y1="273" y2="273"/><line style="stroke:#000000;stroke-width:0.5;" x1="107.15" x2="199.3775" y1="281" y2="281"/></g><!--reverse link Usuario to Coordenacao--><g class="link" data-entity-1="ent0002" data-entity-2="ent0003" data-link-type="extension" id="lnk4"><path d="M96.26,73.48 C96.26,91.32 96.26,97.75 96.26,115.57" fill="none" id="Usuario-backto-Coordenacao" style="stroke:#000000;stroke-width:1;"/><polygon fill="none" points="96.26,55.48,90.26,73.48,102.26,73.48,96.26,55.48" style="stroke:#000000;stroke-width:1;"/></g><!--link Coordenacao to Area--><g class="link" data-entity-1="ent0003" data-entity-2="ent0005" data-link-type="association" data-source-line="29" id="lnk7"><path codeLine="29" d="M85.41,164.42 C75.26,186.31 60.21,218.8 50.08,240.66" fill="none" id="Coordenacao-Area" style="stroke:#000000;stroke-width:1;"/><text fill="#000000" font-family="sans-serif" font-size="13" lengthAdjust="spacing" textLength="8.271" x="74.0077" y="183.8838">1</text><text fill="#000000" font-family="sans-serif" font-size="13" lengthAdjust="spacing" textLength="8.271" x="43.7747" y="229.9821">1</text></g><!--link Coordenacao to Processo--><g class="link" data-entity-1="ent0003" data-entity-2="ent0006" data-link-type="association" data-source-line="30" id="lnk8"><path codeLine="30" d="M107.12,164.42 C117.26,186.31 132.32,218.8 142.45,240.66" fill="none" id="Coordenacao-Processo" style="stroke:#000000;stroke-width:1;"/><polygon fill="#000000" points="134.3623,207.103,133.2258,197.6606,127.8927,200.1319,134.3623,207.103" style="stroke:#000000;stroke-width:1;"/><text fill="#000000" font-family="sans-serif" font-size="13" lengthAdjust="spacing" textLength="39.1016" x="141.26" y="207.0669">valida</text><text fill="#000000" font-family="sans-serif" font-size="13" lengthAdjust="spacing" textLength="8.271" x="100.7382" y="183.8838">1</text><text fill="#000000" font-family="sans-serif" font-size="13" lengthAdjust="spacing" textLength="23.0356" x="114.0154" y="229.9821">0..*</text></g><?plantuml-src RP5FJyCm3CNl_HJME6o3TOBh3fFMYZj2Gfozr7HcQJmvQK52V7VSFx1DucJdb-Iz5sSEUPx3Oqpi9VPz5eySJgZOWFCO8tnb1RfZhTA6gXGl2gy7JfJjLELZ18Mt4raXMf5Uakyicm_wPQz44Px9KuSXqMY5-vWKNPgSNcABocAESxY11fEoQpt21ZYaWGLfo9PsYqCz46gG_JMA50vuYUx0IyrXiJIu5_5zhj6nb3vpG8S2z9aeLDSfSa2bNcjdPL3gq7E5QWF3ccLnKd4KezYHfwbT0Hhji9B9RWNlhSttZHqcxix9bkSSlRmP_gr_jKOspj1cXuubO4CXJNzrcN_sC3Csb27jVtltw_NjxAo-cPu3sny0?></g></svg>