<svg xmlns="http://www.w3.org/2000/svg" xmlns:xlink="http://www.w3.org/1999/xlink" contentStyleType="text/css" data-diagram-type="CLASS" height="304px" preserveAspectRatio="none" style="width:233px;height:304px;background:#FFFFFF;" version="1.1" viewBox="0 0 233 304" width="233px" zoomAndPan="magnify"><?plantuml 1.2026.3beta6?><defs/><g><!--class Usuario--><g class="entity" data-qualified-name="Usuario" data-source-line="9" id="ent0002"><rect fill="#FFFFFF" height="48" rx="2.5" ry="2.5" style="stroke:#000000;stroke-width:0.5;" width="85.2041" x="70.51" y="7"/><ellipse cx="85.51" cy="23" fill="#A9DCDF" rx="11" ry="11" style="stroke:#181818;stroke-width:1;"/><path d="M85.6194,18.3438 L84.4631,23.4219 L86.7912,23.4219 L85.6194,18.3438 Z M84.135,16.1094 L87.1194,16.1094 L90.4787,28.5 L88.0256,28.5 L87.26,25.4375 L83.9787,25.4375 L83.2287,28.5 L80.7912,28.5 L84.135,16.1094 Z " fill="#000000"/><text fill="#000000" font-family="sans-serif" font-size="14" font-style="italic" lengthAdjust="spacing" textLength="53.2041" x="99.51" y="27.8467">Usuario</text><line style="stroke:#000000;stroke-width:0.5;" x1="71.51" x2="154.7141" y1="39" y2="39"/><line style="stroke:#000000;stroke-width:0.5;" x1="71.51" x2="154.7141" y1="47" y2="47"/></g><!--class Secretaria--><g class="entity" data-qualified-name="Secretaria" data-source-line="17" id="ent0003"><rect fill="#FFFFFF" height="48" rx="2.5" ry="2.5" style="stroke:#000000;stroke-width:0.5;" width="103.8594" x="61.18" y="116"/><ellipse cx="76.18" cy="132" fill="#ADD1B2" rx="11" ry="11" style="stroke:#181818;stroke-width:1;"/><path d="M79.1488,137.6406 Q78.5706,137.9375 77.93,138.0781 Q77.2894,138.2344 76.5863,138.2344 Q74.0863,138.2344 72.7581,136.5938 Q71.4456,134.9375 71.4456,131.8125 Q71.4456,128.6875 72.7581,127.0313 Q74.0863,125.375 76.5863,125.375 Q77.2894,125.375 77.93,125.5313 Q78.5863,125.6875 79.1488,125.9844 L79.1488,128.7031 Q78.5238,128.125 77.93,127.8594 Q77.3363,127.5781 76.7113,127.5781 Q75.3675,127.5781 74.68,128.6563 Q73.9925,129.7188 73.9925,131.8125 Q73.9925,133.9063 74.68,134.9844 Q75.3675,136.0469 76.7113,136.0469 Q77.3363,136.0469 77.93,135.7813 Q78.5238,135.5 79.1488,134.9219 L79.1488,137.6406 Z " fill="#000000"/><text fill="#000000" font-family="sans-serif" font-size="14" lengthAdjust="spacing" textLength="71.8594" x="90.18" y="136.8467">Secretaria</text><line style="stroke:#000000;stroke-width:0.5;" x1="62.18" x2="164.0394" y1="148" y2="148"/><line style="stroke:#000000;stroke-width:0.5;" x1="62.18" x2="164.0394" y1="156" y2="156"/></g><!--class Processo--><g class="entity" data-qualified-name="Processo" data-source-line="24" id="ent0005"><rect fill="#FFFFFF" height="48" rx="2.5" ry="2.5" style="stroke:#000000;stroke-width:0.5;" width="94.2275" x="7" y="241"/><ellipse cx="22" cy="257" fill="#ADD1B2" rx="11" ry="11" style="stroke:#181818;stroke-width:1;"/><path d="M24.9688,262.6406 Q24.3906,262.9375 23.75,263.0781 Q23.1094,263.2344 22.4063,263.2344 Q19.9063,263.2344 18.5781,261.5938 Q17.2656,259.9375 17.2656,256.8125 Q17.2656,253.6875 18.5781,252.0313 Q19.9063,250.375 22.4063,250.375 Q23.1094,250.375 23.75,250.5313 Q24.4063,250.6875 24.9688,250.9844 L24.9688,253.7031 Q24.3438,253.125 23.75,252.8594 Q23.1563,252.5781 22.5313,252.5781 Q21.1875,252.5781 20.5,253.6563 Q19.8125,254.7188 19.8125,256.8125 Q19.8125,258.9063 20.5,259.9844 Q21.1875,261.0469 22.5313,261.0469 Q23.1563,261.0469 23.75,260.7813 Q24.3438,260.5 24.9688,259.9219 L24.9688,262.6406 Z " fill="#000000"/><text fill="#000000" font-family="sans-serif" font-size="14" lengthAdjust="spacing" textLength="62.2275" x="36" y="261.8467">Processo</text><line style="stroke:#000000;stroke-width:0.5;" x1="8" x2="100.2275" y1="273" y2="273"/><line style="stroke:#000000;stroke-width:0.5;" x1="8" x2="100.2275" y1="281" y2="281"/></g><!--class Aluno--><g class="entity" data-qualified-name="Aluno" data-source-line="27" id="ent0006"><rect fill="#FFFFFF" height="48" rx="2.5" ry="2.5" style="stroke:#000000;stroke-width:0.5;" width="71.7783" x="136.22" y="241"/><ellipse cx="151.22" cy="257" fill="#ADD1B2" rx="11" ry="11" style="stroke:#181818;stroke-width:1;"/><path d="M154.1888,262.6406 Q153.6106,262.9375 152.97,263.0781 Q152.3294,263.2344 151.6263,263.2344 Q149.1263,263.2344 147.7981,261.5938 Q146.4856,259.9375 146.4856,256.8125 Q146.4856,253.6875 147.7981,252.0313 Q149.1263,250.375 151.6263,250.375 Q152.3294,250.375 152.97,250.5313 Q153.6263,250.6875 154.1888,250.9844 L154.1888,253.7031 Q153.5638,253.125 152.97,252.8594 Q152.3763,252.5781 151.7513,252.5781 Q150.4075,252.5781 149.72,253.6563 Q149.0325,254.7188 149.0325,256.8125 Q149.0325,258.9063 149.72,259.9844 Q150.4075,261.0469 151.7513,261.0469 Q152.3763,261.0469 152.97,260.7813 Q153.5638,260.5 154.1888,259.9219 L154.1888,262.6406 Z " fill="#000000"/><text fill="#000000" font-family="sans-serif" font-size="14" lengthAdjust="spacing" textLength="39.7783" x="165.22" y="261.8467">Aluno</text><line style="stroke:#000000;stroke-width:0.5;" x1="137.22" x2="206.9983" y1="273" y2="273"/><line style="stroke:#000000;stroke-width:0.5;" x1="137.22" x2="206.9983" y1="281" y2="281"/></g><!--reverse link Usuario to Secretaria--><g class="link" data-entity-1="ent0002" data-entity-2="ent0003" data-link-type="extension" id="lnk4"><path d="M113.11,73.48 C113.11,91.32 113.11,97.75 113.11,115.57" fill="none" id="Usuario-backto-Secretaria" style="stroke:#000000;stroke-width:1;"/><polygon fill="none" points="113.11,55.48,107.11,73.48,119.11,73.48,113.11,55.48" style="stroke:#000000;stroke-width:1;"/></g><!--link Secretaria to Processo--><g class="link" data-entity-1="ent0003" data-entity-2="ent0005" data-link-type="association" data-source-line="31" id="lnk7"><path codeLine="31" d="M92.52,164.26 C85.55,173.09 78.24,183.55 73.11,194 C65.91,208.7 61.12,226.52 58.15,240.5" fill="none" id="Secretaria-Processo" style="stroke:#000000;stroke-width:1;"/><polygon fill="#000000" points="76.0551,207.1246,82.4517,200.0866,77.0932,197.6709,76.0551,207.1246" style="stroke:#000000;stroke-width:1;"/><text fill="#000000" font-family="sans-serif" font-size="13" lengthAdjust="spacing" textLength="41.1328" x="87.11" y="207.0669">audita</text><text fill="#000000" font-family="sans-serif" font-size="13" lengthAdjust="spacing" textLength="8.271" x="78.5593" y="184.0846">1</text><text fill="#000000" font-family="sans-serif" font-size="13" lengthAdjust="spacing" textLength="23.0356" x="33.3351" y="229.7831">0..*</text></g><!--link Secretaria to Aluno--><g class="link" data-entity-1="ent0003" data-entity-2="ent0006" data-link-type="association" data-source-line="32" id="lnk8"><path codeLine="32" d="M124.35,164.42 C134.85,186.31 150.43,218.8 160.92,240.66" fill="none" id="Secretaria-Aluno" style="stroke:#000000;stroke-width:1;"/><polygon fill="#000000" points="153.2724,207.0746,152.0104,197.6481,146.7107,200.1903,153.2724,207.0746" style="stroke:#000000;stroke-width:1;"/><text fill="#000000" font-family="sans-serif" font-size="13" lengthAdjust="spacing" textLength="57.8652" x="160.11" y="207.0669">pesquisa</text><text fill="#000000" font-family="sans-serif" font-size="13" lengthAdjust="spacing" textLength="8.271" x="118.0557" y="183.8838">1</text><text fill="#000000" font-family="sans-serif" font-size="13" lengthAdjust="spacing" textLength="23.0356" x="132.3939" y="229.9821">0..*</text></g><?plantuml-src hPBDJy904CNl_IicU03a8thbG0B4Ez4O3yR3q8umijt1dMqrCVxlJZ-0OkBDs_RNwNlpthOFaya4xZIo4wtEYUxP7p1W3gb3LVXAbfZkjq4Adwt4IO2d7KTA5Y78HmEMpYQIfOICGfTy9qc_rbzLIgHmJuvAz94QAzne39Z6rkbH2mmivjY7AyWn1auBXp03zh5cNdAoH_kA_ROcb2ExIwJaTzX58t2oPJyO6jo8k6glnl61qa3HJ17eCvBFBfSOGOcECxHGtXQDCZW4IKbLJ6dT7iU0HalCf9KVmrjXVRvoYf7ByoR3hg8rONfcz0-I1zBtWXN3mXLUTF2hkIfs_URvfIc3rI8VlNHjiQcwahgV8xRPKqj7PfsSM2tOWEQAgq0fYyVSnDfVgLDlxxPd27etq-brxwmu0omoZWZpluSRgzaf9in_0000?></g></svg>