<svg xmlns="http://www.w3.org/2000/svg" xmlns:xlink="http://www.w3.org/1999/xlink" contentStyleType="text/css" data-diagram-type="SALT" height="111px" preserveAspectRatio="none" style="width:179px;height:111px;background:#FFFFFF;" version="1.1" viewBox="0 0 179 111" width="179px" zoomAndPan="magnify"><?plantuml 1.2026.3beta6?><defs/><g><text fill="#000000" font-family="sans-serif" font-size="12" lengthAdjust="spacing" textLength="59.6133" x="6" y="17.1387">Matr&#237;cula:</text><text fill="#000000" font-family="sans-serif" font-size="12" lengthAdjust="spacing" textLength="121.3594" x="9" y="33.1074">Digite sua matr&#237;cula</text><line style="stroke:#000000;stroke-width:1;" x1="7" x2="170" y1="35.9375" y2="35.9375"/><line style="stroke:#000000;stroke-width:1;" x1="7" x2="7" y1="32.9375" y2="34.9375"/><line style="stroke:#000000;stroke-width:1;" x1="170" x2="170" y1="32.9375" y2="34.9375"/><text fill="#000000" font-family="sans-serif" font-size="12" lengthAdjust="spacing" textLength="41.6074" x="6" y="51.0762">Senha:</text><text fill="#000000" font-family="sans-serif" font-size="12" lengthAdjust="spacing" textLength="100.6523" x="9" y="67.0449">Digite sua senha</text><line style="stroke:#000000;stroke-width:1;" x1="7" x2="138" y1="69.875" y2="69.875"/><line style="stroke:#000000;stroke-width:1;" x1="7" x2="7" y1="66.875" y2="68.875"/><line style="stroke:#000000;stroke-width:1;" x1="138" x2="138" y1="66.875" y2="68.875"/><line style="stroke:#AAAAAA;stroke-width:1;" x1="6" x2="173" y1="77.375" y2="77.375"/><rect fill="#EEEEEE" height="17.9688" rx="5" ry="5" style="stroke:#000000;stroke-width:2.5;" width="84" x="8.5" y="84.375"/><text fill="#000000" font-family="sans-serif" font-size="12" lengthAdjust="spacing" textLength="37.1133" x="31.9434" y="97.5137">Entrar</text><line style="stroke:#000000;stroke-width:1;" x1="5" x2="173" y1="5" y2="5"/><line style="stroke:#000000;stroke-width:1;" x1="5" x2="173" y1="105.8438" y2="105.8438"/><line style="stroke:#000000;stroke-width:1;" x1="5" x2="5" y1="5" y2="20.9688"/><line style="stroke:#000000;stroke-width:1;" x1="173" x2="173" y1="20.9688" y2="38.9375"/><line style="stroke:#000000;stroke-width:1;" x1="173" x2="173" y1="5" y2="20.9688"/><line style="stroke:#000000;stroke-width:1;" x1="5" x2="5" y1="80.875" y2="105.8438"/><line style="stroke:#000000;stroke-width:1;" x1="5" x2="5" y1="72.875" y2="80.875"/><line style="stroke:#000000;stroke-width:1;" x1="173" x2="173" y1="80.875" y2="105.8438"/><line style="stroke:#000000;stroke-width:1;" x1="5" x2="5" y1="54.9063" y2="72.875"/><line style="stroke:#000000;stroke-width:1;" x1="173" x2="173" y1="72.875" y2="80.875"/><line style="stroke:#000000;stroke-width:1;" x1="5" x2="5" y1="38.9375" y2="54.9063"/><line style="stroke:#000000;stroke-width:1;" x1="173" x2="173" y1="54.9063" y2="72.875"/><line style="stroke:#000000;stroke-width:1;" x1="5" x2="5" y1="20.9688" y2="38.9375"/><line style="stroke:#000000;stroke-width:1;" x1="173" x2="173" y1="38.9375" y2="54.9063"/><?plantuml-src SoWkIImgAKxCAU6grkRoJImfEhmskJGdqOfBoIKpFRCaLQ6uD54X5owkn1MScfU19bqC4bBYqjNbYbPGSCqhAKeiKb28vQhbSaZDIm6RpMMePsHWPAPdd9HQacW60000?></g></svg>