<svg xmlns="http://www.w3.org/2000/svg" xmlns:xlink="http://www.w3.org/1999/xlink" contentStyleType="text/css" data-diagram-type="MINDMAP" height="527px" preserveAspectRatio="none" style="width:812px;height:527px;background:#FFFFFF;" version="1.1" viewBox="0 0 812 527" width="812px" zoomAndPan="magnify"><?plantuml 1.2026.3beta6?><defs/><g><rect fill="#F1F1F1" height="36.2969" rx="12.5" ry="12.5" style="stroke:#181818;stroke-width:1.5;" width="154.4014" x="10" y="245.1875"/><text fill="#000000" font-family="sans-serif" font-size="14" lengthAdjust="spacing" textLength="134.4014" x="20" y="268.1826">Gest&#227;o de est&#225;gios</text><rect fill="#F1F1F1" height="36.2969" rx="12.5" ry="12.5" style="stroke:#181818;stroke-width:1.5;" width="162.0986" x="214.4014" y="104.4453"/><text fill="#000000" font-family="sans-serif" font-size="14" lengthAdjust="spacing" textLength="142.0986" x="224.4014" y="127.4404">Gest&#227;o de contratos</text><rect fill="#F1F1F1" height="36.2969" rx="12.5" ry="12.5" style="stroke:#181818;stroke-width:1.5;" width="180.9521" x="426.5" y="20"/><text fill="#000000" font-family="sans-serif" font-size="14" lengthAdjust="spacing" textLength="160.9521" x="436.5" y="42.9951">Valida&#231;&#227;o de contratos</text><path d="M376.5,122.5938 L386.5,122.5938 C401.5,122.5938 401.5,38.1484 416.5,38.1484 L426.5,38.1484" fill="none" style="stroke:#181818;stroke-width:1;"/><rect fill="#F1F1F1" height="36.2969" rx="12.5" ry="12.5" style="stroke:#181818;stroke-width:1.5;" width="182.2852" x="426.5" y="76.2969"/><text fill="#000000" font-family="sans-serif" font-size="14" lengthAdjust="spacing" textLength="162.2852" x="436.5" y="99.292">Gest&#227;o de documentos</text><path d="M376.5,122.5938 L386.5,122.5938 C401.5,122.5938 401.5,94.4453 416.5,94.4453 L426.5,94.4453" fill="none" style="stroke:#181818;stroke-width:1;"/><rect fill="#F1F1F1" height="36.2969" rx="12.5" ry="12.5" style="stroke:#181818;stroke-width:1.5;" width="226.2813" x="426.5" y="132.5938"/><text fill="#000000" font-family="sans-serif" font-size="14" lengthAdjust="spacing" textLength="206.2813" x="436.5" y="155.5889">Versionamento dos contratos</text><path d="M376.5,122.5938 L386.5,122.5938 C401.5,122.5938 401.5,150.7422 416.5,150.7422 L426.5,150.7422" fill="none" style="stroke:#181818;stroke-width:1;"/><rect fill="#F1F1F1" height="36.2969" rx="12.5" ry="12.5" style="stroke:#181818;stroke-width:1.5;" width="182.7568" x="426.5" y="188.8906"/><text fill="#000000" font-family="sans-serif" font-size="14" lengthAdjust="spacing" textLength="162.7568" x="436.5" y="211.8857">Reputa&#231;&#227;o da empresa</text><path d="M376.5,122.5938 L386.5,122.5938 C401.5,122.5938 401.5,207.0391 416.5,207.0391 L426.5,207.0391" fill="none" style="stroke:#181818;stroke-width:1;"/><path d="M164.4014,263.3359 L174.4014,263.3359 C189.4014,263.3359 189.4014,122.5938 204.4014,122.5938 L214.4014,122.5938" fill="none" style="stroke:#181818;stroke-width:1;"/><rect fill="#F1F1F1" height="36.2969" rx="12.5" ry="12.5" style="stroke:#181818;stroke-width:1.5;" width="245.4766" x="214.4014" y="273.3359"/><text fill="#000000" font-family="sans-serif" font-size="14" lengthAdjust="spacing" textLength="225.4766" x="224.4014" y="296.3311">Valida&#231;&#227;o do per&#237;odo de est&#225;gio</text><rect fill="#F1F1F1" height="36.2969" rx="12.5" ry="12.5" style="stroke:#181818;stroke-width:1.5;" width="281.4883" x="509.8779" y="245.1875"/><text fill="#000000" font-family="sans-serif" font-size="14" lengthAdjust="spacing" textLength="261.4883" x="519.8779" y="268.1826">Verifica&#231;&#227;o de &#225;rea de conhecimento</text><path d="M459.8779,291.4844 L469.8779,291.4844 C484.8779,291.4844 484.8779,263.3359 499.8779,263.3359 L509.8779,263.3359" fill="none" style="stroke:#181818;stroke-width:1;"/><rect fill="#F1F1F1" height="36.2969" rx="12.5" ry="12.5" style="stroke:#181818;stroke-width:1.5;" width="218.1191" x="509.8779" y="301.4844"/><text fill="#000000" font-family="sans-serif" font-size="14" lengthAdjust="spacing" textLength="198.1191" x="519.8779" y="324.4795">Verifica&#231;&#227;o de carga hor&#225;ria</text><path d="M459.8779,291.4844 L469.8779,291.4844 C484.8779,291.4844 484.8779,319.6328 499.8779,319.6328 L509.8779,319.6328" fill="none" style="stroke:#181818;stroke-width:1;"/><path d="M164.4014,263.3359 L174.4014,263.3359 C189.4014,263.3359 189.4014,291.4844 204.4014,291.4844 L214.4014,291.4844" fill="none" style="stroke:#181818;stroke-width:1;"/><rect fill="#F1F1F1" height="36.2969" rx="12.5" ry="12.5" style="stroke:#181818;stroke-width:1.5;" width="141.8643" x="214.4014" y="414.0781"/><text fill="#000000" font-family="sans-serif" font-size="14" lengthAdjust="spacing" textLength="121.8643" x="224.4014" y="437.0732">Gest&#227;o de alunos</text><rect fill="#F1F1F1" height="36.2969" rx="12.5" ry="12.5" style="stroke:#181818;stroke-width:1.5;" width="155.3994" x="406.2656" y="357.7813"/><text fill="#000000" font-family="sans-serif" font-size="14" lengthAdjust="spacing" textLength="135.3994" x="416.2656" y="380.7764">Cadastro de alunos</text><path d="M356.2656,432.2266 L366.2656,432.2266 C381.2656,432.2266 381.2656,375.9297 396.2656,375.9297 L406.2656,375.9297" fill="none" style="stroke:#181818;stroke-width:1;"/><rect fill="#F1F1F1" height="36.2969" rx="12.5" ry="12.5" style="stroke:#181818;stroke-width:1.5;" width="182.2852" x="406.2656" y="414.0781"/><text fill="#000000" font-family="sans-serif" font-size="14" lengthAdjust="spacing" textLength="162.2852" x="416.2656" y="437.0732">Gest&#227;o de documentos</text><path d="M356.2656,432.2266 L366.2656,432.2266 C381.2656,432.2266 381.2656,432.2266 396.2656,432.2266 L406.2656,432.2266" fill="none" style="stroke:#181818;stroke-width:1;"/><rect fill="#F1F1F1" height="36.2969" rx="12.5" ry="12.5" style="stroke:#181818;stroke-width:1.5;" width="246.4678" x="406.2656" y="470.375"/><text fill="#000000" font-family="sans-serif" font-size="14" lengthAdjust="spacing" textLength="226.4678" x="416.2656" y="493.3701">Versionamento dos documentos</text><path d="M356.2656,432.2266 L366.2656,432.2266 C381.2656,432.2266 381.2656,488.5234 396.2656,488.5234 L406.2656,488.5234" fill="none" style="stroke:#181818;stroke-width:1;"/><path d="M164.4014,263.3359 L174.4014,263.3359 C189.4014,263.3359 189.4014,432.2266 204.4014,432.2266 L214.4014,432.2266" fill="none" style="stroke:#181818;stroke-width:1;"/><?plantuml-src bL0x3eCm3DrpYimCg1-96Qb3zmxTtSI5IEGZnnm8TUZKK-HYfHHKG2pThFVyFdOP6OYjSTf24DaP8wU7bnhbP-eguwF8vh3oZWbuWBChD4P3UcvnCutsghNe9X5IDDx1WFHSNEek65gUF46Y3OGHn2hCou2KNbulkexsvcxKhrNg266iLwCoG-xcfWAgGDQUUec1vTtGjEvRy0GQ8jCA_UFS6LzY__Zn-MAV7tQ78Z_UaA5u0m00?></g></svg>