<svg xmlns="http://www.w3.org/2000/svg" xmlns:xlink="http://www.w3.org/1999/xlink" contentStyleType="text/css" data-diagram-type="MINDMAP" height="527px" preserveAspectRatio="none" style="width:611px;height:527px;background:#FFFFFF;" version="1.1" viewBox="0 0 611 527" width="611px" zoomAndPan="magnify"><?plantuml 1.2026.3beta6?><defs/><g><rect fill="#F1F1F1" height="36.2969" rx="12.5" ry="12.5" style="stroke:#181818;stroke-width:1.5;" width="91.8594" x="10" y="160.7422"/><text fill="#000000" font-family="sans-serif" font-size="14" lengthAdjust="spacing" textLength="71.8594" x="20" y="183.7373">Secretaria</text><rect fill="#F1F1F1" height="36.2969" rx="12.5" ry="12.5" style="stroke:#181818;stroke-width:1.5;" width="162.0986" x="151.8594" y="76.2969"/><text fill="#000000" font-family="sans-serif" font-size="14" lengthAdjust="spacing" textLength="142.0986" x="161.8594" y="99.292">Gest&#227;o de contratos</text><rect fill="#F1F1F1" height="36.2969" rx="12.5" ry="12.5" style="stroke:#181818;stroke-width:1.5;" width="180.9521" x="363.958" y="20"/><text fill="#000000" font-family="sans-serif" font-size="14" lengthAdjust="spacing" textLength="160.9521" x="373.958" y="42.9951">Valida&#231;&#227;o de contratos</text><path d="M313.958,94.4453 L323.958,94.4453 C338.958,94.4453 338.958,38.1484 353.958,38.1484 L363.958,38.1484" fill="none" style="stroke:#181818;stroke-width:1;"/><rect fill="#F1F1F1" height="36.2969" rx="12.5" ry="12.5" style="stroke:#181818;stroke-width:1.5;" width="182.2852" x="363.958" y="76.2969"/><text fill="#000000" font-family="sans-serif" font-size="14" lengthAdjust="spacing" textLength="162.2852" x="373.958" y="99.292">Gest&#227;o de documentos</text><path d="M313.958,94.4453 L323.958,94.4453 C338.958,94.4453 338.958,94.4453 353.958,94.4453 L363.958,94.4453" fill="none" style="stroke:#181818;stroke-width:1;"/><rect fill="#F1F1F1" height="36.2969" rx="12.5" ry="12.5" style="stroke:#181818;stroke-width:1.5;" width="226.2813" x="363.958" y="132.5938"/><text fill="#000000" font-family="sans-serif" font-size="14" lengthAdjust="spacing" textLength="206.2813" x="373.958" y="155.5889">Versionamento dos contratos</text><path d="M313.958,94.4453 L323.958,94.4453 C338.958,94.4453 338.958,150.7422 353.958,150.7422 L363.958,150.7422" fill="none" style="stroke:#181818;stroke-width:1;"/><path d="M101.8594,178.8906 L111.8594,178.8906 C126.8594,178.8906 126.8594,94.4453 141.8594,94.4453 L151.8594,94.4453" fill="none" style="stroke:#181818;stroke-width:1;"/><rect fill="#F1F1F1" height="36.2969" rx="12.5" ry="12.5" style="stroke:#181818;stroke-width:1.5;" width="141.8643" x="151.8594" y="245.1875"/><text fill="#000000" font-family="sans-serif" font-size="14" lengthAdjust="spacing" textLength="121.8643" x="161.8594" y="268.1826">Gest&#227;o de alunos</text><rect fill="#F1F1F1" height="36.2969" rx="12.5" ry="12.5" style="stroke:#181818;stroke-width:1.5;" width="155.3994" x="343.7236" y="188.8906"/><text fill="#000000" font-family="sans-serif" font-size="14" lengthAdjust="spacing" textLength="135.3994" x="353.7236" y="211.8857">Cadastro de alunos</text><path d="M293.7236,263.3359 L303.7236,263.3359 C318.7236,263.3359 318.7236,207.0391 333.7236,207.0391 L343.7236,207.0391" fill="none" style="stroke:#181818;stroke-width:1;"/><rect fill="#F1F1F1" height="36.2969" rx="12.5" ry="12.5" style="stroke:#181818;stroke-width:1.5;" width="182.2852" x="343.7236" y="245.1875"/><text fill="#000000" font-family="sans-serif" font-size="14" lengthAdjust="spacing" textLength="162.2852" x="353.7236" y="268.1826">Gest&#227;o de documentos</text><path d="M293.7236,263.3359 L303.7236,263.3359 C318.7236,263.3359 318.7236,263.3359 333.7236,263.3359 L343.7236,263.3359" fill="none" style="stroke:#181818;stroke-width:1;"/><rect fill="#F1F1F1" height="36.2969" rx="12.5" ry="12.5" style="stroke:#181818;stroke-width:1.5;" width="246.4678" x="343.7236" y="301.4844"/><text fill="#000000" font-family="sans-serif" font-size="14" lengthAdjust="spacing" textLength="226.4678" x="353.7236" y="324.4795">Versionamento dos documentos</text><path d="M293.7236,263.3359 L303.7236,263.3359 C318.7236,263.3359 318.7236,319.6328 333.7236,319.6328 L343.7236,319.6328" fill="none" style="stroke:#181818;stroke-width:1;"/><path d="M101.8594,178.8906 L111.8594,178.8906 C126.8594,178.8906 126.8594,263.3359 141.8594,263.3359 L151.8594,263.3359" fill="none" style="stroke:#181818;stroke-width:1;"/><rect fill="#F1F1F1" height="36.2969" rx="12.5" ry="12.5" style="stroke:#181818;stroke-width:1.5;" width="83.998" x="10" y="385.9297"/><text fill="#000000" font-family="sans-serif" font-size="14" lengthAdjust="spacing" textLength="63.998" x="20" y="408.9248">Carreiras</text><rect fill="#F1F1F1" height="36.2969" rx="12.5" ry="12.5" style="stroke:#181818;stroke-width:1.5;" width="182.7568" x="143.998" y="357.7813"/><text fill="#000000" font-family="sans-serif" font-size="14" lengthAdjust="spacing" textLength="162.7568" x="153.998" y="380.7764">Reputa&#231;&#227;o da empresa</text><path d="M93.998,404.0781 L103.998,404.0781 C118.998,404.0781 118.998,375.9297 133.998,375.9297 L143.998,375.9297" fill="none" style="stroke:#181818;stroke-width:1;"/><rect fill="#F1F1F1" height="36.2969" rx="12.5" ry="12.5" style="stroke:#181818;stroke-width:1.5;" width="213.04" x="143.998" y="414.0781"/><text fill="#000000" font-family="sans-serif" font-size="14" lengthAdjust="spacing" textLength="193.04" x="153.998" y="437.0732">Gest&#227;o de ofertas de vagas</text><path d="M93.998,404.0781 L103.998,404.0781 C118.998,404.0781 118.998,432.2266 133.998,432.2266 L143.998,432.2266" fill="none" style="stroke:#181818;stroke-width:1;"/><rect fill="#F1F1F1" height="36.2969" rx="12.5" ry="12.5" style="stroke:#181818;stroke-width:1.5;" width="112.4561" x="10" y="470.375"/><text fill="#000000" font-family="sans-serif" font-size="14" lengthAdjust="spacing" textLength="92.4561" x="20" y="493.3701">Coordena&#231;&#227;o</text><rect fill="#F1F1F1" height="36.2969" rx="12.5" ry="12.5" style="stroke:#181818;stroke-width:1.5;" width="245.4766" x="172.4561" y="470.375"/><text fill="#000000" font-family="sans-serif" font-size="14" lengthAdjust="spacing" textLength="225.4766" x="182.4561" y="493.3701">Valida&#231;&#227;o do per&#237;odo de est&#225;gio</text><path d="M122.4561,488.5234 L132.4561,488.5234 C147.4561,488.5234 147.4561,488.5234 162.4561,488.5234 L172.4561,488.5234" fill="none" style="stroke:#181818;stroke-width:1;"/><?plantuml-src bP2n2i8m48RtFaNc3aKhT2vqS5TmFvkp19fSk4jz7t5myYdwOYOjXLfSp1J-Fr-E-se9mC4QfotuB9tyZ2rZJ0raUNv42UEJb4RLaWiCWIJ6-GLwes5y_UfMZAPsiEWM25aCEPYIsCaNjyAW7zoCDA110c_IFoQi-mQOqJ2afoVqGrWM08NMCyfcOxeX1v1qlKENi8Q8DRgPopOQI7dayKrwWjCtZyvGL5fZrBietXVbhgoAmpKwhZu0?></g></svg>