<?xml version="1.0" encoding="us-ascii" standalone="no"?><svg xmlns="http://www.w3.org/2000/svg" xmlns:xlink="http://www.w3.org/1999/xlink" contentStyleType="text/css" height="100px" preserveAspectRatio="none" style="width:231px;height:100px;background:#FFFFFF;" version="1.1" viewBox="0 0 231 100" width="231px" zoomAndPan="magnify"><defs/><g><text fill="#000000" font-family="sans-serif" font-size="12" lengthAdjust="spacing" textLength="193" x="6" y="18.457">Receber Documentos (Empresas):</text><text fill="#000000" font-family="sans-serif" font-size="12" lengthAdjust="spacing" textLength="51" x="7" y="36.5508">Empresa</text><text fill="#000000" font-family="sans-serif" font-size="12" lengthAdjust="spacing" textLength="64" x="60" y="36.5508">Documento</text><text fill="#000000" font-family="sans-serif" font-size="12" lengthAdjust="spacing" textLength="27" x="141" y="36.5508">A&#231;&#227;o</text><text fill="#000000" font-family="sans-serif" font-size="12" lengthAdjust="spacing" textLength="37" x="7" y="53.6445">Faetec</text><text fill="#000000" font-family="sans-serif" font-size="12" lengthAdjust="spacing" textLength="79" x="60" y="53.6445">TCE Assinado</text><rect fill="#EEEEEE" height="19.0938" rx="5" ry="5" style="stroke:#000000;stroke-width:2.5;" width="76" x="143.5" y="43.6875"/><text fill="#000000" font-family="sans-serif" font-size="12" lengthAdjust="spacing" textLength="36" x="163.5" y="58.1445">Avaliar</text><text fill="#000000" font-family="sans-serif" font-size="12" lengthAdjust="spacing" textLength="31" x="7" y="79.7383">Firjan</text><text fill="#000000" font-family="sans-serif" font-size="12" lengthAdjust="spacing" textLength="50" x="60" y="79.7383">Relat&#243;rio</text><rect fill="#EEEEEE" height="19.0938" rx="5" ry="5" style="stroke:#000000;stroke-width:2.5;" width="76" x="143.5" y="69.7813"/><text fill="#000000" font-family="sans-serif" font-size="12" lengthAdjust="spacing" textLength="36" x="163.5" y="84.2383">Avaliar</text><line style="stroke:#000000;stroke-width:1.0;" x1="6" x2="59" y1="23.0938" y2="23.0938"/><line style="stroke:#000000;stroke-width:1.0;" x1="59" x2="140" y1="40.1875" y2="40.1875"/><line style="stroke:#000000;stroke-width:1.0;" x1="140" x2="223" y1="66.2813" y2="66.2813"/><line style="stroke:#000000;stroke-width:1.0;" x1="59" x2="140" y1="23.0938" y2="23.0938"/><line style="stroke:#000000;stroke-width:1.0;" x1="140" x2="223" y1="40.1875" y2="40.1875"/><line style="stroke:#000000;stroke-width:1.0;" x1="140" x2="223" y1="23.0938" y2="23.0938"/><line style="stroke:#000000;stroke-width:1.0;" x1="6" x2="59" y1="92.375" y2="92.375"/><line style="stroke:#000000;stroke-width:1.0;" x1="59" x2="140" y1="92.375" y2="92.375"/><line style="stroke:#000000;stroke-width:1.0;" x1="6" x2="59" y1="66.2813" y2="66.2813"/><line style="stroke:#000000;stroke-width:1.0;" x1="140" x2="223" y1="92.375" y2="92.375"/><line style="stroke:#000000;stroke-width:1.0;" x1="6" x2="59" y1="40.1875" y2="40.1875"/><line style="stroke:#000000;stroke-width:1.0;" x1="59" x2="140" y1="66.2813" y2="66.2813"/><line style="stroke:#000000;stroke-width:1.0;" x1="6" x2="6" y1="23.0938" y2="40.1875"/><line style="stroke:#000000;stroke-width:1.0;" x1="59" x2="59" y1="40.1875" y2="66.2813"/><line style="stroke:#000000;stroke-width:1.0;" x1="140" x2="140" y1="66.2813" y2="92.375"/><line style="stroke:#000000;stroke-width:1.0;" x1="223" x2="223" y1="66.2813" y2="92.375"/><line style="stroke:#000000;stroke-width:1.0;" x1="59" x2="59" y1="23.0938" y2="40.1875"/><line style="stroke:#000000;stroke-width:1.0;" x1="140" x2="140" y1="40.1875" y2="66.2813"/><line style="stroke:#000000;stroke-width:1.0;" x1="223" x2="223" y1="40.1875" y2="66.2813"/><line style="stroke:#000000;stroke-width:1.0;" x1="140" x2="140" y1="23.0938" y2="40.1875"/><line style="stroke:#000000;stroke-width:1.0;" x1="223" x2="223" y1="23.0938" y2="40.1875"/><line style="stroke:#000000;stroke-width:1.0;" x1="6" x2="6" y1="66.2813" y2="92.375"/><line style="stroke:#000000;stroke-width:1.0;" x1="6" x2="6" y1="40.1875" y2="66.2813"/><line style="stroke:#000000;stroke-width:1.0;" x1="59" x2="59" y1="66.2813" y2="92.375"/><line style="stroke:#000000;stroke-width:1.0;" x1="5" x2="224" y1="5" y2="5"/><line style="stroke:#000000;stroke-width:1.0;" x1="5" x2="224" y1="93.375" y2="93.375"/><line style="stroke:#000000;stroke-width:1.0;" x1="5" x2="5" y1="5" y2="22.0938"/><line style="stroke:#000000;stroke-width:1.0;" x1="224" x2="224" y1="22.0938" y2="93.375"/><line style="stroke:#000000;stroke-width:1.0;" x1="224" x2="224" y1="5" y2="22.0938"/><line style="stroke:#000000;stroke-width:1.0;" x1="5" x2="5" y1="22.0938" y2="93.375"/><!--SRC=[POzDJiD038NtSmfBR18XgYQqNMJLlnHKDLALXcuG2pSnPL0w4yquaL3fQLXm08wGYp5fGIpOMFRpP_jvR1aDMonP7Ay5G4evxSZ0NEVrWHHh2rvyg0nPj7xaWEEL2m0_6hp_aIwVj9_jXpu32oIct6dPB8Q9jL9XqI6FC6cmb6ZWwS99yuhADL8gaTil8_zJ9t4IOrB5sQPObwZu8Lb1GyPAhI3eXVrmqBlrifSQ5hI3O0Z1A1hqe_uGfca6NTiNtjrwrOHWTMroWa9QDd9NizlWYoKs26cjM1ueWgxoiiI7JVmhGgmQQRJgFXNBRNA1u5xpfj9yXaU3cwbas91nnc2RY3azOrso6yrr8TK-WbaLXCDGh53jQzoxInMBcNONp5lad7u3]--></g></svg>